<svg width="12" height="16" viewBox="0 0 12 16" fill="none" xmlns="http://www.w3.org/2000/svg">
<g clip-path="url(#clip0)">
<path d="M2.73125 15.6834C4.68247 13.9847 6.68247 12.2464 8.63369 10.5476C9.6093 9.71804 12.2435 8.21681 11.9508 6.8736C11.7069 5.72792 9.51174 4.9773 8.48735 4.38471C6.19466 3.16002 3.90198 1.93533 2.04832 0.276071C0.975156 -0.672076 -0.732162 0.750145 0.341009 1.65878C1.46296 2.64644 2.68247 3.51557 4.04832 4.3057C4.87759 4.81928 5.75564 5.25384 6.63369 5.72792C7.17027 6.04397 8.58491 6.47854 8.87759 6.95261C9.26784 7.5057 8.48735 7.78224 7.8532 8.33533C7.12149 8.96742 6.38979 9.59952 5.65808 10.2316C4.0971 11.5748 2.53613 12.918 0.975154 14.3007C-0.0492365 15.2094 1.65808 16.6316 2.73125 15.6834Z" fill="#950000"/>
</g>
<defs>
<clipPath id="clip0">
<rect width="12" height="16" fill="white"/>
</clipPath>
</defs>
</svg>
