<svg width="12" height="16" viewBox="0 0 12 16" fill="none" xmlns="http://www.w3.org/2000/svg">
<path d="M2.73156 15.6832C4.68278 13.9845 6.68278 12.2462 8.634 10.5474C9.60961 9.7178 12.2438 8.21657 11.9511 6.87336C11.7072 5.72768 9.51205 4.97706 8.48766 4.38447C6.19497 3.15978 3.90229 1.93509 2.04863 0.275827C0.975462 -0.67232 -0.731856 0.749901 0.341315 1.65854C1.46327 2.6462 2.68278 3.51533 4.04863 4.30546C4.8779 4.81904 5.75595 5.2536 6.634 5.72768C7.17058 6.04373 8.58522 6.4783 8.8779 6.95237C9.26815 7.50546 8.48766 7.782 7.85351 8.33509C7.1218 8.96718 6.3901 9.59928 5.65839 10.2314C4.09741 11.5746 2.53644 12.9178 0.97546 14.3005C-0.0489301 15.2092 1.65839 16.6314 2.73156 15.6832Z" fill="white"/>
</svg>
