<svg width="54" height="51" viewBox="0 0 54 51" fill="none" xmlns="http://www.w3.org/2000/svg">
<path d="M24.4307 0.0832697C16.6973 0.298087 9.39346 2.51787 5.38353 7.81671C1.3736 13.1155 0.0846954 20.1329 0.657543 26.7923C1.15878 33.38 3.66499 40.111 8.82061 44.3357C13.5466 48.2024 19.7763 49.5629 25.8628 50.2074C30.8036 50.7086 35.9593 50.8519 40.4704 48.7037C44.7668 46.6271 47.9174 42.6888 50.0656 38.464C52.5718 33.5232 53.9323 27.938 53.4311 22.4243C52.9298 16.9107 50.352 11.5402 45.9841 8.10313C43.4063 6.02656 40.7568 3.94999 37.7494 2.66108C33.6679 0.942541 28.7987 -0.346366 24.4307 0.0832697Z" fill="#27336B"/>
</svg>
