<svg width="16" height="16" viewBox="0 0 16 16" fill="none" xmlns="http://www.w3.org/2000/svg">
<path d="M15.9506 6.62417C15.3665 8.22761 13.5781 8.37676 12.3371 9.30899C11.6437 9.79377 11.5706 9.75642 11.8626 10.5395C12.0086 11.0243 12.4101 11.4718 12.5927 11.9565C12.9212 12.7396 13.0671 13.4108 13.1766 14.2685C13.2496 15.0516 12.3371 15.3126 11.7897 15.0888C10.5486 14.4922 8.90621 12.1057 7.59224 12.3667C7.04475 12.4785 6.24177 13.9329 5.84029 14.3803C5.36579 14.9024 4.8548 15.3498 4.23432 15.6855C3.57734 16.0583 2.95685 15.5736 2.84736 14.8651C2.66486 13.0752 4.01533 11.8074 4.59931 10.2412C3.43134 9.30899 1.67938 8.67508 0.438416 8.00387C-0.182069 7.66827 -0.10907 6.77333 0.438416 6.40043C1.86188 5.4682 3.97883 5.72923 5.73078 5.8411C6.20528 4.0885 6.75276 2.37319 7.33675 0.657891C7.62874 -0.162473 8.86971 -0.27434 9.0887 0.657891C9.30769 1.62741 9.52669 2.59693 9.70922 3.56645C9.78217 4.01392 9.85521 4.4241 9.92816 4.87157C9.96468 5.09531 10.0012 5.31904 10.0377 5.54278C10.0012 5.91567 10.0741 5.95296 10.2932 5.76651C10.6946 5.87838 12.0817 5.43091 12.5927 5.39363C13.4321 5.35633 14.235 5.39363 15.0746 5.50549C15.6221 5.50549 16.1695 5.99025 15.9506 6.62417Z" fill="#44548D"/>
</svg>
