<svg width="228" height="215" viewBox="0 0 228 215" fill="none" xmlns="http://www.w3.org/2000/svg">
<g>
<path d="M93.3222 150.623C104.442 158.227 119.487 154.461 129.372 146.858C130.898 145.699 128.936 143.599 127.41 144.685C116.944 152.071 104.152 154.316 92.9588 147.075C88.9614 144.468 86.4902 140.63 84.8186 136.357C84.2371 134.837 83.6557 133.316 83.0742 131.723C82.9289 131.288 82.7835 130.854 82.6381 130.419C82.6381 129.623 82.4928 129.188 82.2021 128.971C82.2021 128.754 82.1294 128.609 81.984 128.392C81.9113 128.319 81.8387 128.247 81.8387 128.174C81.3299 127.523 80.167 127.957 80.167 128.754C80.2397 137.299 86.5629 145.989 93.3222 150.623Z" fill="#E5E2E2"/>
<path d="M115.563 162.354C112.292 161.63 109.094 161.413 105.751 161.341C102.48 161.268 98.0465 161.92 94.5578 161.196C94.4124 160.978 94.1217 160.761 93.6856 160.761C93.3222 160.761 92.9588 160.689 92.5954 160.689C91.1418 160.689 90.7784 162.499 92.0866 163.078C94.9939 164.382 99.2094 164.02 102.335 164.092C106.55 164.237 110.766 164.382 114.981 165.106C116.58 165.396 117.162 162.644 115.563 162.354Z" fill="#E5E2E2"/>
<path d="M93.9762 171.841C92.4499 171.551 91.6504 173.723 93.1767 174.158C100.517 176.186 108.512 175.751 115.926 174.448C117.743 174.086 117.234 171.334 115.417 171.623C108.294 172.637 101.026 173.289 93.9762 171.841Z" fill="#E5E2E2"/>
<path d="M90.851 183.934C98.8459 182.486 106.768 181.544 114.908 181.255C116.725 181.182 116.943 178.503 115.126 178.43C106.841 178.358 98.4825 179.589 90.4149 181.544C88.9613 181.979 89.3974 184.224 90.851 183.934Z" fill="#E5E2E2"/>
<path d="M95.6481 187.12C93.7584 187.41 94.3399 190.307 96.1569 190.017C101.463 189.22 106.696 188.931 112.074 188.858C113.964 188.858 114.254 186.034 112.292 185.962C106.696 185.6 101.099 186.251 95.6481 187.12Z" fill="#E5E2E2"/>
<path d="M87.2169 169.089C82.1293 180.458 86.054 196.317 92.2319 206.527C97.901 215.797 114.036 219.852 117.598 206.455C117.888 205.441 117.089 204.355 115.999 204.572C115.853 204.572 115.708 204.645 115.562 204.645C114.908 204.427 114.182 204.645 113.818 205.441C113.745 205.514 113.745 205.658 113.673 205.731C113.382 206.31 113.745 207.034 114.254 207.396C111.056 214.638 101.244 212.176 96.7381 207.614C93.4675 204.283 91.5778 199.431 90.1242 195.086C87.5803 187.337 86.1994 177.417 89.5427 169.813C90.1242 168.437 87.7984 167.713 87.2169 169.089Z" fill="#E5E2E2"/>
<path d="M73.1898 134.475C73.0444 134.692 72.9718 134.981 73.0444 135.271C75.0795 143.744 81.5481 150.985 89.543 155.692C89.3977 155.909 89.325 156.127 89.3977 156.416C89.9064 160.978 86.9265 165.685 90.5605 169.306C89.8337 172.927 87.2172 179.734 89.3977 183.282C88.8162 186.903 86.5631 192.769 89.2523 195.593C89.4703 195.81 89.6884 195.955 89.9064 196.172C88.3074 199.938 90.2698 204.934 92.741 207.903C95.5028 211.234 106.623 212.683 110.402 211.162C112.438 210.293 113.6 208.555 115.345 207.324C117.743 205.514 120.142 203.848 122.395 201.82C124.066 200.3 125.665 198.055 125.302 196.1C125.665 195.882 126.029 195.665 126.465 195.303C129.808 192.406 129.009 185.093 129.154 181.255C129.154 180.82 129.009 180.458 128.791 180.096C128.863 180.024 128.936 179.951 129.009 179.806C130.898 177.055 131.48 171.985 130.172 168.582C130.753 168.147 131.262 167.641 131.698 166.989C133.806 163.73 133.588 157.937 131.698 154.461C142.673 148.958 151.249 138.819 154.592 126.581C160.044 106.957 147.978 90.229 129.372 84.5082C109.821 78.4978 76.1697 86.3186 69.7011 108.333C67.8841 114.343 69.265 125.35 73.1898 134.475ZM124.503 182.341C124.575 182.341 124.575 182.341 124.575 182.341C124.648 182.413 124.793 182.486 124.866 182.486C124.721 185.237 124.721 187.989 124.066 190.669C123.412 193.638 113.964 192.406 112.001 192.551C106.26 192.913 100.518 193.638 94.7034 193.855C90.9966 194 91.36 188.786 91.6508 185.093C96.5204 187.12 104.879 184.079 109.53 183.499C114.618 182.848 119.488 182.268 124.503 182.341ZM111.347 205.007C107.713 207.831 104.079 207.252 99.6457 206.745C94.2673 206.093 92.5956 202.11 92.3049 197.476C96.8838 198.996 103.425 197.258 107.641 196.896C111.929 196.534 116.435 196.172 120.723 196.534C120.868 196.679 120.941 196.824 121.159 196.969C121.523 197.186 112.438 204.21 111.347 205.007ZM123.122 178.286C118.325 178.213 113.673 178.937 108.876 179.589C105.024 180.096 101.245 180.748 97.3926 181.472C90.6332 182.703 92.1595 175.534 92.741 170.754C97.8286 173.144 106.042 171.044 111.057 170.682C114.618 170.465 121.377 171.261 126.32 170.103C126.901 173.361 126.828 178.358 123.122 178.286ZM125.447 165.975C118.979 167.061 111.347 166.772 104.733 167.134C99.5003 167.423 91.4327 169.234 92.4503 160.906C92.6683 159.385 92.6683 158.154 92.1595 157.068C100.372 161.123 109.894 162.427 118.107 159.747C118.833 159.53 119.342 159.023 119.56 158.371C122.613 157.865 125.593 156.996 128.427 155.837C129.227 159.168 129.881 165.251 125.447 165.975ZM75.9517 103.553C86.9992 86.1014 116.29 83.0599 133.733 90.229C149.868 96.8912 154.883 114.198 149.214 129.695C143.182 146.206 127.264 154.244 110.548 155.113C109.748 155.185 109.312 155.62 109.094 156.271C101.39 156.127 93.4678 153.592 86.9992 149.175C88.8889 149.609 90.924 149.682 93.0317 149.102C94.4126 148.74 94.0492 146.64 92.5956 146.93C74.9342 150.623 69.1924 114.198 75.9517 103.553Z" fill="#47548F"/>
<path d="M92.3048 122.599C94.3399 124.192 95.9389 123.467 98.0466 122.092C101.681 119.774 102.189 115.719 101.753 111.736C101.608 110.216 98.9188 110.288 98.9915 111.881C99.2095 116.009 98.192 118.905 94.4852 120.643C88.0167 115.792 94.1945 107.174 101.535 109.998C102.771 110.433 103.425 108.55 102.189 108.116C95.5028 105.364 86.9991 110.722 89.2522 118.398C89.8337 119.992 90.9966 121.512 92.3048 122.599Z" fill="#47548F"/>
<path d="M113.964 56.6285C114.327 38.0903 111.71 19.6245 112.001 1.08624C112.001 -0.217228 109.966 -0.434473 109.966 0.941412C109.167 19.4072 110.257 38.0179 110.984 56.4113C110.984 58.2941 113.891 58.5837 113.964 56.6285Z" fill="#47548F"/>
<path d="M38.8117 39.4661C46.5158 38.6696 53.6386 50.3284 57.4906 55.6147C62.3603 62.2044 66.5031 69.5183 72.2449 75.4564C73.4804 76.7598 75.5882 74.9495 74.4253 73.5736C67.8113 66.1148 62.651 57.3526 56.4004 49.6042C52.2576 44.4628 46.0797 36.7144 38.5936 37.5833C37.2127 37.7282 37.5761 39.611 38.8117 39.4661Z" fill="#47548F"/>
<path d="M181.993 79.0047C194.494 76.8323 205.251 69.4459 218.042 68.1425C219.278 67.9976 219.205 65.8976 217.897 65.8976C205.178 66.1149 193.549 72.9943 181.411 76.0357C179.594 76.5426 180.03 79.2944 181.993 79.0047Z" fill="#47548F"/>
<path d="M226.983 139.399C210.048 137.299 194.494 123.83 176.905 127.088C175.234 127.378 175.306 130.202 177.051 130.13C194.858 129.333 209.394 140.195 226.765 141.789C228.291 141.861 228.436 139.544 226.983 139.399Z" fill="#47548F"/>
<path d="M164.695 156.054C163.314 154.823 161.279 156.489 162.515 158.009C170.219 167.134 178.287 176.403 186.936 184.731C187.88 185.672 189.479 184.296 188.535 183.355C179.885 174.955 173.78 164.02 164.695 156.054Z" fill="#47548F"/>
<path d="M158.735 48.2284C165.131 39.5386 168.038 28.2418 167.748 17.5244C167.675 16.1485 165.567 15.9313 165.567 17.3796C165.567 28.3143 162.296 37.511 156.482 46.7077C155.537 48.2284 157.718 49.6767 158.735 48.2284Z" fill="#47548F"/>
<path d="M0.944889 102.54C16.644 104.35 30.6714 110.795 45.7163 114.85C47.4607 115.357 48.4055 112.822 46.6612 112.171C32.125 106.812 16.644 101.743 1.09025 100.512C-0.290686 100.367 -0.436048 102.395 0.944889 102.54Z" fill="#47548F"/>
<path d="M25.5833 168.51C38.5932 162.572 52.9113 156.923 62.5052 145.844C63.5954 144.613 61.415 142.73 60.3248 143.889C50.2948 154.316 37.4303 160.109 24.7111 166.554C23.4029 167.206 24.275 169.089 25.5833 168.51Z" fill="#47548F"/>
</g>
<defs>
<clipPath id="clip0">
<rect width="228" height="215" fill="white"/>
</clipPath>
</defs>
</svg>
