<svg width="142" height="111" viewBox="0 0 142 111" fill="none" xmlns="http://www.w3.org/2000/svg">
<path d="M4.70705 23.7863C4.10961 23.8462 3.75114 24.5652 3.99012 25.1644C3.75114 25.6437 3.57191 26.1829 3.45242 26.7222C3.27319 27.5011 4.10961 28.0403 4.64731 27.8006C4.58757 29.7778 4.2291 32.3542 4.16935 33.0732C3.99012 36.9677 3.6914 40.8621 3.33293 44.6967C2.73548 51.8266 2.25753 58.8966 1.77957 66.0265C1.06264 77.0509 -1.74536 88.9141 2.616 99.5191C5.3045 106.11 12.8323 108.566 19.225 109.585C27.2905 110.903 35.834 109.765 43.8995 108.926C57.1628 107.548 70.6053 108.267 83.9283 108.267C95.5785 108.267 107.169 106.769 118.819 107.488C124.136 107.787 132.979 108.986 136.862 104.312C137.22 104.133 137.519 103.773 137.639 103.414C137.878 102.755 138.595 98.2609 137.997 98.5604C138.535 98.3208 139.013 97.6617 139.013 97.0626C139.192 76.1522 143.255 54.6426 141.522 33.7322C141.044 27.9804 139.371 22.4083 133.457 20.6108C126.227 18.394 117.326 20.2513 109.977 20.8505C105.377 21.21 100.657 21.2699 95.937 21.1501C96.2954 18.0345 96.4149 14.9189 96.8929 11.8033C97.3111 9.4666 97.8488 6.05143 96.4149 3.9544C92.2328 -2.21686 80.5229 0.479324 74.2497 0.419409C68.9922 0.359494 63.7347 0.838815 58.5369 0.7789C56.0276 0.838815 52.3235 0.479324 50.1727 2.39661C48.6193 3.77466 48.4401 6.35101 48.5596 8.26829C48.7388 11.5037 47.7829 15.0986 48.918 18.1543L48.9778 18.2142C45.871 17.9746 42.7643 17.7349 39.6576 17.5551C31.3531 17.0159 10.5023 14.5594 4.70705 23.7863ZM111.829 103.653C100.059 103.114 87.991 104.911 76.1615 104.852C65.7062 104.792 55.1912 104.432 44.7956 105.511C35.8937 106.409 26.932 107.488 18.0301 106.05C4.46808 103.833 3.21344 91.8499 3.81089 80.1066C4.16935 73.0965 4.70705 66.0265 5.18501 59.0164C11.8764 60.9936 20.4796 59.316 27.2307 59.2561C30.6362 59.2561 34.0416 59.1962 37.4471 59.1363C37.4471 61.2932 37.4471 63.4502 37.3873 65.6071C37.3873 66.5058 37.925 67.105 38.8212 67.2248C41.8084 67.6442 44.6762 68.483 47.7231 68.3632C48.5596 68.3632 49.396 67.824 49.396 66.9252C49.5155 64.289 49.5752 61.5928 49.8739 58.9565C54.534 58.8966 59.1941 58.8966 63.8542 58.9565C72.8158 59.0764 81.7775 59.0164 90.6795 58.9565C90.6197 60.8139 90.6197 62.6713 90.6197 64.5286C90.6197 66.4459 90.5002 68.3033 92.3523 69.3818C95.0408 70.9396 101.792 71.7784 103.166 68.3033C104.241 65.6071 104.48 62.1919 104.301 58.8966C115.354 58.7768 126.407 58.6569 137.459 58.6569C136.862 66.7455 136.444 74.834 135.966 82.9226C135.787 86.158 136.862 94.2466 135.548 96.2238C135.07 96.9427 135.01 98.0212 134.89 98.8001C134.831 99.6389 134.771 100.478 134.711 101.257C134.592 101.736 134.592 102.036 134.651 102.215C129.513 106.649 117.983 103.953 111.829 103.653ZM39.4784 52.1861C41.0317 51.527 42.8241 51.4671 44.4969 51.527C46.4087 51.587 47.6634 51.587 47.5439 53.6241C47.4841 54.403 47.4244 55.1819 47.3049 56.0207C44.7956 56.0806 42.2266 56.1405 39.7174 56.1405C39.5979 54.8224 39.5381 53.5042 39.4784 52.1861ZM46.9464 58.8966C46.7075 60.9337 46.4685 63.0308 46.349 65.1278C44.3177 65.0079 42.2864 64.5885 40.3148 64.289C40.1356 62.5514 39.9563 60.754 39.8368 59.0164C42.2266 58.9565 44.5567 58.9565 46.9464 58.8966ZM93.1887 51.8865C96.1759 51.8865 100.358 51.7068 100.776 54.6426C100.836 55.1219 100.896 55.6013 100.896 56.0207C98.3268 56.0806 95.7577 56.0806 93.129 56.1405C93.1887 54.7025 93.1887 53.2646 93.1887 51.8865ZM101.075 58.7768C101.075 60.9936 100.896 63.2105 100.597 65.3674C100.358 67.2248 100.418 67.105 98.6255 67.105C98.028 67.105 94.0849 67.2847 93.9057 66.3261C93.368 63.9295 93.2485 61.3531 93.2485 58.8367C95.8175 58.8367 98.4462 58.8367 101.075 58.7768ZM89.604 20.9703C90.082 18.1543 90.2015 14.3796 88.7079 11.8033C90.56 11.8033 92.5315 11.6835 94.1446 11.0244C94.0849 14.5594 93.368 18.5737 92.89 21.0901C91.8146 21.0901 90.6795 21.0302 89.604 20.9703ZM57.4615 18.9332C56.9835 15.8176 56.9835 11.9231 60.6877 11.2641C64.2126 10.605 68.096 11.1442 71.6807 11.3839C74.3094 11.5636 76.9382 11.3839 79.567 11.3839C85.6609 11.3839 87.2143 15.7577 86.4376 20.8505C81.3593 20.5509 76.3408 20.1914 71.382 19.8918C66.6621 19.6522 62.0618 19.2927 57.4615 18.9332ZM56.7446 3.71474C62.5398 3.59491 68.335 3.41517 74.19 3.41517C79.7462 3.47508 86.1389 2.57635 91.5756 3.71474C93.0692 4.01432 93.7862 5.75186 94.0251 8.02863C92.5913 8.56787 91.3964 9.22694 89.843 9.4666C88.7676 9.64634 87.6325 9.64634 86.5571 9.70626C82.0165 7.12991 75.6836 8.6877 70.6053 8.38813C67.0206 8.20838 59.7318 7.01008 56.6251 9.70626C55.8484 9.34677 55.012 9.04719 54.2353 8.74762C53.3989 8.44804 52.5624 8.08855 51.6663 7.96872C52.0845 5.5122 53.0404 3.83457 56.7446 3.71474ZM50.9493 17.4353C50.1129 16.3568 51.1883 12.5822 51.3078 11.2641C51.3078 11.2041 51.3078 11.0843 51.3078 11.0244C51.965 11.2041 52.6819 11.324 53.2794 11.4438C53.9366 11.6235 54.534 11.7434 55.1912 11.8632C54.4743 13.9003 54.773 16.5965 55.3704 18.8134C53.8768 18.6935 52.3832 18.5737 50.8896 18.4539C51.1883 18.1543 51.2481 17.7349 50.9493 17.4353ZM25.3189 19.4724C33.3844 19.2927 41.5097 20.1914 49.5752 20.9703C63.6749 22.3484 78.1928 23.9661 92.5913 24.3256C93.1887 25.4639 95.0408 25.8234 95.459 24.3855C101.613 24.4454 107.647 24.3256 113.681 23.8462C120.193 23.307 133.636 20.4311 136.981 27.9205C140.148 34.9905 138.475 44.9963 137.878 52.4857C137.818 53.4443 137.758 54.403 137.639 55.3616C126.407 55.4814 115.234 55.7211 104.002 55.9008C103.883 55.062 103.823 54.2232 103.704 53.4443C102.808 48.052 95.1006 48.6511 91.1574 49.0705C89.7235 49.2503 89.843 51.2874 91.0379 51.6469C90.9184 53.0848 90.7989 54.5827 90.7392 56.0207C82.7932 56.0806 74.8472 56.0806 66.8414 55.8409C61.3449 55.7211 55.7886 55.7211 50.2921 55.781C50.6506 54.0435 51.0688 51.7667 50.0532 50.3887C47.9621 47.4528 41.7487 47.7524 38.5822 49.1304C38.1043 49.0106 37.5068 49.2503 37.5068 49.9093C37.2678 50.3287 37.2678 50.868 37.4471 51.2874C37.3873 52.8452 37.3873 54.403 37.3873 55.9608C34.9975 56.0207 32.6078 56.0207 30.1582 56.0806C21.9732 56.1405 13.4298 55.9008 5.24476 56.5599C5.24476 56.3802 5.24476 56.2004 5.3045 55.9608C5.78246 48.7709 6.32016 41.5811 6.49939 34.3314C6.55914 32.3542 7.21633 27.3812 6.02143 24.8648C9.78534 19.6522 19.6432 19.5923 25.3189 19.4724Z" fill="white"/>
</svg>
