<svg width="52" height="41" viewBox="0 0 52 41" fill="none" xmlns="http://www.w3.org/2000/svg">
<path d="M1.81706 8.84093C1.59868 8.8632 1.46766 9.13043 1.55501 9.35312C1.46766 9.53128 1.40214 9.7317 1.35847 9.93213C1.29296 10.2216 1.59868 10.4221 1.79522 10.333C1.77338 11.0679 1.64236 12.0254 1.62052 12.2927C1.55501 13.7402 1.44582 15.1877 1.31479 16.6129C1.09642 19.263 0.921715 21.8908 0.747014 24.5408C0.484962 28.6384 -0.541408 33.0477 1.05274 36.9894C2.03544 39.439 4.78698 40.3521 7.12361 40.7306C10.0717 41.2206 13.1945 40.7975 16.1426 40.4857C20.9905 39.9735 25.904 40.2407 30.7738 40.2407C35.0321 40.2407 39.2686 39.684 43.527 39.9512C45.4705 40.0626 48.7025 40.5079 50.122 38.7709C50.253 38.7041 50.3622 38.5705 50.4058 38.4369C50.4932 38.1919 50.7553 36.5217 50.5369 36.6331C50.7334 36.544 50.9081 36.299 50.9081 36.0763C50.9736 28.3043 52.4586 20.3096 51.8253 12.5376C51.6506 10.3998 51.0391 8.32873 48.8772 7.66065C46.2349 6.83669 42.981 7.52704 40.295 7.74973C38.6135 7.88335 36.8883 7.90561 35.1632 7.86108C35.2942 6.70307 35.3379 5.54506 35.5126 4.38706C35.6654 3.51855 35.862 2.2492 35.3379 1.46977C33.8092 -0.823971 29.5291 0.17815 27.2361 0.155881C25.3144 0.133611 23.3927 0.311766 21.4928 0.289497C20.5756 0.311766 19.2217 0.17815 18.4355 0.890769C17.8677 1.40296 17.8022 2.36055 17.8459 3.07317C17.9114 4.27571 17.562 5.61187 17.9769 6.74761L17.9988 6.76988C16.8632 6.6808 15.7276 6.59172 14.5921 6.52492C11.5567 6.32449 3.93531 5.41145 1.81706 8.84093ZM40.972 38.526C36.67 38.3256 32.2588 38.9936 27.9349 38.9714C24.1133 38.9491 20.2699 38.8155 16.4701 39.2163C13.2163 39.5504 9.94067 39.9512 6.68686 39.4167C1.72971 38.5928 1.27112 34.1389 1.48949 29.7741C1.62052 27.1686 1.81706 24.5408 1.99176 21.9353C4.43758 22.6702 7.5822 22.0467 10.0499 22.0244C11.2946 22.0244 12.5393 22.0021 13.7841 21.9798C13.7841 22.7815 13.7841 23.5832 13.7623 24.3849C13.7623 24.719 13.9588 24.9417 14.2864 24.9862C15.3782 25.1421 16.4265 25.4539 17.5402 25.4093C17.8459 25.4093 18.1516 25.2089 18.1516 24.8749C18.1953 23.895 18.2171 22.8929 18.3263 21.913C20.0297 21.8908 21.733 21.8908 23.4363 21.913C26.712 21.9576 29.9876 21.9353 33.2415 21.913C33.2196 22.6034 33.2196 23.2937 33.2196 23.9841C33.2196 24.6967 33.1759 25.3871 33.8529 25.7879C34.8356 26.3669 37.3033 26.6787 37.8055 25.3871C38.1986 24.3849 38.286 23.1156 38.2204 21.8908C42.2604 21.8462 46.3004 21.8017 50.3403 21.8017C50.122 24.8081 49.9691 27.8144 49.7944 30.8208C49.7289 32.0233 50.122 35.0297 49.6415 35.7646C49.4668 36.0318 49.445 36.4327 49.4013 36.7222C49.3795 37.0339 49.3576 37.3457 49.3358 37.6352C49.2921 37.8134 49.2921 37.9247 49.314 37.9915C47.4359 39.6394 43.2213 38.6373 40.972 38.526ZM14.5266 19.3966C15.0944 19.1516 15.7495 19.1294 16.3609 19.1516C17.0597 19.1739 17.5183 19.1739 17.4747 19.9311C17.4528 20.2206 17.431 20.5101 17.3873 20.8218C16.4701 20.8441 15.5311 20.8664 14.6139 20.8664C14.5703 20.3765 14.5484 19.8865 14.5266 19.3966ZM17.2563 21.8908C17.1689 22.6479 17.0816 23.4274 17.0379 24.2068C16.2954 24.1622 15.5529 24.0064 14.8323 23.895C14.7668 23.2492 14.7013 22.5811 14.6576 21.9353C15.5311 21.913 16.3828 21.913 17.2563 21.8908ZM34.1586 19.2853C35.2505 19.2853 36.7792 19.2184 36.932 20.3096C36.9539 20.4878 36.9757 20.666 36.9757 20.8218C36.0367 20.8441 35.0977 20.8441 34.1368 20.8664C34.1586 20.3319 34.1586 19.7974 34.1586 19.2853ZM37.0412 21.8462C37.0412 22.6702 36.9757 23.4942 36.8665 24.2959C36.7792 24.9862 36.801 24.9417 36.1459 24.9417C35.9275 24.9417 34.4862 25.0085 34.4207 24.6522C34.2241 23.7614 34.1805 22.8038 34.1805 21.8685C35.1195 21.8685 36.0803 21.8685 37.0412 21.8462ZM32.8484 7.79427C33.0231 6.74761 33.0667 5.34464 32.5208 4.38706C33.1978 4.38706 33.9184 4.34252 34.508 4.09756C34.4862 5.41145 34.2241 6.90349 34.0494 7.83881C33.6564 7.83881 33.2415 7.81654 32.8484 7.79427ZM21.0997 7.03711C20.925 5.8791 20.925 4.4316 22.2789 4.18663C23.5674 3.94167 24.9868 4.14209 26.2971 4.23117C27.2579 4.29798 28.2188 4.23117 29.1796 4.23117C31.4071 4.23117 31.9749 5.85683 31.691 7.74973C29.8348 7.63838 28.0004 7.50477 26.1879 7.39342C24.4627 7.30434 22.7812 7.17073 21.0997 7.03711ZM20.8377 1.38069C22.9559 1.33616 25.0742 1.26935 27.2143 1.26935C29.2452 1.29162 31.5818 0.957577 33.569 1.38069C34.115 1.49204 34.377 2.13785 34.4644 2.98409C33.9403 3.18451 33.5035 3.42948 32.9357 3.51855C32.5426 3.58536 32.1277 3.58536 31.7347 3.60763C30.075 2.65005 27.7602 3.22905 25.904 3.1177C24.5937 3.0509 21.9295 2.60551 20.794 3.60763C20.5101 3.47401 20.2044 3.36267 19.9205 3.25132C19.6148 3.13997 19.309 3.00636 18.9815 2.96182C19.1343 2.04878 19.4837 1.42523 20.8377 1.38069ZM18.7194 6.48038C18.4137 6.07953 18.8068 4.67656 18.8504 4.18663C18.8504 4.16436 18.8504 4.11983 18.8504 4.09756C19.0906 4.16436 19.3527 4.2089 19.5711 4.25344C19.8113 4.32025 20.0297 4.36479 20.2699 4.40933C20.0078 5.16648 20.117 6.16861 20.3354 6.99257C19.7895 6.94803 19.2435 6.90349 18.6976 6.85896C18.8068 6.74761 18.8286 6.59172 18.7194 6.48038ZM9.35105 7.23753C12.2991 7.17073 15.2691 7.50477 18.2171 7.79427C23.3708 8.30646 28.6774 8.90773 33.9403 9.04135C34.1586 9.46447 34.8356 9.59809 34.9885 9.06362C37.2377 9.08589 39.4433 9.04135 41.649 8.8632C44.0293 8.66277 48.9427 7.59384 50.1656 10.3775C51.323 13.0053 50.7116 16.7243 50.4932 19.5079C50.4714 19.8643 50.4495 20.2206 50.4058 20.5769C46.3004 20.6214 42.2167 20.7105 38.1113 20.7773C38.0676 20.4655 38.0457 20.1538 38.0021 19.8643C37.6745 17.86 34.8574 18.0827 33.4162 18.2386C32.8921 18.3054 32.9357 19.0626 33.3725 19.1962C33.3288 19.7306 33.2851 20.2874 33.2633 20.8218C30.3589 20.8441 27.4545 20.8441 24.5282 20.755C22.5192 20.7105 20.4883 20.7105 18.4792 20.7328C18.6102 20.087 18.7631 19.2407 18.3918 18.7285C17.6275 17.6373 15.3564 17.7487 14.199 18.2609C14.0243 18.2163 13.8059 18.3054 13.8059 18.5504C13.7186 18.7063 13.7186 18.9067 13.7841 19.0626C13.7623 19.6416 13.7623 20.2206 13.7623 20.7996C12.8888 20.8218 12.0152 20.8218 11.1199 20.8441C8.12814 20.8664 5.00536 20.7773 2.0136 21.0223C2.0136 20.9555 2.0136 20.8886 2.03544 20.7996C2.21014 18.1272 2.40668 15.4549 2.47219 12.7603C2.49403 12.0254 2.73424 10.1771 2.29749 9.24178C3.67326 7.30434 7.27647 7.28207 9.35105 7.23753Z" fill="#24306E"/>
</svg>
