<svg width="145" height="113" viewBox="0 0 145 113" fill="none" xmlns="http://www.w3.org/2000/svg">
<g clip-path="url(#clip0)">
<path d="M50.9621 62.6713C64.4046 64.8282 78.2653 63.3303 91.9468 64.289C91.9468 66.7455 92.2456 69.1421 93.0222 71.1792C94.9341 76.3319 103.119 74.175 105.748 71.0594C106.823 69.8012 104.792 68.2434 103.657 69.202C101.984 70.5801 99.9526 71.2391 97.8018 71.1792C95.412 71.0594 94.9341 68.9024 94.5756 66.9852C94.3964 66.1463 94.3366 65.3075 94.2769 64.4687C96.3679 64.6485 98.459 64.948 100.55 65.2476C102.223 65.5472 102.701 62.9109 101.148 62.4316C98.8772 61.7126 96.5472 61.2932 94.2171 61.0536C94.2769 59.316 94.4561 57.6384 94.6353 55.9608C94.7548 55.062 93.2612 54.7025 93.0222 55.6013C92.6638 57.219 92.3651 59.0164 92.1858 60.8139C87.0478 60.3945 81.85 60.6941 76.7717 60.6341C68.2283 60.5742 59.6848 60.4544 51.2011 60.6341C49.8269 60.5143 49.7075 62.4915 50.9621 62.6713Z" fill="#45548D"/>
<path d="M105.748 59.7953C111.663 60.1548 117.577 60.4544 123.492 60.9337C127.495 61.2333 134.306 60.754 137.651 63.2704C138.727 64.0493 140.459 62.6713 139.683 61.473C137.831 58.597 132.394 58.8367 129.466 58.597C121.7 57.878 113.694 57.4586 105.867 57.878C104.672 57.5785 104.433 59.6755 105.748 59.7953Z" fill="#45548D"/>
<path d="M14.04 74.894C11.232 78.7884 7.64729 86.8171 7.64729 93.4077C5.01853 88.4348 7.28882 81.9639 9.61886 77.2306C10.754 74.894 13.2633 71.6585 13.084 68.9624C13.0243 67.9438 11.5307 67.7641 11.4112 68.8425C11.0527 72.737 7.10959 77.2306 5.73547 81.0053C4.12236 85.5589 3.10671 90.7116 6.03419 94.9056C6.4524 95.5048 7.28882 95.325 7.70703 94.7858C7.94601 97.2423 8.72269 99.4592 10.3358 101.077C11.3514 102.036 12.8451 100.777 11.9489 99.6389C7.34857 93.7672 11.8294 81.3648 15.4738 75.9125C16.2505 74.9539 14.7569 73.9353 14.04 74.894Z" fill="#45548D"/>
<path d="M15.9518 105.271C17.2662 106.05 18.4013 104.252 17.2662 103.354C12.3074 99.3992 16.37 90.7715 16.7882 85.6188C16.9077 84.4204 15.1154 84.3006 14.9959 85.4989C14.2192 91.1909 9.26043 101.317 15.9518 105.271Z" fill="#45548D"/>
<path d="M18.1026 95.2052C17.6844 99.2794 18.2818 108.147 24.077 107.967C25.5109 107.907 25.6901 105.93 24.2563 105.75C20.3131 105.271 20.0144 98.3208 20.1339 95.3849C20.1936 94.0668 18.2818 93.8871 18.1026 95.2052Z" fill="#45548D"/>
<path d="M34.0544 103.593C33.0985 102.515 31.5451 103.953 32.3816 105.031C33.9947 107.068 36.5039 107.548 38.8937 107.967C40.1483 108.147 40.6263 106.05 39.3717 105.75C37.5196 105.331 35.309 105.031 34.0544 103.593Z" fill="#45548D"/>
<path d="M55.0247 12.7619C62.1343 10.605 68.9452 9.64634 76.4133 9.94592C79.4602 10.0657 82.5072 10.605 85.5542 10.8446C91.2897 11.3839 91.5884 16.6564 90.9312 21.0901C90.6922 22.6479 93.2612 23.1872 93.6197 21.6294C95.1133 15.8775 93.8587 9.22693 87.4063 8.20838C76.3535 6.41092 64.8228 6.65058 54.3675 10.9046C53.4116 11.324 53.9493 13.0615 55.0247 12.7619Z" fill="#45548D"/>
<path d="M5.19777 59.7953C5.13803 59.1962 4.30161 58.9565 3.8834 59.316C3.64442 59.5557 3.40544 59.7953 3.10672 59.9751C2.50927 60.5143 3.04697 61.3531 3.70416 61.2932C3.64442 61.413 3.58467 61.7126 3.52493 62.4915C3.46518 63.57 3.34569 64.6485 3.22621 65.7269C2.86774 68.7826 2.33004 71.7784 1.85208 74.834C0.955913 81.0652 0 87.2365 0 93.5875C0 102.215 3.82365 111.442 13.562 110.963C22.0457 112.281 32.0231 110.484 40.0886 110.783C53.2324 111.262 66.3164 111.802 79.4602 112.041C92.2456 112.281 105.091 111.862 117.876 112.401C124.806 112.7 133.111 114.977 137.532 108.387C138.548 106.829 136.098 105.211 135.142 106.769C132.454 111.023 127.077 109.884 122.895 109.765C117.876 109.585 112.857 109.405 107.779 109.405C96.5472 109.405 85.2555 109.345 74.0235 109.225C63.6877 109.106 53.4116 108.806 43.0758 108.387C39.2522 108.267 35.4285 108.207 31.6049 108.267C32.0828 107.608 31.9036 106.469 30.8282 106.409C28.2592 106.23 27.602 102.994 27.0643 100.897C26.7656 99.579 24.7342 99.9385 25.033 101.257C25.5109 103.773 26.2876 107.128 28.6774 108.327C27.841 108.327 27.0643 108.387 26.2279 108.387C22.7627 108.506 18.6403 108.926 14.8166 108.746C14.6374 108.626 14.5179 108.506 14.2789 108.506C-5.4965 105.63 4.60033 80.0467 5.37701 64.5885C5.85497 64.7084 6.21343 64.289 6.21343 63.8096C16.131 61.8324 27.7812 60.9337 37.878 62.3118C38.0573 63.57 38.1768 64.7084 38.2365 64.948C38.6547 67.2248 39.4911 69.3218 41.6419 70.4003C45.2266 72.1978 54.8455 70.2805 53.2324 64.7084C52.8142 63.2704 51.0218 63.4502 50.7231 64.8282C50.2452 67.4645 47.6164 68.0636 45.2266 68.1835C42.3589 68.3033 41.2835 67.1649 40.4471 64.4687C40.3276 64.1092 40.2081 63.3902 40.0886 62.6113C40.2678 62.6713 40.5068 62.6713 40.686 62.6713C42.2394 62.9708 42.7771 60.3346 41.2237 59.9751C40.686 59.8552 40.0886 59.7354 39.5509 59.6156C39.1327 57.6384 38.4157 55.9008 37.2208 55.8409C36.2649 55.8409 36.1454 57.219 37.1014 57.3388C37.1611 57.3388 37.3403 58.1776 37.4598 59.2561C33.5167 58.7768 29.6333 59.0164 25.5707 59.316C18.7598 59.8552 11.9489 59.9751 5.37701 61.8324C5.31726 61.1135 5.31726 60.4544 5.19777 59.7953ZM4.18212 61.1734C4.12237 61.2333 4.12237 61.2333 4.06263 61.2333C4.06263 61.2333 4.12237 61.1734 4.18212 61.1734Z" fill="#45548D"/>
<path d="M7.70705 23.7863C7.10961 23.8462 6.75114 24.5652 6.99012 25.1644C6.75114 25.6437 6.57191 26.1829 6.45242 26.7222C6.27319 27.5011 7.10961 28.0403 7.64731 27.8006C7.58757 29.7778 7.2291 32.3542 7.16935 33.0732C6.99012 36.9677 6.6914 40.8621 6.33293 44.6967C5.73548 51.8266 5.25753 58.8966 4.77957 66.0265C4.06264 77.0509 1.25464 88.9141 5.616 99.5191C8.3045 106.11 15.8323 108.566 22.225 109.585C30.2905 110.903 38.834 109.765 46.8995 108.926C60.1628 107.548 73.6053 108.267 86.9283 108.267C98.5785 108.267 110.169 106.769 121.819 107.488C127.136 107.787 135.979 108.986 139.862 104.312C140.22 104.133 140.519 103.773 140.639 103.414C140.878 102.755 141.595 98.2609 140.997 98.5604C141.535 98.3208 142.013 97.6617 142.013 97.0626C142.192 76.1522 146.255 54.6426 144.522 33.7322C144.044 27.9804 142.371 22.4083 136.457 20.6108C129.227 18.394 120.326 20.2513 112.977 20.8505C108.377 21.21 103.657 21.2699 98.937 21.1501C99.2954 18.0345 99.4149 14.9189 99.8929 11.8033C100.311 9.4666 100.849 6.05143 99.4149 3.9544C95.2328 -2.21686 83.5229 0.479324 77.2497 0.419409C71.9922 0.359494 66.7347 0.838815 61.5369 0.7789C59.0276 0.838815 55.3235 0.479324 53.1727 2.39661C51.6193 3.77466 51.4401 6.35101 51.5596 8.26829C51.7388 11.5037 50.7829 15.0986 51.918 18.1543L51.9778 18.2142C48.871 17.9746 45.7643 17.7349 42.6576 17.5551C34.3531 17.0159 13.5023 14.5594 7.70705 23.7863ZM114.829 103.653C103.059 103.114 90.991 104.911 79.1615 104.852C68.7062 104.792 58.1912 104.432 47.7956 105.511C38.8937 106.409 29.932 107.488 21.0301 106.05C7.46808 103.833 6.21344 91.8499 6.81089 80.1066C7.16935 73.0965 7.70705 66.0265 8.18501 59.0164C14.8764 60.9936 23.4796 59.316 30.2307 59.2561C33.6362 59.2561 37.0416 59.1962 40.4471 59.1363C40.4471 61.2932 40.4471 63.4502 40.3873 65.6071C40.3873 66.5058 40.925 67.105 41.8212 67.2248C44.8084 67.6442 47.6762 68.483 50.7231 68.3632C51.5596 68.3632 52.396 67.824 52.396 66.9252C52.5155 64.289 52.5752 61.5928 52.8739 58.9565C57.534 58.8966 62.1941 58.8966 66.8542 58.9565C75.8158 59.0764 84.7775 59.0164 93.6795 58.9565C93.6197 60.8139 93.6197 62.6713 93.6197 64.5286C93.6197 66.4459 93.5002 68.3033 95.3523 69.3818C98.0408 70.9396 104.792 71.7784 106.166 68.3033C107.241 65.6071 107.48 62.1919 107.301 58.8966C118.354 58.7768 129.407 58.6569 140.459 58.6569C139.862 66.7455 139.444 74.834 138.966 82.9226C138.787 86.158 139.862 94.2466 138.548 96.2238C138.07 96.9427 138.01 98.0212 137.89 98.8001C137.831 99.6389 137.771 100.478 137.711 101.257C137.592 101.736 137.592 102.036 137.651 102.215C132.513 106.649 120.983 103.953 114.829 103.653ZM42.4784 52.1861C44.0317 51.527 45.8241 51.4671 47.4969 51.527C49.4087 51.587 50.6634 51.587 50.5439 53.6241C50.4841 54.403 50.4244 55.1819 50.3049 56.0207C47.7956 56.0806 45.2266 56.1405 42.7174 56.1405C42.5979 54.8224 42.5381 53.5042 42.4784 52.1861ZM49.9464 58.8966C49.7075 60.9337 49.4685 63.0308 49.349 65.1278C47.3177 65.0079 45.2864 64.5885 43.3148 64.289C43.1356 62.5514 42.9563 60.754 42.8368 59.0164C45.2266 58.9565 47.5567 58.9565 49.9464 58.8966ZM96.1887 51.8865C99.1759 51.8865 103.358 51.7068 103.776 54.6426C103.836 55.1219 103.896 55.6013 103.896 56.0207C101.327 56.0806 98.7577 56.0806 96.129 56.1405C96.1887 54.7025 96.1887 53.2646 96.1887 51.8865ZM104.075 58.7768C104.075 60.9936 103.896 63.2105 103.597 65.3674C103.358 67.2248 103.418 67.105 101.625 67.105C101.028 67.105 97.0849 67.2847 96.9057 66.3261C96.368 63.9295 96.2485 61.3531 96.2485 58.8367C98.8175 58.8367 101.446 58.8367 104.075 58.7768ZM92.604 20.9703C93.082 18.1543 93.2015 14.3796 91.7079 11.8033C93.56 11.8033 95.5315 11.6835 97.1446 11.0244C97.0849 14.5594 96.368 18.5737 95.89 21.0901C94.8146 21.0901 93.6795 21.0302 92.604 20.9703ZM60.4615 18.9332C59.9835 15.8176 59.9835 11.9231 63.6877 11.2641C67.2126 10.605 71.096 11.1442 74.6807 11.3839C77.3094 11.5636 79.9382 11.3839 82.567 11.3839C88.6609 11.3839 90.2143 15.7577 89.4376 20.8505C84.3593 20.5509 79.3408 20.1914 74.382 19.8918C69.6621 19.6522 65.0618 19.2927 60.4615 18.9332ZM59.7446 3.71474C65.5398 3.59491 71.335 3.41517 77.19 3.41517C82.7462 3.47508 89.1389 2.57635 94.5756 3.71474C96.0692 4.01432 96.7862 5.75186 97.0251 8.02863C95.5913 8.56787 94.3964 9.22694 92.843 9.4666C91.7676 9.64634 90.6325 9.64634 89.5571 9.70626C85.0165 7.12991 78.6836 8.6877 73.6053 8.38813C70.0206 8.20838 62.7318 7.01008 59.6251 9.70626C58.8484 9.34677 58.012 9.04719 57.2353 8.74762C56.3989 8.44804 55.5624 8.08855 54.6663 7.96872C55.0845 5.5122 56.0404 3.83457 59.7446 3.71474ZM53.9493 17.4353C53.1129 16.3568 54.1883 12.5822 54.3078 11.2641C54.3078 11.2041 54.3078 11.0843 54.3078 11.0244C54.965 11.2041 55.6819 11.324 56.2794 11.4438C56.9366 11.6235 57.534 11.7434 58.1912 11.8632C57.4743 13.9003 57.773 16.5965 58.3704 18.8134C56.8768 18.6935 55.3832 18.5737 53.8896 18.4539C54.1883 18.1543 54.2481 17.7349 53.9493 17.4353ZM28.3189 19.4724C36.3844 19.2927 44.5097 20.1914 52.5752 20.9703C66.6749 22.3484 81.1928 23.9661 95.5913 24.3256C96.1887 25.4639 98.0408 25.8234 98.459 24.3855C104.613 24.4454 110.647 24.3256 116.681 23.8462C123.193 23.307 136.636 20.4311 139.981 27.9205C143.148 34.9905 141.475 44.9963 140.878 52.4857C140.818 53.4443 140.758 54.403 140.639 55.3616C129.407 55.4814 118.234 55.7211 107.002 55.9008C106.883 55.062 106.823 54.2232 106.704 53.4443C105.808 48.052 98.1006 48.6511 94.1574 49.0705C92.7235 49.2503 92.843 51.2874 94.0379 51.6469C93.9184 53.0848 93.7989 54.5827 93.7392 56.0207C85.7932 56.0806 77.8472 56.0806 69.8414 55.8409C64.3449 55.7211 58.7886 55.7211 53.2921 55.781C53.6506 54.0435 54.0688 51.7667 53.0532 50.3887C50.9621 47.4528 44.7487 47.7524 41.5822 49.1304C41.1043 49.0106 40.5068 49.2503 40.5068 49.9093C40.2678 50.3287 40.2678 50.868 40.4471 51.2874C40.3873 52.8452 40.3873 54.403 40.3873 55.9608C37.9975 56.0207 35.6078 56.0207 33.1582 56.0806C24.9732 56.1405 16.4298 55.9008 8.24476 56.5599C8.24476 56.3802 8.24476 56.2004 8.3045 55.9608C8.78246 48.7709 9.32016 41.5811 9.49939 34.3314C9.55914 32.3542 10.2163 27.3812 9.02143 24.8648C12.7853 19.6522 22.6432 19.5923 28.3189 19.4724Z" fill="white"/>
</g>
<defs>
<clipPath id="clip0">
<rect width="145" height="113" fill="white"/>
</clipPath>
</defs>
</svg>
