<svg width="128" height="121" viewBox="0 0 128 121" fill="none" xmlns="http://www.w3.org/2000/svg">
<g clip-path="url(#clip0)">
<path d="M50.5832 48.2541C51.7339 52.6781 50.4912 57.5126 50.7673 62.0735C51.0435 66.9993 51.872 71.8338 53.0687 76.6227C53.2528 77.3068 54.3114 77.0332 54.1273 76.349C52.8846 71.104 51.964 65.7678 51.6879 60.3404C51.4577 56.2812 52.3783 52.0852 51.0895 48.1172C50.9975 47.798 50.5372 47.9348 50.5832 48.2541Z" fill="white"/>
<path d="M14.4063 13.9107C13.6699 18.4259 17.306 24.9936 22.6911 22.5307C27.0636 20.5239 27.2017 14.0019 26.7415 10.0339C26.6494 9.12174 25.3607 9.07614 25.2686 10.0339C25.0845 13.0897 25.1305 16.9665 23.2895 19.5661C22.0928 21.2537 19.8375 21.7554 18.0885 20.6152C16.0173 19.2925 15.0047 16.3279 14.9126 14.0019C14.8666 13.7282 14.4524 13.637 14.4063 13.9107Z" fill="#2D3963"/>
<path d="M60.1108 15.0053C59.5124 18.5171 61.5376 22.0746 65.3118 22.6219C69.5922 23.2605 71.7555 19.4293 71.4793 15.6894C71.4333 14.7772 70.0985 14.7772 70.0525 15.6894C69.9605 18.4259 68.6717 21.5273 65.4038 21.2081C62.274 20.8888 60.6631 17.9698 60.6171 15.0965C60.6171 14.7772 60.2028 14.686 60.1108 15.0053Z" fill="#2D3963"/>
<path d="M72.722 55.7795C74.2869 69.5077 72.8601 83.6008 70.3287 97.1466C69.6843 100.567 66.0482 116.485 60.525 111.878C59.6965 111.194 58.0856 112.152 58.868 113.155C65.0356 121.046 70.7889 105.858 71.7555 101.479C73.3664 94.3645 74.0108 86.7478 74.379 79.4504C74.7472 71.5145 74.5171 63.5786 73.1823 55.7339C73.1363 55.4602 72.676 55.5058 72.722 55.7795Z" fill="#2D3963"/>
<path d="M70.881 98.2412C68.3495 101.844 65.1737 104.855 62.6422 108.458C62.228 109.051 63.1945 109.552 63.6088 109.005C66.2323 105.584 69.4542 102.437 71.3412 98.5149C71.4793 98.1956 71.0651 97.9676 70.881 98.2412Z" fill="#2D3963"/>
<path d="M71.8015 91.4455C68.8098 94.8662 65.5879 98.0588 62.3661 101.251C61.7677 101.844 62.6882 102.711 63.2866 102.164C66.5545 98.971 69.5922 95.5503 72.3078 91.8104C72.4919 91.5368 72.0316 91.2175 71.8015 91.4455Z" fill="#2D3963"/>
<path d="M72.7681 86.3374C68.8558 89.3475 64.8515 92.2209 61.5376 95.9152C61.1233 96.3713 61.7677 97.0554 62.228 96.5993C65.726 93.1787 69.4542 89.9861 73.0902 86.7022C73.4124 86.4742 73.0442 86.1093 72.7681 86.3374Z" fill="#2D3963"/>
<path d="M71.7095 80.1346C70.0525 82.0045 68.1654 83.692 66.5085 85.6076C66.1402 86.0181 66.7386 86.611 67.1068 86.2005C68.7638 84.285 70.6509 82.5974 72.3078 80.7275C72.7221 80.317 72.0777 79.7241 71.7095 80.1346Z" fill="#2D3963"/>
<path d="M28.2143 64.1715C27.708 75.2544 28.3064 86.383 26.6034 97.3747C26.2352 99.7919 22.9213 117.807 17.5361 112.38C16.7537 111.559 15.1888 112.654 15.9252 113.611C21.5405 121.228 26.6034 108.138 27.5239 103.806C30.2855 90.807 29.365 77.3068 28.7206 64.1259C28.6746 63.8522 28.2143 63.8522 28.2143 64.1715Z" fill="#2D3963"/>
<path d="M26.3272 98.6517C23.8878 102.802 20.3438 105.995 17.352 109.689C16.9378 110.191 17.5822 110.875 18.0885 110.419C21.4944 106.998 24.9004 103.395 26.8795 98.971C27.0636 98.6061 26.5573 98.3325 26.3272 98.6517Z" fill="#2D3963"/>
<path d="M27.5699 91.3543C24.8083 95.4135 21.3563 98.8798 17.9504 102.392C17.4441 102.893 18.2265 103.623 18.7328 103.167C22.3229 99.7463 25.8669 96.1432 28.1222 91.6736C28.3064 91.3087 27.8001 91.0351 27.5699 91.3543Z" fill="#2D3963"/>
<path d="M27.616 84.6955C25.8209 87.9793 23.0133 90.579 20.9881 93.726C20.6199 94.2733 21.4944 94.775 21.8626 94.2277C23.9338 91.0807 26.6494 88.4354 28.1222 84.9235C28.2603 84.6042 27.754 84.4218 27.616 84.6955Z" fill="#2D3963"/>
<path d="M26.7875 75.1632C26.2812 75.9842 25.7749 76.8051 25.2686 77.5805C24.9004 78.1278 25.7749 78.6295 26.1431 78.0822C26.6954 77.3068 27.2017 76.4859 27.662 75.6649C27.9842 75.1176 27.1097 74.6159 26.7875 75.1632Z" fill="#2D3963"/>
<path d="M101.949 83.236C102.777 85.3796 102.593 88.2073 102.777 90.4421C103.1 94.3189 103.468 98.1956 103.974 102.027C104.204 103.851 105.769 117.488 110.326 114.25C110.924 113.839 110.786 112.654 109.912 112.745C108.163 112.927 107.472 109.963 107.104 108.731C106.091 105.493 105.539 102.072 105.079 98.6973C104.572 95.3223 104.204 91.9472 103.698 88.5722C103.422 86.7934 103.376 84.6042 102.547 82.9623C102.363 82.6887 101.857 82.9167 101.949 83.236Z" fill="#2D3963"/>
<path d="M115.205 94.7294C115.159 102.118 112.535 108.731 108.347 114.706C107.84 115.436 108.991 116.302 109.589 115.664C114.514 110.191 116.125 101.844 115.711 94.7294C115.711 94.4101 115.205 94.3645 115.205 94.7294Z" fill="#2D3963"/>
<path d="M114.284 98.9254C112.811 103.623 109.037 107.181 105.907 110.784C105.493 111.24 106.137 111.924 106.598 111.468C110.05 108.001 113.686 103.897 114.79 99.0166C114.836 98.7429 114.376 98.6061 114.284 98.9254Z" fill="#2D3963"/>
<path d="M113.916 93.954C111.108 97.6939 108.301 101.388 105.539 105.128C105.217 105.539 105.907 106.086 106.275 105.675C109.359 102.118 111.937 98.1956 114.514 94.2733C114.744 93.9084 114.192 93.5892 113.916 93.954Z" fill="#2D3963"/>
<path d="M111.891 89.9405C110.188 91.4912 108.347 92.905 106.874 94.6838C106.506 95.0942 107.15 95.7328 107.472 95.2767C108.899 93.4523 110.648 91.9472 112.259 90.3053C112.535 90.0773 112.121 89.7124 111.891 89.9405Z" fill="#2D3963"/>
<path d="M104.803 48.0716C103.33 50.945 105.447 54.7305 108.899 53.8183C109.912 53.5447 109.405 51.9484 108.485 52.3132C105.953 53.271 104.803 50.3064 105.263 48.2541C105.309 47.9804 104.941 47.798 104.803 48.0716Z" fill="#2D3963"/>
<path d="M99.4635 71.925C98.1748 77.8541 98.9112 84.4674 98.9572 90.4878C99.0032 98.15 99.3254 106.04 102.363 113.201C104.066 117.306 108.07 124.375 112.857 119.176C117.23 114.478 118.703 106.77 119.393 100.659C119.945 96.0064 119.945 91.3087 119.761 86.611C119.669 83.9201 119.485 81.2292 119.301 78.5839C119.117 75.893 118.565 73.2476 118.426 70.5567C118.38 69.5533 116.862 69.5077 116.816 70.5567C116.677 74.4791 116.493 78.219 116.723 82.1414C116.954 85.9269 117.092 89.6668 117 93.4523C116.862 100.385 115.987 107.454 112.857 113.794C112.121 115.345 110.28 119.449 108.209 117.625C106.275 115.892 104.987 112.426 104.204 110.054C101.949 103.349 101.719 96.2345 101.581 89.2107C101.489 85.1971 101.259 81.1836 101.213 77.17C101.166 75.2544 101.074 73.7493 100.43 71.8794C100.292 71.4689 99.6016 71.4233 99.4635 71.925Z" fill="white"/>
<path d="M92.5135 91.3999C91.1787 88.5722 92.9277 83.8745 93.7562 81.0467C94.9069 76.8507 96.6559 72.9284 99.0953 69.3253C101.028 66.4976 103.514 63.761 106.874 62.712C110.096 61.7086 113.686 62.3015 115.895 64.9012C117.828 67.1817 118.841 70.1006 119.945 72.7916C121.556 76.7139 123.075 80.6363 123.95 84.8323C124.18 86.0637 124.41 87.2951 124.502 88.5722C124.548 89.2107 124.916 90.5334 124.686 91.1719C124.456 91.7648 124.548 91.4455 124.042 91.1719C123.581 90.9438 123.121 90.3509 122.799 89.9861C121.234 88.2073 120.083 86.0181 119.025 83.9201C118.288 82.5062 116.263 83.7377 116.908 85.1515C118.288 88.0249 122.017 96.4625 126.435 93.954C129.013 92.4945 127.494 87.5232 127.079 85.2884C126.205 80.7275 124.502 76.4403 122.615 72.153C120.36 67.0449 118.104 60.7965 111.707 59.9755C104.711 59.0633 99.6476 63.7154 96.2417 69.2797C93.6642 73.4757 91.9612 78.0366 90.9946 82.8255C90.3963 85.6988 89.4297 89.6668 91.639 92.0841C92.0993 92.5401 92.7897 91.9016 92.5135 91.3999Z" fill="white"/>
<path d="M91.3628 90.9895C91.2247 91.856 91.8231 92.4033 92.6516 92.3121C93.8482 92.1753 94.9529 90.9895 95.7353 90.1685C96.932 88.8914 97.9906 87.432 98.9572 86.0181C99.5555 85.1059 100.614 83.9657 100.844 82.8711C101.074 81.9133 99.8317 81.0467 99.0953 81.8677C98.0367 82.9167 93.1118 91.856 91.9612 90.8982C91.7771 90.6702 91.4088 90.6702 91.3628 90.9895Z" fill="white"/>
<path d="M107.564 37.9921C105.309 36.9431 103.514 38.6306 102.363 40.5006C100.66 43.2827 100.108 46.5665 100.522 49.7591C101.166 54.7305 104.895 60.0667 110.602 58.6529C116.217 57.2846 118.979 50.2608 117.736 45.0158C116.401 39.406 108.761 33.0663 103.836 38.8586C103.192 39.634 104.02 40.911 104.987 40.3181C114.468 34.5714 119.117 53.4991 109.819 55.7795C106.183 56.6461 103.974 52.8605 103.33 49.8504C102.823 47.5243 102.962 45.0614 103.698 42.8266C104.296 41.1391 105.447 38.7218 107.472 38.4938C107.656 38.4938 107.84 38.1289 107.564 37.9921Z" fill="white"/>
<path d="M10.9543 11.4022C11.5067 14.3211 11.0004 17.3313 11.5987 20.2959C12.1971 23.1692 14.2222 25.3585 16.9838 26.4531C22.7372 28.6879 29.319 24.3551 30.4696 18.5628C31.9425 11.0829 28.3064 -2.96457 17.9044 0.592912C10.8163 3.01018 10.1259 10.4444 10.7242 16.8296C10.8623 18.1979 13.0255 18.2891 12.9335 16.8296C12.7034 11.1285 12.9335 3.10139 20.4818 2.41726C25.4067 2.05239 27.4319 7.75349 27.9842 11.6302C28.6746 16.6928 27.662 22.8956 21.6785 24.3095C17.6282 25.2216 14.3143 22.4851 13.5779 18.6996C13.1176 16.1455 13.2096 13.3634 11.7368 11.1285C11.4606 10.6268 10.8623 10.9461 10.9543 11.4022Z" fill="white"/>
<path d="M9.29737 44.879C8.51492 47.8436 8.56095 51.173 8.23876 54.2288C7.87055 57.6039 7.45631 60.9789 7.18015 64.3996C6.67386 71.104 7.13412 77.8085 7.41028 84.513C7.64042 91.0807 8.19274 97.4203 9.43545 103.897C10.31 108.321 10.8163 115.117 14.7285 118.127C15.9252 119.039 17.7663 117.899 16.9378 116.439C15.603 114.113 14.4984 112.061 13.854 109.415C13.2096 106.77 12.7033 104.034 12.197 101.343C11.0004 95.003 10.7702 88.7546 10.402 82.3238C10.0338 76.0754 9.61956 69.827 9.89572 63.533C10.0338 60.2948 10.2639 57.0566 10.356 53.8183C10.448 50.945 10.7242 47.7068 9.84969 44.9246C9.75764 44.651 9.38943 44.6054 9.29737 44.879Z" fill="white"/>
<path d="M31.5743 45.6088C31.206 49.1206 31.8964 52.6325 31.7584 56.1444C31.6203 59.565 31.5282 62.9857 31.5743 66.4519C31.6663 73.6581 30.9759 80.9099 30.1474 88.0249C29.411 94.6838 28.3984 101.479 26.7875 108.002C26.1431 110.647 25.3607 113.748 23.4736 115.846C22.6911 116.713 21.5865 117.443 20.4358 117.716C18.7328 118.081 17.8583 117.26 16.7997 116.074C16.0173 115.208 14.3143 116.12 14.7745 117.26C16.9378 122.688 23.8418 120.681 26.5574 116.85C28.4905 114.113 29.365 110.647 30.0554 107.409C30.8839 103.577 31.5743 99.7007 32.1726 95.8696C33.4613 87.4776 34.3819 78.7663 34.3819 70.2831C34.3819 65.9959 34.0137 61.7086 34.0137 57.4214C34.0137 53.4535 33.5994 49.3031 32.3107 45.5631C32.1726 45.1071 31.6203 45.1983 31.5743 45.6088Z" fill="white"/>
<path d="M7.22618 81.1836C5.38512 82.4606 3.6361 71.2865 3.59008 70.6936C3.08379 66.68 2.80763 62.6208 2.62352 58.6072C2.34736 51.6291 2.66955 43.6932 6.81194 37.7184C9.20532 34.2978 12.7033 32.291 16.7077 31.1964C20.6199 30.1474 25.5448 29.5089 29.1348 31.8349C33.0011 34.3434 34.8882 39.2691 36.1769 43.4651C37.6958 48.4821 38.2481 53.7271 38.4782 58.9721C38.6623 63.4418 38.8925 68.0483 37.972 72.4267C37.1895 75.893 35.9468 80.4082 32.6329 82.3238C30.8378 83.3728 32.4488 86.0637 34.2438 85.0603C37.8799 83.0079 39.6749 78.7207 40.6875 74.8896C41.8842 70.4199 41.8382 65.9959 41.7461 61.435C41.6081 55.2322 41.0097 49.0294 39.1226 43.1003C37.6037 38.3114 35.4405 33.2032 31.2981 30.1018C27.4779 27.2284 22.553 27.3196 18.0424 28.1862C13.5779 29.0528 9.20532 30.9227 6.16757 34.3434C0.230136 40.9567 -0.276157 50.7169 0.138083 59.1089C0.414242 65.2661 0.828481 71.8794 2.62352 77.8085C3.26789 79.9065 5.24704 84.741 8.14671 82.2782C8.69903 81.7309 7.91658 80.7275 7.22618 81.1836Z" fill="white"/>
<path d="M55.416 11.4022C55.9684 14.3211 55.4621 17.3313 56.0604 20.2959C56.6588 23.1692 58.6839 25.3585 61.4455 26.4531C67.1989 28.6879 73.7807 24.3551 74.9313 18.5628C76.4042 11.0829 72.7681 -2.96457 62.3661 0.592912C55.278 3.01018 54.5876 10.49 55.1859 16.8752C55.324 18.2435 57.4872 18.3347 57.3952 16.8752C57.1651 11.1741 57.3952 3.147 64.9436 2.46287C69.8684 2.05239 71.8936 7.75349 72.3999 11.6302C73.0903 16.6928 72.0777 22.8956 66.0942 24.3095C62.0439 25.2216 58.73 22.4851 57.9935 18.6996C57.5333 16.1455 57.6253 13.3634 56.1525 11.1285C55.9223 10.6268 55.324 10.9461 55.416 11.4022Z" fill="white"/>
<path d="M53.7591 44.879C52.9766 47.8436 53.0227 51.173 52.7005 54.2288C52.3323 57.6039 51.918 60.9789 51.6419 64.3996C51.1356 71.104 51.5958 77.8085 51.872 84.513C52.1021 91.0807 52.6544 97.4203 53.8972 103.897C54.7717 108.321 55.278 115.117 59.1902 118.127C60.3869 119.039 62.228 117.899 61.3995 116.439C60.0647 114.113 58.9601 112.061 58.3157 109.415C57.6713 106.77 57.165 104.034 56.6588 101.343C55.4621 95.003 55.2319 88.7546 54.8637 82.3238C54.4955 76.0754 54.0813 69.827 54.3574 63.533C54.4955 60.2948 54.7256 57.0566 54.8177 53.8183C54.9097 50.945 55.1859 47.7068 54.3114 44.9246C54.2193 44.651 53.8511 44.6054 53.7591 44.879Z" fill="white"/>
<path d="M76.082 45.6088C75.7138 49.1206 76.4042 52.6325 76.2661 56.1444C76.128 59.565 76.036 62.9857 76.082 66.4519C76.174 73.6581 75.4836 80.9099 74.6552 88.0249C73.9187 94.6838 72.9062 101.479 71.2952 108.002C70.6508 110.647 69.8684 113.748 67.9813 115.846C67.1989 116.713 66.0942 117.443 64.9436 117.716C63.2406 118.081 62.3661 117.26 61.3074 116.074C60.525 115.208 58.822 116.12 59.2823 117.26C61.4455 122.688 68.3495 120.681 71.0651 116.85C72.9982 114.113 73.8727 110.647 74.5631 107.409C75.3916 103.577 76.082 99.7007 76.6803 95.8696C77.9691 87.4776 78.8896 78.7663 78.8896 70.2831C78.8896 65.9959 78.5214 61.7086 78.5214 57.4214C78.5214 53.4535 78.1072 49.3031 76.8184 45.5631C76.6343 45.1071 76.128 45.1983 76.082 45.6088Z" fill="white"/>
<path d="M51.7339 81.1836C49.8928 82.4606 48.1438 71.2865 48.0978 70.6936C47.5915 66.68 47.3153 62.6208 47.1312 58.6072C46.8551 51.6291 47.1773 43.6932 51.3197 37.7184C53.713 34.2978 57.2111 32.291 61.2154 31.1964C65.1276 30.1474 70.0525 29.5089 73.6426 31.8349C77.5088 34.3434 79.3959 39.2691 80.6846 43.4651C82.2035 48.4821 82.7558 53.7271 82.986 58.9721C83.1701 63.4418 83.4002 68.0483 82.4797 72.4267C81.6972 75.893 80.4545 80.4082 77.1406 82.3238C75.3456 83.3728 76.9565 86.0637 78.7515 85.0603C82.3876 83.0079 84.1827 78.7207 85.1952 74.8896C86.3919 70.4199 86.3459 65.9959 86.2538 61.435C86.1158 55.2322 85.5174 49.0294 83.6303 43.1003C82.1115 38.3114 79.9482 33.2032 75.8058 30.1018C71.9856 27.2284 67.0608 27.3196 62.5501 28.1862C58.0856 29.0528 53.713 30.9227 50.6753 34.3434C44.7379 40.9567 44.2316 50.7169 44.6458 59.1089C44.922 65.2661 45.3362 71.8794 47.1312 77.8085C47.7756 79.9065 49.7548 84.741 52.6544 82.2782C53.1607 81.7309 52.3783 80.7275 51.7339 81.1836Z" fill="white"/>
</g>
<defs>
<clipPath id="clip0">
<rect width="128" height="121" fill="white"/>
</clipPath>
</defs>
</svg>
