<svg width="47" height="45" viewBox="0 0 47 45" fill="none" xmlns="http://www.w3.org/2000/svg">
<g clip-path="url(#clip0)">
<path d="M18.5735 17.9457C18.996 19.591 18.5396 21.389 18.6411 23.0852C18.7425 24.9171 19.0467 26.715 19.4861 28.496C19.5537 28.7505 19.9424 28.6487 19.8748 28.3943C19.4185 26.4436 19.0805 24.4591 18.9791 22.4406C18.8946 20.931 19.2326 19.3705 18.7594 17.8948C18.7256 17.7761 18.5565 17.827 18.5735 17.9457Z" fill="#24306E"/>
<path d="M36.5217 26.749C36.0485 28.954 36.3189 31.4135 36.3358 33.6525C36.3527 36.5021 36.471 39.4365 37.5864 42.0995C38.2117 43.6261 39.6821 46.2552 41.4397 44.3215C43.0452 42.5744 43.5861 39.7079 43.8396 37.435C44.0424 35.7049 44.0424 33.9578 43.9748 32.2107C43.941 31.2099 43.8734 30.2092 43.8058 29.2254C43.7382 28.2246 43.5353 27.2408 43.4846 26.2401C43.4677 25.8669 42.91 25.85 42.8931 26.2401C42.8424 27.6988 42.7748 29.0897 42.8593 30.5484C42.9438 31.9563 42.9945 33.3471 42.9607 34.755C42.91 37.3332 42.5889 39.9623 41.4397 42.32C41.1693 42.8967 40.4933 44.4233 39.7328 43.7448C39.0229 43.1003 38.5497 41.8111 38.2624 40.9291C37.4343 38.4357 37.3498 35.7897 37.2991 33.1775C37.2653 31.6849 37.1808 30.1922 37.1639 28.6996C37.147 27.9872 37.1132 27.4274 36.8766 26.732C36.8259 26.5793 36.5724 26.5624 36.5217 26.749Z" fill="#24306E"/>
<path d="M33.9697 33.9917C33.4796 32.9401 34.1218 31.193 34.426 30.1413C34.8485 28.5808 35.4907 27.1221 36.3865 25.7821C37.0963 24.7305 38.0089 23.7128 39.2426 23.3226C40.4257 22.9495 41.7439 23.17 42.5551 24.1368C43.2649 24.9849 43.6367 26.0705 44.0423 27.0712C44.6339 28.53 45.1916 29.9887 45.5127 31.5492C45.5972 32.0072 45.6817 32.4651 45.7155 32.9401C45.7324 33.1775 45.8676 33.6694 45.7831 33.9069C45.6986 34.1274 45.7324 34.0087 45.5465 33.9069C45.3775 33.8221 45.2085 33.6016 45.0902 33.4659C44.5156 32.8044 44.093 31.9902 43.7043 31.2099C43.4339 30.6841 42.6903 31.1421 42.9269 31.6679C43.4339 32.7365 44.8029 35.8745 46.4253 34.9416C47.3717 34.3988 46.814 32.5499 46.6619 31.7188C46.3408 30.0226 45.7155 28.4282 45.0226 26.8338C44.1944 24.934 43.3663 22.6102 41.0172 22.3049C38.4483 21.9657 36.5893 23.6958 35.3386 25.7652C34.3922 27.3257 33.7669 29.0219 33.412 30.8029C33.1923 31.8715 32.8374 33.3471 33.6486 34.2461C33.8176 34.4157 34.0711 34.1783 33.9697 33.9917Z" fill="#24306E"/>
<path d="M33.5472 33.839C33.4965 34.1613 33.7162 34.3648 34.0204 34.3309C34.4598 34.28 34.8654 33.839 35.1527 33.5337C35.5922 33.0588 35.9809 32.516 36.3358 31.9902C36.5555 31.6509 36.9442 31.2269 37.0287 30.8198C37.1132 30.4636 36.6569 30.1413 36.3865 30.4466C35.9978 30.8368 34.1894 34.1613 33.7669 33.8051C33.6993 33.7203 33.5641 33.7203 33.5472 33.839Z" fill="#24306E"/>
<path d="M39.4962 14.1293C38.6681 13.7391 38.009 14.3667 37.5864 15.0622C36.9611 16.0969 36.7583 17.3181 36.9104 18.5054C37.147 20.3543 38.516 22.3388 40.6116 21.813C42.6735 21.3042 43.6875 18.692 43.2312 16.7414C42.7411 14.6551 39.9356 12.2974 38.1273 14.4515C37.8907 14.7399 38.1949 15.2148 38.5498 14.9943C42.0313 12.8571 43.7382 19.8963 40.3243 20.7444C38.9892 21.0667 38.178 19.6589 37.9414 18.5394C37.7554 17.6743 37.8062 16.7584 38.0766 15.9272C38.2963 15.2996 38.7188 14.4007 39.4624 14.3159C39.53 14.3159 39.5976 14.1802 39.4962 14.1293Z" fill="#24306E"/>
<path d="M4.02218 4.24047C4.22499 5.32603 4.03908 6.44552 4.25879 7.54805C4.47849 8.61665 5.22211 9.43082 6.23613 9.83791C8.34868 10.669 10.7654 9.05766 11.1879 6.90349C11.7288 4.12174 10.3936 -1.10254 6.57414 0.220491C3.97148 1.11947 3.71798 3.88427 3.93768 6.25894C3.98838 6.7678 4.7827 6.80172 4.7489 6.25894C4.6644 4.1387 4.7489 1.1534 7.52056 0.898968C9.32891 0.763273 10.0725 2.88351 10.2753 4.32528C10.5288 6.20805 10.157 8.51488 7.95997 9.0407C6.47274 9.37993 5.25591 8.36222 4.9855 6.95438C4.8165 6.00451 4.8503 4.96983 4.30949 4.1387C4.20809 3.95212 3.98838 4.07085 4.02218 4.24047Z" fill="#24306E"/>
<path d="M3.41382 16.6905C3.12651 17.7931 3.14341 19.0313 3.02511 20.1677C2.88991 21.4229 2.7378 22.6781 2.6364 23.9502C2.4505 26.4437 2.6195 28.9371 2.7209 31.4305C2.8054 33.873 3.00821 36.2307 3.46452 38.6393C3.78563 40.2846 3.97153 42.8119 5.40806 43.9314C5.84747 44.2706 6.52349 43.8466 6.21928 43.3038C5.72917 42.4388 5.32356 41.6755 5.08696 40.6917C4.85035 39.7079 4.66445 38.6902 4.47854 37.6894C4.03913 35.3317 3.95463 33.0079 3.81943 30.6163C3.68422 28.2925 3.53212 25.9687 3.63352 23.628C3.68422 22.4237 3.76873 21.2194 3.80253 20.0151C3.83633 18.9465 3.93773 17.7422 3.61662 16.7075C3.58282 16.6057 3.44762 16.5888 3.41382 16.6905Z" fill="#24306E"/>
<path d="M11.5936 16.9619C11.4584 18.268 11.7119 19.5741 11.6612 20.8801C11.6105 22.1523 11.5767 23.4244 11.5936 24.7135C11.6274 27.3935 11.3739 30.0905 11.0697 32.7365C10.7993 35.213 10.4275 37.7403 9.836 40.1659C9.5994 41.1496 9.31209 42.3031 8.61918 43.0833C8.33187 43.4056 7.92626 43.677 7.50375 43.7787C6.87843 43.9144 6.55733 43.6091 6.16862 43.1681C5.88131 42.8458 5.256 43.1851 5.425 43.6091C6.21932 45.6276 8.75438 44.8813 9.7515 43.4565C10.4613 42.4388 10.7824 41.1496 11.0359 39.9453C11.3401 38.5205 11.5936 37.0788 11.8134 35.654C12.2866 32.533 12.6246 29.2933 12.6246 26.1383C12.6246 24.5439 12.4894 22.9495 12.4894 21.3551C12.4894 19.8794 12.3373 18.3358 11.8641 16.945C11.8133 16.7753 11.6105 16.8093 11.5936 16.9619Z" fill="#24306E"/>
<path d="M2.65331 30.1922C1.97729 30.6672 1.33508 26.5115 1.31818 26.291C1.13227 24.7983 1.03087 23.2887 0.963267 21.7961C0.861865 19.2009 0.980167 16.2495 2.5012 14.0275C3.38002 12.7554 4.66445 12.009 6.13479 11.6019C7.57132 11.2118 9.37966 10.9744 10.6979 11.8394C12.1175 12.7723 12.8104 14.6042 13.2837 16.1647C13.8414 18.0305 14.0442 19.9811 14.1287 21.9318C14.1963 23.594 14.2808 25.3072 13.9428 26.9355C13.6555 28.2246 13.1992 29.9039 11.9823 30.6163C11.3232 31.0064 11.9147 32.0072 12.5738 31.634C13.909 30.8707 14.5681 29.2763 14.9399 27.8515C15.3793 26.1892 15.3624 24.5439 15.3286 22.8477C15.2779 20.5409 15.0582 18.2341 14.3653 16.029C13.8076 14.248 13.0132 12.3483 11.4922 11.1949C10.0895 10.1263 8.28114 10.1602 6.6249 10.4825C4.98556 10.8047 3.38002 11.5002 2.2646 12.7723C0.0844464 15.2318 -0.101458 18.8617 0.0506457 21.9827C0.152048 24.2725 0.304152 26.732 0.963267 28.937C1.19987 29.7173 1.92659 31.5153 2.99131 30.5993C3.19412 30.3958 2.90681 30.0226 2.65331 30.1922Z" fill="#24306E"/>
<path d="M20.348 4.24047C20.5508 5.32603 20.3649 6.44552 20.5846 7.54805C20.8043 8.61665 21.5479 9.43082 22.5619 9.83791C24.6745 10.669 27.0912 9.05766 27.5138 6.90349C28.0546 4.12174 26.7194 -1.10254 22.8999 0.220491C20.2973 1.11947 20.0438 3.90123 20.2635 6.2759C20.3142 6.78476 21.1085 6.81868 21.0747 6.2759C20.9902 4.15566 21.0747 1.17036 23.8464 0.91593C25.6547 0.763273 26.3983 2.88351 26.5842 4.32528C26.8377 6.20805 26.4659 8.51488 24.2689 9.0407C22.7816 9.37993 21.5648 8.36222 21.2944 6.95438C21.1254 6.00451 21.1592 4.96983 20.6184 4.1387C20.5339 3.95212 20.3142 4.07085 20.348 4.24047Z" fill="#24306E"/>
<path d="M19.7396 16.6905C19.4523 17.7931 19.4692 19.0313 19.3509 20.1677C19.2157 21.4229 19.0636 22.6781 18.9622 23.9502C18.7763 26.4437 18.9453 28.9371 19.0467 31.4305C19.1312 33.873 19.334 36.2307 19.7903 38.6393C20.1114 40.2846 20.2973 42.8119 21.7339 43.9314C22.1733 44.2706 22.8493 43.8466 22.5451 43.3038C22.055 42.4388 21.6494 41.6755 21.4128 40.6917C21.1762 39.7079 20.9903 38.6902 20.8043 37.6894C20.3649 35.3317 20.2804 33.0079 20.1452 30.6163C20.01 28.2925 19.8579 25.9687 19.9593 23.628C20.01 22.4237 20.0945 21.2194 20.1283 20.0151C20.1621 18.9465 20.2635 17.7422 19.9424 16.7075C19.9086 16.6057 19.7734 16.5888 19.7396 16.6905Z" fill="#24306E"/>
<path d="M27.9363 16.9619C27.8011 18.268 28.0546 19.5741 28.0039 20.8801C27.9532 22.1523 27.9194 23.4244 27.9363 24.7135C27.9701 27.3935 27.7166 30.0905 27.4124 32.7365C27.142 35.213 26.7702 37.7403 26.1787 40.1659C25.942 41.1496 25.6547 42.3031 24.9618 43.0833C24.6745 43.4056 24.2689 43.677 23.8464 43.7787C23.2211 43.9144 22.9 43.6091 22.5113 43.1681C22.224 42.8458 21.5986 43.1851 21.7677 43.6091C22.562 45.6276 25.097 44.8813 26.0942 43.4565C26.804 42.4388 27.1251 41.1496 27.3786 39.9453C27.6828 38.5205 27.9363 37.0788 28.156 35.654C28.6292 32.533 28.9672 29.2933 28.9672 26.1383C28.9672 24.5439 28.832 22.9495 28.832 21.3551C28.832 19.8794 28.6799 18.3358 28.2067 16.945C28.1391 16.7753 27.9532 16.8093 27.9363 16.9619Z" fill="#24306E"/>
<path d="M18.996 30.1922C18.3199 30.6672 17.6777 26.5115 17.6608 26.291C17.4749 24.7983 17.3735 23.2887 17.3059 21.7961C17.2045 19.2009 17.3228 16.2495 18.8439 14.0275C19.7227 12.7554 21.0071 12.009 22.4774 11.6019C23.914 11.2118 25.7223 10.9744 27.0405 11.8394C28.4602 12.7723 29.1531 14.6042 29.6263 16.1647C30.184 18.0305 30.3868 19.9811 30.4713 21.9318C30.5389 23.594 30.6234 25.3072 30.2854 26.9355C29.9981 28.2246 29.5418 29.9039 28.325 30.6163C27.6659 31.0064 28.2574 32.0072 28.9165 31.634C30.2516 30.8707 30.9107 29.2763 31.2825 27.8515C31.722 26.1892 31.7051 24.5439 31.6713 22.8477C31.6206 20.5409 31.4008 18.2341 30.7079 16.029C30.1502 14.248 29.3559 12.3483 27.8349 11.1949C26.4321 10.1263 24.6238 10.1602 22.9675 10.4825C21.3282 10.8047 19.7227 11.5002 18.6072 12.7723C16.4271 15.2318 16.2412 18.8617 16.3933 21.9827C16.4947 24.2725 16.6468 26.732 17.3059 28.937C17.5425 29.7173 18.2692 31.5153 19.334 30.5993C19.5199 30.3958 19.2326 30.0226 18.996 30.1922Z" fill="#24306E"/>
</g>
<defs>
<clipPath id="clip0">
<rect width="47" height="45" fill="white"/>
</clipPath>
</defs>
</svg>
