<svg width="194" height="90" viewBox="0 0 194 90" fill="none" xmlns="http://www.w3.org/2000/svg">
<path d="M85.0507 29.3008C85.498 30.1907 86.2009 30.8898 86.3926 31.9068C86.3926 31.9068 86.5204 31.9068 86.7121 31.9703C86.8399 30.7627 87.0316 29.5551 87.1594 28.2839C87.1594 29.1102 87.1594 29.8093 87.1594 30.4449C87.0316 33.3051 87.1594 36.1017 88.3735 38.7712C88.693 39.4703 89.1403 40.1695 89.3959 40.8686C89.971 42.5212 90.9934 43.7924 92.3353 44.8729C94.444 46.5254 96.6805 47.9237 99.3643 48.4322C100.77 48.6864 102.176 49.0042 103.646 49.322C104.157 49.4491 104.412 49.7034 104.285 50.2754C101.665 51.8644 99.4282 54.0254 97.1917 56.1229C96.7444 56.5678 96.2971 57.0127 95.9137 57.4576C95.4025 58.0932 94.9552 58.9195 95.3386 59.7458C95.3386 59.7458 95.4025 59.8729 95.4664 60C94.6996 61.8432 93.0382 66.928 93.6133 75.6991C93.6772 77.0339 94.5079 77.9873 94.5079 77.9873C94.5718 72.9025 94.8274 65.339 95.9137 62.4152C96.1054 61.2712 96.6805 59.428 96.8722 58.8559C96.8722 58.7924 96.9361 58.7288 96.9361 58.6652C97 58.4746 97.1278 58.3474 97.2556 58.1568C97.5112 57.9025 97.7668 57.5847 98.0863 57.3305C99.8116 55.7415 101.473 54.089 103.198 52.5C103.518 52.1822 103.837 51.928 104.285 51.6737C103.773 58.2839 103.518 61.7161 103.262 68.3263C103.262 70.3602 103.39 81.9915 103.965 81.9915C104.412 77.0339 104.924 64.322 104.924 60.6991C104.924 60.5085 104.924 60.3178 104.924 60.1907L109.844 55.0424C111.314 55.4873 113.486 58.7924 113.486 58.7924C113.997 59.5551 114.572 60.3813 115.084 61.2076C115.211 61.3983 115.148 61.6525 115.211 61.9068C115.595 64.3856 115.211 61.9068 115.595 64.3856C115.723 65.1483 116.809 70.4873 116.937 71.3135C117.256 72.839 117.831 76.2712 118.343 76.2712C118.406 76.2076 118.087 70.8051 118.151 70.678C117.128 63.8135 115.723 57.9661 114.828 50.9746V50.2119C115.787 50.5932 119.237 51.6737 119.557 51.928C121.282 53.5169 122.943 55.1695 124.669 56.7585C124.924 57.0127 125.18 57.3305 125.499 57.5847C125.627 57.7754 125.755 57.9025 125.819 58.0932C125.819 58.1568 125.883 58.2203 125.883 58.2839C126.074 58.8559 126.713 60.6991 126.841 61.8432C127.928 64.7669 128.183 72.3941 128.247 77.4152C128.247 77.4152 129.078 76.4619 129.142 75.1271C129.653 66.3559 128.055 61.2712 127.289 59.428C127.416 59.2373 127.416 59.1737 127.416 59.1737C127.8 58.411 127.416 57.5847 126.841 56.8856C126.458 56.3771 126.011 55.9322 125.563 55.5508C123.327 53.4534 119.365 49.9576 114.828 49.322C114.445 49.1313 114.061 49.0678 113.486 48.8771C113.614 48.6229 113.678 48.2415 113.933 48.1144C115.084 47.4152 115.978 46.2712 117.384 46.0169C117.512 46.0169 117.64 45.8898 117.767 45.7627C120.962 43.6017 122.879 40.5508 123.71 36.8644C124.221 34.6398 124.477 32.4152 124.221 30.1271C123.966 27.7119 124.221 25.2966 123.455 22.9449C123.391 22.7542 123.391 22.5 123.455 22.2458C123.774 20.0212 123.518 17.9237 122.943 15.7627C122.688 14.6822 122.049 13.6017 122.624 12.3941C122.688 12.3305 122.624 12.1398 122.624 12.0763C122.496 8.8983 121.218 6.29237 119.045 4.0678C118.151 3.17797 117.001 2.66949 115.723 2.54237C115.211 2.47881 115.084 2.73305 114.956 3.11441C110.355 0.317797 105.818 -0.699153 99.7477 2.09746C100.003 1.65254 100.323 1.27119 100.578 0.88983C99.8116 0.572034 99.1726 0.762712 98.6614 1.08051C96.9361 2.09746 96.1054 3.75 95.5303 5.59322C95.4664 5.72034 95.5303 5.91102 95.5303 6.03813C95.5942 6.48305 95.9776 6.67373 96.361 6.48305C96.5527 6.41949 96.6805 6.22881 96.8083 6.10169C96.5527 7.24576 95.9776 8.26271 95.5942 9.27966C95.083 10.678 93.8689 11.1864 92.7826 11.822C93.5494 10.233 94.8913 8.96186 95.4025 7.24576C95.083 7.11864 94.9552 7.11864 94.6357 6.99152C95.2108 4.70339 95.722 2.41525 96.2971 0.127119C96.1693 0.0635593 96.0415 0 95.9137 0C94.3801 1.33475 94.2523 3.4322 93.6133 5.27542C92.9743 3.75 93.2938 2.16102 92.9743 0.635593C92.527 1.20763 92.2075 1.77966 92.0158 2.35169C91.5046 4.19491 91.6963 6.03813 91.7602 7.88135C91.7602 8.51695 91.6324 8.8983 91.249 9.27966C90.3544 10.233 89.4598 11.25 88.5652 12.2034C88.3735 12.3941 88.1818 12.6483 87.9901 12.839C88.5013 10.8051 89.6515 9.08898 90.9934 7.5C90.5461 7.56356 90.2266 7.62712 89.9071 7.8178C88.3096 8.77118 87.2872 10.1695 86.6482 11.822C86.137 13.2203 85.6897 14.6822 85.2424 16.1441C84.3478 18.9407 83.9644 21.7373 84.0922 24.661C84.2839 26.25 84.3478 27.839 85.0507 29.3008ZM105.115 59.1737V52.0551C106.393 52.7542 107.607 53.3898 108.821 54.0254C107.607 55.678 105.882 57.0763 105.115 59.1737ZM109.78 52.8178C108.63 52.6907 107.607 52.1822 106.649 51.5466C106.074 51.1017 105.563 50.5932 105.499 49.5763C107.735 49.8941 109.844 49.5127 112.208 48.8771C112.208 49.6398 112.208 50.2119 112.208 50.7839C112.144 52.1186 111.122 52.9449 109.78 52.8178ZM113.87 49.6398C113.87 50.5297 113.87 51.4195 113.933 52.2458C113.997 53.1991 114.189 54.089 114.253 55.0424C114.381 55.9322 114.445 56.8856 114.572 57.839C113.294 56.5042 112.144 55.2966 111.058 54.089C111.569 53.7076 112.528 53.1991 113.039 52.4364C113.55 51.6737 113.55 50.5932 113.87 49.6398ZM119.94 9.15254C120.004 9.34322 120.132 9.59746 120.196 9.78813C120.132 9.78813 120.068 9.85169 120.004 9.85169C119.876 9.66102 119.812 9.47034 119.684 9.27966C119.812 9.2161 119.876 9.2161 119.94 9.15254ZM115.914 3.55932C116.17 3.75 116.362 3.94068 116.617 4.19491C116.234 4.76695 115.978 5.21186 115.659 5.65678C115.275 4.89407 115.723 4.32203 115.914 3.55932ZM117.64 5.33898C117.64 6.03813 117.704 6.41949 117.64 6.86441C117.384 8.58051 117.065 10.2966 116.745 12.0127C116.426 12.0763 116.234 12.1398 115.85 12.2034C116.937 13.0932 116.106 14.0466 116.17 15.1271C115.659 14.8729 115.275 14.6822 114.892 14.4915C114.636 12.2034 116.17 7.05508 117.64 5.33898ZM113.997 4.13136C113.742 4.63983 113.55 5.1483 113.231 5.84746C113.422 4.19491 113.422 4.19491 113.997 4.13136ZM113.997 7.94491C113.742 9.85169 113.55 11.7585 112.847 13.6017C112.783 11.6314 113.358 9.78813 113.997 7.94491ZM112.336 14.5551C113.231 15.1907 112.464 15.9534 112.783 16.5254C112.719 16.589 112.655 16.6525 112.592 16.6525C112.336 16.589 112.144 16.4619 111.825 16.3347C111.953 15.7627 112.144 15.1907 112.336 14.5551ZM111.825 3.62288C110.866 6.29237 109.972 8.8983 109.013 11.6314C109.013 11.3136 108.949 11.25 109.013 11.1229C109.652 8.58051 110.355 6.03813 111.058 3.30508C111.377 3.4322 111.633 3.55932 111.825 3.62288ZM110.866 10.3602C110.547 12.0127 110.227 13.6017 109.908 15.2542C109.78 15.3178 109.716 15.3178 109.588 15.3814C109.524 15.2542 109.397 15.0636 109.397 15C109.844 13.411 110.291 11.8856 110.866 10.3602ZM109.077 7.24576C109.013 7.24576 108.949 7.1822 108.949 7.1822C109.077 6.86441 109.141 6.54661 109.269 6.16525C109.333 6.16525 109.333 6.16525 109.397 6.22881C109.269 6.61017 109.141 6.92796 109.077 7.24576ZM109.269 2.98729C108.246 6.22881 107.288 9.5339 106.265 12.7754C106.202 12.7754 106.138 12.7119 106.01 12.7119C106.074 12.3941 106.074 12.1398 106.138 11.822C106.904 8.96186 107.735 6.16525 108.502 3.30508C108.694 2.92373 108.821 2.66949 109.269 2.98729ZM108.182 10.4237C108.119 10.8051 107.991 11.1229 107.927 11.5042C107.863 11.5042 107.863 11.5042 107.799 11.5042C107.863 11.1229 107.991 10.8051 108.055 10.4237H108.182ZM106.393 19.0678C106.329 19.1949 106.265 19.2585 106.138 19.3856C105.818 19.2585 105.499 19.1314 105.051 19.0042C105.179 18.6864 105.307 18.4322 105.499 17.9873C105.882 18.4322 106.138 18.75 106.393 19.0678ZM105.563 14.3008C105.626 14.0466 105.69 13.8559 105.754 13.6017C105.818 13.6017 105.882 13.6017 105.946 13.6653C105.882 13.9195 105.818 14.1102 105.754 14.3644L105.563 14.3008ZM106.713 14.8729C106.841 14.8729 106.968 14.9364 107.096 14.9364C106.968 15.3814 106.904 15.8898 106.777 16.4619C106.01 15.7627 106.713 15.3178 106.713 14.8729ZM107.352 4.76695C106.521 8.07203 105.563 11.0593 104.668 14.0466H104.412C104.348 13.7924 104.221 13.5381 104.285 13.3475C105.179 10.6144 106.074 7.88135 107.032 5.1483C107.032 5.08475 107.096 5.02119 107.352 4.76695ZM103.837 2.73305C104.86 2.66949 105.946 2.60593 107.16 2.47881C106.393 4.13136 105.754 5.59322 105.051 7.05508C104.987 5.72034 106.074 4.44915 105.243 2.92373C104.157 3.75 103.773 4.83051 103.262 5.84746C102.751 6.86441 102.304 7.8178 101.665 8.77118C101.729 8.45339 101.792 8.13559 101.92 7.8178C102.304 6.35593 102.751 4.89407 103.134 3.4322C103.198 3.11441 103.39 2.79661 103.837 2.73305ZM101.601 15.3178C101.09 14.7458 100.834 14.3008 101.09 13.7288C102.048 11.3771 102.943 9.02542 103.901 6.67373C103.965 6.54661 104.029 6.48305 104.285 6.41949C103.326 9.34322 102.495 12.2669 101.601 15.3178ZM103.837 17.7966C102.751 17.3517 102.687 17.161 103.646 15.5085C104.476 16.2712 104.029 17.0339 103.837 17.7966ZM99.2365 11.0593C100.003 8.51695 100.578 5.84746 101.92 3.49576C101.984 3.36864 102.048 3.30508 102.304 3.11441C102.112 4.83051 100.131 11.0593 99.4282 11.9492C99.3643 11.6314 99.1726 11.3136 99.2365 11.0593ZM96.7444 8.00847C97.1917 6.99152 97.639 5.91102 98.0224 4.89407C98.2141 4.44915 98.4058 4.13136 98.9809 4.13136C98.9809 5.08474 98.278 5.72034 98.0224 6.54661C97.7029 7.37288 97.1917 8.07203 96.7444 8.83474C96.6805 8.83474 96.6166 8.77118 96.5527 8.77118C96.6166 8.51695 96.6166 8.26271 96.7444 8.00847ZM98.0863 14.0466C98.2141 14.0466 98.278 13.983 98.4058 13.983C98.5336 14.6186 98.7253 15.3178 98.8531 15.9534C98.7253 15.9534 98.5975 16.0169 98.5336 16.0169C98.0863 15.4449 97.9585 14.7458 98.0863 14.0466ZM97.3834 10.0424C97 8.96186 97.8946 8.32627 98.3419 7.62712C98.0224 8.38983 97.7029 9.2161 97.3834 10.0424ZM94.8913 15.1907C94.8274 15.572 94.7635 16.0169 94.6357 16.3347C93.6772 18.8771 92.7187 21.4195 91.6963 23.9619C91.3129 24.9153 90.9295 25.8051 90.61 26.7585C93.805 24.1525 95.083 20.5297 96.361 16.589C96.5527 17.0975 96.7444 17.4788 96.8722 17.7966C97.5112 19.3856 98.4697 20.7203 99.8755 21.8008C100.77 22.5 101.792 22.8814 102.879 22.9449C103.326 22.9449 103.837 23.072 104.285 23.1356C104.924 23.2627 105.499 23.3263 106.329 23.0085C105.435 22.3093 104.604 21.7373 103.837 21.1653C103.07 20.5932 102.495 19.8305 102.176 18.8771C103.582 20.0847 105.179 21.0381 106.968 21.4195C108.438 21.7373 109.972 21.9915 111.441 21.3559C111.761 21.2288 112.144 21.2924 112.464 21.2288C113.486 21.1653 114.509 21.1653 115.403 20.2754C113.039 19.4492 110.483 19.6398 108.438 17.9873C108.566 17.6059 108.694 17.161 108.821 16.7161C109.013 16.7797 109.141 16.7797 109.205 16.8432C110.291 18.3051 112.08 18.3686 113.614 18.9407C114.253 19.1949 115.084 19.0042 115.787 18.9407C116.298 18.8771 116.745 18.6229 117.001 17.9237C116.042 17.733 115.084 17.5424 114.061 17.2881C114.189 16.7797 114.317 16.3347 114.509 15.8898C116.234 16.5254 117.192 18.0508 118.854 18.5593C119.557 17.8602 118.087 17.4153 118.79 16.6525C119.557 18.2415 119.748 19.8941 120.387 21.5466C120.899 21.1653 121.026 20.6568 121.026 20.2119C121.154 18.5593 120.899 16.9703 120.004 15.6356C118.982 14.1737 119.173 12.7119 119.684 10.9958C119.94 11.4407 120.132 11.6949 120.26 11.9492C121.346 14.3008 121.921 16.8432 122.24 19.3856C122.368 20.2754 122.432 21.1653 122.624 22.0551C123.518 25.7415 122.879 29.428 122.368 33.0508C122.113 34.7669 121.729 36.483 121.154 38.1356C120.323 40.7415 118.598 42.839 116.553 44.4915C115.595 45.3178 114.253 45.7627 112.975 46.2076C110.291 47.2881 107.543 47.6059 104.604 47.2246C102.623 46.9703 100.642 46.5254 98.7892 46.0169C97.3834 45.6356 96.1054 44.7458 94.8274 44.0466C94.3801 43.7924 93.9967 43.4746 93.5494 43.1568C92.5909 42.5212 91.8241 41.6949 91.3129 40.6144C90.9295 39.8517 90.5461 39.1525 90.1627 38.4534C89.4598 37.1186 88.8208 35.8475 88.8208 34.2585C88.8208 33.75 88.693 33.178 88.5013 32.6695C87.9901 31.0805 87.9901 29.428 87.9262 27.839C87.9262 27.5212 88.054 27.0763 88.3096 26.9491C90.2905 25.8051 91.1212 23.8983 91.8241 21.8644C92.0158 21.2924 92.2075 20.7203 92.2075 20.1483C92.3353 18.1144 93.7411 16.7797 94.6357 15.1271C94.6996 15.1271 94.8274 15.1907 94.8913 15.1907ZM93.3577 13.2203C92.9743 13.7924 92.527 14.428 92.0797 15.0636C91.6963 14.3644 91.9519 14.0466 93.3577 13.2203ZM87.6706 15.5085C88.9486 14.3008 90.1627 12.9025 91.3768 11.6314C91.6963 11.3136 92.0158 11.0593 92.3992 10.8051C90.8656 13.3475 89.0125 15.6356 86.9038 18.0508C86.776 16.9703 86.9677 16.2076 87.6706 15.5085ZM87.4789 19.0042C88.4374 18.1144 89.332 17.0975 90.2266 16.1441C90.4822 15.8898 90.6739 15.5085 90.9934 15.2542C91.1212 16.2076 90.8017 16.8432 90.2266 17.4788C89.2681 18.5593 88.3735 19.7034 87.415 20.7839C87.2872 20.9746 87.0955 21.1017 86.8399 21.3559C86.5204 20.339 86.776 19.6398 87.4789 19.0042ZM85.8175 22.0551C86.0092 23.4534 86.0092 23.4534 87.0316 23.3898C86.7121 24.5339 86.3287 25.6144 86.0092 26.7585C86.0092 26.822 85.8175 26.8856 85.7536 27.0127C85.3702 24.9153 85.3702 22.6907 85.8175 22.0551Z" fill="#28336D"/>
<path d="M58.4684 77.0974C58.8518 74.8728 59.2352 72.5847 59.6186 70.3601C59.2991 70.805 59.1074 71.2499 58.9796 71.6949C58.9157 71.8855 58.7879 72.0762 58.724 72.2033L58.1489 74.1101C58.0211 74.8093 57.8294 75.4449 57.7016 76.144C57.1265 78.6228 56.2319 81.8643 57.2543 83.7711C57.446 82.9449 57.7016 82.1186 57.8294 81.8008C57.8294 81.6737 57.8294 81.6101 57.8933 81.483C58.0211 80.0211 58.2128 78.5593 58.4684 77.0974Z" fill="#28336D"/>
<path d="M55.529 71.5042C55.529 76.3983 54.5705 82.2457 54.5705 82.2457C54.5705 82.2457 55.2734 81.3559 55.6568 79.0042C56.0402 76.6525 56.1041 72.0762 56.7431 70.233C57.2543 68.5805 59.7464 66.6101 62.8135 65.4661C62.8774 65.4661 63.0052 65.4661 63.133 65.4025C63.133 65.6567 63.1969 65.7839 63.1969 65.9745C63.0691 67.3728 63.8359 68.2627 64.8583 68.9618C65.3695 69.3432 65.9446 69.3432 66.5836 69.0889C66.5836 69.0889 68.5645 68.2627 68.5645 66.2923C68.8201 66.2923 69.0757 66.2288 69.3313 66.2288C72.7819 67.3728 75.7213 69.5339 76.2964 71.3135C76.8715 73.1567 76.9993 77.733 77.3827 80.0847C77.7661 82.4364 78.469 83.3262 78.469 83.3262C78.469 83.3262 77.5105 77.4788 77.5105 72.5847C77.5105 68.5805 73.0375 66.4195 71.44 65.7839L71.8234 65.6567L74.3155 64.894C75.0184 64.5762 75.7213 64.2584 76.552 63.8135L77.3827 63.305C77.3827 63.1144 77.5105 62.9872 77.6383 62.8601C78.9163 61.6525 79.8748 60.1271 80.7055 58.6017C81.9835 58.6017 82.5586 57.7118 82.942 56.6949C83.2615 55.7415 83.5171 54.7245 83.8366 53.7711C83.9005 53.5169 83.9644 53.3262 83.9644 53.072C83.9644 52.6906 84.0283 52.3728 84.1561 52.055L84.7951 47.0339C84.7312 46.9067 84.7312 46.7796 84.6673 46.6525C84.1561 44.0466 83.3254 41.5678 81.4723 39.5339C81.4084 39.4703 81.3445 39.4067 81.3445 39.3432L80.0665 38.072L78.2134 36.8008L76.9993 36.6101C77.7022 37.4364 78.1495 37.9449 78.5968 38.5805C78.9802 39.1525 79.4914 39.5974 79.8109 40.2966C78.9802 40.3601 78.7885 39.661 78.3412 39.4703C77.7661 39.2161 77.5105 38.7711 77.3827 37.9449C77.0632 38.5805 76.8076 39.0254 76.552 39.5339C75.6574 38.3898 74.8267 37.3093 73.9321 36.2288C73.8682 36.2923 73.8043 36.2923 73.7404 36.3559C73.8682 36.6737 74.0599 36.9915 74.1877 37.3093L74.1238 37.3728C73.4848 36.7372 72.7819 36.1017 72.1429 35.4025C70.8649 34.0678 69.2035 33.5593 67.4782 33.2415C66.0085 32.9237 64.4749 32.8601 63.0691 33.5593C62.3023 33.9406 61.4716 34.0678 60.7048 34.322C59.0434 34.7669 57.8932 35.911 56.9987 37.3728C56.4236 38.3262 55.7846 39.3432 55.3373 40.3601C55.0178 41.1228 54.8261 41.8856 54.6983 42.7118C54.4427 44.3008 54.3788 45.9534 54.6983 47.6059C54.8261 48.2415 54.9539 48.75 55.5929 49.1313C55.4012 50.1483 55.2095 51.1017 55.0817 52.1186C54.89 53.8983 54.7622 55.7415 55.1456 57.5211C55.9124 60.9534 57.6377 63.6228 61.0882 64.7669C59.4268 65.6567 55.529 67.7542 55.529 71.5042ZM83.4532 47.9872C83.0059 47.4788 82.6225 46.9703 82.2391 46.4618C83.3893 47.2245 83.4532 47.2881 83.4532 47.9872ZM81.6001 54.2796C81.2167 52.8178 80.6416 51.3559 80.4499 49.7669C81.2806 50.3389 81.4723 50.9745 81.6001 54.2796ZM65.8807 68.072C65.7529 68.072 65.6251 68.072 65.4973 68.0084C64.7305 67.6906 64.2832 66.8644 64.411 65.9745C65.6251 66.1017 66.7753 66.2288 67.9894 66.3559C67.8616 67.1822 66.6475 68.1356 65.8807 68.072ZM79.108 38.4534C79.1719 38.4534 79.2358 38.3898 79.2997 38.3898L79.4275 38.9618C79.2997 38.8347 79.2358 38.644 79.108 38.4534ZM79.4914 39.0889C79.8109 39.0889 79.8109 39.0889 80.0026 39.5339C79.747 39.3432 79.6192 39.2161 79.4914 39.0889ZM78.469 41.25C78.9163 41.6949 79.2997 42.2033 79.747 42.7118C79.4275 42.9025 79.2358 43.0296 78.9163 43.2203C78.7246 42.7118 78.5968 42.3305 78.469 41.9491C78.4051 41.7584 78.4051 41.5678 78.3412 41.3771C78.3412 41.3135 78.4051 41.25 78.469 41.25ZM76.0408 40.233H76.2964C76.2964 40.4237 76.2964 40.5508 76.3603 40.7415C76.2325 40.7415 76.1686 40.7415 76.0408 40.7415C75.9769 40.5508 75.9769 40.4237 76.0408 40.233ZM75.913 39.9788C75.1462 39.9788 73.6126 38.3898 73.2931 37.3093C74.1238 38.1991 75.0184 39.0254 75.913 39.9788ZM70.2898 36.1652C71.8873 37.6906 73.2931 39.4067 74.7628 41.1228C74.5711 41.3135 74.4433 41.5042 74.2516 41.6949C72.7819 39.7881 71.44 38.0084 70.0981 36.2923C70.162 36.2923 70.2259 36.2288 70.2898 36.1652ZM73.1653 42.7118C72.9097 42.9025 72.718 43.0932 72.5263 43.2203C72.079 42.6483 72.079 42.6483 72.718 42.1398C72.9097 42.394 73.0375 42.5211 73.1653 42.7118ZM68.7562 36.8644C69.9064 38.4534 71.0566 39.9788 72.2068 41.5678C71.9512 41.6949 71.8234 41.822 71.6317 41.8856C70.5454 40.233 69.4591 38.644 68.6284 36.9279C68.6923 36.9279 68.7562 36.9279 68.7562 36.8644ZM70.0981 42.5211C69.8425 42.5847 69.5869 42.6483 69.3313 42.7118C69.3313 42.2669 68.884 41.9491 69.3952 41.4406C69.6508 41.822 69.8425 42.1398 70.0981 42.5211ZM69.0757 40.9957C68.6284 40.9322 68.6284 40.5508 68.6284 40.233C68.7562 40.4872 68.9479 40.7415 69.0757 40.9957ZM66.8392 35.5932C66.5836 35.3389 66.3919 35.0211 66.1363 34.7033C66.967 34.5762 66.7114 35.2118 66.8392 35.5932ZM65.9446 39.7881C66.328 40.4872 66.5836 41.0593 66.9031 41.6949C66.5836 41.7584 66.3919 41.822 66.0724 41.822C66.0724 41.1864 65.3056 40.6779 65.9446 39.7881ZM64.5388 37.3093C65.05 38.0084 65.4973 38.7076 65.7529 39.7245C65.1778 39.4067 64.9222 38.8983 64.5388 37.3093ZM64.9861 42.2669C64.0915 42.4576 63.2608 42.6483 62.4301 42.7754C63.0691 42.2669 63.4525 41.4406 64.3471 41.1228C64.5388 41.5042 64.7305 41.822 64.9861 42.2669ZM64.7944 34.6398C64.9222 35.0847 65.05 35.4661 65.1139 35.8474L64.9861 35.911C64.6666 35.5296 64.3471 35.0847 63.9637 34.6398H64.7944ZM62.8135 35.1483C62.9413 35.4661 62.9413 35.8474 63.0052 36.1652C62.9413 36.1652 62.9413 36.1652 62.8774 36.1652C62.6218 35.7839 62.3662 35.4661 62.1106 35.0847C62.3662 34.894 62.6857 34.7669 62.8135 35.1483ZM63.7081 40.1059C63.5164 40.1695 63.3247 40.233 63.0052 40.3601C62.6857 39.0889 62.3662 38.0084 62.0467 36.6737C62.7496 37.5 63.8359 39.7881 63.7081 40.1059ZM61.0243 35.6567C61.0243 35.9745 61.0882 36.2288 61.0882 36.6101C60.0658 36.8644 60.0019 36.9915 60.0658 38.0084C60.1297 38.4534 60.1936 38.8347 60.2575 39.2796C60.2575 39.4067 60.1297 39.5339 60.0019 39.8517C59.4907 39.0254 59.1074 38.3262 58.6601 37.6906C59.363 36.483 60.1936 35.7839 61.0243 35.6567ZM59.8102 42.9025C59.6824 42.5211 59.5547 42.2034 59.938 41.9491C60.3853 42.5211 60.3853 42.5211 59.8102 42.9025ZM57.8294 39.1525C58.0211 39.8517 58.4683 40.4237 58.2128 41.1864C57.2543 40.233 56.9348 40.1695 57.8294 39.1525ZM56.4875 42.2669C56.9987 42.9025 56.9987 42.9025 56.9348 43.411C56.8709 44.1101 56.7431 44.8728 56.8709 45.572C56.9987 46.3983 56.6792 46.9067 56.1041 47.5423C56.2958 45.8262 56.168 44.1101 56.4875 42.2669ZM56.5514 49.8305C56.6153 49.322 56.6153 48.9406 56.6792 48.5593C57.0626 49.4491 57.0626 49.4491 56.5514 49.8305ZM60.7048 63.2415C60.3214 63.1144 60.0019 62.9872 59.6824 62.733C57.446 60.6991 56.4236 58.2203 56.3597 55.233C56.3597 54.4067 56.4236 53.5169 56.4236 52.6906C56.4236 51.5466 56.8709 50.7203 57.8294 50.2754C57.9572 49.1313 58.0849 48.1144 58.2766 47.0974C58.5961 44.8728 58.7239 44.555 59.2351 44.1737C59.299 44.3008 59.3629 44.4279 59.4268 44.555C59.7463 45.0635 59.938 45.1271 60.3853 44.7457C60.577 44.6186 60.7048 44.4279 60.8965 44.2372C61.4077 43.7288 61.9189 43.2839 62.4301 42.7754C62.3662 43.2203 62.6857 43.411 63.0691 43.411C63.7081 43.411 64.3471 43.411 64.9861 43.2839C65.8168 43.0932 66.6475 42.8389 67.5421 42.5211C67.6699 42.7118 67.7338 42.9025 67.8616 43.0932C66.7753 43.6017 65.5612 43.3474 64.5388 44.1101C64.7944 44.6186 65.1139 44.7457 65.4973 44.8093C66.1363 44.8093 66.7753 44.8728 67.4143 44.7457C68.5006 44.4915 69.523 44.1101 70.5454 43.7288C70.9288 43.6017 71.1844 43.5381 71.2483 44.0466C70.162 44.6822 68.8201 44.8728 67.606 45.3813C67.9894 45.572 68.3089 45.6991 68.6923 45.7627C70.162 45.9534 71.3761 45.1271 72.6541 44.6822C72.7819 44.6186 72.8458 44.4915 72.9736 44.3644C73.357 43.9195 73.8043 43.5381 74.1877 43.0932C74.5711 42.6483 74.9545 42.1398 75.3379 41.6949C75.7852 41.8856 75.6574 42.1398 75.5296 42.4576C74.5711 44.0466 73.357 45.2542 71.6317 45.9534C71.3761 46.0805 71.1844 46.2076 70.9927 46.3347C70.9927 46.3983 70.9927 46.4618 70.9927 46.5889C71.3122 46.7161 71.5678 46.8432 71.8873 46.8432C73.0375 46.9703 73.996 46.3983 74.8267 45.6356C75.5296 45 76.1047 44.2373 76.7437 43.4745C76.8076 43.5381 76.8715 43.6652 76.8715 43.7923C77.191 45.5084 77.6383 47.161 78.469 48.6864C78.5329 48.8135 78.5329 49.0042 78.5968 49.1949C78.8524 50.2118 78.9802 51.2288 79.3636 52.1822C79.6831 53.072 79.6831 53.9618 79.6831 54.8517C79.6831 55.805 79.5553 56.6949 79.108 57.5211C79.4914 57.7754 79.8109 57.9661 80.1943 58.2203C79.6831 58.9195 79.2358 59.4915 78.8524 60.1271C77.83 61.6525 76.4881 62.733 74.7628 63.4322C72.2707 64.3856 69.7147 64.894 67.0309 64.7034C65.8168 64.5762 64.6666 64.322 63.5164 63.8771C62.4301 63.6864 61.5355 63.4322 60.7048 63.2415Z" fill="#28336D"/>
<path d="M72.3985 83.4535C72.6541 82.6272 72.718 81.2289 72.5902 80.3391C72.4624 79.6399 72.5263 79.6399 72.3985 78.8136L72.4624 74.6823C71.9512 74.1738 71.6317 73.5382 71.5039 72.7755C71.44 72.3941 71.3122 72.0128 70.9288 71.7585C70.9927 72.5213 70.9927 73.284 71.0566 74.0467C71.0566 74.0467 71.1205 74.4916 71.1844 75.2543C71.1844 75.2543 71.1844 75.2543 71.2483 75.2543C71.3122 75.8899 71.3761 78.178 71.44 78.8772C71.5678 80.2755 71.7595 81.8009 72.3985 83.4535Z" fill="#28336D"/>
<path d="M6.83727 33.3051C5.43148 36.4831 4.66468 39.7882 4.53688 43.2204C4.53688 44.1102 4.66468 45 4.85638 45.8898C4.53688 45.8898 3.77008 45.9534 3.64228 46.2712C3.25888 47.7966 4.21738 48.3051 5.55927 48.2415C5.68707 48.6229 5.87877 49.0043 6.00657 49.3856C6.38997 50.4026 6.83727 51.3559 7.41237 52.1822C7.09287 52.3729 6.83727 52.5636 6.51777 52.7543C5.68707 53.3263 6.96507 53.4534 7.41237 53.1992C7.60407 53.1356 7.73187 53.0085 7.92357 52.8814C8.05137 53.0721 8.17917 53.1992 8.24307 53.3899C8.30697 53.517 8.37087 53.5805 8.43477 53.7076V53.6441C8.69037 53.9619 8.94597 54.2797 9.20157 54.5975C10.0323 55.6144 10.9269 56.5043 11.8854 57.4576C11.502 57.267 11.1186 57.0763 10.7352 56.7585C11.3742 57.5212 11.9493 58.0932 12.2688 58.4746C12.6522 58.856 13.419 59.3644 14.2497 59.8093C11.8854 62.0975 10.0962 64.6399 9.13767 67.9449C7.15677 74.7458 7.92357 82.5636 7.92357 89.4915C7.92357 90.1907 9.32937 90 9.32937 89.3644C9.32937 79.3221 7.85967 67.8814 15.2721 60.3178C17.5725 61.4619 20.1923 62.4788 20.1923 62.4788C22.1732 62.5424 22.301 62.606 22.4288 63.75L26.8379 62.9237L23.7068 63.0509C24.7931 62.9873 25.8155 62.9237 26.8379 62.9237L30.0329 62.3517C30.2885 62.2882 30.5441 62.2246 30.8636 62.161L30.7997 62.2246C30.7997 65.4026 31.3748 68.517 32.0138 71.6314C32.0138 72.5848 31.9499 73.5382 31.886 74.4915C31.6304 77.4153 32.1416 80.2754 32.9084 83.0721C33.0362 83.4534 34.2503 83.1356 34.3142 82.7543C34.8254 79.0678 34.2503 75.4449 33.5474 71.8856C33.5474 71.8221 33.5474 71.7585 33.5474 71.6314C33.8669 69.089 33.2279 66.6737 32.9723 64.1949C32.9723 64.0043 32.6528 64.0043 32.3333 64.0678C32.2694 63.6229 32.2694 63.1144 32.2694 62.6695C34.442 64.1949 36.8063 65.7204 37.7648 68.1992C39.554 72.6483 39.2984 78.3687 39.7457 83.0721C39.8096 83.7076 41.2154 83.3263 41.1515 82.6907C40.6403 77.7966 40.9598 71.7585 38.8511 67.1822C37.7009 64.7034 34.8254 63.0509 32.5889 61.3983C34.6337 60.3178 38.1482 57.7119 39.7457 52.1822C39.8096 51.9915 39.8735 51.7373 39.9374 51.5466H40.0013C40.0652 51.2924 40.193 50.911 40.3208 50.4661C41.2154 50.0848 42.11 49.5763 42.8129 48.9407C45.0494 47.161 47.0303 44.0466 45.6884 41.25C44.5382 38.7712 41.0876 37.9449 38.6594 37.8178C38.5955 37.8178 38.5316 37.8178 38.4677 37.8178C38.4038 37.8178 38.4038 37.8178 38.3399 37.8178C38.915 36.6737 40.3847 32.7966 38.5955 29.4915C36.998 27.0127 34.8893 25.0424 32.1416 23.6441C30.2885 22.6907 28.4993 21.6737 26.3906 21.356C25.3682 21.1653 24.2819 21.2288 23.2595 21.2924C22.7483 21.356 22.2371 21.6738 21.662 21.8644C21.662 21.928 21.662 22.0551 21.7259 22.1187C22.4288 22.2458 23.1956 22.3729 23.8985 22.5636C22.301 22.6271 20.7674 22.8814 19.2977 23.3263C19.745 20.7204 19.1699 17.9873 17.0613 16.3348C16.3584 15.5085 15.4638 14.7458 14.3775 14.1738C11.1825 12.4576 7.28457 13.2839 4.47298 15.1907C0.319486 17.9873 -1.02241 23.1992 0.830685 27.6483C1.91698 30.5085 4.21738 32.3517 6.83727 33.3051ZM4.92028 46.6526C4.98418 46.6526 4.98418 46.6526 5.04808 46.6526C5.11198 46.9068 5.17588 47.161 5.23978 47.3517C5.04808 47.2246 4.92028 46.9704 4.92028 46.6526ZM2.23648 27.1399C3.19498 28.2839 4.60078 29.1102 5.94267 29.6822C6.19827 29.9365 6.51777 30.1271 6.90117 30.3178C6.96507 30.3178 6.96507 30.3178 7.02897 30.3814C7.34847 30.6356 7.66797 30.8263 7.98747 31.017C7.73187 31.4619 7.47627 31.9704 7.22067 32.4153C4.98418 31.2712 3.19498 29.3644 2.23648 27.1399ZM13.3551 28.3475C13.7385 30.7627 14.1219 33.1144 14.5692 35.4661C14.5053 35.4661 14.4414 35.4661 14.3775 35.4661C13.6746 33.8771 12.9717 32.2882 12.3327 30.6356C12.6522 30.4449 12.9717 30.1907 13.2273 29.8729C13.4829 29.5551 12.8439 29.6187 12.7161 29.6187C12.4605 29.6822 12.2049 29.6822 11.9493 29.7458C11.8854 29.6822 11.8854 29.5551 11.8215 29.4915C12.2688 29.1102 12.7161 28.4746 13.3551 28.3475ZM13.1634 26.4407C13.1634 26.4407 13.1634 26.3771 13.2273 26.3771H13.2912C13.2273 26.3771 13.2273 26.3771 13.1634 26.4407ZM14.8887 24.4068C14.6331 24.661 14.2497 24.8517 13.8663 24.9153C13.8663 24.8517 13.9302 24.7882 13.9302 24.7246C14.2497 24.661 14.5692 24.5339 14.8887 24.4068ZM14.5692 23.1992C14.697 23.0085 14.7609 22.7543 14.8248 22.5C14.8887 22.7543 14.8248 23.0085 14.5692 23.1992ZM16.614 42.267C15.0804 43.2204 14.058 44.7458 14.058 47.0339C14.058 47.0975 14.1219 47.161 14.1858 47.161C14.1858 47.2882 14.1858 47.4153 14.1858 47.5424C13.9941 47.4788 13.7385 47.4153 13.5468 47.4153C13.6107 45.6992 13.7385 43.9831 13.9941 42.2034C14.058 41.6949 14.3136 41.4407 14.6331 41.1229C15.9111 39.9153 16.5501 38.3899 16.8057 36.6737C16.9335 35.5297 16.5501 34.3856 16.0389 33.178C15.9111 33.4958 15.8472 33.6229 15.7833 33.75C15.7194 33.8771 15.7194 34.0043 15.7194 34.1314C15.3999 32.7331 14.7609 31.3983 14.9526 29.8729C15.2721 30.1907 15.4638 30.5721 15.5916 30.9534C16.0389 32.161 16.4862 33.3687 16.9335 34.5763C17.3169 35.7204 17.5086 36.928 18.4031 37.8178C18.0197 39.4068 17.1891 40.7415 16.1028 41.9492C16.2306 42.1399 16.4223 42.2034 16.614 42.267ZM21.5981 41.6314C25.6238 41.9492 29.9051 44.3644 27.8603 48.8771C26.0711 52.8178 21.4064 54.661 17.9559 51.8644C16.3584 50.5932 15.5916 48.5593 15.5916 46.589C15.5916 46.5254 15.5277 46.4619 15.4638 46.4619C15.5916 43.0297 18.2753 41.6314 21.5981 41.6314ZM13.2912 37.1187C13.3551 37.0551 13.419 37.0551 13.4829 36.9915C13.6107 37.6907 14.1858 38.3263 13.7385 39.1526C13.6107 38.4534 13.419 37.8178 13.2912 37.1187ZM16.0389 29.2373C15.5277 28.6017 15.0165 28.0297 14.5053 27.3305C14.8248 27.0763 15.1443 26.8856 15.5916 26.5678C15.8472 27.5848 16.0389 28.3475 16.2306 29.1738C16.1028 29.2373 16.0389 29.2373 16.0389 29.2373ZM12.9078 34.7034C12.8439 34.767 12.78 34.767 12.7161 34.8305C12.6522 34.5127 12.5244 34.1949 12.4605 33.8771C12.5244 33.8771 12.5883 33.8136 12.6522 33.8136C12.7161 34.1314 12.78 34.4492 12.9078 34.7034ZM10.224 36.0382C10.9269 38.3899 11.5659 40.8051 12.2049 43.2204C12.2688 43.3475 12.2688 43.5382 12.2049 43.6653C12.0132 43.6017 11.8215 43.6653 11.5659 43.6653C10.9269 40.8687 10.0323 38.0721 9.64887 35.2119C9.90447 35.4661 10.0962 35.7204 10.224 36.0382ZM9.58497 32.9873C9.45717 32.7331 9.45717 32.3517 9.52107 32.161C9.58497 31.9704 9.71277 31.7161 9.90447 31.5254C10.1601 31.5254 10.3518 31.5254 10.6074 31.4619C10.7352 32.0975 10.9269 32.7966 11.0547 33.4322C10.6074 33.3687 10.0962 33.3051 9.64887 33.2415C9.64887 33.1144 9.58497 33.0509 9.58497 32.9873ZM12.2049 38.8983C12.0771 38.5805 11.9493 38.1992 11.7576 37.8814C11.1825 36.6102 10.6074 35.2754 10.0323 34.0043C10.4157 34.0678 10.7991 34.0678 11.2464 34.0678C11.6298 35.7204 12.0132 37.3093 12.3966 38.8983C12.2688 38.8348 12.2049 38.8348 12.2049 38.8983ZM12.8439 23.1992C12.78 23.2627 12.78 23.3263 12.7161 23.4534C12.3327 23.6441 11.7576 23.7076 11.1825 23.3899C11.1186 23.3899 11.0547 23.3263 10.9908 23.2627C10.9908 22.8178 11.0547 21.6738 11.2464 22.5C11.3742 22.9449 12.0771 22.8814 12.4605 22.5636C12.5883 22.5636 12.7161 22.6271 12.8439 22.6271C12.8439 22.8814 12.8439 23.0085 12.8439 23.1992ZM12.2049 21.1653C11.9493 20.8475 11.5659 20.6568 11.1186 20.7204C10.9908 20.5932 10.863 20.5297 10.7991 20.4026C10.7352 20.339 10.7352 20.2754 10.6713 20.2119C10.7352 20.2119 10.7991 20.2119 10.863 20.2119C11.3742 20.2119 11.9493 20.339 12.3966 20.5297C12.3327 20.8475 12.2688 21.0382 12.2049 21.1653ZM10.5435 18.4322C10.0962 18.3687 9.58497 18.3687 9.13767 18.4322C9.52107 18.3687 9.90447 18.3051 10.3518 18.3051C10.5435 18.3051 10.7352 18.3051 10.9269 18.3687C10.7991 18.3687 10.6713 18.3687 10.5435 18.4322ZM9.90447 21.4831C9.84057 21.6102 9.77667 21.7373 9.71277 21.8644C9.45717 21.4195 9.32937 20.911 9.20157 20.4661C9.20157 20.4661 9.20157 20.4661 9.26547 20.4661C9.26547 20.5297 9.32937 20.6568 9.32937 20.7204C9.39327 20.911 9.58497 21.2288 9.90447 21.4831ZM9.20157 19.4492C9.13767 19.4492 9.07377 19.4492 9.00987 19.5127C9.07377 19.4492 9.07377 19.4492 9.20157 19.4492ZM9.13767 25.5509C9.20157 25.6144 9.26547 25.6144 9.32937 25.678C10.0323 26.0593 10.863 26.3136 11.6937 26.3771C11.5659 26.5678 11.4381 26.7585 11.3103 26.9492C10.4796 27.5212 9.84057 28.2839 9.20157 29.0466C7.28457 30.0636 6.19827 27.5848 6.19827 25.4237C6.19827 24.9788 6.26217 24.4068 6.38997 23.7712C7.09287 24.8517 8.11527 25.3602 9.13767 25.5509ZM8.81817 38.7712C8.30697 38.8348 7.85967 38.8348 7.28457 38.8983C7.54017 37.8814 7.79577 37.0551 7.98747 36.1653C8.11527 36.1653 8.17917 36.1653 8.30697 36.1653C8.49867 36.9915 8.62647 37.8178 8.81817 38.7712ZM7.85967 21.8009C7.85967 21.7373 7.85967 21.6737 7.85967 21.6102C7.85967 21.4831 7.85967 21.356 7.92357 21.2924C8.11527 21.8009 8.37087 22.3093 8.69037 22.7543C8.37087 22.4365 8.05137 22.1187 7.85967 21.8009ZM7.47627 17.6695C7.47627 17.7966 7.47627 17.8602 7.41237 17.9873C7.28457 18.1144 7.22067 18.2415 7.15677 18.3687C6.51777 18.8771 6.00657 19.5127 5.75097 20.2119C5.43148 20.2754 5.17588 20.4026 4.85638 20.4661C5.11198 19.2585 5.62317 18.1144 6.51777 17.2246C7.02897 16.7161 7.54017 16.3348 8.11527 16.017C7.79577 16.4619 7.60407 17.0339 7.47627 17.6695ZM5.62317 20.7839C5.55928 21.0382 5.55927 21.356 5.55927 21.6102C5.30368 22.3729 5.04808 23.1992 4.85638 24.089C4.66468 23.1356 4.60078 22.1187 4.72858 21.1653C5.04808 21.0382 5.30368 20.911 5.62317 20.7839ZM4.85638 27.6483C4.85638 27.7119 4.85638 27.7754 4.92028 27.7754C4.60078 27.5212 4.21738 27.2034 3.89788 26.9492C2.04478 25.2331 2.17258 23.517 3.32278 22.3093C3.32278 24.089 3.89788 25.9958 4.85638 27.6483ZM6.77337 42.5212C6.77337 42.3305 6.83727 42.1399 6.90117 41.9492C7.15677 42.2034 7.15677 42.3941 7.22067 42.6483C7.54017 43.9195 7.92357 45.2543 8.43477 46.4619C7.85967 46.3983 7.34847 46.2712 6.77337 46.2076C6.70947 45 6.70947 43.7288 6.77337 42.5212ZM7.73187 49.8305C7.60407 49.5763 7.54017 49.3221 7.41237 49.0678C7.34847 48.8771 7.22067 48.8136 7.02897 48.75C6.90117 48.1144 6.83727 47.5424 6.77337 46.9068C7.41237 47.0339 8.05137 47.0975 8.69037 47.2246C8.75427 47.4153 8.81817 47.6059 8.94597 47.7331C8.62647 48.4958 8.17917 49.1314 7.73187 49.8305ZM8.11527 50.6568C8.30697 50.5932 8.56257 50.5297 8.62647 50.4661C9.00987 50.0848 9.39327 49.7034 9.77667 49.3221C9.77667 49.3856 9.84057 49.3856 9.84057 49.4492C9.52107 50.1483 9.00987 50.7204 8.49867 51.2924C8.37087 51.1017 8.24307 50.8475 8.11527 50.6568ZM37.8287 53.8983C37.4453 54.8517 36.8702 55.8051 36.1673 56.5678C33.5474 59.428 30.0329 60.4449 26.3267 60.8263C24.1541 61.017 22.0454 60.5085 19.9367 60C18.8504 59.7458 17.8281 59.428 16.7418 59.1102C16.8057 59.0466 16.9335 58.9831 16.9974 58.9195C17.7642 58.3475 16.614 57.9026 16.0389 58.2839C15.8472 58.411 15.6555 58.6017 15.4638 58.7288C15.2082 58.6653 15.0165 58.6017 14.7609 58.5382C14.4414 58.4746 14.2497 58.2839 14.1219 58.0932C14.1219 57.9661 14.1219 57.9026 13.9941 57.7754C12.141 55.9322 10.3518 54.2161 8.94597 52.1822C10.1601 51.3559 11.3103 50.5297 12.0771 49.3221C12.5244 49.2585 12.9717 49.3221 13.3551 49.4492C13.3551 49.0678 13.3551 48.6865 13.3551 48.2415C13.6107 48.3051 13.8663 48.3687 14.1858 48.4322C14.3136 49.0043 14.5053 49.5127 14.7609 50.0212C15.2082 50.9746 15.9111 51.8009 16.8057 52.5C17.3808 53.0085 18.0836 53.3899 18.7865 53.7076C21.4064 54.8517 24.3458 53.7076 26.4545 52.0551C28.3715 50.5932 30.0329 48.0509 29.7134 45.6356C29.8412 45.6356 29.9051 45.6356 29.969 45.5721C30.0968 45.5721 30.2246 45.5085 30.3524 45.5085C30.4163 45.5085 30.4802 45.5085 30.4802 45.5085C30.4802 45.5085 30.4802 45.5085 30.5441 45.5085C31.0553 47.8602 32.8445 49.767 35.081 50.7839C36.2951 51.2924 37.5092 51.356 38.7233 51.1017C38.5316 51.9915 38.2121 52.9449 37.8287 53.8983ZM44.1548 45.8898C42.3656 49.8305 37.7009 51.6737 34.2503 48.8771C32.6528 47.606 31.886 45.5721 31.886 43.6017C31.886 43.5382 31.8221 43.4746 31.7582 43.4746C31.886 40.106 34.6337 38.7076 37.8926 38.6441C41.9183 38.8983 46.1996 41.3771 44.1548 45.8898ZM36.1034 29.1738L36.6146 29.5551C36.5507 29.6187 36.4868 29.6822 36.4229 29.7458L35.9756 29.2373C36.0395 29.2373 36.0395 29.2373 36.1034 29.1738ZM23.1956 25.2331C23.8346 25.7415 24.857 26.1865 24.5375 27.5212C23.3234 26.5043 22.2371 25.4873 21.0869 24.4704C21.8537 24.1526 21.9176 24.1526 23.1956 25.2331ZM23.5151 30.5085C22.5566 29.1737 21.8537 27.839 21.2786 26.4407C22.6844 27.3941 23.8985 28.411 23.5151 30.5085ZM19.4255 26.5678C19.745 27.0127 20.0645 27.3941 20.3201 27.839C21.1508 29.6187 21.8537 31.3983 22.8122 33.1144C23.3234 34.0043 23.3234 34.8305 23.0039 35.7204C23.8346 33.8136 24.6014 31.7161 24.6653 30.1907C24.6653 29.8729 24.6653 29.6187 24.6653 29.4915C24.6653 29.6187 24.6653 29.7458 24.6653 29.8729C24.6653 29.8729 25.6877 30.9534 27.2213 32.3517C27.2213 32.161 27.1574 31.9068 27.1574 31.6526C28.2437 32.2246 28.3715 32.2246 28.4354 33.1144C28.4354 33.2415 28.4354 33.3051 28.4354 33.4322C30.1607 34.9576 32.2055 36.6102 34.1225 37.6271C33.9308 37.4365 33.8669 37.2458 33.7391 37.1187C32.0138 35.0212 30.2885 32.9873 29.5217 30.3178C29.2661 29.3644 28.8827 28.4746 28.4993 27.5848C28.3715 27.267 28.1798 26.9492 27.9242 26.7585C27.6047 26.4407 27.2852 26.25 26.9657 25.9958C26.7101 25.8051 26.4545 25.6144 26.1989 25.4237C26.135 25.4873 26.0711 25.4873 26.0072 25.5509C26.135 25.9958 26.2628 26.4407 26.4545 27.1399C25.1126 26.0593 23.9624 25.106 22.6205 24.0254C25.1765 23.7712 27.5408 23.3263 29.7134 24.9153H28.1159C28.1159 25.6144 28.4993 25.9958 28.8827 26.3771C29.7773 27.3305 30.6719 28.3475 31.6943 29.1738C32.525 29.8729 32.7167 30.6992 32.525 31.7161C31.5665 31.1441 31.1831 30 30.0968 29.5551C30.0329 30.3814 30.2885 31.3983 30.7997 32.3517C32.0138 34.5127 33.5474 36.4195 35.3366 38.1356C35.4005 38.1992 35.4644 38.2627 35.5922 38.3263C35.5283 38.3263 35.4644 38.3263 35.4644 38.3899C34.7615 38.5805 34.1225 38.7712 33.5474 39.089C31.7582 40.0424 30.4802 41.6314 30.4802 44.1102C30.4802 44.1737 30.5441 44.2373 30.608 44.2373V44.3009C30.5441 44.3009 30.4802 44.3009 30.4802 44.3009C30.4163 44.3009 30.3524 44.3009 30.2885 44.3009C30.2246 44.2373 30.1607 44.2373 30.0968 44.1737C29.9051 44.1102 29.7134 44.1737 29.5217 44.1737C28.3076 41.7585 24.9209 40.9322 22.4927 40.8051C22.4288 40.8051 22.3649 40.8051 22.301 40.8051C21.2147 40.8051 20.1284 40.9322 19.106 41.1865C19.1699 41.1865 19.2338 41.1229 19.2338 41.1229C20.1284 40.9322 20.7035 40.4237 21.1508 39.7246C21.1508 39.7246 21.4703 39.089 21.9815 38.0721C21.9815 37.8814 21.9815 37.6907 21.9815 37.5C21.9815 35.8475 22.6205 34.1314 21.7898 32.4788C21.4064 31.7797 21.0869 31.017 20.7674 30.2543C20.2562 29.0466 19.8089 27.839 19.2977 26.6314C19.2977 26.6949 19.3616 26.6314 19.4255 26.5678ZM26.1989 28.856C26.2628 28.7924 26.3267 28.7288 26.3906 28.6653C26.6462 28.9831 26.8379 29.3009 27.0935 29.6187C27.0296 29.6822 26.9657 29.6822 26.9018 29.7458L26.1989 28.856ZM19.1699 30.3178C19.3616 30.8263 19.745 31.3983 19.106 31.9068C18.9782 32.0339 19.0421 32.3517 19.0421 32.606C19.0421 33.1144 19.0421 33.6229 19.0421 34.1314C18.2753 31.5254 17.253 28.9831 16.8696 26.3136C16.9335 26.3136 17.0613 26.25 17.1252 26.25C17.1252 26.3136 17.0613 26.4407 17.0613 26.5043C16.9974 26.6314 17.1891 26.6949 17.4447 26.6314C17.5725 26.8221 17.7642 27.0127 17.8281 27.267C18.2753 28.2204 18.7226 29.2373 19.1699 30.3178ZM16.2306 17.3517C17.5725 19.2585 17.892 21.6738 17.5725 23.9619H17.5086C17.253 24.089 16.9974 24.089 16.7418 24.1526C16.6779 24.1526 16.5501 24.2161 16.4862 24.2161C16.5501 24.089 16.614 23.9619 16.6779 23.8348C17.892 21.2288 15.7194 17.5424 13.6107 15.6992C14.5692 16.0805 15.4638 16.6526 16.2306 17.3517ZM14.1219 18.5593C13.9941 18.4958 13.8024 18.3687 13.6746 18.3051C13.0356 17.3517 12.0771 16.589 10.9908 16.3348C10.3518 16.2076 9.71277 16.3348 9.13767 16.589C9.39327 15.8899 9.96837 15.3814 10.9269 15.5721C11.9493 15.8263 12.78 16.7161 13.3551 17.4788C13.6746 17.7966 13.9302 18.178 14.1219 18.5593ZM3.51448 17.2882C5.94267 14.0466 9.77667 13.1568 13.0995 14.7458C12.7161 14.6822 12.3327 14.6822 11.8854 14.6822C10.7991 14.3644 9.77667 14.5551 9.00987 15.1271C7.47627 15.6356 6.00657 16.589 4.79248 17.7966C3.89788 18.6865 3.45058 19.8941 3.32278 21.1653C2.55598 21.6102 1.85308 22.1822 1.46968 22.8178C1.53358 20.9746 2.17258 19.0678 3.51448 17.2882Z" fill="#28336D"/>
<path d="M16.0389 71.8857C15.7833 76.4619 18.0198 80.4662 19.6812 84.534C19.8729 84.9789 21.087 84.5975 21.087 84.1526C21.087 80.9746 20.5119 77.9238 20.5758 74.7458C20.6397 70.9958 19.4256 67.945 18.7227 64.3221C18.6588 63.8772 17.253 64.2585 17.3169 64.7035C17.892 67.8179 19.1061 70.6145 19.17 73.9196C19.2339 76.1441 19.3617 78.3687 19.4895 80.5933C18.2754 77.7331 17.1891 74.8094 17.3808 71.695C17.5086 71.1865 16.1028 71.5043 16.0389 71.8857Z" fill="#28336D"/>
<path d="M140.835 65.5932C141.219 65.5297 141.474 65.7204 141.73 65.9746C142.497 66.6102 143.327 67.2458 144.286 67.1822C145.181 67.1187 145.947 67.3093 146.778 67.6271C145.819 70.3602 144.925 73.9831 144.925 78.178C144.925 78.178 146.778 72.5212 148.375 68.0085C148.503 68.0085 148.567 68.0085 148.695 68.0721C148.887 68.1356 149.142 68.1356 149.462 68.1356C149.462 68.1356 150.612 67.9449 149.845 67.5C149.462 67.3093 149.078 67.1187 148.759 66.9916C149.078 66.1017 149.398 65.339 149.653 64.7034C149.909 64.8941 150.229 64.8305 150.676 64.5127C150.74 64.4492 150.868 64.3856 150.868 64.3221C151.57 63.1144 152.529 62.0975 153.04 60.6992C153.296 60 153.296 59.9365 152.785 59.3009C153.232 58.2204 153.679 57.2034 154.19 55.9958C154.957 56.1229 155.724 56.3136 156.555 56.4407C156.555 57.0127 156.555 57.5212 156.555 58.0297C156.555 58.1568 156.491 58.411 156.363 58.4746L156.619 59.0466C157.13 59.6822 157.513 60.3178 157.96 60.8263C158.663 61.6526 159.558 61.8432 160.58 61.4619C161.986 60.9534 162.945 60 163.52 58.6017C163.711 58.1568 163.903 57.6483 164.159 57.2034C164.287 57.3305 164.35 57.3305 164.414 57.3941C164.542 57.6483 164.734 57.839 164.862 58.0933C166.012 59.8729 167.609 60.9534 169.782 61.2077C171.443 61.3983 173.169 61.3983 174.83 61.017C176.172 60.6992 177.386 60.2543 178.536 59.428C181.795 57.1399 184.735 54.4704 187.035 51.2288C187.802 50.2119 188.441 49.0678 188.505 47.7331C188.505 47.4788 188.632 47.2246 188.76 46.9704C189.144 47.0975 189.463 47.1611 189.846 47.2246C189.974 47.2882 190.102 47.2882 190.23 47.3517C191.188 47.6695 191.252 47.9238 191.124 48.8772C190.677 52.0551 188.952 54.661 187.163 57.2034C184.415 61.1441 180.773 64.2585 176.619 66.6738C174.447 67.9449 172.146 68.3263 169.654 67.8814C169.526 67.1187 169.399 66.4195 169.207 65.7204C169.015 65.0212 168.76 64.3856 168.568 63.75C168.504 63.75 168.376 63.75 168.312 63.8136C168.312 64.2585 168.248 64.767 168.312 65.2119C168.632 68.6441 168.951 72.0763 169.271 75.5085C169.335 76.1441 169.399 76.7797 169.462 77.4153C169.462 79.8305 171.06 84.3432 171.443 84.3432C171.188 82.5636 170.229 73.9195 170.038 72.1399C169.91 71.3136 169.91 70.4238 169.846 69.7246C170.932 69.661 171.891 69.5975 172.913 69.4704C174.383 69.3432 175.789 68.8983 177.003 68.1356C180.773 65.8475 184.287 63.3687 186.971 59.8093C189.207 56.8856 191.38 53.8983 192.275 50.2119C192.466 49.2585 192.914 48.3051 192.594 47.2882C192.466 46.7797 192.466 46.4619 192.722 46.017C192.914 45.7627 193.041 45.445 193.233 45.1272C193.872 43.9195 194.192 42.7119 193.872 41.3136C193.68 40.3602 193.233 40.106 192.339 40.4238C192.275 40.4238 192.147 40.4238 192.019 40.4873C192.019 39.9153 192.083 39.2161 191.444 39.089C190.677 38.8983 190.422 39.661 190.102 40.1695C189.846 40.5509 189.719 40.9958 189.463 41.4407C189.016 41.0594 188.824 40.4873 188.185 40.678C187.482 40.8687 187.29 41.5043 187.163 42.1399C187.099 42.3941 187.163 42.6483 187.099 42.839C186.971 43.9831 187.61 45.1272 186.971 46.2712C186.907 46.3983 187.035 46.589 187.035 46.7797C187.035 47.6695 186.971 48.5594 186.46 49.3221C184.862 51.8009 182.945 54.089 180.581 55.9322C180.389 56.0594 180.262 56.1229 179.942 56.3136C180.453 54.2797 180.964 52.4365 181.412 50.5933C182.37 46.3983 182.562 42.1399 182.179 37.8814C182.051 36.356 181.795 34.8941 180.964 33.5594C180.709 33.1144 180.453 32.6695 180.645 32.0975C180.709 31.9704 180.645 31.6526 180.581 31.5255C180.07 31.017 180.07 30.3178 179.942 29.7458C179.623 28.6017 179.367 27.3941 179.047 26.25C178.408 23.8983 177.258 21.8009 176.172 19.6399C175.213 17.7331 173.552 16.589 171.635 15.7628C167.673 14.0467 163.456 13.4111 159.175 13.4746C158.088 13.4746 157.066 13.6653 156.107 13.7289C155.852 13.4746 155.66 13.2204 155.468 13.1568C155.085 13.0933 154.638 13.0933 154.254 13.0933C152.912 13.2204 151.826 14.0467 150.804 14.9365C149.717 15.8899 148.695 16.9704 147.481 17.7966C145.244 19.3221 143.455 21.356 141.666 23.3263C140.644 24.4704 139.685 25.6144 139.11 27.0763C138.854 27.7755 138.663 28.5382 138.407 29.2373C137.768 31.0805 137.449 33.0509 137.385 35.0212C137.193 38.5805 137.64 42.0763 138.088 45.6356C138.215 46.4619 138.343 47.2882 138.024 48.0509C137.896 48.3687 137.832 48.75 137.896 49.0678C138.088 49.6399 137.832 50.1483 137.704 50.6568C137.129 52.6271 136.554 54.5339 136.362 56.5678C136.171 59.1102 136.554 61.589 137.896 63.8136C138.599 64.9577 139.493 65.7204 140.835 65.5932ZM188.185 41.8221C188.313 41.8221 188.377 41.8221 188.505 41.7585C188.568 42.2034 188.696 42.5848 188.76 43.0297C188.824 43.2204 188.76 43.4746 188.888 43.6017C188.952 43.7924 189.207 43.9195 189.335 43.9195C189.463 43.9195 189.719 43.7288 189.783 43.6017C189.974 43.1568 190.102 42.6483 190.294 42.1399C190.422 41.7585 190.549 41.3772 190.741 40.9322C191.38 41.5043 190.422 42.5212 191.508 42.9026C191.891 42.4577 192.275 42.0127 192.722 41.5043C193.169 42.839 192.722 44.1102 191.188 46.1441C190.358 45.8899 189.463 45.5721 188.632 45.2543C188.441 45.1907 188.185 45.0636 188.185 44.9365C187.929 43.9195 187.866 42.839 188.185 41.8221ZM140.005 58.2204C139.366 59.3644 139.174 60.5721 138.918 61.9704C138.407 60.9534 138.152 60.0636 138.152 59.0466C138.982 59.1102 139.302 58.5382 139.557 57.9026C139.813 57.3305 140.005 56.7585 140.452 56.25C140.388 56.9492 140.388 57.6483 140.005 58.2204ZM140.196 47.6695C140.132 47.606 140.069 47.5424 140.005 47.5424C140.26 47.161 140.452 46.7797 140.708 46.3348C140.771 46.3348 140.771 46.3983 140.835 46.3983C140.644 46.8433 140.388 47.2246 140.196 47.6695ZM141.219 63.1144C141.091 62.9873 141.155 62.7331 141.155 62.5424C141.347 61.2077 141.538 59.8094 141.794 58.4746C141.794 58.411 141.858 58.411 141.986 58.2839C142.369 58.6017 142.305 59.0466 142.305 59.4916C142.369 60.5721 142.369 61.6526 142.497 62.6695C142.625 63.4322 142.944 64.1949 143.2 65.0212C142.241 64.767 141.794 63.8771 141.219 63.1144ZM142.497 47.6695C142.497 47.7966 142.561 47.9238 142.561 48.1144C142.561 48.2416 142.433 48.3687 142.369 48.5594C142.305 48.5594 142.241 48.4958 142.177 48.4958C142.241 48.2416 142.305 47.9873 142.369 47.7331C142.433 47.6695 142.497 47.6695 142.497 47.6695ZM143.072 44.0466C142.944 44.7458 142.88 45.2543 142.752 45.8899C142.241 45.3178 142.241 45.1907 143.072 44.0466ZM142.305 54.661C142.305 54.7882 142.305 54.9153 142.305 55.106C142.305 55.106 142.241 55.106 142.177 55.1695C142.177 55.0424 142.177 54.8517 142.177 54.7246C142.241 54.661 142.305 54.661 142.305 54.661ZM142.561 41.6314C142.497 41.5678 142.433 41.5043 142.369 41.5043C142.688 40.9322 143.008 40.3602 143.391 39.5975C143.455 40.5509 142.88 41.0594 142.561 41.6314ZM139.813 44.3009C139.238 43.411 139.302 42.7119 139.813 41.9492C141.027 40.2331 142.241 38.517 143.455 36.8644C143.583 36.6738 143.711 36.5466 143.839 36.4195C143.903 36.4831 143.966 36.4831 144.03 36.5466C142.625 39.089 141.219 41.6949 139.813 44.3009ZM144.478 48.6865C144.797 49.3221 145.053 49.767 145.244 50.2119C145.308 50.339 145.372 50.5297 145.308 50.5933C144.733 51.7373 145.308 52.8814 145.308 54.0255C145.308 54.1526 145.308 54.2161 145.308 54.3433C144.414 53.0085 144.094 51.1017 144.478 48.6865ZM147.353 66.2288C146.842 65.911 146.267 65.6568 145.756 65.339C145.181 65.0212 144.925 64.5763 144.925 63.8771C144.925 63.0509 144.797 62.161 144.861 61.2712C144.989 61.6526 145.18 61.9704 145.308 62.3517C145.628 63.1144 145.947 63.8771 146.267 64.6399C146.458 65.1483 146.842 65.4661 147.353 65.4026C147.481 65.4026 147.673 65.339 147.736 65.2754C147.609 65.5932 147.481 65.911 147.353 66.2288ZM145.692 58.0297C145.756 58.0297 145.883 57.9661 145.947 57.9661C146.203 59.428 146.522 60.8263 146.778 62.2882C146.075 60.9534 145.82 59.4916 145.692 58.0297ZM148.184 64.3856C148.184 64.1314 148.312 64.0043 148.439 63.8771C148.375 64.0043 148.248 64.1949 148.184 64.3856ZM149.845 62.2246L149.59 62.0975C149.781 61.8432 149.909 61.589 150.101 61.3348C150.165 61.3983 150.229 61.3983 150.292 61.4619L149.845 62.2246ZM150.356 56.9492C150.037 56.5043 149.845 56.1229 149.526 55.678C149.078 56.5043 149.142 57.3305 149.334 58.0933C149.526 58.7924 149.398 59.3644 148.823 60.0636C148.375 58.1568 147.992 56.3771 147.609 54.661C147.545 54.661 147.481 54.661 147.417 54.661C147.289 54.9153 147.161 55.1695 147.034 55.4873C146.778 54.2797 146.586 53.1356 146.331 51.8009C147.928 53.1992 149.398 54.5339 151.379 55.106C150.995 55.7416 150.74 56.3136 150.356 56.9492ZM151.315 57.0127C151.251 57.0127 151.251 56.9492 151.187 56.9492C151.315 56.4407 151.443 55.8687 151.634 55.2331C151.89 55.2966 152.082 55.3602 152.337 55.4873C151.954 55.9958 151.634 56.5043 151.315 57.0127ZM160.58 60.1907C159.75 60.5721 159.302 60.5085 158.663 59.8093C157.897 58.9195 157.705 57.9026 157.769 56.6949C159.622 56.5678 161.347 56.4407 163.136 56.3136C162.625 57.839 162.242 59.428 160.58 60.1907ZM164.542 56.5678C164.287 56.3136 164.478 55.8687 164.926 55.678C165.309 55.4873 165.756 55.4238 166.204 55.2331C167.034 54.9788 167.929 54.7246 168.76 54.3433C169.335 54.089 169.846 53.5805 170.421 53.1992C170.549 53.8348 170.421 54.3433 169.91 54.661C169.399 54.9788 168.887 55.2966 168.376 55.6144C167.929 55.8687 167.482 56.1229 167.098 56.4407C166.715 56.8221 166.459 57.3305 166.076 57.9026C165.628 57.5848 165.053 57.1399 164.542 56.5678ZM168.823 59.8093C168.057 59.428 167.418 59.1102 166.715 58.7924C168.057 58.2839 168.951 57.2034 170.165 56.3771C169.718 57.5848 169.271 58.6653 168.823 59.8093ZM172.402 59.4916C171.955 60.3178 171.06 59.8093 170.229 60C171.124 58.7924 171.955 57.7119 172.785 56.6314C173.808 57.7755 172.849 58.6653 172.402 59.4916ZM172.594 54.7246C172.849 55.4238 172.785 55.7416 172.402 55.9958C172.338 55.9322 172.274 55.9322 172.146 55.8687C172.338 55.5509 172.402 55.2331 172.594 54.7246ZM172.274 52.1187C172.594 51.4195 172.913 50.6568 173.36 49.767C173.552 51.1017 173.233 51.8009 172.274 52.1187ZM179.623 52.2458C179.303 53.8348 178.792 55.3602 178.856 57.0127C178.856 57.2034 178.728 57.3941 178.6 57.5212C177.067 58.7288 175.341 59.6187 173.233 59.7458C173.488 59.1738 173.744 58.6653 174.063 57.9661V59.428C174.511 58.9831 174.894 58.7924 175.15 58.411C176.236 56.6949 177.322 54.9788 178.345 53.2627C178.792 52.5636 179.111 51.8009 179.686 51.1017C179.686 51.4831 179.686 51.928 179.623 52.2458ZM178.984 42.3305C178.217 44.4916 176.875 46.3348 175.789 48.4322C175.405 46.4619 176.364 44.9365 178.984 42.3305ZM179.942 48.4958C179.878 48.8772 179.814 49.3221 179.75 49.767C179.431 49.6399 179.239 49.5127 178.856 49.3221C179.175 48.6229 179.495 48.0509 179.814 47.4153C179.878 47.4153 179.942 47.4788 180.006 47.4788C179.942 47.7966 179.942 48.1144 179.942 48.4958ZM179.239 44.9365C179.175 44.9365 179.111 44.8729 179.047 44.8729C179.431 43.9831 179.814 43.0933 180.198 42.2034C180.709 43.4746 179.559 43.9831 179.239 44.9365ZM180.262 37.5C180.325 37.5 180.389 37.5636 180.453 37.5636V40.9322C179.559 40.4873 179.367 40.4873 178.792 40.9958C178.345 41.3772 177.961 41.7585 177.45 42.1399C178.345 40.5509 179.303 39.0255 180.262 37.5ZM179.431 34.6399C179.814 35.7204 178.984 35.9111 178.664 36.356C178.6 36.2924 178.536 36.2288 178.472 36.2288C178.792 35.7839 179.047 35.2755 179.431 34.6399ZM177.642 33.4958C177.578 33.4322 177.45 33.4322 177.386 33.3687C177.706 32.6695 178.089 31.9704 178.472 31.1441C179.239 32.4788 178.025 32.7966 177.642 33.4958ZM175.98 33.6865C175.916 33.4958 175.852 33.3687 175.852 33.3051C175.916 33.0509 175.98 32.8602 176.108 32.606C176.683 31.4619 177.258 30.3814 177.961 29.3009C177.961 30.1272 177.003 32.2882 175.98 33.6865ZM175.98 30.3814C176.428 29.3644 176.939 28.2839 177.45 27.2034C177.769 27.9026 177.45 28.6653 175.98 30.3814ZM174.766 30.6356C174.702 30.6356 174.638 30.6356 174.574 30.5721C174.511 30.445 174.447 30.2543 174.511 30.1272C175.086 28.7924 175.661 27.5212 176.491 26.3136C176.555 26.3772 176.619 26.4407 176.683 26.5043C176.044 27.839 175.405 29.2373 174.766 30.6356ZM174.638 35.339C174.511 34.8941 174.383 34.5127 174.191 34.0678C174.766 34.3856 174.83 34.8305 174.638 35.339ZM176.3 23.8983C176.683 24.5339 176.683 24.5339 175.725 25.3602C175.98 24.7882 176.108 24.4068 176.3 23.8983ZM175.469 22.945C175.533 23.0085 175.661 23.0721 175.725 23.0721C174.574 25.678 173.488 28.2204 172.338 30.8899C172.146 30.7627 172.018 30.6356 171.827 30.5085C172.594 29.8094 172.785 28.856 173.105 28.0297C173.808 26.4407 174.511 24.9153 175.15 23.3263C175.277 23.1992 175.405 23.0721 175.469 22.945ZM173.999 31.7161V33.1144C173.233 32.5424 173.233 32.5424 173.999 31.7161ZM174.83 22.3729C174.063 23.7077 173.296 25.106 172.53 26.5043C172.466 26.5043 172.466 26.5043 172.402 26.5043C173.041 24.5975 173.68 22.7543 174.383 20.8475C175.341 21.4195 175.341 21.5466 174.83 22.3729ZM170.996 29.6822C170.421 29.3644 169.974 29.0466 169.462 28.7288C170.677 25.9322 171.252 22.8814 173.36 20.5297C172.53 23.5805 171.06 26.3772 170.996 29.6822ZM166.395 15.9534C168.887 16.3983 171.188 17.3517 173.105 19.195C170.804 21.6738 169.974 24.7882 168.76 27.7755L168.504 27.7119C168.568 27.3941 168.568 27.0763 168.632 26.8221C169.143 25.1695 169.654 23.517 170.101 21.8644C170.293 21.2289 170.485 20.5297 170.677 19.8941C170.74 19.6399 170.804 19.3221 170.804 19.0678C170.74 18.8136 170.613 18.4958 170.421 18.3051C170.165 18.0509 169.846 18.178 169.59 18.4322C168.951 19.195 168.248 19.8941 167.609 20.6568C167.226 21.1653 166.906 21.7373 166.587 22.3094C166.523 22.3094 166.459 22.2458 166.395 22.2458C166.523 21.8644 166.715 21.5466 166.843 21.1653C167.226 20.1483 167.609 19.1314 167.993 18.0509C168.121 17.606 168.248 17.1611 167.801 16.8433C167.482 16.6526 166.97 16.8433 166.587 17.3517C166.076 17.9873 165.692 18.6229 165.245 19.3221C165.181 19.3221 165.181 19.3221 165.117 19.2585C165.309 18.75 165.501 18.178 165.756 17.6695C165.948 17.1611 166.14 16.589 166.395 15.9534ZM169.846 19.8941C169.015 22.5636 168.184 25.2331 167.29 28.0297C166.715 27.9026 166.012 27.7755 165.245 27.6483C166.715 24.8517 167.609 21.9916 169.846 19.8941ZM163.136 28.0933C162.689 27.839 162.37 27.7119 161.986 27.5212C163.264 24.7882 164.67 22.1822 166.331 19.7034C165.309 22.4365 163.775 24.9789 163.136 28.0933ZM164.926 17.9238C163.648 20.4661 162.37 23.0085 161.092 25.5509C160.964 25.7416 160.644 25.8687 160.389 25.9958C160.325 26.7585 160.197 27.4577 160.197 28.2204C160.197 28.4746 160.197 28.7924 160.389 28.9195C160.58 29.0466 160.9 28.856 161.092 28.7924C161.155 28.7924 161.219 28.6653 161.347 28.6017C162.306 29.2373 163.2 29.8094 164.095 30.445C164.095 30.445 164.095 30.5085 164.095 30.6356C161.922 30.5085 159.941 29.9365 158.472 28.2204C159.558 26.25 160.644 24.2797 161.667 22.3094C162.753 20.4026 163.711 18.4322 165.309 16.8433C165.181 17.1611 165.053 17.5424 164.926 17.9238ZM163.775 15.445C164.159 15.5085 164.478 15.5721 164.926 15.6356C164.031 16.9068 163.136 18.1144 162.306 19.3221L162.242 19.2585C162.689 17.9873 163.2 16.7797 163.775 15.445ZM161.347 15.1272C161.347 15.1272 161.475 15.1907 161.539 15.1907C161.475 15.3178 161.411 15.5085 161.283 15.6356C161.219 15.6356 161.155 15.5721 161.092 15.5721C161.155 15.445 161.219 15.2543 161.347 15.1272ZM161.922 16.7161C161.986 17.4153 161.539 17.9873 161.283 18.5594C160.197 20.7204 159.047 22.8178 157.96 24.9789C157.705 25.5509 157.449 26.1229 157.194 26.7585C156.491 25.9322 156.491 25.9322 156.874 25.2331C158.152 22.945 159.43 20.6568 160.708 18.4322C161.092 17.7331 161.475 17.2246 161.922 16.7161ZM159.814 16.3983C158.663 18.8772 157.321 21.2289 155.788 23.517C155.724 23.6441 155.468 23.5805 155.341 23.6441C155.277 24.089 155.149 24.5339 155.021 25.1695C154.254 24.0255 154.254 23.8983 154.829 23.0085C156.107 21.1653 157.321 19.3221 158.599 17.4789C158.919 17.0339 159.302 16.6526 159.622 16.2077L159.814 16.3983ZM156.171 27.3941C156.107 27.3941 156.043 27.4577 156.043 27.4577L155.724 26.9492C155.788 26.9492 155.852 26.8856 155.916 26.8856C155.98 27.0127 156.043 27.2034 156.171 27.3941ZM155.277 18.4322C154.893 19.0678 154.446 19.6399 153.999 20.339C153.807 19.6399 153.807 19.6399 155.277 18.4322ZM153.807 18.0509C154.254 17.5424 154.702 17.0975 155.085 16.589C154.893 17.2882 154.446 17.7966 153.935 18.178L153.807 18.0509ZM158.472 15C158.536 14.8729 158.983 14.9365 159.494 14.8729C158.855 15.6356 158.408 16.2077 157.897 16.7797C157.833 16.7797 157.769 16.7161 157.769 16.7161C157.96 16.1441 158.152 15.5721 158.472 15ZM156.938 15.0636C156.427 15.5721 155.98 15.9534 155.66 16.2077C155.788 15.6992 156.107 15.3814 156.938 15.0636ZM149.078 17.7966C150.548 16.9068 151.89 15.6992 153.615 15.2543C154.318 15.0636 155.021 15 155.724 14.8729C155.724 14.9365 155.788 15 155.788 15.0636C155.532 15.3178 155.341 15.5085 155.085 15.7628C154.51 16.3348 153.999 16.9068 153.424 17.4789C152.976 17.9873 152.657 18.5594 151.826 18.4958C151.443 18.4958 151.059 18.8772 150.676 19.0678C149.717 19.6399 148.759 20.2755 147.8 20.9111C147.736 20.8475 147.736 20.7839 147.673 20.7204C149.334 19.3221 151.059 17.9873 152.848 16.5255C152.146 16.3348 151.634 16.5255 151.187 16.9068C150.229 17.6695 149.334 18.4322 148.375 19.195C147.736 19.7034 147.034 20.2119 146.331 20.7839C146.267 20.7204 146.203 20.6568 146.139 20.5933C147.097 19.6399 147.928 18.4958 149.078 17.7966ZM147.8 26.8221C147.736 27.267 147.736 27.7755 147.034 27.6483C147.353 27.3941 147.545 27.0763 147.8 26.8221ZM145.692 39.089C145.756 38.7077 145.756 38.2627 145.883 37.8814C146.778 35.0848 147.673 32.2882 148.567 29.5551C148.887 28.6017 149.206 27.6483 149.462 26.695C149.59 26.1865 149.59 25.7416 149.142 25.4238C149.59 23.9619 150.74 23.0721 151.762 22.1187L152.018 22.2458C151.507 24.0255 151.123 25.8687 150.484 27.6483C149.845 29.3644 149.014 31.017 148.375 32.7966C149.845 32.1611 150.74 30.8899 151.443 29.6187C152.209 28.3475 152.657 26.8856 153.296 25.4238C153.487 25.8687 153.679 26.3136 153.935 26.7585C154.51 28.0297 155.277 29.1738 156.491 29.9365C157.13 30.3178 157.833 30.5721 158.536 30.8263C159.111 31.017 159.75 31.1441 160.325 31.3348C161.155 31.6526 161.986 31.8433 162.881 31.7161C163.648 31.6526 164.287 31.3348 164.798 30.7627C166.076 31.017 167.162 32.1611 168.76 31.2077C167.545 29.8729 166.012 29.4916 164.67 28.6653C164.798 28.4746 164.926 28.2204 165.117 27.9661C165.692 28.2839 166.267 28.4746 166.779 28.7924C167.162 29.0466 167.418 29.5551 167.865 29.8094C168.248 30 168.823 29.9365 169.207 30.1272C170.421 30.7627 171.379 31.7161 172.082 32.9238C172.849 34.195 173.552 35.4661 174.255 36.8009C174.383 37.0551 174.319 37.3729 174.255 37.6907C174.191 38.0085 174.063 38.2627 173.935 38.5805C173.68 39.4704 173.935 39.661 174.83 39.5339C174.894 39.5339 174.958 39.5339 175.15 39.5339C175.086 39.8517 175.022 40.106 174.894 40.4238C174.574 41.1865 174.255 41.9492 174.511 42.839C174.574 43.0933 174.447 43.4746 174.319 43.7288C173.488 45.7627 172.657 47.7331 171.827 49.7034C171.763 49.767 171.763 49.8941 171.699 49.9577C170.357 51.2924 168.951 52.6907 166.97 53.1992C165.565 53.5805 164.095 54.0255 162.689 54.4068C160.836 54.9153 158.919 54.9788 157.066 54.7882C154.957 54.5339 152.912 53.9619 150.931 53.1992C149.206 52.5 147.673 51.356 146.714 49.7034C145.947 48.4322 145.308 47.0975 144.669 45.7627C144.478 45.3178 144.414 44.7458 144.478 44.2373C144.605 42.7119 144.861 41.25 145.628 39.8517C145.692 39.5975 145.628 39.3433 145.692 39.089ZM143.327 35.5933C143.264 35.5297 143.2 35.5297 143.136 35.4661C143.839 34.3856 144.605 33.2416 145.436 31.9704C145.436 33.8136 144.158 34.5763 143.327 35.5933ZM139.749 30C140.196 28.7289 140.771 27.5212 141.283 26.3136C141.474 25.8051 141.858 25.5509 142.433 25.3602C143.072 25.1695 143.647 24.7882 144.286 24.4704C144.542 24.3433 144.733 24.2161 145.053 24.2161C144.286 24.8517 143.519 25.4238 142.816 26.1229C142.305 26.5678 141.858 27.1399 141.474 27.6483C141.283 27.9026 141.027 28.2204 141.41 28.5382C141.73 28.7924 142.049 28.7289 142.369 28.6017C142.561 28.5382 142.688 28.4111 143.008 28.4111C142.241 29.3009 141.474 30.1907 140.708 31.1441C140.452 31.4619 140.132 31.8433 139.941 32.2246C139.621 32.9238 139.621 32.9873 140.452 33.4958C140.005 34.1314 139.557 34.7034 139.11 35.339C138.918 33.4322 139.174 31.6526 139.749 30ZM139.43 37.5636C140.708 36.1017 141.922 34.6399 143.2 33.178C143.327 33.0509 143.455 32.9238 143.583 32.7966L143.647 32.8602C142.177 35.2119 140.644 37.5 139.11 39.8517C138.727 38.7712 138.791 38.3263 139.43 37.5636ZM138.343 54.4068L138.599 54.5339C138.535 54.8517 138.407 55.106 138.343 55.4238C138.279 55.4238 138.215 55.3602 138.152 55.3602C138.215 55.106 138.279 54.7246 138.343 54.4068Z" fill="#28336D"/>
<path d="M152.912 70.2332C152.912 70.106 152.912 69.9789 152.912 69.8518C152.465 70.6145 152.146 71.3772 151.954 72.1399C151.507 73.5382 151.187 74.9365 150.868 76.3984C150.868 77.5425 151.059 79.4492 151.443 79.4492C151.698 77.3518 152.593 72.2671 152.912 70.2332Z" fill="#28336D"/>
</svg>
