<svg width="43" height="40" viewBox="0 0 43 40" fill="none" xmlns="http://www.w3.org/2000/svg">
<g clip-path="url(#clip0)">
<path d="M29.0614 1.57952C27.8999 1.15683 26.5561 0.934363 25.1213 0.889869C22.821 -0.511688 19.3819 0.0444855 16.9904 0.578412C13.4375 1.3793 8.54076 3.07007 5.39776 6.47385C1.11598 11.1235 -0.865483 17.9088 0.364389 23.7597C1.57149 29.4772 5.60274 35.0612 10.4083 37.6418C13.5969 39.3548 17.3776 40 20.9989 40C23.7547 40 26.4195 39.6218 28.6515 39.0656C33.6621 37.7975 38.1033 34.1713 40.8363 29.1435C43.4099 24.3826 43.706 18.9099 41.6562 13.7041C39.447 8.14237 34.7325 3.604 29.0614 1.57952ZM23.3676 1.95772C23.4814 2.15794 23.6864 2.26918 23.9369 2.26918C24.3014 2.26918 24.6885 2.31367 25.144 2.35817C25.4401 2.62513 25.6679 2.91434 25.8729 3.24805C26.0551 3.53726 26.3739 3.58175 26.6017 3.44827C26.8294 3.33703 26.9889 3.07007 26.8294 2.75861C26.8067 2.69187 26.7611 2.64738 26.7383 2.58064C32.455 3.73748 37.4428 8.00889 39.8114 13.7931C39.9708 14.1046 40.0164 14.238 40.0619 14.3938C40.0847 14.4828 40.1075 14.5495 40.153 14.6385C40.6313 15.951 40.9502 17.3081 41.1096 18.6874C41.1324 18.8432 41.1552 18.9321 41.1552 19.0211C41.2007 19.2436 41.2007 19.2658 41.2007 19.911C41.2918 21.7575 41.0868 23.5595 40.6086 25.2503C37.42 36.396 25.1896 39.8888 14.7357 37.5751C12.1393 36.9967 9.90729 35.7953 7.92583 33.9043C7.69807 33.6819 7.69807 33.6819 7.40199 33.3704C5.92159 31.8354 4.57784 29.8776 3.30242 27.4305C-0.341649 20.3782 2.18642 13.6819 4.96502 9.32146C7.12869 5.91768 10.3172 4.20466 14.394 2.71412C16.4894 1.95772 18.2659 1.49054 19.8601 1.29031C20.384 1.24582 20.384 1.24582 20.7484 1.20133C20.9761 1.17908 21.2039 1.17908 21.4089 1.17908C22.1149 1.17908 22.7526 1.24582 23.322 1.40155C23.2537 1.60177 23.2765 1.80199 23.3676 1.95772Z" fill="white"/>
<path d="M20.1107 9.05454C18.7898 10.2559 18.7898 12.4361 18.7898 14.1936C18.7898 14.6163 18.7898 15.0167 18.767 15.3727C18.6986 16.7297 18.6531 17.9978 18.6075 19.1991C17.7876 19.1102 17.0133 19.0212 16.2617 18.9099C15.6923 18.8209 15.3051 19.2436 15.2368 19.6886C15.1912 20.0445 15.3507 20.445 15.8517 20.5117C16.7172 20.6452 17.6282 20.7564 18.5392 20.8454C18.3798 25.495 18.357 29.2992 18.4481 32.8143C18.4481 33.1257 18.6075 33.3704 18.8809 33.5039C19.0175 33.5707 19.1769 33.6152 19.3136 33.6152C19.473 33.6152 19.6324 33.5707 19.7691 33.4817C20.0196 33.3482 20.1335 33.1035 20.1335 32.792C20.0424 29.277 20.0652 25.5173 20.2246 20.9566C21.9328 21.0679 23.6181 21.0901 25.2807 21.0234C25.5996 21.0234 25.8501 20.8677 25.9868 20.6007C26.1462 20.3337 26.1234 19.9778 25.964 19.7108C25.8046 19.4883 25.5768 19.3549 25.258 19.3771C23.6181 19.4439 21.9328 19.4216 20.2929 19.3104L20.3157 18.4427C20.3385 17.7753 20.3613 17.1079 20.3613 16.4405C20.384 14.8387 20.4296 13.2147 20.6573 11.6352C20.7257 11.168 20.8395 10.6563 21.1812 10.3004C21.6139 9.87767 22.2516 9.85543 22.9577 9.87767C24.142 9.92217 25.3491 10.1669 26.6473 10.6118C26.9206 10.7008 27.1939 10.6563 27.3989 10.5006C27.6266 10.3004 27.7405 9.96666 27.6722 9.6552C27.6266 9.36599 27.4216 9.12128 27.1028 9.03229C23.7548 7.89769 21.3861 7.87545 20.1107 9.05454Z" fill="white"/>
</g>
<defs>
<clipPath id="clip0">
<rect width="43" height="40" fill="white"/>
</clipPath>
</defs>
</svg>
