<svg width="146" height="156" viewBox="0 0 146 156" fill="none" xmlns="http://www.w3.org/2000/svg">
<g clip-path="url(#clip0)">
<path d="M44.3865 18.537C46.6467 17.7185 50.6862 17.1407 52.5617 19.0185C52.7541 19.2111 53.0426 19.2111 53.235 19.0667C58.2363 16.3222 63.959 17.4778 69.3931 18.1037C70.0183 18.2 70.2587 17.2852 69.6335 17.1889C64.7765 16.2741 58.7653 15.2148 54.1487 17.3815C52.9465 17.9592 53.1869 17.8629 52.0328 17.3815C51.2152 17.0444 50.3015 16.9963 49.4359 16.9481C47.6566 16.8518 45.6849 17.237 44.098 18.0555C43.8094 18.2 44.0499 18.6815 44.3865 18.537Z" fill="#E5E2E2"/>
<path d="M47.1277 12.9519C51.3596 12.2296 55.1587 12.7111 59.3425 13.337C59.8714 13.4333 60.0638 12.7111 59.5348 12.5185C55.4953 11.1704 51.071 11.363 46.9834 12.5667C46.743 12.663 46.8873 13 47.1277 12.9519Z" fill="#E5E2E2"/>
<path d="M62.9009 13.963C63.1894 14.1074 63.3818 13.6741 63.1413 13.5778C62.7085 13.3852 62.2757 13.1444 61.8429 12.9037C61.6025 12.7592 61.4101 13.1444 61.6505 13.2889C62.0353 13.5296 62.4681 13.7704 62.9009 13.963Z" fill="#E5E2E2"/>
<path d="M42.8958 54.0222C39.6257 54.0704 36.7884 54.937 33.7107 53.4444C33.326 53.2518 32.7489 53.637 33.0375 54.0704C34.8649 57.0555 40.2509 56.1889 43.0882 55.7074C44.0981 55.5629 43.9057 53.9741 42.8958 54.0222Z" fill="#E5E2E2"/>
<path d="M68.7681 53.8778C66.2193 55.1296 62.9973 55.7556 60.5448 53.9741C60.2081 53.7333 59.6791 54.2148 59.9196 54.5518C61.9874 57.5852 66.9888 56.9593 69.5856 55.0333C70.2588 54.5037 69.4413 53.5407 68.7681 53.8778Z" fill="#E5E2E2"/>
<path d="M58.7175 82.0444C59.535 81.9963 59.5831 80.7926 58.7175 80.7444C57.6114 80.6963 56.4573 80.7926 55.3512 80.7926C54.7742 80.7926 54.2452 80.7444 53.7162 80.6C53.2353 80.5037 52.9949 80.1185 52.562 79.9741C52.4659 79.9741 52.3697 79.9741 52.3216 80.0704C51.7445 81.0333 53.3315 81.8037 54.0528 81.9963C55.6398 82.4296 57.1786 82.1407 58.7175 82.0444Z" fill="#E5E2E2"/>
<path d="M74.2024 75.8815C74.4429 76.7 73.6253 76.9407 73.3368 76.1704C72.9521 75.1111 72.7116 74.0037 72.375 72.9445C72.2307 72.4148 72.0384 71.8852 71.7498 71.4037C71.5575 70.9704 71.2209 70.8259 70.9804 70.4408C70.9323 70.3445 70.9323 70.2963 70.9804 70.2C71.4613 69.4778 72.4712 70.8259 72.7597 71.4519C73.5292 72.8482 73.8177 74.3889 74.2024 75.8815Z" fill="#E5E2E2"/>
<path d="M80.7424 44.3445C77.5204 42.7074 73.7213 42.9 70.2108 42.9C65.6423 42.9482 61.0738 42.6111 56.5534 42.4667C46.9354 42.2259 37.4137 42.563 27.8439 43.6222C27.5073 43.6704 27.2187 44.0556 27.5073 44.3445C27.7958 44.6333 27.8439 44.6815 28.2767 44.6815C28.421 44.6815 28.5171 44.5852 28.5171 44.4408C37.2694 43.863 45.9737 43.3815 54.774 43.6222C59.1021 43.7185 63.4302 43.9593 67.8063 44.1037C72.1344 44.2482 76.1258 44.0556 80.3096 45.3074C80.8867 45.5482 81.3195 44.6333 80.7424 44.3445Z" fill="#E5E2E2"/>
<path d="M69.5376 49.4963C70.1147 49.0148 70.0666 48.1 69.9704 47.3778C69.9224 46.7037 69.8262 45.837 69.201 45.4519C68.9125 45.2593 68.5758 45.4519 68.4797 45.7407C68.2873 46.2222 68.3354 46.7037 68.2873 47.1852C68.2392 47.7148 67.9507 48.2444 67.9507 48.7741C67.9507 49.6407 68.9125 50.0259 69.5376 49.4963Z" fill="#47548F"/>
<path d="M43.136 46.1741C42.8475 45.7407 42.1261 45.7407 41.9818 46.3185C41.8376 46.8963 41.9337 47.4741 41.9337 48.0518C41.9337 48.7259 41.8376 49.4481 42.1742 50.0741C42.5589 50.7963 43.6169 50.6037 43.8573 49.8815C44.0497 49.3037 43.8573 48.6778 43.7131 48.0518C43.6169 47.4259 43.5207 46.7037 43.136 46.1741Z" fill="#47548F"/>
<path d="M53.4755 68.6111C54.3892 68.7555 54.5816 67.2148 53.716 67.0222C52.6099 66.7333 51.4558 66.4444 50.494 65.7704C49.1956 64.9037 48.4742 63.0741 48.3299 61.5815C48.2819 61.1 47.6567 61.1 47.6086 61.5815C47.3682 63.5074 47.7048 65.1926 49.0032 66.6852C50.2054 67.937 51.8886 68.3222 53.4755 68.6111Z" fill="#47548F"/>
<path d="M54.9666 76.9408C59.1023 77.0852 64.0555 77.0852 67.9508 75.4C68.047 75.6408 68.1432 75.8333 68.2393 76.0741C68.4317 76.6519 69.2492 76.7 69.4416 76.0741C69.9706 74.3889 68.2393 73.0407 66.9409 72.3185C66.6524 72.1741 66.2196 72.463 66.46 72.8C66.6524 73.0407 66.8447 73.3296 66.989 73.5704C63.238 75.1111 59.0542 75.1593 55.0628 75.2074C50.9752 75.2556 47.0799 75.2074 43.0885 74.2926C42.7038 74.1963 42.4633 74.7259 42.7999 74.9185C46.1181 77.2296 51.1194 76.7963 54.9666 76.9408Z" fill="#47548F"/>
<path d="M61.5544 78.7222C57.8515 79.0111 54.6776 79.8296 51.0228 78.6259C50.6861 78.5296 50.3976 78.963 50.638 79.2519C53.5234 81.8037 58.3324 81.0815 61.6987 80.0704C62.42 79.8778 62.3719 78.6741 61.5544 78.7222Z" fill="#47548F"/>
<path d="M40.7799 29.4667C38.4236 29.563 35.442 29.8519 33.9993 31.9704C33.4703 32.7889 34.4802 33.8481 35.2977 33.3185C37.8946 31.7296 41.4051 30.6222 44.5309 31.2963C44.6752 31.3444 44.9156 31.2481 44.8676 31.0556C44.7233 29.2741 42.0303 29.4185 40.7799 29.4667Z" fill="#47548F"/>
<path d="M62.6608 31.9222C66.8446 32.3074 71.4612 31.2481 74.1542 35.2926C74.6351 36.0148 75.8855 35.8222 75.8855 34.8593C75.8855 29.5148 65.7866 29.1778 62.4204 30.9111C61.8914 31.1518 62.1318 31.8741 62.6608 31.9222Z" fill="#47548F"/>
<path d="M82.7619 18.3926C85.0702 19.837 88.3403 19.8852 88.148 24.6037C88.0999 25.4704 88.9655 25.5667 89.3502 24.6037C91.7066 19.2593 85.8397 16.3704 83.0505 17.3333C82.6177 17.4296 82.4734 18.2 82.7619 18.3926Z" fill="#47548F"/>
<path d="M83.3874 23.2074C85.6957 24.6518 88.9658 24.7 88.7735 29.4185C88.7254 30.2852 89.591 30.3815 89.9757 29.4185C92.3321 24.0741 86.4652 21.1852 83.676 22.1481C83.2432 22.2444 83.0989 23.0148 83.3874 23.2074Z" fill="#47548F"/>
<path d="M83.6278 27.2519C85.9361 28.6963 89.2062 28.7444 89.0138 33.463C88.9658 34.3296 89.8314 34.4259 90.2161 33.463C92.5725 28.1185 86.7055 25.2296 83.9163 26.1926C83.5316 26.2889 83.3874 27.0593 83.6278 27.2519Z" fill="#47548F"/>
<path d="M84.0603 31.9222C86.3686 33.3666 89.6387 33.4148 89.4463 38.1333C89.3982 39 90.2638 39.0963 90.6486 38.1333C93.0049 32.7889 87.138 29.9 84.3488 30.8629C83.916 31.0074 83.7717 31.7296 84.0603 31.9222Z" fill="#47548F"/>
<path d="M90.8892 47.3296C90.6006 47.3296 90.3602 47.4741 90.0717 47.6185C89.7831 47.137 89.3022 46.6555 88.8694 46.2704C88.9656 46.3185 89.0618 46.3667 89.2061 46.3667L88.5328 45.9815C88.3404 45.837 88.1481 45.6926 87.9557 45.5481C87.6672 45.3555 87.1863 45.0185 86.7054 44.7778C86.3688 44.6333 85.9841 44.4889 85.6474 44.3926C85.5993 44.2481 85.5512 44.1518 85.4551 44.0074C85.4551 44.0074 85.4551 43.9593 85.5032 43.9593C84.878 42.6111 83.0506 42.4667 83.0506 42.4667C82.762 42.3704 82.4735 42.3222 82.2331 42.2741C81.127 42.1296 80.0209 42.2259 78.963 42.1778C78.4821 42.1778 77.8569 42.1296 77.376 42.2259C75.1639 40.2518 71.461 40.5407 68.768 40.637C65.017 40.7333 60.5927 40.3481 57.1303 42.0815C57.0341 41.9852 56.9379 41.8889 56.8418 41.8407C53.9083 40.2518 50.6382 40.6852 47.4162 40.8296C43.1843 41.0222 38.8082 40.8778 34.5763 41.5518C33.8068 41.3111 32.7008 41.5037 32.0275 41.6C31.6909 41.6481 31.3543 41.6963 31.0657 41.7444L28.9017 42.3222L27.1224 42.8518C27.1224 42.9481 27.1705 42.9963 27.2186 43.0444C27.1224 43.0444 27.0743 42.9963 27.0262 42.9963C26.5453 42.9481 26.0644 43.0926 25.7759 43.6704C25.6316 43.9111 25.5354 44.2481 25.5354 44.537C25.1507 44.2963 24.766 44.1037 24.2851 44.0555C23.9485 44.0074 23.5638 44.0555 23.3714 44.3926C22.4096 46.0296 22.7462 47.8593 22.8905 49.6407C23.0829 52.7222 23.8523 55.7074 24.6698 58.6926C25.0545 60.137 26.353 64.2296 28.3246 63.2667C28.3727 63.4111 28.3727 63.5555 28.3727 63.7481C29.046 68.9 30.152 74.2444 32.5084 78.9148C34.6244 83.2 38.0387 86.5222 42.2225 88.7852C43.1843 89.3148 44.2423 89.8444 45.3003 90.3259L46.5025 90.8556L46.791 91C49.1474 91.963 51.6481 92.7333 54.1487 93.0704C54.7739 93.1667 55.4472 93.2148 56.0723 93.263C57.9478 93.3593 59.8233 93.263 61.6507 92.9741C62.3721 92.8778 63.0934 92.7333 63.8147 92.5407C65.8826 92.0593 67.9505 91.2889 69.874 90.3259C69.874 90.3259 70.6916 89.9407 70.6916 89.8926C70.9801 89.7481 71.3167 89.5556 71.6053 89.363C72.8075 88.6889 73.9617 87.9185 75.0196 87.1C75.741 86.5704 76.4142 85.9926 77.0875 85.4148C78.4821 84.2111 79.7324 82.863 80.7904 81.4185C83.9162 77.3259 85.2627 72.463 86.3207 67.5518C86.5611 66.3481 86.8016 65.0963 87.042 63.8926C87.571 65 88.5809 66.1074 89.8793 65.6259C91.4182 65.0481 92.0914 63.7963 92.5242 62.3037C93.2937 59.6074 93.2937 56.4778 93.3418 53.7333C93.2456 52.3852 93.3898 47.0889 90.8892 47.3296ZM27.8918 61.1481C27.3628 61.3889 25.1988 53.0111 25.1507 52.7222C24.7179 50.8444 24.4775 48.8704 24.3813 46.9444C24.2851 45.2111 26.6896 47.4741 27.4109 47.8111C27.5552 47.8593 27.6514 47.8593 27.7476 47.8111C28.0361 50.363 27.6514 53.1555 27.6995 55.7074C27.7475 57.537 27.8437 59.3185 28.0361 61.1C27.988 61.1481 27.9399 61.1481 27.8918 61.1481ZM85.1665 47.763C85.1665 47.4741 85.0223 47.1852 84.7337 47.0407C82.6178 45.8852 79.3477 45.9815 76.847 46.5111C76.27 46.0296 75.2601 46.3185 75.212 47.2333C75.0677 50.7963 71.6053 52.2889 68.5756 53.0111C64.6804 53.9259 60.8813 52.6741 58.9096 49.1593C58.1883 47.8593 58.7653 44.8741 56.7937 44.4889C55.0144 44.1518 52.4656 44.2481 50.9267 45.3074C50.8306 45.3555 50.7825 45.5963 50.9748 45.5963C52.2252 45.7889 53.5717 45.5481 54.822 45.5963C57.0341 45.6926 56.5532 48.2444 57.2265 49.8815C58.3325 52.6741 60.9294 54.4555 63.7667 55.1296C63.8148 55.1296 63.8148 55.1296 63.8628 55.1296H63.9109C65.7383 55.563 67.8062 55.4667 69.7298 54.9852C71.0763 54.6481 72.3266 54.1667 73.4327 53.5889C75.3563 52.5296 77.5203 50.2185 77.3279 47.8593C78.1455 47.9074 78.963 47.9074 79.7805 47.9555C81.2713 48.0037 82.6178 48.2926 84.0124 48.7741C84.1086 48.7741 84.1567 48.8222 84.2047 48.8222C84.7818 49.2074 85.3589 49.5444 85.936 49.9296C85.936 49.9778 85.936 49.9778 85.936 50.0259C85.6955 55.2741 85.3108 60.3778 84.2528 65.5296C83.3391 70.1037 82.3292 74.4852 79.9248 78.5296C76.5585 84.0667 70.932 88.0148 64.7285 89.8926C61.8912 90.7593 58.9577 91.1444 56.0723 91.0963C54.5815 91.0481 53.0427 90.8074 51.5519 90.3741C48.4742 89.5074 45.3964 88.063 42.7996 86.6185C38.5196 84.2593 35.5862 80.4074 33.6145 75.9778C31.6909 71.5963 30.9696 66.3963 30.2963 61.6778C29.9116 58.8852 29.7192 56.0444 29.4788 53.2518C29.3345 51.1815 29.3345 49.0148 28.5651 47.0889C28.517 46.9926 28.4689 46.9444 28.4689 46.8963C28.9017 46.8963 29.3345 46.9444 29.7673 46.9444C30.3925 46.9926 31.1138 47.137 31.7871 47.137C31.739 49.063 32.3642 51.1815 33.5664 52.6259C34.1435 53.3 34.7686 53.7815 35.5381 54.1667C37.2212 54.9852 39.2891 55.1296 41.1645 55.1778C42.0302 55.1778 42.8958 55.1296 43.8095 54.9852C45.3483 54.6963 46.7429 54.0704 47.6566 52.7704C49.1474 50.6037 50.3978 47.763 49.9169 45.0667C49.8207 44.4889 48.907 44.4889 48.7627 45.0667C48.4261 46.8963 47.8009 48.5815 46.9353 50.2667C45.8292 52.4815 44.1461 53.1074 41.7897 53.2037C39.8661 53.3 37.7983 53.1555 36.067 52.2889C34.0954 51.3259 33.5183 48.2926 33.6626 46.3185C33.7107 45.5481 32.845 45.2111 32.3161 45.4518C31.4504 45.2593 30.2963 45.4518 29.4307 45.5C28.7093 45.5481 28.0361 45.5963 27.3628 45.837C27.1705 45.0667 26.6415 43.6222 27.7476 43.8148H27.7956C27.8918 43.863 27.988 43.9111 28.1804 43.863C28.3727 43.8148 28.6132 43.7185 28.8055 43.6704C29.7192 43.4296 30.7291 43.3333 31.6909 43.237C32.1718 43.1889 32.6527 43.1889 33.1336 43.237C33.2779 43.237 33.4702 43.237 33.6145 43.2852C34.1435 43.3333 34.432 43.5259 34.961 43.2852C35.0572 43.237 35.1053 43.1889 35.1533 43.0926C35.2014 43.0444 35.2014 42.9963 35.2495 42.9481C35.6823 42.9963 36.1151 42.9963 36.5479 42.9963C39.4814 43.0926 42.463 42.9963 45.3483 42.9963C48.5703 42.9963 52.658 42.1296 55.6395 43.7185C55.7357 43.7667 55.88 43.8148 55.9761 43.8148C56.0242 43.8148 56.1204 43.8148 56.1685 43.8148C56.5051 43.7667 56.7937 43.5259 56.986 43.237C59.3424 43.237 61.6507 43.0444 64.0071 42.9C65.017 42.8518 65.9788 42.8037 66.9887 42.8037C69.1046 42.8037 71.3167 42.6111 73.3846 42.9963C74.3464 43.1889 75.3082 43.5259 76.2219 44.0074C76.7509 44.2963 77.3279 44.0074 77.5684 43.5259C78.0012 43.5741 78.434 43.6704 78.9149 43.7185C79.4439 43.8148 79.9248 43.863 80.4538 43.9111C81.1751 44.0074 81.8964 44.1037 82.6178 44.2963C83.5796 44.5852 83.291 45.5963 83.6758 46.3667C83.9643 46.9926 84.8299 46.8963 85.1665 46.4148C85.2627 46.2704 85.3589 46.1259 85.407 45.9815C85.9841 46.2704 86.4649 46.7037 86.9458 47.137C87.3306 47.5222 87.7153 47.9555 88.0038 48.3889C88.1962 48.6778 88.2924 48.9185 88.4847 49.1593C88.3404 49.3518 88.2443 49.5444 88.1 49.737C87.7634 48.5815 86.3688 48.0518 85.1665 47.763ZM91.0335 54.5518C90.9854 55.7556 90.8411 56.9111 90.7449 58.0667C90.6487 59.1259 90.5526 60.137 90.3121 61.1963C90.1198 61.9667 89.3022 64.8555 88.6771 62.4481C88.4847 61.7741 87.8595 61.5815 87.3306 61.7259C87.7153 59.1741 88.0519 56.6222 88.1481 54.0704C88.2443 54.0222 88.3404 53.9741 88.3885 53.8296C88.5809 52.9148 88.8694 52.0963 89.3022 51.2296C89.4946 50.8444 90.5045 48.8222 90.793 49.5926C91.322 51.0852 91.0816 52.963 91.0335 54.5518Z" fill="#47548F"/>
<path d="M53.9082 121.863C51.2633 122.2 49.0031 124.752 47.4642 126.726C45.8773 128.796 44.146 131.348 44.4346 134.093C44.5308 135.056 45.9254 135.393 46.2139 134.333C47.5123 129.807 50.2053 125.426 54.4372 123.067C55.1586 122.681 54.5815 121.767 53.9082 121.863Z" fill="#E5E2E2"/>
<path d="M57.5634 122.489C55.8802 121.285 51.985 127.737 51.2636 128.748C47.8974 133.659 44.3868 139.678 43.2327 145.552C42.9922 146.707 44.7715 147.67 45.3005 146.419C47.6569 141.122 49.3881 135.73 52.3697 130.722C53.3315 129.037 54.3895 127.4 55.4955 125.811C56.1688 124.848 57.2748 123.885 57.7076 122.778C57.7557 122.681 57.6595 122.585 57.5634 122.489Z" fill="#E5E2E2"/>
<path d="M58.6691 129.374C57.1784 133.9 53.5716 137.752 51.071 141.748C50.1092 143.289 49.0993 144.781 48.2818 146.37C47.1757 148.489 47.0315 150.367 46.6467 152.63C46.6467 152.678 46.6467 152.678 46.6467 152.726C46.6467 152.774 46.6467 152.774 46.5987 152.822C46.5506 152.919 46.5025 153.015 46.4544 153.063C46.3101 153.256 46.0697 153.304 45.8292 153.352C45.4445 153.4 45.0117 153.207 44.7712 152.87L44.7232 152.822C44.627 152.678 44.5308 152.533 44.4827 152.389C44.3865 152.196 44.2904 152.004 44.2423 151.811C43.8575 150.704 44.0499 149.404 44.4827 148.152C44.627 147.767 44.7712 147.381 44.9636 146.996C45.3002 146.322 45.6369 145.648 46.0697 144.974C46.791 143.819 47.5124 142.759 48.0413 141.941C51.071 137.463 54.1006 132.841 57.515 128.7C57.8997 128.074 58.8615 128.7 58.6691 129.374Z" fill="#E5E2E2"/>
<path d="M58.2363 135.97C57.1783 140.93 53.3312 145.407 50.9267 149.789C50.6381 150.319 50.3496 150.848 50.0611 151.426C49.6283 152.293 48.7146 152.822 47.7528 152.822H46.5505C46.5024 152.919 46.4543 153.015 46.4062 153.063C46.4543 152.967 46.5024 152.919 46.5505 152.822C46.5505 152.774 46.5986 152.774 46.5986 152.726C46.8871 152.196 47.1276 151.715 47.368 151.233C50.2534 145.793 53.9563 140.641 57.7073 135.73C57.8997 135.441 58.2844 135.585 58.2363 135.97Z" fill="#E5E2E2"/>
<path d="M58.5252 146.226C58.429 146.419 58.2847 146.659 58.1885 146.852C57.2267 148.633 56.2649 150.415 55.3512 152.244C55.1589 152.581 54.8223 152.774 54.4375 152.774C53.6681 152.774 53.1872 151.907 53.5719 151.233C54.7261 149.307 55.9764 147.381 57.3229 145.504C57.5153 145.263 57.8038 145.167 58.0443 145.215C58.4771 145.359 58.7656 145.793 58.5252 146.226Z" fill="#E5E2E2"/>
<path d="M45.7813 153.352C45.3966 153.4 44.9638 153.207 44.7233 152.87L44.6753 152.822H44.3867C44.3867 152.678 44.3867 152.533 44.3867 152.389C44.3867 152.293 44.3867 152.196 44.3867 152.1C44.4348 151.233 45.6851 151.233 45.7332 152.1C45.7332 152.341 45.7332 152.581 45.7332 152.822C45.7813 152.967 45.7813 153.159 45.7813 153.352Z" fill="#E5E2E2"/>
<path d="M64.055 110.115C63.9589 110.115 63.8627 110.163 63.7665 110.163C63.478 110.259 63.3818 110.548 63.478 110.837C64.055 111.993 66.2191 111.511 67.229 111.367C69.5853 111.03 71.7494 109.97 73.673 108.622C77.3759 105.974 81.1749 101.881 83.0504 97.6444C83.4351 96.7778 82.4734 95.9111 81.7039 96.5852C78.9628 99.0407 77.1354 102.411 74.5386 105.011C73.1921 106.359 71.6532 107.611 69.9701 108.526C69.6334 108.719 64.3436 110.452 64.3436 110.307C64.3917 110.211 64.1993 110.115 64.055 110.115Z" fill="#E5E2E2"/>
<path d="M78.0011 108.863C78.0973 108.863 78.1935 108.863 78.2897 108.815C78.0973 108.526 77.953 108.189 77.7607 107.9C76.2699 110.019 75.26 112.522 74.0578 114.785C72.4227 117.819 70.8358 120.804 69.3931 123.933C66.5558 130 63.7666 136.211 61.3621 142.47C60.8812 143.77 63.0453 144.685 63.6223 143.433C66.652 137.078 69.0084 130.433 71.7976 124.03C73.096 121.093 74.4906 118.156 75.8852 115.267C76.8951 113.148 78.2897 110.693 78.8186 108.381C79.011 107.467 77.5683 107.37 77.6164 108.237C77.6164 108.333 77.6164 108.478 77.6645 108.574C77.7126 108.719 77.8569 108.863 78.0011 108.863Z" fill="#E5E2E2"/>
<path d="M28.6614 147.333C28.9499 148.778 29.527 150.367 29.8155 151.811C29.9598 152.437 29.4789 153.015 28.8537 153.015C28.3728 153.015 27.9881 152.678 27.8919 152.244C27.6034 150.656 27.0744 148.874 26.7859 147.285C25.776 141.652 23.9486 135.441 24.6699 129.759C24.718 129.326 25.3432 129.326 25.3913 129.759C25.8722 135.633 27.411 141.507 28.6614 147.333Z" fill="#E5E2E2"/>
<path d="M37.5582 110.981C40.7321 113.967 43.6656 118.059 48.4264 117.963C49.9172 117.963 49.9172 115.652 48.4264 115.652C45.9258 115.652 44.0984 114.352 42.2229 112.811C40.9725 111.752 39.6741 110.404 37.991 110.163C37.5582 110.115 37.1254 110.644 37.5582 110.981Z" fill="#E5E2E2"/>
<path d="M56.842 118.252C59.6793 117.674 61.6029 113.774 62.4204 111.319C62.8532 110.067 63.2379 108.478 62.757 107.226C61.9876 105.059 59.9678 105.637 58.429 104.53C58.0443 104.241 57.4191 104.819 57.7557 105.204C58.3809 106.07 59.2465 106.648 59.9678 107.37C60.9777 108.381 60.7373 109.441 60.3526 110.741C59.8236 112.57 58.429 116.085 56.4573 116.904C55.6398 117.241 55.9764 118.444 56.842 118.252Z" fill="#E5E2E2"/>
<path d="M100.363 110.596C96.9483 114.737 93.2454 118.637 90.2158 123.019C93.8706 125.619 88.196 134.719 86.8014 137.174C83.9641 142.133 80.5979 146.756 77.2797 151.378C77.0392 151.715 76.366 152.533 75.8851 153.111C75.5966 153.448 75.2118 153.641 74.779 153.641C73.6249 153.641 72.9516 152.293 73.6249 151.378C74.8752 149.693 76.2698 147.863 77.2797 146.467C78.2415 145.167 88.0517 130.578 88.5326 126.1C88.6288 125.378 88.4845 124.944 88.0037 124.8C88.0037 124.8 88.0037 124.8 87.9556 124.8C87.2342 124.607 86.7533 123.596 87.1861 122.97C87.3304 122.826 87.4266 122.633 87.5709 122.489C89.0616 120.467 90.6967 118.589 92.4279 116.807C94.3034 114.833 96.3231 112.956 98.391 111.126C98.8238 110.741 99.2566 110.356 99.6894 109.97C100.17 109.537 100.699 110.115 100.363 110.596Z" fill="#E5E2E2"/>
<path d="M49.6764 102.893C58.7653 105.252 72.1342 99.7629 77.7126 92.3963C78.482 91.3852 76.9913 89.9407 75.9814 90.663C71.8938 93.5037 68.5756 96.6333 63.9109 98.6074C59.2943 100.581 54.4372 100.919 49.6764 102.267C49.3878 102.363 49.3878 102.796 49.6764 102.893Z" fill="#47548F"/>
<path d="M47.9936 115.556C50.3019 112.426 50.1095 106.841 53.572 104.578C57.4672 102.074 60.7854 111.656 64.6326 112.185C66.0272 112.378 66.7966 110.741 65.5944 109.874C62.8533 107.9 61.1701 105.059 58.5733 102.989C56.8902 101.641 54.8223 101.111 52.8506 102.219C48.763 104.481 48.1378 111.222 47.4165 115.315C47.4165 115.652 47.8012 115.844 47.9936 115.556Z" fill="#47548F"/>
<path d="M64.8246 113.196C69.826 114.593 88.8694 103.278 81.9445 98.463C81.4155 98.0778 80.5499 98.463 80.4057 99.0889C80.069 100.63 80.1652 101.785 79.1553 103.085C77.905 104.77 76.1738 106.119 74.4426 107.274C71.4129 109.344 68.1909 110.741 64.8246 112.041C64.2957 112.233 64.2476 113.004 64.8246 113.196Z" fill="#47548F"/>
<path d="M75.0196 87.1963C81.1751 86.7148 80.2614 98.1259 81.4155 102.122C81.7521 103.278 83.5314 103.374 83.8681 102.122C84.7818 98.4148 82.9544 93.1185 81.4155 89.7481C80.4537 87.5815 76.9913 83.3926 74.7791 86.8111C74.683 86.9556 74.8272 87.1963 75.0196 87.1963Z" fill="#47548F"/>
<path d="M35.8749 100.919C35.1054 103.23 38.1832 107.033 39.722 108.622C41.7418 110.741 45.2523 113.244 48.1858 113.244C49.2919 113.244 50.0132 111.752 49.0995 110.981C46.8393 109.056 43.6173 108.719 41.3571 106.6C40.2991 105.589 39.3854 104.433 38.5679 103.23C37.8946 102.219 37.4137 101.015 36.2115 100.678C36.0672 100.63 35.923 100.774 35.8749 100.919Z" fill="#47548F"/>
<path d="M48.2819 110.837C47.0796 113.004 46.1178 116.133 47.3201 118.493C48.5704 121.093 51.8405 121.526 54.4373 121.67C57.5631 121.863 61.5065 121.526 63.7186 119.022C65.8346 116.615 65.3537 113.1 64.0072 110.404C63.5263 109.441 61.6988 109.826 61.8912 110.981C62.1317 113.004 62.853 115.556 61.218 117.193C59.5829 118.83 56.5533 118.781 54.4373 118.781C52.7542 118.781 50.3497 118.733 49.3398 117.096C48.2819 115.363 48.9551 112.859 48.9551 110.981C48.907 110.693 48.4261 110.548 48.2819 110.837Z" fill="#47548F"/>
<path d="M38.0387 100.967C37.9906 101.015 37.9906 101.063 37.9425 101.159C37.7982 101.304 37.654 101.496 37.5097 101.641C37.0288 102.122 36.5479 102.604 36.0189 102.989C34.6243 104.144 33.0854 105.107 31.6428 106.167C30.2482 107.226 28.6612 108.285 27.6032 109.681C26.3048 111.367 27.0262 112.715 28.2284 114.256C29.6711 116.085 31.9313 118.011 31.6428 120.611C31.4985 121.959 30.7291 122.874 29.9115 123.933C28.6612 125.57 28.2765 126.919 28.4207 128.941C28.7093 133.13 30.3443 137.126 31.4023 141.17C32.2679 144.396 33.6144 150.319 34.1915 153.593C34.3839 154.556 33.6144 155.422 32.6526 155.422C31.8832 155.422 31.258 154.893 31.1138 154.122C30.4405 150.319 28.9978 143.963 27.9879 140.256C26.8819 136.307 25.4873 132.263 25.4392 128.122C25.4392 126.533 25.6316 125.089 26.4491 123.741C27.3147 122.296 29.1902 121.237 28.6131 119.359C27.6513 116.47 24.1889 115.074 24.0446 111.656C23.9965 110.5 24.3331 109.537 24.8621 108.622C25.6316 107.322 26.8819 106.215 28.3246 105.252C31.1138 103.326 34.6243 101.881 36.6441 100.244C36.7403 100.196 36.7883 100.1 36.8845 100.052C37.5097 99.3778 38.4234 100.196 38.0387 100.967Z" fill="#47548F"/>
<path d="M11.1566 116.23C11.3489 113.148 17.8891 110.981 20.1493 110.115C23.0828 108.959 26.2567 108.333 29.1421 107.178C30.1039 106.793 30.0558 105.252 28.9016 105.252C24.9583 105.3 20.5821 107.419 17.1197 109.152C14.3305 110.5 10.2429 112.667 10.6276 116.278C10.6757 116.567 11.1566 116.567 11.1566 116.23Z" fill="#47548F"/>
<path d="M11.301 119.6C10.6277 122.296 9.66593 124.896 9.08885 127.593C7.83853 133.852 7.06909 140.063 5.09742 146.178C4.37607 148.393 3.3181 155.085 2.30822 154.748C2.26013 154.748 2.26013 154.844 2.21204 154.844C0.625086 154.844 -0.432885 153.304 0.0961009 151.811C0.480818 150.704 1.39452 147.574 1.77924 146.467C5.33787 136.259 6.29966 125.378 10.5796 115.411C10.7239 115.122 10.8682 114.785 10.9643 114.496C11.0605 114.304 11.3972 114.304 11.4933 114.496C11.5414 114.641 11.5895 114.737 11.6376 114.881C12.1666 116.326 11.6857 118.107 11.301 119.6Z" fill="#47548F"/>
<path d="M41.5013 98.4148C42.4631 99.8593 43.8096 100.87 45.3485 101.593C46.8874 102.315 48.6186 103.133 50.3498 103.326C51.3597 103.422 51.504 102.074 50.8307 101.593C49.6285 100.774 48.1377 100.581 46.7912 100.148C45.1562 99.6185 43.6173 98.9445 42.3189 97.837C41.8861 97.4519 41.1647 97.8852 41.5013 98.4148Z" fill="#47548F"/>
<path d="M38.4234 98.0778C38.4234 97.9333 38.4234 97.837 38.3753 97.6926C38.4715 97.6444 38.6158 97.6444 38.712 97.5963C38.2792 97.4037 37.7983 97.9815 37.5578 98.3185C37.125 98.8481 36.8365 99.3778 36.5479 100.004C36.1632 100.919 37.7502 101.593 38.1349 100.678C38.4234 100.1 38.6639 99.4741 38.9043 98.8481C39.0486 98.5111 39.1929 97.7889 38.7601 97.5963C38.8082 97.6926 38.8562 97.7889 38.9524 97.8852C38.9524 97.6926 38.8562 97.5 38.6158 97.5C38.3753 97.5481 38.2311 97.8852 38.4234 98.0778Z" fill="#47548F"/>
<path d="M42.2227 90.1333C42.7036 92.5407 41.7418 98.463 45.06 99.2815C45.6851 99.4259 46.4546 98.7037 45.9737 98.0778C45.4928 97.4519 44.9157 97.0185 44.6272 96.2963C44.2906 95.5259 44.1944 94.6111 44.0501 93.7926C43.8097 92.3963 43.7135 90.9518 42.7998 89.7963C42.5593 89.4592 42.1265 89.7963 42.2227 90.1333Z" fill="#47548F"/>
<path d="M43.8096 93.8889C40.9242 91.4815 38.0388 96.2 37.9907 98.7519C37.9907 99.4259 38.9044 99.6667 39.2411 99.0889C40.1067 97.6926 41.2127 94.3704 43.3287 94.7074C43.7615 94.8037 44.2424 94.2741 43.8096 93.8889Z" fill="#47548F"/>
<path d="M12.3109 142.181C12.5033 145.407 13.2727 149.933 13.8017 153.352C13.8979 153.978 13.417 154.507 12.7918 154.507C12.2628 154.507 11.83 154.122 11.782 153.593C11.5896 150.078 11.253 145.359 11.6858 142.133C11.782 141.748 12.3109 141.844 12.3109 142.181Z" fill="#47548F"/>
<path d="M48.2817 118.541C48.1856 118.878 48.0894 119.167 47.9932 119.504C46.7429 123.259 44.7712 126.774 43.8575 130.626C42.7514 135.056 42.2705 139.63 41.7896 144.156C41.6935 144.974 41.5973 145.841 41.5492 146.659C40.5393 139.919 39.818 133.13 39.5775 126.341C39.4332 121.719 39.3852 117.096 39.0966 112.474C39.0966 112.137 39.0485 111.752 39.0485 111.415C39.0485 111.174 39.0485 110.837 39.0004 110.404C39.0004 109.681 39.0004 108.67 38.9523 107.659C38.8562 105.589 38.5195 103.47 37.6058 102.989C37.2692 102.844 36.8364 103.181 37.0769 103.519C37.3173 103.856 37.3173 104.626 37.2692 105.396C37.2211 106.119 37.1249 106.889 37.1249 107.226C37.0769 109.537 37.0288 111.896 36.9807 114.207C36.8845 118.685 36.7402 123.259 36.8364 127.737C36.9807 135.393 37.7501 143.144 38.9523 150.704C39.0004 150.993 39.0485 151.33 39.0966 151.619C39.1928 152.244 39.5294 153.593 40.2027 153.593H40.8759H42.3186H42.8957C43.4728 153.593 44.146 152.293 44.146 151.763C44.1941 150.511 44.2903 149.307 44.3865 148.104C44.4346 147.767 44.4346 147.43 44.4827 147.044C44.5788 145.744 44.7231 144.396 44.8674 143.096C45.0116 141.844 45.1078 140.544 45.2521 139.293C45.3964 137.8 45.5406 136.356 45.733 134.911C45.9734 133.033 46.3101 131.156 46.791 129.326C47.0314 128.363 47.368 127.4 47.7047 126.437C48.3779 124.463 49.0512 122.441 49.0512 120.419C49.0512 119.793 49.0031 119.215 48.8588 118.589C48.7626 118.252 48.3779 118.3 48.2817 118.541Z" fill="#47548F"/>
<path d="M81.1268 110.885C81.8963 109.104 83.1466 106.311 81.9443 104.433C81.8963 104.385 81.8963 104.385 81.8482 104.337C81.5115 103.904 80.7421 104.144 80.9345 104.722C80.9826 104.963 81.0306 105.156 81.0787 105.396C81.3192 108.141 78.6262 111.704 77.3758 113.822C75.2599 117.385 73.5287 121.141 71.6532 124.8C71.3646 125.378 71.0761 125.956 70.7395 126.533C67.806 132.263 64.7283 137.896 61.5063 143.433C61.4101 143.626 61.3139 143.77 61.2177 143.963C61.2177 141.652 60.9773 139.244 61.1215 136.981C61.2177 134.815 61.5063 132.6 61.7467 130.433C61.891 129.037 63.5741 121.044 61.7467 120.274C61.5543 120.178 61.3139 120.226 61.2658 120.467C60.4002 124.03 59.775 127.689 59.198 131.348C58.3804 136.837 57.6591 142.807 58.3804 148.344C58.3804 148.441 58.4285 148.537 58.4766 148.633C57.8514 149.644 57.2263 150.656 56.6492 151.667C56.1683 152.485 56.6973 153.496 57.6591 153.496H58.3323C58.7652 153.496 59.1499 153.256 59.3422 152.919C60.3521 151.233 61.7948 148.97 62.6604 147.43C67.9984 138.33 72.7592 128.893 77.0873 119.263C78.3376 116.567 79.9246 113.822 81.1268 110.885Z" fill="#47548F"/>
<path d="M144.221 151.763C141.72 148.681 139.315 145.504 136.959 142.23C136.478 141.604 135.949 140.93 135.42 140.256C135.132 139.87 134.795 139.485 134.506 139.1C134.41 138.956 134.314 138.811 134.218 138.667C134.122 138.522 134.026 138.426 133.929 138.281C133.497 137.656 133.064 137.03 132.775 136.356C132.679 136.163 132.583 135.97 132.487 135.778C132.487 135.73 132.439 135.681 132.439 135.633C132.198 135.007 132.198 134.285 132.198 133.659C132.198 133.419 132.198 133.13 132.15 132.889C132.102 132.167 131.861 131.541 131.188 130.963C130.515 130.433 129.12 130.77 128.591 130.626C128.976 130.674 129.409 130.096 129.794 129.326C130.082 128.748 130.323 128.122 130.515 127.593C130.563 127.448 130.611 127.304 130.659 127.207C130.707 127.063 130.755 126.87 130.804 126.774C130.852 126.678 130.852 126.533 130.852 126.437C130.852 126.341 130.852 126.293 130.852 126.196V126.148C130.996 123.693 128.639 122.248 126.427 123.259C125.417 123.693 125.562 124.27 125.321 123.356C125.129 122.633 125.61 121.574 125.562 120.756C125.466 119.407 124.792 118.493 123.59 117.819C121.907 116.904 119.983 116.47 118.252 115.459C115.896 114.063 113.347 113.052 110.894 111.8C106.855 109.778 102.815 108.526 98.4873 107.419C98.4873 107.419 98.4873 107.419 98.4873 107.37V107.322C98.2469 106.119 97.6217 104.963 96.8042 103.952C96.8523 103.952 96.9004 103.952 96.9484 103.952C96.7561 103.711 96.5637 103.47 96.3233 103.23C96.2752 103.23 96.2271 103.23 96.179 103.278C95.65 102.7 95.0249 102.17 94.3516 101.689C90.7449 98.9926 85.6955 97.2592 82.233 96.2963C81.8964 96.2 81.5598 96.1037 81.2231 96.0074C80.7422 95.8629 80.5018 96.537 80.8865 96.7778C81.3193 97.0666 81.8964 97.3555 82.5696 97.6926C87.7633 100.437 98.295 105.204 95.0249 110.837C92.957 114.448 88.6289 116.23 85.8878 119.215C83.2429 122.104 83.0986 124.752 84.4932 128.267C85.6474 131.156 85.3589 132.985 83.2429 135.393C81.5117 137.319 79.5881 139.004 78.0492 141.074C75.4524 144.589 73.096 148.248 70.6434 151.859C69.9221 152.919 70.6915 154.363 71.9419 154.363C72.4708 154.363 72.9517 154.122 73.2403 153.689C73.3845 153.496 73.4807 153.352 73.625 153.159C76.7508 148.537 79.54 143.53 83.4353 139.581C86.6092 136.356 89.3984 133.226 87.7633 128.507C87.7633 128.459 87.7633 128.459 87.7152 128.411C87.6191 128.17 87.5229 127.93 87.4267 127.689C87.2343 127.256 87.0901 126.822 86.8977 126.389C86.6092 125.619 86.4168 124.848 86.4649 124.078C86.513 123.5 86.7054 122.97 87.1382 122.344C87.8595 121.285 88.8694 120.37 89.8793 119.504C90.3602 119.119 90.8411 118.733 91.322 118.396C91.5143 118.252 91.7548 118.059 91.9471 117.915C93.7745 116.47 95.9386 114.785 97.2851 112.715C97.5736 112.33 97.766 111.896 97.9583 111.463C98.2949 110.741 98.4873 109.922 98.5354 109.104C98.5354 109.056 98.5354 109.007 98.5354 108.959C99.5453 109.441 100.651 109.826 101.805 110.211C104.258 111.078 106.518 112.089 108.778 113.389C112.818 115.652 116.954 118.011 121.186 119.937C123.302 120.9 122.58 121.911 122.484 123.452C117.338 128.989 116.088 138.233 114.694 145.359C114.213 147.959 113.587 152.148 113.299 154.748C113.203 155.47 113.78 156.096 114.501 156.096H115.319C115.848 156.096 116.329 155.759 116.473 155.23C118.637 147.622 121.666 138.667 126.764 132.552C126.908 132.889 127.149 133.178 127.485 133.322C127.87 133.515 128.543 133.322 128.832 133.467C129.409 133.852 129.12 133.756 129.217 134.719C129.746 138.811 133.593 142.711 135.949 145.937C137.825 148.489 140.277 152.678 142.249 155.181C142.73 155.759 143.451 156.096 144.221 156.096C148.212 156 144.221 151.763 144.221 151.763ZM126.475 130.337C126.475 130.626 126.475 130.963 126.475 131.3C121.089 136.019 118.156 143.096 116.088 150.174C116.28 148.344 116.473 146.515 116.809 144.685C118.012 138.041 119.118 130.481 122.628 124.559C122.773 125.474 123.109 126.244 124.023 126.63C124.552 126.87 125.033 126.87 125.61 126.774C125.946 126.726 127.149 125.859 127.389 125.956C128.447 126.293 126.524 129.47 126.475 130.337Z" fill="#47548F"/>
<path d="M89.2062 46.3667L86.6094 45.3556C89.7352 28.6963 85.6956 13.0963 76.5586 7.07778C72.1825 4.23704 63.9592 0.722223 49.8208 2.35926C43.6173 3.08148 38.7602 7.46296 35.2978 11.8926C26.4493 23.2074 28.7576 42.6593 28.8057 42.8519L27.0744 43.4296C26.9302 42.563 24.3333 22.1481 33.8551 9.91852C37.7984 4.86296 42.3669 1.2037 49.3399 0.385186C78.4341 -2.93704 85.7918 14.2037 86.0804 14.8296C89.0138 21.1852 92.4763 28.8889 89.2062 46.3667Z" fill="#47548F"/>
</g>
<defs>
<clipPath id="clip0">
<rect width="146" height="156" fill="white"/>
</clipPath>
</defs>
</svg>
