<svg width="24" height="21" viewBox="0 0 24 21" fill="none" xmlns="http://www.w3.org/2000/svg">
<g clip-path="url(#clip0)">
<path d="M4.676 1.65681C2.35876 2.60948 1.32428 4.7219 0.662211 7.04143C-0.123996 9.858 -0.537789 13.0888 1.03462 15.6982C3.8898 20.3787 11.5864 22.1598 16.3036 19.7988C21.7657 17.0237 21.7243 10.0237 19.6553 5.05326C16.8001 -1.82248 9.80704 -0.289932 4.05531 1.61539C2.81394 2.02959 3.35187 4.01776 4.59325 3.60356C8.6898 2.27812 14.7726 0.124269 17.3795 4.97042C19.2415 8.49113 19.9864 14.2899 16.6346 17.1479C13.2001 20.0888 7.20014 18.8462 4.05531 16.0296C2.06911 14.2485 1.86221 11.8047 2.31738 9.31954C2.64842 7.41421 3.22773 4.5148 5.25531 3.6864C6.45531 3.14794 5.91738 1.15977 4.676 1.65681Z" fill="white"/>
<path d="M17.9998 17.3136C19.4067 18.4319 20.8136 19.5917 22.1791 20.7101C23.2136 21.5385 24.6619 20.0887 23.6274 19.2603C22.2205 18.142 20.8136 16.9822 19.4481 15.8639C18.455 15.0355 16.9654 16.4852 17.9998 17.3136Z" fill="white"/>
</g>
<defs>
<clipPath id="clip0">
<rect width="24" height="21" fill="white"/>
</clipPath>
</defs>
</svg>
