<svg width="23" height="17" viewBox="0 0 23 17" fill="none" xmlns="http://www.w3.org/2000/svg">
<path d="M22.0327 9.74258C21.8981 7.2112 21.7057 4.699 21.5134 2.18679C21.4557 1.49641 21.4749 0.671796 20.7634 0.326608C20.4172 0.154014 19.9941 0.173191 19.6286 0.154014C18.8786 0.115659 18.1285 0.0964822 17.3785 0.0773051C14.6282 -0.0377577 11.878 -0.0185806 9.10858 0.0964822C6.47375 0.211545 3.55044 0.154014 1.03101 1.05534C0.877152 1.13205 0.742526 1.24711 0.665596 1.36217C0.415576 1.43888 0.184789 1.64983 0.165556 1.99502C0.0309304 4.46887 -0.0267666 6.94272 0.011698 9.43575C0.0309304 10.6823 0.069395 11.9096 0.127092 13.1561C0.165556 13.9424 0.184789 14.8245 0.761758 15.4382C1.33873 16.0519 2.18495 16.1094 2.99271 16.1477C4.31973 16.1861 5.62753 16.1669 6.95456 16.1669C9.47399 16.1669 11.9934 16.1477 14.4936 16.0327C15.686 15.9752 16.8784 15.8984 18.0708 15.8026C19.0324 15.7259 20.2633 15.7834 21.148 15.3231C21.8404 14.9588 22.1288 14.2876 22.1865 13.5397C22.2635 12.2931 22.1096 10.9891 22.0327 9.74258ZM13.6282 1.36217C14.6282 1.36217 15.6283 1.36217 16.6284 1.38135C17.1284 1.40053 17.6285 1.40053 18.1285 1.4197C18.417 1.43888 18.8401 1.38135 19.2248 1.40053C18.167 2.32103 17.0515 3.16482 15.9168 3.98944C14.4552 5.02501 12.8589 6.55918 10.9741 6.32905C9.16627 6.09893 7.43537 5.02501 5.80062 4.23874C4.53129 3.62508 3.30042 3.03058 2.24265 2.11008C3.91586 1.66901 5.70446 1.63065 7.43537 1.53477C9.49322 1.43888 11.5511 1.36217 13.6282 1.36217ZM20.8211 13.3862C20.6864 14.4985 19.3209 14.3067 18.4362 14.3835C17.3015 14.4793 16.1861 14.5752 15.0514 14.6328C13.0512 14.7478 11.0318 14.7862 9.01242 14.8053C6.9161 14.8245 4.78131 14.9204 2.70422 14.7862C2.18495 14.7478 1.74261 14.6711 1.56951 14.115C1.39642 13.6164 1.47335 12.9452 1.45412 12.4082C1.41566 11.2959 1.37719 10.1645 1.35796 9.05221C1.33873 7.11531 1.37719 5.17842 1.45412 3.24153C2.58883 4.18121 3.91586 4.83324 5.28135 5.48526C7.08919 6.34823 8.99318 7.51803 11.051 7.69063C13.0704 7.8824 14.609 6.55918 16.1668 5.46608C17.5516 4.48805 18.8978 3.47166 20.1672 2.37856C20.1672 2.43609 20.1672 2.49362 20.1672 2.57033C20.2056 3.06894 20.2441 3.58672 20.2825 4.08533C20.3595 5.15925 20.4364 6.23317 20.5133 7.30709C20.571 8.32347 20.648 9.32069 20.6864 10.3371C20.7634 11.2959 20.9364 12.4082 20.8211 13.3862Z" fill="#fff"/>
</svg>
