<svg width="17" height="13" viewBox="0 0 17 13" fill="none" xmlns="http://www.w3.org/2000/svg">
<path d="M16.5245 8.05694C16.4235 6.1584 16.2793 4.27425 16.1351 2.39009C16.0918 1.87231 16.1062 1.25385 15.5725 0.994956C15.3129 0.86551 14.9955 0.879893 14.7215 0.86551C14.1589 0.836745 13.5964 0.822362 13.0339 0.807979C10.9712 0.721682 8.90852 0.736065 6.83143 0.822362C4.85531 0.908659 2.66283 0.86551 0.773258 1.5415C0.657864 1.59904 0.556894 1.68533 0.499197 1.77163C0.311682 1.82916 0.138592 1.98737 0.124167 2.24626C0.0231978 4.10165 -0.0200749 5.95704 0.00877354 7.82681C0.0231978 8.7617 0.0520462 9.6822 0.0953189 10.6171C0.124167 11.2068 0.138592 11.8684 0.571318 12.3286C1.00405 12.7889 1.63871 12.832 2.24453 12.8608C3.2398 12.8896 4.22065 12.8752 5.21592 12.8752C7.10549 12.8752 8.99507 12.8608 10.8702 12.7745C11.7645 12.7314 12.6588 12.6738 13.5531 12.6019C14.2743 12.5444 15.1975 12.5875 15.861 12.2423C16.3803 11.9691 16.5966 11.4657 16.6399 10.9047C16.6976 9.96986 16.5822 8.99182 16.5245 8.05694ZM10.2211 1.77163C10.9712 1.77163 11.7212 1.77163 12.4713 1.78601C12.8463 1.8004 13.2214 1.8004 13.5964 1.81478C13.8128 1.82916 14.1301 1.78601 14.4186 1.8004C13.6252 2.49077 12.7886 3.12362 11.9376 3.74208C10.8414 4.51876 9.64416 5.66938 8.23058 5.49679C6.87471 5.32419 5.57653 4.51876 4.35047 3.92906C3.39847 3.46881 2.47532 3.02294 1.68198 2.33256C2.93689 2.00176 4.27835 1.97299 5.57653 1.90108C7.11992 1.82916 8.66331 1.77163 10.2211 1.77163ZM15.6158 10.7897C15.5148 11.6239 14.4907 11.4801 13.8272 11.5376C12.9762 11.6095 12.1396 11.6814 11.2885 11.7246C9.7884 11.8109 8.27386 11.8396 6.75931 11.854C5.18707 11.8684 3.58598 11.9403 2.02817 11.8396C1.63871 11.8109 1.30695 11.7533 1.17714 11.3362C1.04732 10.9623 1.10501 10.4589 1.09059 10.0562C1.06174 9.22195 1.03289 8.37336 1.01847 7.53915C1.00405 6.08649 1.03289 4.63382 1.09059 3.18115C1.94162 3.88591 2.93689 4.37493 3.96101 4.86394C5.31689 5.51117 6.74489 6.38853 8.28828 6.51797C9.80282 6.6618 10.9568 5.66938 12.1251 4.84956C13.1637 4.11604 14.1734 3.35374 15.1254 2.53392C15.1254 2.57707 15.1254 2.62022 15.1254 2.67775C15.1542 3.0517 15.1831 3.44004 15.2119 3.814C15.2696 4.61944 15.3273 5.42487 15.385 6.23031C15.4283 6.99261 15.486 7.74051 15.5148 8.50281C15.5725 9.22195 15.7023 10.0562 15.6158 10.7897Z" fill="#28336D"/>
</svg>
