<svg width="108" height="103" viewBox="0 0 108 103" fill="none" xmlns="http://www.w3.org/2000/svg">
<g clip-path="url(#clip0)">
<path d="M107.594 45.1155C102.748 44.8525 98.1053 45.8752 93.4336 46.9855C92.7953 47.1316 93.0564 48.1251 93.6948 47.979C98.2794 46.9855 102.893 45.9921 107.594 45.9336C108.145 45.9336 108.116 45.1447 107.594 45.1155Z" fill="#CECDCD"/>
<path d="M92.5921 75.2411C88.6459 73.2249 84.6706 71.238 80.6663 69.3387C79.9989 69.0173 79.5056 70.04 80.173 70.3614C84.1193 72.4068 88.1236 74.3061 92.1279 76.2346C92.7372 76.556 93.2305 75.5625 92.5921 75.2411Z" fill="#CECDCD"/>
<path d="M36.706 35.1515C37.6346 35.2099 38.5631 35.2976 39.4916 35.3268C42.3353 35.3852 45.0628 35.4145 47.9065 35.7943C48.6029 35.882 48.6899 34.7716 48.0806 34.5963C45.1789 33.7197 42.1322 34.1872 39.1725 34.2164C38.0988 34.2164 35.1101 33.6905 34.4137 34.8301C34.3557 34.9469 34.4137 35.0638 34.5298 35.093C35.1682 35.2684 36.0096 35.093 36.706 35.1515Z" fill="#CECDCD"/>
<path d="M34.762 38.0734C36.619 38.7455 38.7953 38.2195 40.7104 38.1026C43.1188 37.9858 45.4691 37.8689 47.8775 38.0734C48.4868 38.1319 48.6029 37.1384 48.0226 36.9923C43.7281 35.8527 39.1435 37.8104 34.791 37.7228C34.5879 37.7228 34.5588 38.015 34.762 38.0734Z" fill="#CECDCD"/>
<path d="M44.1923 40.0312C41.5808 39.5344 38.9113 39.9143 36.2708 40.0896C35.8936 40.1188 35.8646 40.674 36.2708 40.7032C38.8823 40.8201 41.4648 40.7032 44.0473 41.0247C44.6276 41.0831 44.7437 40.1481 44.1923 40.0312Z" fill="#CECDCD"/>
<path d="M35.9226 42.3103C35.3713 42.3395 35.3713 43.1576 35.9226 43.1869C37.3734 43.2161 38.7953 43.2161 40.2461 43.07C40.7974 43.0115 40.8264 42.2226 40.2461 42.1934C38.7953 42.1057 37.3444 42.281 35.9226 42.3103Z" fill="#CECDCD"/>
<path d="M59.8033 50.8133C51.5626 49.4107 43.1768 51.6314 34.936 51.2224C34.6459 51.1931 34.6168 51.6314 34.878 51.7191C38.5341 52.9755 42.9446 52.0989 46.7168 52.0113C51.0403 51.8944 55.3057 52.0405 59.6292 52.1574C60.3546 52.1574 60.5577 50.9302 59.8033 50.8133Z" fill="#CECDCD"/>
<path d="M59.3681 52.9755C55.4508 52.5372 51.5046 52.9171 47.6163 53.2677C45.7593 53.443 43.9312 53.6476 42.0741 53.7937C41.0295 53.8813 40.014 53.9398 38.9694 53.9982C38.6502 54.0274 36.9962 54.2612 36.3579 54.2027C36.2998 54.0566 36.1257 53.9398 35.9516 53.969C35.8936 53.969 35.8646 53.9982 35.8065 53.9982C35.4874 53.9982 35.2262 54.3781 35.4293 54.6703C36.0387 55.5469 38.389 55.1086 39.3176 55.0793C41.5228 55.0793 43.6991 54.9332 45.8753 54.7579C50.3729 54.4073 54.8415 54.1735 59.3681 54.4073C60.3256 54.4657 60.2966 53.0632 59.3681 52.9755Z" fill="#CECDCD"/>
<path d="M57.2208 56.9787C53.4777 56.3359 49.7055 56.3066 45.9043 56.3651C42.7996 56.4235 39.6367 56.9495 36.561 56.8326C36.59 56.7157 36.5029 56.5988 36.3579 56.6281C36.1547 56.6865 35.9226 56.7449 35.7195 56.8034C35.4293 56.891 35.4583 57.2709 35.7195 57.3586C37.0833 57.8553 38.5341 57.7676 39.9849 57.7092C41.7259 57.6215 43.496 57.6508 45.237 57.68C49.1832 57.7384 53.1005 57.9722 57.0467 58.4105C57.8302 58.4981 58.0333 57.1248 57.2208 56.9787Z" fill="#CECDCD"/>
<path d="M50.2568 60.8649C45.411 59.813 40.4202 60.9526 35.5454 60.4558C35.3133 60.4266 35.2842 60.748 35.4293 60.8357C36.9672 61.946 39.8108 61.5662 41.5808 61.6246C44.4245 61.7123 47.2681 61.8584 50.1117 62.0045C50.7501 62.0045 50.8952 60.9818 50.2568 60.8649Z" fill="#CECDCD"/>
<path d="M48.9221 63.2025C44.6566 62.472 40.072 62.7642 35.8646 63.7577C35.5454 63.8161 35.6324 64.3129 35.9516 64.3129C40.2461 64.3713 44.4825 63.9622 48.806 64.3713C49.3863 64.4298 49.5604 63.3194 48.9221 63.2025Z" fill="#CECDCD"/>
<path d="M45.9043 64.868C43.3218 64.8973 40.7974 65.1895 38.2439 65.4524C37.5475 65.5109 37.5185 66.5628 38.2439 66.5628C40.7974 66.5628 43.3509 66.4167 45.9043 66.3874C46.8909 66.3874 46.8909 64.868 45.9043 64.868Z" fill="#CECDCD"/>
<path d="M70.8587 32.434C70.8296 32.843 70.2783 33.6904 70.0752 34.1287C69.669 35.0053 69.2918 35.8527 68.9145 36.7293C68.6534 37.2845 68.4213 37.8396 68.1891 38.3656C68.1891 37.752 68.2181 37.1384 68.2472 36.5247C68.3342 35.1806 69.0306 32.5216 67.8119 31.4989C67.6378 31.3528 67.2896 31.4989 67.4057 31.7327C68.044 33.3106 67.1735 35.6481 66.9994 37.3137C66.8253 39.1253 66.5932 40.9662 66.4191 42.807C66.303 43.3037 66.158 43.8589 66.0129 44.2096C65.8388 44.2972 65.6937 44.5018 65.6937 44.7355C65.6937 44.794 65.6937 44.8524 65.6937 44.8816C65.6937 45.1738 65.8968 45.466 66.187 45.5537C66.158 45.992 66.1289 46.4011 66.0999 46.8393C66.0419 47.6283 67.2316 47.7452 67.4637 47.0147C67.899 45.466 68.0731 43.8297 68.1311 42.1642C68.8275 40.1772 69.5529 38.1903 70.2783 36.2325C70.5105 35.6481 71.9613 32.7846 71.2939 32.2586C71.1198 32.1418 70.8877 32.2002 70.8587 32.434Z" fill="#CECDCD"/>
<path d="M63.4884 28.1095C55.741 26.9991 48.0806 27.2621 40.3622 28.1095C40.101 28.1387 40.101 28.4894 40.3622 28.5478C42.1322 28.7523 43.9022 28.4894 45.6722 28.4309C47.6743 28.3433 49.6765 28.4017 51.7077 28.4894C55.5959 28.6647 59.4551 29.1906 63.3434 29.3367C63.9817 29.3367 64.1848 28.2264 63.4884 28.1095Z" fill="#CECDCD"/>
<path d="M28.8426 61.6538C28.8135 61.0402 27.943 61.0402 27.914 61.6538C27.827 63.2901 27.6819 64.8972 27.943 66.5335C28.0301 67.1764 29.1617 67.0303 29.0747 66.3874C28.9006 64.8096 28.9006 63.2317 28.8426 61.6538Z" fill="#CECDCD"/>
<path d="M17.1778 31.9666C13.6378 30.0965 10.1268 28.1388 6.73183 26.0057C6.47068 25.8304 6.23855 26.2687 6.47068 26.444C9.77858 28.7524 13.2606 30.7393 16.8006 32.6386C17.2359 32.8432 17.6131 32.2003 17.1778 31.9666Z" fill="#CECDCD"/>
<path d="M36.1257 8.99967C36.2128 9.58407 37.1413 9.61329 37.0542 8.99967C36.7351 6.1069 36.3288 3.21414 35.8355 0.350592C35.7195 -0.263025 34.82 -4.59402e-05 34.907 0.613571C35.3423 3.38946 35.7485 6.19456 36.1257 8.99967Z" fill="#CECDCD"/>
<path d="M63.1112 4.73352C62.4148 6.74969 61.7474 8.79508 60.7609 10.7236C60.4707 11.2788 61.2832 11.7755 61.6023 11.2203C62.6469 9.23338 63.4014 7.15877 64.0978 5.02572C64.3009 4.35366 63.3143 4.09069 63.1112 4.73352Z" fill="#CECDCD"/>
<path d="M89.1682 18.4377C87.079 19.9572 84.9898 21.4766 82.9876 23.1129C82.4363 23.5804 83.2198 24.3694 83.7711 23.9018C85.6862 22.2948 87.6884 20.8338 89.6905 19.3436C90.2418 18.9637 89.7195 18.0579 89.1682 18.4377Z" fill="#CECDCD"/>
<path d="M57.3949 93.9125C57.453 96.8345 57.598 99.7272 57.8592 102.649C57.9172 103.263 58.8458 103.088 58.7877 102.474C58.5846 99.6688 58.4395 96.8345 58.3235 94.0002C58.2944 93.3865 57.3949 93.2989 57.3949 93.9125Z" fill="#CECDCD"/>
<path d="M33.137 89.5882C31.9183 91.4582 30.9898 93.4744 30.1193 95.549C29.8581 96.1626 30.8157 96.5133 31.0768 95.8996C31.9473 93.9419 32.7888 91.9842 33.9205 90.1433C34.2396 89.6174 33.4852 89.0622 33.137 89.5882Z" fill="#CECDCD"/>
<path d="M12.0999 74.9781C10.0687 76.4099 7.92152 77.6956 5.83232 79.0104C5.281 79.3611 5.68723 80.3253 6.26757 79.9747C8.47283 78.6306 10.6781 77.3157 12.8253 75.8547C13.4347 75.4456 12.7093 74.569 12.0999 74.9781Z" fill="#CECDCD"/>
<path d="M8.03759 51.3977C5.57118 51.0762 3.13378 50.6087 0.69638 50.1704C0.028997 50.0535 -0.26117 51.047 0.406213 51.1931C2.93066 51.6899 5.45511 52.1866 8.00858 52.5372C8.70498 52.6249 8.73399 51.4853 8.03759 51.3977Z" fill="#CECDCD"/>
<path d="M30.3804 79.8286C36.0677 80.8806 42.1031 80.413 47.8484 80.4422C53.8839 80.4715 59.9774 80.7637 65.9839 80.3838C66.9124 80.3254 66.9124 79.0105 65.9839 78.952C59.9774 78.5722 53.8549 78.8644 47.8484 78.8936C42.1031 78.9228 36.0387 78.4553 30.3804 79.5072C30.2353 79.5364 30.2353 79.7994 30.3804 79.8286Z" fill="#27336B"/>
<path d="M75.6464 28.1387C75.5594 28.1095 75.5014 28.0803 75.4143 28.051C75.4143 28.0218 75.4143 27.9634 75.3853 27.9342C75.3563 27.8173 75.1531 27.7881 75.0951 27.9049C75.0951 27.9049 75.0951 27.9049 75.0951 27.9342C72.5997 26.853 69.8141 26.2686 67.2316 25.5089C64.2429 24.6031 61.2832 23.7265 58.2945 22.8207C52.4621 21.0675 46.6008 19.402 40.6814 17.941C40.6233 17.8241 40.4782 17.7949 40.3622 17.8533C40.1591 17.7949 40.072 18.0286 40.1591 18.1455C39.4336 19.9279 38.6212 21.6519 37.9248 23.4343C37.2864 25.0122 36.4449 26.7654 36.0967 28.4309C33.9495 28.5186 31.8023 28.6062 29.655 28.7231C29.568 28.7231 29.4519 28.7231 29.3358 28.7523C29.1908 28.8108 29.1908 29.0153 29.3358 29.0445C29.9742 29.2198 29.3068 33.4859 29.2778 34.0411C29.1908 36.4371 29.0457 38.8624 28.9586 41.2584C28.7845 45.6414 28.8426 50.0244 28.8426 54.4366C27.1596 58.0306 25.8538 62.063 25.0414 65.8908C24.9253 66.5044 25.4186 66.9135 25.9119 66.9427C26.3471 67.2641 26.8404 67.5563 27.3047 67.8485C27.7689 68.1407 28.2912 68.4037 28.8135 68.3452C28.8135 71.9685 28.8426 75.5918 28.9296 79.215C28.9586 80.4423 30.8157 80.4423 30.8157 79.215C30.8737 75.4164 30.6126 71.6179 30.5545 67.8193C30.4675 62.8227 30.6126 57.7969 30.5255 52.8003C30.4385 47.044 30.5255 41.2584 30.4675 35.5021C30.4385 33.7489 30.6706 31.762 30.4675 30.0088C30.4385 29.7166 30.3514 29.3952 30.2354 29.1322C32.3246 29.2491 34.4428 29.3367 36.532 29.4244C36.7061 29.512 36.9382 29.5413 37.1123 29.4536C40.8264 29.5705 44.5406 29.6581 48.2547 29.6874C51.3595 29.7166 54.4643 29.7458 57.5691 29.775C60.2386 29.8042 63.0242 30.0672 65.6937 29.8042C65.4906 33.8658 65.0554 37.8981 64.9103 41.9305C64.7362 47.7452 64.7942 53.5892 64.7652 59.404C64.7652 62.7642 64.7942 66.1245 64.8522 69.4848C64.8813 72.436 64.7362 75.5041 65.1714 78.4261C65.2875 79.1858 66.5642 79.1858 66.6803 78.4261C67.1155 75.5041 66.7964 72.436 66.7383 69.4848C66.6803 66.0076 66.5932 62.5305 66.5642 59.0533C66.5642 58.7319 66.5642 58.4105 66.5642 58.0891C67.928 55.693 68.3923 52.5081 69.1467 49.8783C70.0172 46.9271 70.8877 43.9467 71.8162 40.9954C72.5707 38.6286 73.5863 36.3495 74.3697 33.9535C74.805 32.6093 75.3273 31.0607 75.4433 29.5413C76.0527 29.3659 76.4009 28.4893 75.6464 28.1387ZM28.2912 66.7381C27.9721 66.7089 27.6529 66.6213 27.3627 66.5044C27.1306 66.4167 26.8984 66.3291 26.6663 66.2706C27.1596 63.8746 28.1462 61.4786 28.8426 59.0825C28.8426 61.6539 28.8135 64.196 28.8135 66.7674C28.6394 66.7674 28.4653 66.7674 28.2912 66.7381ZM72.8028 34.158C71.9033 36.4079 70.9457 38.6286 70.1333 40.9078C69.1467 43.7129 68.2762 46.5472 67.4057 49.3815C67.1446 50.2581 66.8254 51.164 66.4772 52.099C66.4191 48.5926 66.3321 45.057 66.4482 41.5506C66.5062 39.2423 66.7093 36.9631 66.7673 34.684C66.8254 33.0769 66.8834 31.2945 66.5642 29.6289C67.1736 29.3659 67.1155 28.1971 66.3901 28.0803C66.3031 28.0803 66.187 28.051 66.1 28.051C66.1 28.0218 66.0709 28.0218 66.0709 27.9926C66.0129 27.8465 65.7808 27.8465 65.7808 28.0218C63.0822 27.7296 60.2676 27.9926 57.5691 28.0218C54.4643 28.051 51.3595 28.0803 48.2547 28.1095C44.8017 28.1387 41.3197 28.1971 37.8667 28.314C38.5631 26.8823 38.9694 25.3044 39.4917 23.8142C40.072 22.061 40.7104 20.1909 40.7394 18.3208C46.3106 20.3954 51.9108 22.324 57.5691 24.1356C60.4127 25.0414 63.2563 25.9764 66.1 26.8823C68.7985 27.7588 71.6421 28.9861 74.4568 29.512C73.9054 31.0899 73.4122 32.6386 72.8028 34.158Z" fill="#27336B"/>
<path d="M54.4643 71.0626C53.8839 71.5886 53.1585 72.2899 52.3461 72.436C51.0693 72.6405 51.1564 71.2087 51.2144 70.3029C51.2724 69.5724 50.3729 69.3971 49.9087 69.777C49.0091 70.5075 48.3708 71.5301 47.5873 72.3775C47.2101 72.7866 46.6588 73.634 46.1075 73.3418C45.5271 73.0204 46.1945 71.7347 46.4267 71.2087C46.7458 70.4782 45.8463 69.5724 45.237 70.2737C44.3665 71.2672 43.3799 72.9911 42.1032 73.5171C39.8979 74.4229 41.4068 71.9684 41.9871 71.1795C42.4514 70.5367 41.4358 69.7477 40.8845 70.3321C39.4627 71.8808 38.1569 74.0138 36.1257 74.7151C36.0387 73.1957 36.9962 72.0269 37.4895 70.5951C37.5766 70.3614 37.2574 70.2737 37.1413 70.449C35.9807 71.9977 35.0231 73.4587 35.0812 75.4456C35.0812 75.7378 35.3423 76.0592 35.6615 76.03C37.1413 75.8839 38.273 75.095 39.3176 74.1015C39.4046 74.5106 39.6368 74.8612 40.101 75.1242C41.6389 75.9716 43.1478 74.9197 44.3665 73.6632C44.4245 74.5398 44.8598 75.2118 46.0785 75.2118C47.6454 75.2118 48.748 73.5755 49.7926 72.2022C50.0247 73.0788 50.518 73.8385 51.5626 73.9846C53.1005 74.2476 54.5513 73.0204 55.3638 71.8516C55.799 71.2087 54.9576 70.6536 54.4643 71.0626Z" fill="#27336B"/>
</g>
<defs>
<clipPath id="clip0">
<rect width="108" height="103" fill="white"/>
</clipPath>
</defs>
</svg>
