<svg width="383" height="111" viewBox="0 0 383 111" fill="none" xmlns="http://www.w3.org/2000/svg">
<path d="M231.484 68.174C233.548 61.4182 233.97 53.9588 234.345 46.9685C234.768 39.8375 235.331 32.2842 234.345 25.2001C233.782 21.2123 226.558 24.2618 229.889 27.7804C229.982 27.8742 230.076 27.968 230.17 28.0619C230.827 28.7656 231.859 28.7656 232.703 28.3903C232.844 28.3434 232.985 28.2495 233.126 28.2026C231.812 27.452 230.451 26.6544 229.138 25.9038C228.856 32.8472 229.795 39.9782 229.889 46.9685C229.982 53.9588 229.466 61.0898 230.217 67.9863C230.264 68.69 231.249 68.9246 231.484 68.174Z" fill="#E5E2E2"/>
<path d="M238.755 76.1492C239.458 72.1146 241.663 68.4552 242.602 64.4675C243.587 60.1513 243.681 55.6944 243.821 51.2844C243.962 46.6868 243.962 42.0891 243.915 37.4915C243.868 33.3161 244.666 27.874 243.071 23.9801C242.414 22.385 240.256 22.1973 239.646 23.9801C238.379 27.7802 239.365 32.7531 239.458 36.7409C239.599 41.3385 239.646 45.9362 239.74 50.5338C239.787 54.9438 239.881 59.4007 239.224 63.7637C238.614 67.9392 237.113 71.6923 237.394 75.9616C237.441 76.6653 238.614 76.9468 238.755 76.1492Z" fill="#E5E2E2"/>
<path d="M329.955 11.6884C321.745 11.0316 313.3 12.0637 305.137 12.7205C297.397 13.3773 289.656 14.0341 281.915 14.8786C275.347 15.5823 268.732 16.4268 262.305 18.1626C256.535 19.7577 249.216 22.1034 244.994 26.5134C243.774 27.7801 244.994 30.4543 246.87 29.7036C250.061 28.39 252.922 26.4196 256.159 25.106C258.974 23.98 261.93 23.0887 264.885 22.338C271.547 20.6491 278.397 19.8515 285.246 19.1009C292.94 18.3034 300.634 17.4589 308.281 16.4737C315.599 15.5354 323.059 14.8786 330.19 12.8612C330.846 12.7205 330.659 11.7353 329.955 11.6884Z" fill="#E5E2E2"/>
<path d="M312.503 27.827C290.688 26.7948 268.076 28.5776 246.871 33.9728C244.713 34.5357 245.604 37.7729 247.809 37.3037C269.296 32.8468 290.548 29.8912 312.503 29.3282C313.488 29.3282 313.488 27.8739 312.503 27.827Z" fill="#E5E2E2"/>
<path d="M155.53 93.7424C157.829 90.1769 157.078 84.3126 157.125 80.1841C157.172 75.2111 157.688 69.6752 156.281 64.8899C155.671 62.7788 152.95 63.4356 152.715 65.3591C152.105 70.4258 153.278 75.868 153.466 80.9817C153.653 84.9694 152.715 90.1769 154.639 93.7424C154.779 94.1178 155.295 94.0708 155.53 93.7424Z" fill="#E5E2E2"/>
<path d="M177.11 21.4002C183.866 21.0718 189.543 25.8101 192.264 31.7214C195.078 37.8203 194.985 44.4822 195.548 51.0503C195.782 53.8651 199.535 53.8182 199.864 51.0503C201.506 37.0697 194.187 17.7877 177.11 19.9458C176.219 20.0865 176.125 21.4471 177.11 21.4002Z" fill="#E5E2E2"/>
<path d="M43.4058 43.356C57.5738 44.3412 71.6949 45.3734 85.9098 45.3264C99.468 45.2795 113.73 44.7166 126.96 41.4325C129.258 40.8696 128.226 37.6324 126.021 37.9608C112.135 40.2127 98.5296 41.9955 84.4085 42.3708C70.7566 42.7461 57.0577 42.4646 43.4058 42.0893C42.6082 42.0893 42.6082 43.3091 43.4058 43.356Z" fill="#E5E2E2"/>
<path d="M140.658 90.2706C141.174 84.7816 142.628 79.6679 144.083 74.3666C144.786 71.8801 140.939 70.801 140.189 73.2875C138.547 78.7765 138.547 84.6409 139.25 90.2706C139.391 91.162 140.564 91.162 140.658 90.2706Z" fill="#E5E2E2"/>
<path d="M149.946 69.816C151.212 66.532 151.775 61.6528 149.101 58.8849C147.975 57.712 146.287 58.9318 146.521 60.3862C146.803 61.9343 147.647 63.2479 147.975 64.7492C148.351 66.3443 148.491 67.9394 148.304 69.5814C148.257 70.6136 149.617 70.6136 149.946 69.816Z" fill="#E5E2E2"/>
<path d="M148.867 96.6512C148.914 92.9449 148.82 89.2387 148.726 85.4855C148.679 83.7966 146.005 83.8435 146.146 85.4855C146.427 89.1918 146.662 92.898 147.037 96.6512C147.178 97.7771 148.867 97.871 148.867 96.6512Z" fill="#E5E2E2"/>
<path d="M176.36 61.3244C169.98 62.5442 164.444 68.2209 160.691 73.1939C156.609 78.5891 153.185 85.4855 153.185 92.382C153.185 94.1647 155.577 94.3524 156.14 92.8042C158.345 86.846 160.222 81.0286 163.928 75.7742C167.587 70.5197 172.795 67.1888 177.111 62.5911C177.627 61.9812 177.111 61.1837 176.36 61.3244Z" fill="#E5E2E2"/>
<path d="M163.316 70.0974C163.082 63.3417 162.144 56.6329 160.502 50.1118C159.986 48.0944 156.936 48.9389 157.405 50.9562C158.953 57.3835 160.361 63.8578 161.581 70.332C161.768 71.3172 163.363 71.0826 163.316 70.0974Z" fill="#E5E2E2"/>
<path d="M171.574 61.6061C171.855 58.4159 171.762 55.3665 171.058 52.2232C170.683 50.4874 168.055 51.238 168.384 52.9738C168.994 55.9295 169.604 58.8851 170.026 61.8407C170.167 62.779 171.48 62.4506 171.574 61.6061Z" fill="#E5E2E2"/>
<path d="M105.8 38.477C107.583 43.0746 104.721 47.1093 101.203 49.8303C99.8893 50.8624 101.39 52.5514 102.657 52.3637C109.178 51.2847 110.726 42.5585 107.161 37.8671C106.739 37.2572 105.472 37.5856 105.8 38.477Z" fill="#E5E2E2"/>
<path d="M73.2416 39.3216C73.2885 41.6204 72.8194 43.9192 71.7873 45.9366C70.7083 48.0008 73.9453 49.4083 74.7428 47.2033C75.6811 44.5291 75.7749 41.8081 74.9774 39.087C74.7428 38.1487 73.2416 38.3364 73.2416 39.3216Z" fill="#E5E2E2"/>
<path d="M211.684 77.6039C211.825 62.122 211.872 45.8895 208.588 30.6891C208.212 28.9533 205.351 29.3286 205.491 31.1114C206.523 46.6401 209.104 62.0282 209.901 77.6039C209.995 78.7298 211.684 78.7767 211.684 77.6039Z" fill="#E5E2E2"/>
<path d="M156.843 17.1307C147.085 16.9431 137.514 19.9456 127.803 20.3679C123.393 20.5555 119.03 20.1333 114.621 20.3679C110.117 20.6024 105.613 21.4469 101.203 22.4321C91.2105 24.684 81.7339 27.0767 71.4128 27.2174C61.8424 27.3582 52.3188 27.1236 42.7484 27.2643C32.9434 27.4051 23.0445 27.1236 13.2864 27.8742C8.079 28.2495 -1.8198 31.3928 1.18269 38.6177C3.76296 44.8573 14.6 47.1562 20.3704 48.4229C29.0026 50.2994 37.8224 50.7686 46.5953 51.1439C57.9954 51.7069 69.3955 52.1291 80.7956 52.4106C91.6327 52.6921 103.22 54.0526 113.964 52.4575C115.746 52.176 115.7 49.2204 113.964 48.9389C105.472 47.5315 96.4179 48.2352 87.7858 48.0475C78.966 47.8599 70.1461 47.6253 61.3732 47.2969C45.0472 46.687 26.5631 47.6722 11.3161 40.9165C9.86175 40.2597 7.32841 39.4152 6.34322 38.1016C3.76296 34.583 8.45434 33.2694 10.6124 32.8941C15.0223 32.0965 19.7606 32.6126 24.2174 32.5657C33.178 32.4719 42.1855 32.3311 51.146 32.1904C59.8251 32.0965 68.5511 32.5657 77.2301 32.0027C85.3932 31.4397 93.1339 29.3755 101.015 27.4989C105.707 26.3729 110.398 25.2939 115.23 25.0124C119.875 24.7309 124.519 25.2001 129.117 24.684C138.218 23.6988 148.352 22.0568 156.937 18.9135C157.969 18.5382 157.875 17.1307 156.843 17.1307Z" fill="#47548F"/>
<path d="M201.693 37.3977C203.851 26.7012 196.814 17.412 186.821 14.0342C174.107 9.71804 160.314 14.8317 148.445 19.3356C143.66 21.1652 136.295 22.5258 133.339 27.2172C130.149 32.3309 130.571 40.0719 129.445 45.7954C126.724 59.7291 121.845 73.1936 114.761 85.5322C114.245 86.3767 114.386 87.6434 115.136 88.3471C120.86 93.6015 128.835 92.1472 133.996 86.8458C141.08 79.574 142.487 69.0182 146.944 60.2452C149.196 55.7883 152.48 51.8005 156.702 49.1264C159.939 47.0621 161.863 49.1264 164.349 51.0968C166.085 52.5042 167.868 53.7709 169.791 54.9907C177.532 59.8229 187.009 63.0601 196.157 62.1687C198.878 61.8872 198.878 58.1809 196.157 57.9464C186.446 57.055 177.532 54.6623 169.51 48.8918C166.789 46.9214 163.88 42.7929 160.315 42.5583C156.937 42.3238 153.277 45.467 150.885 47.4844C144.082 53.3487 141.127 61.5588 138.124 69.7689C136.482 74.2727 134.7 79.011 131.509 82.7173C128.225 86.5643 122.69 89.0508 118.42 85.11C118.561 86.0483 118.655 86.9865 118.796 87.9248C124.285 78.3073 128.554 68.0799 131.462 57.3834C133.011 51.7067 134.183 45.8893 134.981 40.0718C135.309 37.5385 135.403 34.7705 136.107 32.284C137.233 28.3901 140.142 27.358 143.566 25.9974C154.122 21.822 165.475 16.4738 177.016 16.5207C188.51 16.5676 201.176 24.4023 200.285 37.257C200.285 37.9607 201.552 38.1483 201.693 37.3977Z" fill="#47548F"/>
<path d="M93.0406 50.7689C82.6726 51.5664 78.8257 65.9223 88.1615 71.2237C93.0406 73.9916 100.125 74.6484 105.567 75.446C111.337 76.2905 118.327 77.088 123.957 75.2583C126.115 74.5546 125.646 71.599 123.441 71.4113C119.219 71.0829 114.949 71.9743 110.68 71.7397C106.692 71.5052 102.752 70.8015 98.8579 70.0039C94.5418 69.1594 88.6307 68.831 86.9418 63.9519C85.1121 58.6505 89.5221 54.8035 93.369 51.9887C93.8381 51.6133 93.7443 50.722 93.0406 50.7689Z" fill="#47548F"/>
<path d="M91.5866 72.4433C86.1446 77.6508 87.5051 87.3621 92.8533 92.2882C98.999 97.918 108.523 98.1056 116.357 98.434C125.552 98.8093 135.076 101.53 143.098 95.6191C150.135 90.4116 155.671 79.762 153.982 70.8951C153.607 68.8777 150.323 68.8777 149.948 70.8951C149.15 75.0236 149.009 79.0113 147.226 82.9052C145.584 86.5177 143.145 89.8955 139.908 92.2413C133.621 96.8389 125.928 94.4932 118.75 94.3524C112.323 94.2117 105.332 94.4932 99.2805 92.0067C95.6681 90.5523 93.1817 88.0659 91.915 84.3596C90.836 81.1694 90.3199 76.0557 92.3372 73.0532C92.6656 72.584 92.0088 72.0679 91.5866 72.4433Z" fill="#47548F"/>
<path d="M100.733 92.898C95.0095 96.1821 98.5749 104.345 103.266 106.644C110.303 110.022 119.264 110.21 126.911 110.397C133.854 110.585 142.346 111.336 148.257 107.066C154.262 102.75 156.185 93.9771 151.916 87.7843C150.462 85.6263 147.084 86.9399 147.694 89.5671C149.007 95.2907 149.758 100.639 143.706 103.782C139.39 106.034 133.385 105.659 128.647 105.706C122.783 105.753 116.871 105.565 111.101 104.674C108.849 104.298 106.316 103.97 104.252 102.938C101.484 101.53 98.6687 96.5105 101.296 93.6487C101.624 93.2264 101.202 92.6166 100.733 92.898Z" fill="#47548F"/>
<path d="M150.229 109.084C151.449 106.644 159.471 107.066 161.911 106.832C165.382 106.503 168.807 106.081 172.232 105.471C179.128 104.252 185.931 102.14 191.513 97.7774C197.002 93.5081 200.568 87.4561 203.289 81.1226C206.151 74.4608 209.247 67.0013 206.198 59.9172C205.165 57.5246 201.741 59.3073 202.163 61.6061C203.617 69.1125 200.052 77.2287 196.627 83.7968C193.155 90.4118 188.183 95.5255 181.286 98.4811C175.187 101.108 168.573 102.187 162.051 103.407C158.345 104.111 150.464 104.064 149.338 108.708C149.197 109.225 149.995 109.6 150.229 109.084Z" fill="#47548F"/>
<path d="M140.283 72.6308C140.752 75.2112 145.115 74.3198 146.851 73.9914C150.604 73.2877 154.216 71.1765 156.28 67.8925C158.11 64.9838 158.579 61.4182 157.641 58.1342C156.843 55.3662 154.638 51.7069 151.354 52.0353C150.088 52.176 149.431 53.302 149.994 54.4279C150.791 56.1169 152.48 57.0552 153.184 58.8848C153.935 60.9022 153.841 63.2948 152.809 65.2183C150.885 68.9715 145.537 71.5049 141.362 71.1765C140.564 71.1296 140.189 71.974 140.283 72.6308Z" fill="#47548F"/>
<path d="M90.3674 56.5393C102.518 53.2083 116.358 52.6453 128.743 54.4281C131.745 54.8503 132.355 50.6749 129.306 50.2996C115.419 48.5638 103.034 50.5342 90.086 55.5541C89.4761 55.7886 89.7107 56.7269 90.3674 56.5393Z" fill="#47548F"/>
<path d="M136.341 96.2757C137.138 93.1324 138.029 90.1298 138.499 86.8927C138.686 85.5791 136.716 84.9692 136.434 86.3298C135.825 89.6138 135.637 92.8509 135.402 96.1818C135.402 96.6979 136.2 96.7917 136.341 96.2757Z" fill="#47548F"/>
<path d="M133.293 107.958C136.107 104.392 137.468 100.733 137.186 96.135C137.139 95.009 135.544 95.009 135.451 96.135C135.216 99.8882 134.278 103.97 132.495 107.348C132.307 107.817 132.964 108.38 133.293 107.958Z" fill="#47548F"/>
<path d="M145.773 71.4579C145.866 69.3468 145.96 67.2356 146.007 65.0775C146.054 64.0923 144.459 64.0923 144.459 65.0775C144.506 67.1887 144.6 69.3468 144.694 71.4579C144.74 72.1147 145.726 72.1147 145.773 71.4579Z" fill="#47548F"/>
<path d="M201.178 83.1395C204.603 85.9544 211.78 84.8754 215.956 84.7815C217.363 84.7815 218.255 83.6556 218.395 82.342C219.85 67.4231 220.506 52.3635 220.413 37.3507C220.366 32.5654 221.585 25.669 215.721 24.027C210.654 22.5726 202.914 22.338 198.316 25.106C196.674 26.0912 197.19 29.3283 199.395 29.0468C202.163 28.7184 204.79 28.1555 207.558 28.2493C209.575 28.2962 213.516 28.0147 214.736 29.6567C216.003 31.3457 215.252 35.9902 215.252 38.1014C215.252 41.1508 215.252 44.2472 215.158 47.2967C214.924 58.9784 213.938 70.6133 213.422 82.295C214.032 81.4975 214.642 80.6999 215.205 79.9493C212.343 80.4184 209.435 80.7938 206.526 80.9814C204.509 81.1222 202.867 80.9345 201.178 82.0605C200.99 82.3419 200.849 82.858 201.178 83.1395Z" fill="#47548F"/>
<path d="M213.89 81.0287C211.872 84.2658 212.576 87.8313 215.625 90.1301C219.801 93.2734 226.228 92.5228 231.107 92.2882C234.25 92.1475 237.394 91.866 240.49 91.4907C242.413 91.2561 244.759 91.2561 246.166 89.7548C247.48 88.3943 247.292 86.7992 247.339 85.0164C247.386 81.6855 247.715 78.3545 248.09 75.0236C248.841 68.7839 249.779 62.5912 249.685 56.2577C249.591 49.3613 249.028 42.5117 248.653 35.6152C248.465 32.2843 248.325 29.0003 248.231 25.6693C248.184 23.4174 248.747 20.368 247.621 18.3037C246.87 16.9432 245.557 16.4741 244.102 16.3802C240.631 16.0987 236.924 16.6617 233.453 16.8025C228.105 17.037 220.458 16.0987 216.282 20.2272C213.28 23.2298 213.28 28.1089 216.986 30.3608C218.816 31.4868 220.551 29.0003 219.191 27.499C216.423 24.4026 221.63 22.2446 223.835 21.9631C226.463 21.6347 229.184 21.6816 231.811 21.5878C234.438 21.4939 237.065 21.3532 239.739 21.2594C240.162 21.2594 243.445 20.7433 243.68 21.0717C243.586 20.9309 243.539 24.3088 243.539 24.215C243.727 34.677 244.806 45.092 245.087 55.554C245.228 60.4331 244.759 65.2653 244.149 70.0976C243.821 72.7248 243.492 75.3051 243.211 77.9323C242.976 80.2311 243.211 82.8584 242.789 85.0633C242.507 86.5646 242.976 86.5646 241.241 87.0338C239.833 87.4091 238.238 87.456 236.784 87.6437C234.391 87.9251 231.952 88.1128 229.559 88.2536C226.932 88.3943 224.258 88.6289 221.677 88.3005C218.863 87.9252 214.453 85.7671 215.954 82.0139C216.564 80.6534 214.546 79.9497 213.89 81.0287Z" fill="#47548F"/>
<path d="M371.955 99.7987C355.254 96.7962 310.11 94.9622 293.221 93.3202C285.105 92.5226 277.036 91.3967 268.92 90.7399C264.932 90.4115 260.898 90.0362 256.957 89.3324C253.063 88.6287 249.216 86.9398 245.275 86.7052C243.164 86.5645 242.93 89.2855 244.29 90.3176C249.779 94.4931 259.349 94.9622 266.058 95.5721C274.362 96.3227 282.666 97.261 291.016 97.9647C299.508 98.6684 335.972 100.362 344.464 100.643C353.565 100.925 362.713 101.441 371.815 100.831C372.331 100.737 372.518 99.9395 371.955 99.7987Z" fill="#47548F"/>
<path d="M383.66 0.522849C379.578 -0.509275 375.215 0.241359 371.04 0.616677C366.63 1.03891 316.117 3.80698 311.707 4.36995C302.653 5.58974 293.598 6.90334 284.591 8.40461C276.052 9.81206 267.373 11.0318 258.929 13.0492C252.689 14.5035 245.934 16.8962 242.556 22.7605C241.43 24.684 243.916 26.326 245.511 25.0124C251 20.5555 257.052 18.5851 263.902 17.2715C272.299 15.6764 280.697 14.1751 289.094 12.7677C297.351 11.3602 305.608 9.9528 313.912 8.63919C318.04 7.98238 368.272 5.07357 372.4 4.36985C376.294 3.71305 380.329 3.29082 383.8 1.36731C384.129 1.17966 384.035 0.616678 383.66 0.522849Z" fill="#47548F"/>
<path d="M299.227 20.6025C288.719 20.6964 278.304 21.1186 267.795 21.9631C260.242 22.573 249.592 22.6199 243.775 28.2027C242.79 29.141 243.822 30.9238 245.136 30.5015C248.982 29.2818 252.454 27.5928 256.442 26.8422C261.18 25.9039 266.059 25.5286 270.891 24.9656C280.321 23.8866 289.798 22.7606 299.274 21.7754C299.931 21.6816 299.978 20.6025 299.227 20.6025Z" fill="#47548F"/>
<path d="M275.537 74.1321C271.315 73.4753 267.045 72.6778 262.917 71.5518C258.695 70.379 254.895 68.2678 250.719 67.0011C249.03 66.485 248.092 68.9246 249.546 69.816C256.677 74.226 267.186 75.5396 275.396 75.2112C275.959 75.1643 276.147 74.226 275.537 74.1321Z" fill="#47548F"/>
</svg>
