<svg width="33" height="26" viewBox="0 0 33 26" fill="none" xmlns="http://www.w3.org/2000/svg">
<path d="M0.273522 19.2441C1.18526 22.9823 4.28517 25.3528 8.11447 25.2616C12.3085 25.0793 15.4996 21.7058 15.3172 17.6942C15.226 13.9561 12.3996 10.8561 8.38799 10.765C8.93504 8.30327 11.2144 6.47979 14.9525 5.20336L12.7643 0.73584C4.46752 2.55932 0 9.48853 0 15.8707C0 17.056 0.0911739 18.2412 0.273522 19.2441ZM17.8701 19.2441C18.7818 22.9823 21.8817 25.3528 25.6199 25.2616C29.8139 25.0793 33.1873 21.7058 32.9138 17.6942C32.8226 13.9561 29.9962 10.8561 26.1669 10.765C26.8051 8.48562 28.9021 6.47979 32.4579 5.20336L30.2697 0.73584C22.1552 2.55932 17.5054 9.48853 17.5054 15.8707C17.5054 17.056 17.5966 18.2412 17.8701 19.2441Z" fill="#E5E5E5"/>
</svg>
