<svg width="17" height="17" viewBox="0 0 17 17" fill="none" xmlns="http://www.w3.org/2000/svg">
<path d="M16.5528 6.86457C15.9467 8.5262 14.0907 8.68077 12.8029 9.64683C12.0833 10.1492 12.0075 10.1105 12.3105 10.922C12.462 11.4244 12.8787 11.8881 13.0681 12.3904C13.409 13.2019 13.5605 13.8975 13.6741 14.7863C13.7498 15.5978 12.8029 15.8683 12.2348 15.6364C10.9469 15.0181 9.24247 12.545 7.87889 12.8155C7.31073 12.9314 6.47743 14.4385 6.06079 14.9022C5.56838 15.4432 5.0381 15.9069 4.39419 16.2547C3.7124 16.6411 3.06849 16.1388 2.95486 15.4046C2.76547 13.5497 4.16693 12.2359 4.77296 10.6129C3.56089 9.64683 1.74279 8.98991 0.454969 8.29434C-0.188943 7.94656 -0.113188 7.01914 0.454969 6.63271C1.93218 5.66665 4.12905 5.93715 5.94715 6.05308C6.43956 4.23688 7.00771 2.45932 7.61375 0.681767C7.91677 -0.168369 9.20459 -0.284296 9.43185 0.681767C9.65911 1.68647 9.88638 2.69118 10.0758 3.69588C10.1515 4.15959 10.2273 4.58466 10.303 5.04837C10.3409 5.28023 10.3788 5.51208 10.4167 5.74394C10.3788 6.13036 10.4545 6.169 10.6818 5.97579C11.0984 6.09172 12.5378 5.62801 13.0681 5.58937C13.9392 5.55072 14.7725 5.58937 15.6437 5.70529C16.2119 5.70529 16.78 6.20765 16.5528 6.86457Z" fill="#FFFFFF"/>
</svg>
