<svg width="250" height="185" viewBox="0 0 250 185" fill="none" xmlns="http://www.w3.org/2000/svg">
<path d="M97.6408 91.2365C97.0543 89.9972 95.816 89.345 94.3822 89.4754C92.3619 89.6711 90.7326 91.0408 89.5595 92.6062C87.3436 95.6066 88.7122 99.4548 91.9057 101.02C94.5125 102.26 97.8363 102.064 100.117 100.238C103.115 97.8894 101.616 93.715 99.596 91.3017C99.1398 90.5842 98.2273 90.7147 97.6408 91.2365ZM98.5532 97.6285C97.5105 98.8026 95.6856 98.8678 94.2519 98.6721C92.6226 98.4112 91.1888 97.172 91.3191 95.4761C91.4495 94.2368 92.4922 93.1932 93.3394 92.4758C94.5125 91.6278 95.4249 91.7583 96.2722 92.8019C96.598 93.1932 97.0542 93.1932 97.4453 92.9323C98.2925 94.1064 99.7263 96.324 98.5532 97.6285Z" fill="#E5E2E2"/>
<path d="M98.4878 66.19C98.4878 66.19 98.4227 66.19 98.4878 66.19C90.4717 60.2545 80.1093 66.777 73.918 72.7125C64.077 82.1049 63.8815 97.5633 71.2459 108.456C85.3231 129.197 123.514 119.348 121.559 93.1932C121.428 91.4973 118.756 91.7582 118.626 93.3236C116.801 113.543 96.0765 121.566 79.3273 111.456C68.3784 104.868 66.7491 90.1928 72.2235 79.5611C76.5249 71.2123 89.1682 62.4722 98.162 68.2772C98.553 68.5381 98.944 68.4076 99.2699 68.1467C100.117 68.799 101.355 67.6902 100.573 66.9727C99.8565 66.3204 99.3351 66.1248 98.4878 66.19Z" fill="#E5E2E2"/>
<path d="M155.514 78.9089C154.797 77.3435 151.994 78.1914 152.581 79.8873C159.75 101.672 140.459 128.545 122.015 137.938C103.898 147.134 78.1545 148.374 60.6884 137.155C39.8334 123.719 32.0127 95.2152 39.9637 72.5821C47.5237 50.9273 75.9387 32.6643 98.7489 37.5562C99.4658 37.6866 100.052 37.0996 100.052 36.5126C109.502 37.6214 117.779 41.2088 126.317 45.5137C133.811 49.2967 141.697 52.4275 144.76 60.9068C145.151 61.9504 146.781 61.3633 146.585 60.3197C145.217 52.1666 137.722 48.1227 130.879 44.731C119.995 39.4477 109.111 33.3818 96.6634 33.7079C95.9465 33.7079 95.4903 34.2949 95.4251 34.8167C73.4621 31.6859 49.0226 47.6009 39.0513 66.4509C26.3428 90.3885 35.0106 121.11 55.4747 137.872C74.1139 153.07 102.985 151.048 123.71 141.395C135.897 135.72 144.695 125.153 150.691 113.348C155.644 103.499 160.271 89.671 155.514 78.9089Z" fill="#E5E2E2"/>
<path d="M117.323 82.4963C118.235 77.6044 120.777 73.1691 124.1 69.4513C125.013 68.4077 123.644 66.7771 122.667 67.8207C119.278 71.2776 114.194 77.4088 114.846 82.6268C115.042 84.1922 117.062 83.8008 117.323 82.4963Z" fill="#E5E2E2"/>
<path d="M125.535 72.6474C125.86 71.3429 124.036 70.6906 123.579 71.9951C122.406 75.1259 118.17 79.4308 119.799 83.0182C120.451 84.3879 122.211 83.54 122.146 82.2355C121.95 78.7785 124.752 75.8434 125.535 72.6474Z" fill="#E5E2E2"/>
<path d="M124.426 86.1489C125.274 85.8228 126.121 85.6923 126.968 85.3662C127.098 85.4966 127.164 85.5619 127.294 85.6923C128.206 86.6707 130.161 85.5619 129.379 84.3226C129.119 83.9312 128.793 83.5399 128.597 83.0833C128.337 82.431 127.359 82.1049 126.707 82.431C126.316 82.6267 125.795 82.7572 125.339 82.8876C125.469 82.1049 125.665 81.257 125.925 80.4743C126.512 78.648 123.709 77.6696 123.123 79.4959C122.536 81.1918 122.21 82.8876 122.21 84.6487C122.276 85.888 123.318 86.5402 124.426 86.1489Z" fill="#E5E2E2"/>
<path d="M209.541 37.6866C209.346 37.3605 210.454 34.9472 210.714 34.2949C211.171 33.2513 211.692 32.012 212.083 31.2293C212.735 29.9901 214.429 27.9681 213.908 26.4679C213.647 25.8157 212.865 25.8809 212.409 26.2722V26.207C211.105 27.3158 210.193 29.4683 209.346 31.0337C208.433 32.7947 205.37 37.2953 207.26 39.1216C208.433 40.1 210.323 39.0563 209.541 37.6866ZM213.777 27.642C213.777 27.5767 213.777 27.5767 213.777 27.642V27.642Z" fill="#E5E2E2"/>
<path d="M214.103 37.6866C214.82 37.1648 215.016 36.9039 215.537 36.1865C216.058 35.5342 215.667 34.7515 215.146 34.3601C216.384 30.3814 219.317 26.9897 221.468 23.4676C222.184 22.2283 220.555 21.1847 219.643 22.2283C216.384 26.2722 212.213 31.0337 211.692 36.4473C211.561 37.8171 213.126 38.4041 214.103 37.6866Z" fill="#E5E2E2"/>
<path d="M220.099 32.4035C220.099 32.5339 220.164 32.5991 220.229 32.6644C219.317 33.2514 219.643 34.882 220.881 35.0777C226.095 35.9256 233.981 39.1869 238.543 35.2081C239.325 34.5559 238.478 33.3818 237.565 33.7732C232.482 35.8604 227.659 32.4035 222.641 32.3382C223.227 30.1206 223.749 28.2291 224.922 26.2071C226.095 24.2503 227.529 22.5545 228.767 20.6629C229.419 19.6193 227.985 18.2496 227.138 19.228C224.14 22.424 219.317 27.5768 220.099 32.4035Z" fill="#E5E2E2"/>
<path d="M210.91 40.687C209.541 40.4261 209.02 42.7742 210.389 43.1003C215.342 44.2091 220.164 45.1875 225.183 43.8178C225.834 43.6221 226.095 43.0351 226.03 42.5133C227.92 42.5133 229.745 42.3176 231.504 41.6001C232.547 41.2088 231.961 39.5129 230.918 39.7738C225.704 41.0131 220.099 38.7955 215.016 37.8171C213.517 37.5562 212.995 40.1 214.494 40.4261C216.71 40.9479 219.122 41.6001 221.468 42.0567C217.883 41.9915 214.364 41.274 210.91 40.687Z" fill="#E5E2E2"/>
<path d="M129.771 73.4301C128.011 69.8427 125.926 66.451 122.993 63.9072C123.384 62.7984 121.885 61.9504 120.972 62.9288C118.431 65.8639 116.932 69.3861 115.172 72.7778C113.608 75.9086 111.588 78.7133 110.219 81.9745C109.958 82.6268 110.219 83.5399 110.871 83.8661C114.129 85.6924 117.649 86.0837 121.298 86.5403C125.013 86.9969 128.858 88.9536 132.508 87.5187C132.769 87.3882 132.964 87.2578 133.094 87.1273C134.333 87.9753 136.353 86.6708 135.441 85.1706C133.616 82.1702 132.182 78.7133 130.618 75.3216C134.007 74.2128 137.2 72.3865 140.654 71.1472C147.041 68.8643 153.167 65.9292 159.359 63.2549C173.697 57.0586 188.295 51.1883 202.894 45.5789C203.154 45.5137 203.35 45.318 203.48 45.1876C203.545 45.2528 203.611 45.2528 203.741 45.318C209.281 46.4921 216.645 53.6016 222.38 49.5577C222.967 49.1663 222.967 48.4488 222.706 47.8618C225.899 45.8398 230.136 44.6006 233.329 43.1004C238.608 40.5566 243.496 37.6215 248.645 34.9473C250.339 34.0993 249.036 31.4903 247.341 32.3382C241.606 35.2082 236.131 38.7955 230.331 41.6654C227.203 43.2308 222.641 44.6006 220.099 47.2748C214.69 48.2532 210.128 44.144 204.849 43.4265C204.784 38.9912 205.566 34.7516 206.022 30.3163H206.087C214.429 26.5332 222.836 20.3368 231.7 17.6626C230.136 21.6413 228.115 25.4244 227.138 29.5988C227.007 30.0554 227.138 30.4467 227.333 30.7728C220.295 34.3602 213.191 37.4258 205.826 40.4262C204.849 40.8175 205.37 42.5786 206.413 42.2525C214.299 39.9696 222.511 37.0345 229.745 32.86C235.936 33.5775 242.192 31.2946 248.449 31.1642C250.274 31.099 250.535 28.49 248.645 28.3595C243.496 28.0334 238.608 29.7945 233.525 30.5119C233.655 30.3815 233.85 30.3163 233.981 30.1858C235.219 29.3379 233.85 27.3159 232.547 28.0334C231.765 28.4247 231.048 28.8161 230.266 29.2074C231.83 24.7721 233.85 20.5325 235.154 16.032C235.415 15.0536 234.633 13.9448 233.59 14.2057C228.897 15.3145 224.857 17.9887 220.621 20.2716C215.733 22.9458 210.845 25.5548 206.022 28.2943C205.892 27.1855 204.262 27.1855 204.067 28.3595C203.285 32.8601 201.655 37.7519 201.916 42.4481C201.721 42.4481 201.525 42.5134 201.33 42.5786C188.751 47.9923 176.043 53.2103 163.334 58.3631C157.078 60.9068 150.952 63.842 144.76 66.5162C140.003 68.6686 134.854 71.669 129.771 73.4301ZM122.797 83.3443C119.799 82.8225 116.736 82.8877 113.869 81.7789C115.042 79.1699 116.606 76.7565 117.844 74.1475C119.213 71.2776 120.451 68.4077 122.015 65.7335C124.101 68.6686 125.73 71.8647 127.229 75.1259C127.229 75.3868 127.359 75.7129 127.555 75.8434C128.858 78.7785 130.097 81.7136 131.595 84.6488C128.532 84.7792 125.795 83.8661 122.797 83.3443Z" fill="#47548F"/>
<path d="M0.860298 95.9327C8.5506 96.324 16.2409 96.3892 23.9312 96.324C24.7784 105.26 27.5808 114.065 31.7519 122.61C40.2894 139.96 54.1059 153.461 73.1361 158.484C79.5881 160.179 86.366 160.636 93.1439 160.179C93.6001 167.55 94.1867 174.985 94.1867 182.291C94.1867 184.508 97.6408 184.834 97.6408 182.552C97.7711 175.051 97.0542 167.419 96.4677 159.853C107.742 158.614 118.887 155.092 128.793 150.722C151.017 140.873 164.572 119.088 165.355 96.2588C172.523 95.8674 179.758 95.2804 186.861 94.3673C188.621 94.1064 188.1 91.4974 186.34 91.6278C179.367 92.2801 172.328 92.7366 165.355 93.128C165.224 83.9313 163.008 74.6693 158.446 66.0596C157.404 64.1028 154.34 65.5378 155.318 67.5598C159.033 75.5172 161.249 84.3878 161.575 93.2584C144.76 93.9759 127.946 94.0411 111.066 94.4977C109.893 94.563 109.698 96.3892 110.936 96.3892C117.844 96.5849 124.752 96.7154 131.661 96.7806C131.4 96.9763 131.204 97.3024 131.204 97.759C129.966 113.739 111.783 123.327 97.6408 125.349C96.6632 125.48 95.6856 125.61 94.7081 125.675C94.317 120.001 93.926 114.326 93.535 108.717C93.535 108.521 93.4698 108.391 93.4046 108.325C99.4004 108.847 105.461 105.716 107.742 99.8462C110.871 91.693 105.461 82.2354 96.598 82.0397C95.9463 82.0397 95.5553 82.3006 95.2946 82.692C94.708 82.4963 94.0563 82.3659 93.4046 82.3659C93.4046 74.5388 93.2091 66.7118 93.0136 58.8848C99.5308 58.6891 106.048 60.4502 111.848 64.6246C112.826 65.3421 114.064 63.9072 113.217 63.0592C107.547 57.5803 100.313 55.4931 92.8832 55.8192C92.6225 47.7313 92.2967 39.5782 92.036 31.4903C114.52 29.7944 137.982 38.0128 150.43 57.776C151.147 58.8848 153.037 58.0369 152.32 56.8628C140.198 35.5995 115.563 26.8593 91.9708 28.4899C91.645 19.2932 91.3843 10.0965 91.3191 0.899716C91.3191 -0.209111 89.6246 -0.339561 89.5595 0.769266C89.1684 10.0965 89.0381 19.4236 89.1032 28.7508C81.4781 29.5988 74.0485 31.4903 67.2054 34.4254C51.499 41.4045 36.2487 52.4928 28.6888 68.4729C24.8436 76.626 23.4098 84.9096 23.6705 93.128C15.9802 93.3889 8.35508 93.715 0.664782 94.1716C-0.312799 94.2368 -0.182455 95.9327 0.860298 95.9327ZM81.3478 156.005C60.9489 154.44 45.5683 140.155 36.0532 123.132C31.2956 114.652 28.1022 105.586 27.1898 96.324C35.988 96.1936 44.7211 95.9327 53.5193 95.6718C53.78 100.042 54.8879 104.477 56.9734 108.847C63.0996 121.892 77.6981 129.328 91.7753 129.589C92.036 135.524 92.3619 141.525 92.4922 147.46C92.5574 150.33 92.6877 153.2 92.8181 156.135C89.0381 156.331 85.1929 156.331 81.3478 156.005ZM95.7508 129.524C111.848 128.284 134.528 117.066 134.333 98.2156C134.333 97.6285 134.072 97.2372 133.746 96.9763C143.066 97.0415 152.385 96.9763 161.705 96.5849C161.64 102.26 160.793 107.934 159.033 113.283C154.536 127.11 141.893 139.829 129.38 146.221C119.278 151.439 107.808 154.766 96.2722 155.875C96.0767 153.135 95.9463 150.461 95.8811 147.721C95.7508 141.655 95.4249 135.59 95.0339 129.524C95.2294 129.524 95.4901 129.524 95.7508 129.524ZM91.7101 108.978C91.3843 114.587 91.5146 120.262 91.7101 125.936C79.4578 125.741 67.792 119.675 61.0793 109.173C58.2117 104.673 56.7779 100.042 56.4521 95.5413C64.5334 95.3456 72.5496 95.15 80.5657 95.2152C80.5657 100.564 84.1502 105.521 89.5595 107.608C90.4067 107.934 91.3191 108.195 92.1663 108.325C91.9056 108.456 91.7101 108.652 91.7101 108.978ZM89.6898 59.3414C89.8853 67.1684 90.0808 74.9954 90.2112 82.8224C90.2112 82.8876 90.2112 82.9529 90.2764 83.0181C87.1481 83.8008 84.5412 85.4967 82.6512 88.3013C81.804 89.5406 81.2826 90.8451 80.9567 92.1496C72.7451 92.2801 64.5334 92.3453 56.3869 92.4105C57.0386 75.8433 72.8102 61.4286 89.6898 59.3414ZM104.875 97.2372C104.093 103.238 98.1622 105.521 92.8832 104.999C87.0829 104.412 83.4333 99.8462 83.8895 94.1716C84.2805 89.3449 92.2315 81.6484 96.6632 87.1273C97.2498 87.8448 98.2925 87.1925 98.2273 86.3446C98.2273 86.0837 98.097 85.888 98.0318 85.6271C103.18 87.1273 105.592 91.693 104.875 97.2372ZM29.927 73.7561C35.7925 57.1237 51.1731 45.7094 66.4234 38.4041C73.462 35.0777 81.2174 32.86 89.1684 31.9469C89.2336 40.0348 89.4291 48.1227 89.6246 56.2758C82.0647 57.2542 74.7002 60.4502 68.9651 64.6899C59.3848 71.8646 53.8452 81.7788 53.5193 92.4105C44.6559 92.541 35.8577 92.6714 26.9943 92.9323C26.7988 86.6055 27.646 80.1482 29.927 73.7561Z" fill="#47548F"/>
</svg>
