<svg width="16" height="16" viewBox="0 0 16 16" fill="none" xmlns="http://www.w3.org/2000/svg">
<path d="M14.3892 10.2638C13.9736 9.96519 13.558 9.5813 13.085 9.38224C12.4401 9.1121 11.6661 9.21162 11.2075 9.76613C10.8922 10.1358 10.8636 10.9747 10.4623 11.2306C9.81732 11.6572 8.25514 10.0932 7.85384 9.69504C7.07992 8.92726 6.42064 8.03152 5.96202 7.05046C5.79004 6.66657 5.48907 6.11206 5.48907 5.68552C5.48907 5.21632 6.33465 5.00304 6.70728 4.76133C7.40955 4.30635 7.86817 3.68075 7.49554 2.84188C7.16591 2.0741 6.73595 1.19257 6.24866 0.49588C5.73271 -0.257684 4.61481 0.0266798 3.85522 0.197298C2.86631 0.410571 2.02073 0.865552 1.44745 1.70442C0.960159 2.42955 0.544532 3.45326 0.859835 4.30635C1.9634 8.3301 4.14186 12.2259 7.88251 14.3444C8.72809 14.8278 9.64534 15.1975 10.5913 15.4392C11.4512 15.6525 12.5834 15.9368 13.4433 15.5814C14.2602 15.2401 14.9338 14.316 15.3351 13.5624C15.7221 12.8373 15.9801 11.8989 15.4498 11.188C15.1632 10.7898 14.7762 10.5481 14.3892 10.2638ZM13.9163 13.861C13.601 14.2591 13.2857 14.643 12.7554 14.7141C12.3684 14.7709 11.9241 14.6714 11.5372 14.6003C10.6199 14.4297 9.74566 14.1311 8.91441 13.7188C5.1021 11.8136 2.93797 7.97464 1.84874 4.02199C1.59077 3.35373 2.03506 2.51486 2.47935 2.00301C3.08129 1.2921 4.09886 1.10726 4.98745 1.02195C5.44607 0.979297 5.44607 1.09304 5.64672 1.47693C5.79004 1.74708 5.93336 2.03144 6.06234 2.30159C6.20566 2.58595 6.50664 2.95562 6.56396 3.25421C6.67862 3.7945 5.76137 4.16417 5.36008 4.32057C4.71514 4.5765 4.35684 4.90352 4.4285 5.64286C4.51449 6.43908 4.87279 7.26373 5.24542 7.96042C6.03368 9.41068 7.19457 10.7045 8.57044 11.6287C9.60234 12.3112 10.9209 12.7377 11.5372 11.3586C11.7091 10.9747 11.7665 10.3349 12.2681 10.2638C12.7124 10.1927 13.2427 10.7188 13.5723 10.9605C13.8446 11.1595 14.1742 11.3444 14.4036 11.5718C15.1632 12.2259 14.3892 13.2638 13.9163 13.861Z" fill="#28336D"/>
</svg>
