<svg width="190" height="202" viewBox="0 0 190 202" fill="none" xmlns="http://www.w3.org/2000/svg">
<g >
<path d="M179.643 200.169C174.654 200.327 170.075 197.738 165.37 196.475C159.812 194.959 154.065 194.044 148.508 192.497C142.887 190.95 137.266 189.403 131.614 188.077C128.962 187.445 126.309 186.908 123.72 186.119C121.257 185.361 118.92 184.225 116.299 184.098C114.341 184.004 114.31 181.036 116.299 181.036C118.415 181.036 120.404 181.731 122.393 182.488C124.762 183.372 127.13 184.067 129.562 184.698C135.498 186.277 141.403 187.887 147.276 189.718C152.865 191.455 158.486 193.097 164.202 194.359C169.57 195.528 174.37 198.369 179.769 199.474C180.148 199.537 180.022 200.137 179.643 200.169Z" fill="#E5E2E2"/>
<path d="M128.898 156.094C128.425 157.041 128.33 158.114 128.172 159.125C127.951 160.545 127.446 161.935 127.004 163.261C126.12 165.976 124.888 168.628 123.593 171.185C121.572 175.195 119.078 179.678 114.941 181.794C113.268 182.646 111.783 180.152 113.457 179.268C117.752 176.932 120.278 172.638 122.583 168.47C124.067 165.85 125.267 163.071 126.372 160.261C126.972 158.683 127.256 157.009 128.456 155.746C128.709 155.494 129.056 155.81 128.898 156.094Z" fill="#E5E2E2"/>
<path d="M130.667 158.367C129.309 164.239 127.162 169.828 123.846 174.911C122.078 177.595 119.015 183.625 115.194 183.499C113.994 183.467 113.71 182.015 114.626 181.352C116.11 180.278 117.468 179.52 118.731 178.131C120.12 176.584 121.32 174.816 122.52 173.111C125.772 168.596 127.857 163.355 129.656 158.114C129.909 157.451 130.825 157.704 130.667 158.367Z" fill="#E5E2E2"/>
<path d="M131.488 167.239C130.635 170.743 129.372 174.09 127.541 177.216C125.93 179.963 123.183 183.562 119.836 184.099C118.667 184.288 117.878 182.772 118.983 182.109C122.046 180.31 124.257 178.7 126.277 175.669C128.077 172.985 129.404 169.954 130.414 166.923C130.635 166.292 131.646 166.544 131.488 167.239Z" fill="#E5E2E2"/>
<path d="M132.877 180.436C130.698 182.551 128.203 185.33 125.077 185.93C124.13 186.119 123.498 184.856 124.414 184.351C125.614 183.688 126.877 183.183 128.046 182.488C129.467 181.636 130.761 180.657 132.056 179.615C132.624 179.173 133.414 179.899 132.877 180.436Z" fill="#E5E2E2"/>
<path d="M135.498 176.742C135.435 174.721 137.961 174.564 139.287 175.416C141.34 176.742 140.929 179.457 139.129 180.815C137.614 181.983 135.151 181.731 134.014 180.12C133.445 179.331 133.508 178.352 133.919 177.5C134.519 176.3 136.003 175.732 137.235 175.416C138.656 175.037 139.129 177.026 137.835 177.563C137.171 177.816 136.508 178.194 136.035 178.7C136.161 178.542 135.972 178.794 135.94 178.826C136.066 178.573 135.908 179.142 135.94 178.794C135.908 179.078 135.877 178.542 135.94 178.826C135.972 178.984 135.845 178.7 136.003 178.952C135.908 178.794 136.161 179.11 136.161 179.078C136.445 179.268 136.35 179.205 136.698 179.299C137.045 179.394 137.456 179.363 137.835 179.142C138.782 178.636 139.192 177.563 138.371 176.774C137.645 176.079 136.54 175.921 136.003 176.9C135.877 177.121 135.498 176.995 135.498 176.742Z" fill="#E5E2E2"/>
<path d="M141.939 178.763C142.855 176.584 145.35 177.153 146.581 178.731C147.971 180.499 147.529 183.278 145.287 184.098C143.739 184.698 142.097 183.372 141.813 181.857C141.403 179.52 143.613 178.321 145.666 178.573C146.329 178.668 146.865 179.047 146.865 179.773C146.865 180.405 146.329 181.004 145.666 180.973C145.318 180.973 145.002 180.973 144.655 181.004C144.529 181.004 144.402 181.068 144.245 181.162C144.15 181.225 144.15 181.289 144.15 181.352C144.15 181.415 144.181 181.699 144.15 181.383C144.15 181.478 144.181 181.541 144.213 181.636C144.308 181.92 144.087 181.415 144.213 181.667C144.245 181.731 144.466 182.015 144.276 181.794C144.339 181.857 144.402 181.92 144.466 181.983C144.245 181.794 144.497 181.983 144.56 182.046C144.308 181.92 144.529 182.015 144.592 182.046C144.308 181.983 144.624 182.046 144.718 182.046C144.434 182.046 144.718 182.015 144.781 182.015C144.56 182.078 144.876 181.952 144.908 181.92C144.971 181.888 145.255 181.604 145.381 181.415C145.666 181.004 145.571 180.468 145.381 180.057C144.908 179.047 143.613 178.1 142.824 179.299C142.413 179.805 141.687 179.331 141.939 178.763Z" fill="#E5E2E2"/>
<path d="M152.929 181.731C153.781 181.257 154.918 181.478 155.518 182.236C156.308 183.246 156.181 184.73 155.392 185.677C154.602 186.624 153.371 186.403 152.518 185.74C151.571 184.983 151.381 183.625 151.981 182.615C152.36 181.983 153.497 182.046 153.655 182.836C153.687 182.962 153.718 183.088 153.75 183.214C153.781 183.278 153.908 183.656 153.813 183.404C153.908 183.593 153.971 183.751 154.034 183.941C154.066 184.067 154.066 184.067 154.034 183.909C154.066 183.972 154.097 184.004 154.129 184.067C154.192 184.162 154.192 184.162 154.097 184.035C154.129 184.067 154.16 184.13 154.223 184.162C154.35 184.288 154.034 184.067 154.318 184.193C154.16 184.13 154.129 184.13 154.255 184.162C154.066 184.13 154.034 184.13 154.16 184.13C154.066 184.13 153.971 184.162 153.876 184.193C153.971 184.13 153.971 184.162 153.876 184.225C154.129 184.035 154.223 183.467 154.129 183.278C154.002 183.057 153.718 182.867 153.497 182.899C152.708 183.12 152.234 182.109 152.929 181.731Z" fill="#E5E2E2"/>
<path d="M125.425 148.232C124.572 153.915 122.741 159.567 120.72 164.934C119.204 168.975 117.12 173.174 113.394 175.606C112.794 176.016 111.878 175.732 111.531 175.132C111.057 174.28 110.963 173.616 111.184 172.669C111.405 171.564 112.857 171.785 113.205 172.669C113.362 172.953 113.52 173.238 113.678 173.49C113.141 173.427 112.573 173.364 112.036 173.269C115.825 170.996 117.783 166.386 119.331 162.44C121.194 157.704 122.962 152.81 124.32 147.917C124.509 147.19 125.52 147.506 125.425 148.232Z" fill="#E5E2E2"/>
<path d="M121.351 150.095C121.036 156.883 117.846 163.924 114.089 169.544C112.857 171.406 111.31 173.585 109.163 174.469C107.142 175.321 105.184 174.058 105.057 171.88C104.994 170.964 106.163 170.617 106.763 171.185C108.184 172.48 108.72 172.006 110.11 170.649C111.468 169.323 112.541 167.744 113.583 166.197C116.646 161.524 119.551 155.652 120.215 150.095C120.341 149.432 121.383 149.369 121.351 150.095Z" fill="#E5E2E2"/>
<path d="M114.31 162.787C112.162 166.576 109.415 170.08 106.257 173.08C105.026 174.248 103.194 172.417 104.394 171.217C107.363 168.249 110.268 165.281 112.573 161.745C113.268 160.672 114.973 161.651 114.31 162.787Z" fill="#E5E2E2"/>
<path d="M103.574 168.596C102.121 169.575 99.9422 169.259 98.3002 169.007C95.3319 168.565 92.4584 167.712 89.6165 166.797C83.2694 164.808 76.8909 162.977 70.5438 160.956C64.0705 158.904 57.6919 156.694 51.408 154.168C45.44 151.768 39.2508 149.621 33.4406 146.875C32.146 146.275 33.0933 144.317 34.3879 144.665C40.1666 146.117 45.7557 148.958 51.2502 151.2C57.2183 153.663 63.2495 155.841 69.3439 157.862C75.5962 159.946 81.8485 161.935 88.1007 163.955C92.9321 165.502 98.1107 167.965 103.289 167.586C103.889 167.523 103.984 168.312 103.574 168.596Z" fill="#E5E2E2"/>
<path d="M110.899 150.221C112.32 154.641 108.626 160.072 106.1 163.324C103.763 166.323 98.679 171.312 94.7634 168.028C94.0056 167.397 94.8266 166.134 95.7107 166.418C99.4053 167.649 102.847 163.892 104.963 161.398C107.142 158.841 110.678 154.136 109.92 150.505C109.763 149.842 110.71 149.59 110.899 150.221Z" fill="#E5E2E2"/>
<path d="M103.478 156.315C104.268 162.156 96.8473 167.049 91.637 167.081C90.3108 167.081 90.3424 165.155 91.637 165.06C95.9315 164.713 102.468 161.335 102.626 156.441C102.626 155.968 103.384 155.841 103.478 156.315Z" fill="#E5E2E2"/>
<path d="M93.5952 162.029C92.4584 164.745 89.7743 165.66 87.1219 166.418C85.7009 166.828 85.1009 164.65 86.5219 164.208C88.4165 163.608 90.8164 163.229 91.7953 161.272C92.3005 160.293 94.0372 160.988 93.5952 162.029Z" fill="#E5E2E2"/>
<path d="M36.7874 133.804C36.7559 133.835 36.7559 133.393 36.7874 133.835C36.819 134.025 36.7559 134.246 36.7243 134.435C36.6611 134.94 36.6927 135.509 36.7243 136.014C36.7874 137.087 37.0085 138.098 36.9137 139.171C36.819 140.276 35.3665 140.244 35.2402 139.171C35.0823 137.782 34.9876 136.456 35.177 135.035C35.2402 134.498 35.3981 133.93 35.8086 133.52C35.9349 133.393 36.1243 133.33 36.3138 133.33C36.7559 133.33 36.2506 133.362 36.6295 133.33C36.819 133.33 36.9453 133.677 36.7874 133.804Z" fill="#E5E2E2"/>
<path d="M38.3663 134.593C39.5662 136.424 38.9663 138.413 37.8295 140.118C37.2295 141.002 35.8401 140.181 36.4085 139.297C37.1979 138.098 38.0505 136.614 37.3874 135.161C37.1032 134.53 37.9558 133.993 38.3663 134.593Z" fill="#E5E2E2"/>
<path d="M38.4296 113.597C40.9873 114.702 39.9768 118.396 39.44 120.417C39.1558 121.459 37.7033 120.985 37.8612 119.975C38.0822 118.554 39.2505 115.681 37.8612 114.608C37.2296 114.134 37.7033 113.282 38.4296 113.597Z" fill="#E5E2E2"/>
<path d="M41.5241 116.723C41.8399 118.081 41.4926 119.407 40.8294 120.606C40.3242 121.522 38.998 120.701 39.44 119.817C39.9137 118.87 40.3558 117.986 40.2295 116.912C40.1979 116.155 41.3662 115.997 41.5241 116.723Z" fill="#E5E2E2"/>
<path d="M48.9451 98.79C48.1241 100.053 47.0821 101.158 46.1032 102.294C45.4401 103.052 44.177 102.042 44.7138 101.221C45.5664 99.9581 46.7031 98.9478 47.7136 97.8112C48.3136 97.1482 49.4188 98.0322 48.9451 98.79Z" fill="#E5E2E2"/>
<path d="M85.827 85.277C85.1007 89.0025 85.9849 92.8228 86.7427 96.4852C87.4058 99.6108 87.6269 102.926 88.9216 105.894C89.5531 107.314 87.5953 108.577 86.7743 107.157C85.1007 104.157 85.3533 99.6424 84.8481 96.2957C84.3113 92.7281 83.4587 88.4026 85.3217 85.0875C85.4796 84.7718 85.8901 84.9613 85.827 85.277Z" fill="#E5E2E2"/>
<path d="M89.0162 98.19C90.153 102.073 90.7529 105.957 93.7528 108.925C94.4475 109.619 93.5633 110.756 92.7107 110.282C88.8267 108.072 88.5741 102.452 87.6584 98.5689C87.4689 97.6849 88.7636 97.306 89.0162 98.19Z" fill="#E5E2E2"/>
<path d="M111.31 119.943C116.867 123.448 118.225 130.583 118.478 136.645C118.509 137.624 117.341 138.287 116.52 137.75C116.457 137.719 116.362 137.656 116.299 137.624C116.962 137.371 117.625 137.087 118.288 136.835C117.846 138.413 117.531 139.992 117.246 141.571C116.962 143.023 114.499 142.707 114.657 141.223C114.878 139.487 115.194 137.813 115.699 136.109C116.046 134.909 117.467 134.877 118.162 135.793C118.225 135.856 118.257 135.919 118.32 135.982C117.531 136.077 116.741 136.203 115.952 136.298C116.931 130.962 114.752 124.206 110.963 120.385C110.742 120.164 111.026 119.754 111.31 119.943Z" fill="#E5E2E2"/>
<path d="M30.9459 35.5189C32.8722 42.3701 35.4931 48.8109 38.6508 55.2201C41.6506 61.2504 44.9346 67.1229 47.3345 73.4373C47.6503 74.3214 46.2293 74.9212 45.8188 74.0688C42.7242 67.5017 39.4718 61.0294 36.4404 54.4308C33.7247 48.4952 30.8828 42.1807 30.1565 35.6452C30.1249 35.1716 30.8196 35.1085 30.9459 35.5189Z" fill="#E5E2E2"/>
<path d="M84.469 0.820889C80.2061 13.1341 84.1217 26.8997 85.0058 39.4339C85.1006 40.7284 82.8902 41.0441 82.7007 39.7496C81.7534 33.2773 81.1218 26.7102 80.8061 20.1432C80.4903 13.5761 80.6482 6.6302 83.1744 0.44202C83.4901 -0.315717 84.7532 -0.0315652 84.469 0.820889Z" fill="#E5E2E2"/>
<path d="M133.919 13.734C129.656 25.7315 122.804 36.624 119.204 48.874C118.762 50.3264 116.52 49.7265 116.931 48.2426C120.341 35.8347 127.604 24.9422 132.719 13.2288C133.003 12.5342 134.172 13.0394 133.919 13.734Z" fill="#E5E2E2"/>
<path d="M155.802 70.3117C149.36 76.2473 140.898 79.4677 134.772 85.8137C133.824 86.7924 132.372 85.3401 133.288 84.3298C139.319 77.6365 147.939 74.6371 155.013 69.3014C155.613 68.8594 156.339 69.8065 155.802 70.3117Z" fill="#E5E2E2"/>
<path d="M12.0941 95.7274C8.1154 95.0329 4.35771 93.6121 0.63159 92.0651C-0.599924 91.5283 0.0947723 89.8234 1.35786 90.3601C4.98925 91.9072 8.65223 93.3911 12.5047 94.212C13.5151 94.4014 13.073 95.8853 12.0941 95.7274Z" fill="#E5E2E2"/>
<path d="M47.9976 135.067C46.8608 137.403 45.8188 139.739 44.903 142.17C43.9557 144.696 43.7978 147.254 43.1347 149.811C42.9137 150.695 41.7137 150.411 41.6506 149.621C41.1769 144.57 44.903 138.887 47.3976 134.719C47.6187 134.309 48.1871 134.656 47.9976 135.067Z" fill="#E5E2E2"/>
<path d="M50.9342 137.656C49.6396 139.771 48.9765 142.265 48.4397 144.633C48.1239 146.085 47.9976 147.538 47.966 148.99C47.9344 150.221 48.4712 151.421 48.3765 152.589C48.3133 153.221 47.6818 153.505 47.1766 153.094C45.3767 151.547 46.3556 147.569 46.7661 145.58C47.366 142.707 48.4397 139.487 50.4922 137.34C50.7132 137.119 51.0921 137.403 50.9342 137.656Z" fill="#E5E2E2"/>
<path d="M53.4601 144.444C52.4497 147.885 53.5233 151.042 53.4286 154.484C53.397 155.589 51.8813 155.526 51.7549 154.484C51.376 150.916 51.0918 147.411 52.5128 144.033C52.7654 143.528 53.618 143.907 53.4601 144.444Z" fill="#E5E2E2"/>
<path d="M55.7972 153.158C55.6393 154.231 55.8288 155.241 56.1446 156.252C56.334 156.852 55.3867 157.262 55.1341 156.694C54.5657 155.462 54.471 154.168 54.692 152.873C54.7867 152.116 55.8919 152.431 55.7972 153.158Z" fill="#E5E2E2"/>
<path d="M44.903 126.7C43.0715 130.331 43.8294 134.688 43.5136 138.603C43.3873 140.181 43.0083 141.697 42.3452 143.149C41.2084 145.77 40.3874 147.664 41.9663 150.316C42.4715 151.137 41.3663 151.832 40.7032 151.295C36.756 148.074 40.8611 143.465 41.84 139.834C43.0399 135.445 41.7768 130.394 44.4609 126.416C44.6188 126.163 45.0293 126.416 44.903 126.7Z" fill="#E5E2E2"/>
<path d="M58.8916 153.694C59.2073 155.525 60.3757 157.009 61.544 158.43C61.8282 158.777 61.3546 159.283 61.0388 158.935C59.7441 157.42 58.6074 155.81 58.3863 153.789C58.3548 153.473 58.8284 153.41 58.8916 153.694Z" fill="#E5E2E2"/>
<path d="M140.751 193C133.647 191.264 126.573 189.338 119.5 187.38C116.279 186.496 113.058 185.517 109.774 184.823C107.658 184.381 105.448 183.844 104.374 181.76C104.217 181.445 104.153 181.129 104.185 180.813C103.774 180.308 103.427 179.677 103.206 178.919C103.048 178.351 103.175 177.877 103.427 177.498C103.269 177.119 103.143 176.772 103.017 176.425C102.827 175.951 102.827 175.351 102.859 174.846C101.785 174.183 100.964 173.33 100.522 172.352C97.6801 172.762 94.6803 172.162 92.312 170.426C91.6488 169.952 91.3962 169.258 91.4594 168.626C90.3226 168.374 89.1858 168.216 88.5227 168.058C85.4597 167.363 82.4599 166.511 79.3969 165.753C71.5657 163.764 63.8293 161.522 56.1245 159.06C49.8722 157.039 43.7462 154.703 37.5255 152.619C33.1679 151.198 27.8629 148.578 28.905 143.116C29.126 141.916 29.947 140.748 30.547 139.706C31.4943 138.033 31.2417 136.517 30.4838 134.844C29.2523 132.129 28.0208 129.697 27.7997 126.667C27.6103 124.235 29.0628 122.152 30.5785 120.447C31.4943 119.436 32.5048 118.458 33.01 117.163C33.5784 115.616 32.8521 113.753 32.5363 112.238C31.9679 109.491 32.0943 106.839 33.61 104.408C35.0625 102.072 37.7781 100.935 40.2096 99.9563C41.5674 99.4196 42.8621 98.8197 43.9989 97.8725C45.0409 96.9885 45.6724 95.5993 46.525 94.5259C48.0723 92.5368 49.9038 91.0845 52.3668 90.3583C58.2086 88.6218 65.3766 92.3474 70.2711 95.1257C74.313 97.3989 78.2601 100.114 82.0178 103.019C81.702 100.777 81.6389 98.4724 81.4178 96.1992C81.1021 92.6315 80.1547 89.348 80.3442 85.7172C80.5968 80.6656 82.7125 76.1192 85.7439 72.2042C87.9859 69.2995 91.3646 65.4477 95.3434 65.2583C100.806 64.9741 101.911 70.5309 101.311 74.8247C100.806 78.4871 100.206 82.0863 100.301 85.7803C100.364 89.2848 101.248 92.821 102.227 96.1676C103.996 102.387 106.806 108.26 110.5 113.564C112.742 116.784 114.7 120.226 116.184 123.857C116.911 125.656 117.7 128.214 117.195 130.234C117.732 130.36 118.237 130.455 118.679 130.708C118.71 130.708 118.742 130.708 118.774 130.708C119.437 128.592 120.921 125.688 122.942 125.025C122.658 124.614 122.563 124.046 122.879 123.415C124.9 119.405 129.415 122.973 131.562 124.804C136.709 129.161 144.035 131.592 150.161 134.307C157.077 137.401 164.15 140.053 171.255 142.674C177.223 144.884 184.77 145.736 189.728 149.935C190.138 150.283 189.696 150.883 189.254 150.756C186.412 150.093 183.665 149.02 180.823 148.23C177.949 147.441 175.044 146.747 172.171 145.926C165.792 144.094 159.477 141.663 153.319 139.169C147.698 136.896 142.109 134.465 136.646 131.813C134.278 130.645 131.783 129.382 129.731 127.708C129.257 127.33 126.289 124.551 125.594 124.867C129.541 126.13 130.015 131.813 130.047 135.475C130.173 143.4 128.531 151.451 125.91 158.902C123.573 165.627 120.7 172.888 116.121 178.414C114.827 179.992 113.248 181.287 111.385 182.013C112.206 182.171 112.995 182.297 113.563 182.423C116.784 183.276 120.005 184.16 123.194 185.075C129.92 187.001 136.646 188.833 143.435 190.569C155.751 193.726 167.813 197.704 180.128 200.704C180.76 200.862 180.57 201.714 179.97 201.777C173.75 202.346 167.245 199.914 161.371 198.178C154.614 196.22 147.635 194.705 140.751 193ZM106.932 178.161C108.258 179.613 110.058 178.761 111.764 177.182C109.743 177.119 107.501 176.772 105.511 176.077C105.953 176.772 106.553 177.403 106.932 178.161ZM112.774 122.246C111.321 119.563 109.616 116.974 107.785 114.543C101.659 106.397 97.3327 95.0942 97.238 84.77C97.2064 84.77 97.1749 84.7384 97.1749 84.7384C93.6066 82.2758 95.4697 76.5296 96.5749 73.2145C96.7328 72.7725 97.4275 72.8356 97.3959 73.3408C97.238 75.835 96.4802 78.866 97.3959 81.297C97.5854 79.308 97.9011 77.3189 98.1853 75.3299C98.5011 73.1829 99.2589 69.5205 96.638 68.4471C93.4803 67.1842 89.6279 72.1411 88.0806 74.1617C85.2702 77.8241 83.6598 81.9285 83.4072 86.5696C83.2493 89.569 84.1019 92.3789 84.4492 95.3467C84.8282 98.5671 84.7334 101.882 85.6492 105.008C85.6807 105.103 85.6807 105.197 85.7123 105.292C90.3542 105.892 95.6276 109.838 96.8591 114.227C96.9222 114.48 96.5749 114.701 96.3854 114.48C93.954 111.543 91.2068 109.649 87.8912 108.512C87.7964 109.428 86.6912 110.28 85.7123 109.681C79.7758 106.144 74.6287 101.472 68.6291 97.9988C63.9872 95.3152 55.6193 90.9266 50.6932 95.1257C48.7039 96.8306 47.8197 99.4827 45.6724 101.03C43.3673 102.703 40.5254 103.335 38.1255 104.85C34.6204 107.06 36.073 111.038 36.6414 114.29C37.0519 116.69 36.4835 118.868 34.9993 120.794C33.1363 123.194 30.9259 124.741 31.6206 128.056C32.2521 131.055 34.431 133.518 34.7783 136.549C35.1257 139.58 33.3258 141.379 32.41 144.031C31.4311 146.873 36.7361 148.546 38.536 149.146C52.3668 153.945 66.166 158.712 80.2495 162.785C83.7861 163.827 87.3543 164.901 90.8594 166.069C91.5225 166.29 92.2804 166.542 93.0382 166.858C93.3856 166.795 93.7961 166.89 94.2382 167.111C97.9959 169.1 101.564 168.879 104.88 166.132C108.448 163.196 110.122 158.113 111.637 153.913C113.311 149.304 114.511 144.505 115.679 139.737C116.09 138.096 116.626 136.486 117.068 134.875C117.353 133.802 117.321 133.139 117.005 132.539C116.816 132.413 116.69 132.192 116.658 132.002C116.595 131.908 116.5 131.813 116.437 131.718C116.184 132.034 115.837 132.318 115.426 132.539C114.795 132.918 114.132 132.065 114.637 131.529C116.879 129.319 113.942 124.393 112.774 122.246ZM124.205 125.877C122.5 126.509 121.489 129.382 120.984 131.245C121.363 131.402 121.742 131.56 122.121 131.718C123.7 132.413 125.563 133.076 127.11 133.991C127.142 130.897 126.668 127.614 124.205 125.877ZM123.258 155.303C125.215 149.399 126.447 143.274 126.921 137.085C126.952 136.549 127.015 135.949 127.047 135.349C125.721 135.475 124.331 135.002 123.068 134.591C122.184 134.307 121.205 134.086 120.226 133.833C120.226 135.191 119.784 136.643 119.5 137.748C117.889 143.81 116.721 149.904 114.7 155.839C112.837 161.238 110.69 166.574 106.016 170.11C105.353 170.615 104.659 171.026 103.932 171.373C105.448 172.257 106.869 173.267 108.701 173.804C110.374 174.309 112.174 174.467 113.848 174.878C114.921 173.52 115.774 172.194 116.121 171.594C119.153 166.574 121.426 160.828 123.258 155.303Z" fill="#47548F"/>
</g>
<defs>
<clipPath id="clip0">
<rect width="190" height="202" fill="white" transform="matrix(-1 0 0 1 190 0)"/>
</clipPath>
</defs>
</svg>
