<svg width="1440" height="159" viewBox="0 0 1440 159" fill="none" xmlns="http://www.w3.org/2000/svg">
<path d="M1440 0H0V158.978H1440V0Z" fill="#293572"/>
<path d="M199.217 0.0210931C197.975 4.15533 196.555 8.26848 195.284 12.3816C184.993 45.3923 172.573 77.9178 159.236 110.253C152.494 126.601 145.427 142.842 137.975 158.978H110.562C114.791 147.019 118.813 135.017 123.278 123.12C135.609 90.0463 149.005 57.2466 166.718 25.607C171.568 16.9588 176.713 8.41613 182.154 0H199.217V0.0210931Z" fill="#24306E"/>
<path d="M540.763 0.0210571C537.776 6.79193 534.878 13.605 531.862 20.3759C525.977 33.559 519.945 46.7 514.09 59.8832C499.452 92.9149 484.844 125.947 470.236 158.978H458.171C461.069 150.077 464.292 140.227 465.83 135.439C477.126 100.487 488.747 65.5783 500.191 30.6693C503.533 20.4602 506.875 10.2301 510.216 0.0210571H540.763Z" fill="#24306E"/>
<path d="M273.411 0.0210571C262.942 12.2128 254.278 25.2484 246.205 38.6425C235.027 57.1833 222.933 75.3866 211.163 93.7164C203.859 105.065 195.727 116.033 187.359 126.917C186.235 128.372 185.318 130.06 182.539 130.798C195.786 86.7979 212.79 43.6204 227.841 0.0210571H273.411Z" fill="#24306E"/>
<path d="M463.168 0.0210571C447.377 19.7431 434.898 41.3002 423.395 63.4901C409.615 90.1095 394.652 116.223 380.133 142.526C377.057 148.073 373.864 153.557 370.581 158.999H354.82C369.99 105.782 387.526 53.1334 403.08 0.0210571H463.168Z" fill="#24306E"/>
<path d="M85.6043 6.34901C84.5101 17.3596 79.2761 27.3366 72.4747 36.8074C63.0119 49.9484 53.5492 63.005 46.186 77.0319C38.9706 90.7634 28.7094 103.335 18.8918 116.012C15.0771 120.948 11.3512 125.947 7.62519 130.946C6.44235 132.549 5.37779 133.941 2.3911 133.16C-0.713866 132.359 -0.00415815 130.84 0.261982 128.984C2.27282 114.198 10.9667 101.162 17.9159 87.6839C29.1826 65.7682 41.0406 44.0423 51.8932 21.979C56.6246 12.3816 63.3372 4.17642 77.6201 1.98274C77.9454 1.94056 78.2411 1.83509 78.5368 1.7929C84.8354 0.843717 85.8409 1.4976 85.6043 6.34901Z" fill="#24306E"/>
<path d="M353.253 0.0210571C347.841 9.28091 342.43 18.5619 337.048 27.8428C330.128 39.7393 323.327 51.678 316.466 63.5955C313.746 68.2993 311.084 73.0031 308.334 77.6857C307.476 79.1411 306.944 80.7653 304.904 81.9887C303.189 79.6896 303.869 77.3271 304.194 75.0913C306.175 60.8956 311.853 47.375 316.525 33.6645C320.31 22.5274 323.001 11.348 322.292 0.0210571H353.253V0.0210571Z" fill="#24306E"/>
<path d="M718.9 7.23488C708.875 18.9204 699.057 30.7115 689.092 42.4392C686.667 45.3079 685.307 45.2235 683.621 42.0806C681.019 37.2925 679.452 32.3145 679.866 27.7162C679.659 17.465 684.301 8.75358 688.648 0.0210571H714.789C715.913 0.8015 717.037 1.60304 718.16 2.38348C720.26 3.85999 720.644 5.20995 718.9 7.23488Z" fill="#24306E"/>
<path d="M58.8423 106.288C49.9118 124.111 41.1292 141.577 32.4057 158.999H24.5989C23.4161 152.039 24.7764 145.162 28.5319 138.37C35.215 126.305 46.5999 116.771 56.8315 106.604C56.9498 106.457 57.3933 106.499 58.8423 106.288Z" fill="#24306E"/>
<path d="M599.58 46.2149C598.397 45.8142 598.634 44.9494 598.752 44.2744C600.793 34.1075 601.473 23.793 604.666 13.7738C607.121 6.05375 613.745 1.89842 622.32 2.32028C624.509 2.42574 625.869 2.72104 624.657 4.76707C616.465 18.5619 608.865 32.5677 600.024 46.1306C599.994 46.1938 599.787 46.1728 599.58 46.2149Z" fill="#24306E"/>
<path d="M626.046 158.451C624.863 158.05 625.1 157.185 625.218 156.51C627.259 146.344 627.939 136.029 631.132 126.01C633.587 118.29 640.211 114.134 648.786 114.556C650.975 114.662 652.335 114.957 651.123 117.003C642.931 130.798 635.332 144.804 626.49 158.367C626.46 158.43 626.224 158.43 626.046 158.451Z" fill="#24306E"/>
<path d="M919.214 0.0210931C917.972 4.15533 916.553 8.26848 915.281 12.3816C904.991 45.3923 892.571 77.9178 879.234 110.253C872.492 126.601 865.424 142.842 857.973 158.978H830.56C834.789 147.019 838.81 135.017 843.276 123.12C855.607 90.0463 869.003 57.2466 886.716 25.607C891.565 16.9588 896.711 8.41613 902.152 0H919.214V0.0210931Z" fill="#24306E"/>
<path d="M1260.76 0.0210571C1257.77 6.79193 1254.88 13.605 1251.86 20.3759C1245.98 33.559 1239.94 46.7 1234.09 59.8832C1219.45 92.9149 1204.84 125.947 1190.23 158.978H1178.14C1181.04 150.077 1184.26 140.227 1185.8 135.439C1197.09 100.487 1208.72 65.5783 1220.16 30.6693C1223.5 20.4602 1226.84 10.2301 1230.18 0.0210571H1260.76Z" fill="#24306E"/>
<path d="M993.408 0.0210571C982.94 12.2128 974.276 25.2484 966.203 38.6425C955.025 57.1833 942.93 75.3866 931.131 93.7164C923.857 105.065 915.695 116.033 907.327 126.917C906.203 128.372 905.286 130.06 902.507 130.798C915.754 86.819 932.787 43.6204 947.81 0.0210571H993.408Z" fill="#24306E"/>
<path d="M1183.17 0.0210571C1167.38 19.7431 1154.9 41.3002 1143.39 63.4901C1129.61 90.1095 1114.65 116.223 1100.13 142.526C1097.06 148.073 1093.86 153.557 1090.58 158.999H1074.82C1089.99 105.782 1107.52 53.1334 1123.08 0.0210571H1183.17V0.0210571Z" fill="#24306E"/>
<path d="M805.602 6.34901C804.508 17.3596 799.274 27.3366 792.472 36.8074C783.01 49.9484 773.547 63.005 766.184 77.0319C758.968 90.7634 748.707 103.335 738.89 116.012C735.075 120.948 731.349 125.947 727.623 130.946C726.44 132.549 725.376 133.941 722.389 133.16C719.284 132.359 719.994 130.84 720.26 128.984C722.271 114.198 730.965 101.162 737.914 87.6839C749.18 65.7682 761.038 44.0423 771.891 21.979C776.622 12.3816 783.335 4.17642 797.618 1.98274C797.943 1.94056 798.239 1.83509 798.535 1.7929C804.833 0.843717 805.839 1.4976 805.602 6.34901Z" fill="#24306E"/>
<path d="M1042.26 0.0210571C1042.94 11.3269 1040.25 22.5274 1036.49 33.6645C1031.85 47.375 1026.14 60.8956 1024.16 75.0913C1023.84 77.3271 1023.19 79.6896 1024.87 81.9887C1026.91 80.7864 1027.44 79.1411 1028.3 77.6857C1031.08 73.0031 1033.74 68.2993 1036.43 63.5955C1043.29 51.678 1050.1 39.7393 1057.02 27.8428C1062.4 18.5619 1067.81 9.302 1073.22 0.0210571H1042.26V0.0210571Z" fill="#24306E"/>
<path d="M1438.9 7.23488C1428.87 18.9204 1419.06 30.7115 1409.09 42.4392C1406.66 45.3079 1405.3 45.2235 1403.62 42.0806C1401.02 37.2925 1399.45 32.3145 1399.86 27.7162C1399.66 17.465 1404.3 8.75358 1408.65 0.0210571H1434.79C1435.91 0.8015 1437.03 1.60304 1438.16 2.38348C1440.26 3.85999 1440.64 5.20995 1438.9 7.23488Z" fill="#24306E"/>
<path d="M778.84 106.288C769.91 124.111 761.127 141.577 752.404 158.999H744.597C743.414 152.039 744.774 145.162 748.53 138.37C755.213 126.305 766.598 116.771 776.829 106.604C776.948 106.457 777.391 106.499 778.84 106.288Z" fill="#24306E"/>
<path d="M1319.58 46.2149C1318.39 45.8142 1318.63 44.9494 1318.75 44.2744C1320.79 34.1075 1321.47 23.793 1324.66 13.7738C1327.12 6.05375 1333.74 1.89842 1342.32 2.32028C1344.51 2.42574 1345.87 2.72104 1344.65 4.76707C1336.46 18.5619 1328.86 32.5677 1320.02 46.1306C1319.99 46.1938 1319.78 46.1728 1319.58 46.2149Z" fill="#24306E"/>
<path d="M1346.04 158.451C1344.86 158.05 1345.1 157.185 1345.22 156.51C1347.26 146.344 1347.94 136.029 1351.13 126.01C1353.58 118.29 1360.21 114.134 1368.78 114.556C1370.97 114.662 1372.33 114.957 1371.12 117.003C1362.93 130.798 1355.33 144.804 1346.49 158.367C1346.46 158.43 1346.22 158.43 1346.04 158.451Z" fill="#24306E"/>
</svg>
