<svg width="17" height="16" viewBox="0 0 17 16" fill="none" xmlns="http://www.w3.org/2000/svg">
<g clip-path="url(#clip0)">
<path d="M16.8507 6.37542C16.1405 2.87146 12.4823 0.380696 8.91014 0.0851811C8.47976 0.000748378 7.98483 -0.041468 7.57597 0.0851811C4.19749 0.254047 1.33546 1.64719 0.367106 5.0456C-0.515172 8.14851 0.194954 12.1591 2.92787 14.2066C4.28356 15.2197 5.98356 15.5997 7.64052 15.8108C7.70508 15.8108 7.79116 15.8319 7.85571 15.8319C7.89875 15.853 7.92027 15.853 7.96331 15.8741C8.37217 16.0219 8.71647 16.043 9.03926 15.9374C10.395 16.0007 11.7507 15.8952 12.9557 15.2831C15.9899 13.7422 17.4962 9.54165 16.8507 6.37542ZM15.7747 6.54428C14.6988 5.76328 12.8051 5.42555 11.8582 5.27779C11.7291 5.25669 11.5785 5.23558 11.4494 5.21447C11.3848 4.60233 11.2772 4.0113 11.1481 3.42027C11.019 2.85035 10.8899 2.13267 10.6101 1.49943C13.0633 2.23822 15.1937 4.09574 15.7747 6.54428ZM8.95318 14.692C8.82407 14.7976 8.69495 14.8398 8.56584 14.8609C8.47976 14.8609 8.41521 14.8398 8.32913 14.8398C8.30761 14.8398 8.26458 14.8398 8.24306 14.8398C7.74812 14.692 7.29622 14.0588 7.05951 13.6155C6.67217 12.8556 6.54306 11.9691 6.4785 11.0825C7.29622 11.1248 8.13546 11.1248 8.95318 11.1037C9.34052 11.0825 9.7709 11.0825 10.2228 11.0825C10.0937 11.8213 9.90002 12.539 9.66331 13.2567C9.53419 13.7211 9.36204 14.3754 8.95318 14.692ZM1.40002 8.67621C1.22787 8.50735 1.40002 7.66302 1.48609 7.47305C1.74432 6.88202 2.60508 6.75537 3.18609 6.5865C3.89622 6.39653 4.60635 6.24877 5.31647 6.16434C5.27344 6.96645 5.27344 7.74745 5.29495 8.54956C5.31647 8.97173 5.31647 9.43611 5.33799 9.9427C4.04685 9.81605 2.23926 9.6683 1.40002 8.67621ZM9.7709 10.0271C8.65192 10.0905 7.55445 10.0905 6.43546 10.0271C6.43546 9.79494 6.41394 9.56275 6.41394 9.35167C6.34938 8.25405 6.34938 7.15642 6.41394 6.0588C6.52154 6.0588 6.62913 6.03769 6.73673 6.03769C7.96331 5.95326 9.23293 5.97436 10.481 6.12212C10.481 6.20655 10.5025 6.26988 10.5025 6.35431C10.5886 7.55748 10.5671 8.78175 10.4165 10.006C10.1798 10.006 9.98609 10.006 9.7709 10.0271ZM7.79116 1.11948L7.81268 1.09837C8.0709 1.07727 8.35065 1.09837 8.60888 1.09837C8.78103 1.14059 8.93166 1.18281 8.99622 1.20391C9.59875 1.45721 9.72787 2.30154 9.90002 2.87146C10.0937 3.58914 10.2443 4.30682 10.3519 5.0456C9.0823 4.91895 7.76964 4.89785 6.50002 4.98228C6.60761 3.7369 6.77976 1.9427 7.79116 1.11948ZM11.557 6.26988C12.3101 6.39653 13.0418 6.5865 13.7734 6.79758C14.2684 6.94534 14.9139 7.11421 15.2582 7.51526C15.8608 8.25405 14.8279 9.03505 14.1393 9.37278C13.3431 9.75273 12.4177 9.87938 11.4924 9.9427C11.6 8.71843 11.6431 7.49415 11.557 6.26988ZM2.77723 2.78703C3.70255 1.85827 4.99369 1.415 6.30635 1.22502C5.85445 2.02713 5.70382 3.01922 5.55318 3.90576C5.48863 4.30682 5.44559 4.68676 5.40255 5.08782C4.84306 5.15114 4.26204 5.25669 3.70255 5.38333C2.94939 5.5522 1.89495 5.72107 1.16331 6.22766C1.3785 4.94006 1.87344 3.71579 2.77723 2.78703ZM1.40002 10.0482C2.23926 10.5337 3.29369 10.7026 4.24052 10.8504C4.62787 10.9137 5.01521 10.9559 5.40255 10.9981C5.48863 12.2646 5.72533 13.5733 6.34939 14.5443C5.16584 14.291 4.04685 13.8477 3.16457 13.0456C2.2823 12.2435 1.7228 11.1881 1.40002 10.0482ZM13.7304 13.3833C12.7405 14.3965 11.4924 14.7976 10.1798 14.882C10.8253 13.8055 11.1051 12.2013 11.2557 11.3781C11.2772 11.2514 11.2988 11.1459 11.3203 11.0192C12.9557 10.9137 14.6988 10.5971 15.7317 9.56275C15.4304 10.9981 14.7203 12.3701 13.7304 13.3833Z" fill="#27336B"/>
</g>
<defs>
<clipPath id="clip0">
<rect width="17" height="16" fill="white"/>
</clipPath>
</defs>
</svg>
