<svg width="49" height="34" viewBox="0 0 49 34" fill="none" xmlns="http://www.w3.org/2000/svg">
<g clip-path="url(#clip0)">
<path d="M48.9279 22.2401C48.9042 21.7077 48.9042 21.1995 48.8805 20.6672C48.7858 15.6337 48.5253 11.544 48.0753 7.84154V7.74474C47.9095 6.31698 47.72 4.84083 47.3174 3.43727C47.1043 2.66289 46.7964 1.88851 45.9438 1.47713C44.9728 1.01734 43.8597 0.872145 42.794 0.726949L42.5098 0.67855C40.4967 0.436557 38.5311 0.315561 36.8496 0.242963C26.8554 -0.241023 16.056 0.0251696 4.71183 1.06574C3.45664 1.18674 2.22512 1.30773 1.01729 1.45293C0.733098 1.47713 0.496269 1.64652 0.377854 1.93691C0.259439 2.20311 0.283122 2.5419 0.448903 2.75969C0.567318 2.92908 0.756781 3.02588 0.99361 3.02588C-0.0958046 9.80168 -0.285268 17.0131 0.377854 24.9988C0.401537 25.3376 0.42522 25.7006 0.448903 26.0878C0.567318 28.1205 0.685732 30.4437 2.3909 31.8472C3.43295 32.7184 4.71183 32.8636 5.96703 33.0088C6.10912 33.033 6.27491 33.033 6.417 33.0572C8.31164 33.2992 10.1826 33.4928 12.0299 33.638C15.2744 33.9042 18.6137 34.0252 22.0477 34.0252C25.5054 34.0252 29.0342 33.88 32.6577 33.6138C35.5233 33.396 38.6732 33.1056 42.5098 32.6458C43.2913 32.549 44.0729 32.4522 44.8781 32.3796C45.1149 32.3554 45.3517 32.3312 45.6123 32.3312C46.1807 32.307 46.7727 32.2586 47.2701 32.0892C48.17 31.7988 48.3595 30.9035 48.5253 30.1291V30.1049C49.0937 27.5882 48.9989 24.8778 48.9279 22.2401ZM47.3174 27.08C47.2701 28.1447 47.2227 29.0159 47.0096 29.8871C46.8438 30.6131 46.4175 30.6373 45.7544 30.7099C45.6596 30.7099 45.5412 30.7341 45.4228 30.7341C44.6413 30.8309 43.836 30.9277 43.0545 31.0003C41.3256 31.1939 39.7863 31.3632 38.389 31.5084C31.4025 32.2102 25.5765 32.5006 20.0347 32.428C16.2454 32.3554 12.3614 32.1134 8.5011 31.702C8.16954 31.6536 7.79061 31.6294 7.388 31.6052C5.8723 31.5084 4.16712 31.4116 3.17244 30.4437C2.34354 29.6451 2.22512 28.5803 2.10671 27.443L2.13039 27.2978C1.20676 18.1988 1.32517 10.2131 2.55668 2.92908C2.55668 2.90488 2.55668 2.85649 2.55668 2.83229C11.3667 1.88851 20.7689 1.47713 31.2367 1.62232H31.3788C35.1918 1.67072 39.1231 1.71912 42.9124 2.2999C43.0545 2.3241 43.1966 2.3483 43.3624 2.3725C44.0729 2.4693 44.9491 2.56609 45.4465 2.97748C45.7544 3.21948 45.9675 4.30844 46.0859 4.88923L46.1096 5.05862C46.8201 8.56752 47.0096 12.2216 47.1753 15.7547C47.3648 19.1184 47.5069 23.1113 47.3174 27.08Z" fill="white"/>
<path d="M29.0116 16.3103C28.4195 15.8022 27.709 15.3666 27.0459 14.931C26.8564 14.81 26.6433 14.689 26.4538 14.568C24.6776 13.4064 22.7356 12.3175 20.6989 11.3011C20.5568 11.2285 20.391 11.2043 20.2489 11.2285C20.1778 11.2043 20.0831 11.2043 20.0121 11.2043C19.6331 11.2043 19.2779 11.4705 19.2779 11.9545L19.4674 22.1424C19.4674 22.3844 19.5858 22.6264 19.7989 22.7715C19.9173 22.8683 20.0831 22.9167 20.2252 22.9167C20.2963 22.9167 20.3673 22.9167 20.4384 22.8925C22.3567 22.2634 24.1329 21.489 25.7433 20.5452C26.5722 20.0612 27.3538 19.553 28.1116 18.9965C28.1827 18.9481 28.2774 18.8755 28.3721 18.8271C28.8458 18.5125 29.4616 18.1011 29.58 17.5687C29.7221 16.9395 29.2721 16.5281 29.0116 16.3103ZM26.5249 16.4071C26.9038 16.6249 27.5432 16.9879 27.8985 17.2783C27.0933 18.0527 25.8854 18.7061 24.8908 19.2385C24.7487 19.311 24.6066 19.4078 24.4645 19.4804C23.375 20.0612 22.2146 20.5936 20.9831 21.0534L20.841 13.0918C22.0251 13.6968 23.1145 14.326 24.1803 14.9552C24.796 15.3424 25.4355 15.7296 26.0275 16.1167C26.1459 16.1893 26.3117 16.3103 26.5249 16.4071Z" fill="white"/>
</g>
<defs>
<clipPath id="clip0">
<rect width="49" height="34" fill="white"/>
</clipPath>
</defs>
</svg>
