<svg width="139" height="114" viewBox="0 0 139 114" fill="none" xmlns="http://www.w3.org/2000/svg">
<path d="M41.3604 17.7659C42.8121 19.8504 45.0455 21.4137 47.4277 19.7015C49.2516 18.3987 51.1872 14.937 50.48 12.6664C50.3311 12.2197 49.5867 12.0336 49.4005 12.5175C48.6561 14.2298 48.6561 16.0164 47.5394 17.617C45.8272 20.0737 43.7055 19.3293 42.0304 17.2448C41.7699 16.8353 41.0999 17.3565 41.3604 17.7659Z" fill="#2D3963"/>
<path d="M41.1372 11.103C44.7105 11.9592 47.9489 13.5597 51.299 15.0114C52.3784 15.4953 53.0484 13.9692 51.9317 13.5225C48.5073 12.1453 45.12 10.6936 41.4349 10.098C40.7649 9.98636 40.4672 10.9541 41.1372 11.103Z" fill="#2D3963"/>
<path d="M53.1973 41.849C53.1973 53.5741 51.3734 65.3365 50.5917 77.0244C50.2195 82.6078 49.5867 88.1168 48.3583 93.5513C47.8372 95.8963 47.2044 98.353 45.6038 100.214C44.5616 101.405 42.2166 103.266 41.4721 100.884C41.1743 99.9164 39.4621 99.9908 39.5738 101.145C40.0577 105.835 44.9338 104.346 47.1672 101.778C48.9167 99.7675 49.6983 97.1991 50.2567 94.668C50.9639 91.4668 51.4478 88.2657 51.7456 85.0273C52.4156 78.0295 52.3412 70.9571 52.7878 63.922C53.2717 56.5892 53.9045 49.2191 53.6439 41.849C53.6439 41.5512 53.1973 41.5512 53.1973 41.849Z" fill="#2D3963"/>
<path d="M40.8394 99.6186C44.0033 95.3752 48.2839 91.6902 50.1823 86.6651C50.3684 86.144 49.5495 85.809 49.2889 86.2929C46.795 91.0201 42.9983 94.7424 40.2066 99.2464C39.946 99.6558 40.5416 99.9908 40.8394 99.6186Z" fill="#2D3963"/>
<path d="M41.0627 94.1469C44.0778 89.5685 47.5023 85.2879 50.8523 80.97C51.299 80.4117 50.5173 79.63 50.0706 80.1884C46.6089 84.5434 43.2589 88.9729 40.5044 93.8119C40.2438 94.1841 40.8022 94.5191 41.0627 94.1469Z" fill="#2D3963"/>
<path d="M43.7055 84.1712C45.7156 79.1461 50.0706 75.5355 52.4156 70.6966C52.7134 70.0638 51.7829 69.4682 51.4479 70.1382C48.8795 74.94 44.5989 78.6994 42.775 83.9478C42.5888 84.5062 43.4822 84.7295 43.7055 84.1712Z" fill="#2D3963"/>
<path d="M45.0828 73.9722C48.6561 69.9521 50.6662 65.0015 52.639 60.0881C52.8623 59.567 51.9317 59.1948 51.7084 59.7159C49.6611 64.3687 47.6883 69.3193 44.3383 73.2649C43.9661 73.7488 44.6733 74.4933 45.0828 73.9722Z" fill="#2D3963"/>
<path d="M50.7406 58.4131C51.2989 57.6315 51.7828 56.7753 52.2295 55.9192C52.4528 55.5098 51.8201 55.1375 51.5967 55.547C51.15 56.4031 50.6662 57.222 50.1078 58.0409C49.8473 58.4504 50.48 58.7854 50.7406 58.4131Z" fill="#2D3963"/>
<path d="M56.9568 28.4116C60.9025 32.99 62.6891 38.2012 63.843 44.0823C64.0292 45.0501 65.5553 44.6407 65.332 43.6729C64.1781 38.0523 62.2425 31.5011 57.2546 28.0394C57.0313 27.816 56.7707 28.1882 56.9568 28.4116Z" fill="#2D3963"/>
<path d="M33.7298 44.0823C33.4693 47.879 32.427 51.0802 30.8265 54.4675C30.5659 55.0258 31.2359 55.6586 31.7198 55.1375C34.1765 52.5319 34.3998 47.4324 34.3998 44.0823C34.3998 43.6729 33.7671 43.6729 33.7298 44.0823Z" fill="#2D3963"/>
<path d="M31.5709 45.6829C30.8637 47.209 30.4542 48.8468 30.1192 50.4846C29.747 52.2341 29.0025 53.9091 28.6303 55.6214C28.5186 56.0681 29.1142 56.4775 29.4492 56.1053C30.5286 54.9514 30.6775 53.1275 30.9381 51.6385C31.2359 49.703 31.4592 47.7674 32.1292 45.9435C32.2409 45.5712 31.7198 45.3479 31.5709 45.6829Z" fill="#2D3963"/>
<path d="M24.6102 51.0802C26.1736 52.8669 27.4764 54.9514 28.7419 56.9614C29.0397 57.4453 29.7842 56.9986 29.4864 56.5147C28.2953 54.3186 26.9552 52.2714 25.1685 50.4847C24.7963 50.1497 24.2752 50.708 24.6102 51.0802Z" fill="#2D3963"/>
<path d="M95.8918 45.869C92.7651 48.7724 89.7501 51.8247 86.3628 54.4675C85.9906 54.7653 86.4745 55.398 86.8467 55.1003C90.3828 52.5691 93.2862 49.368 96.264 46.2413C96.5618 46.0179 96.1524 45.6457 95.8918 45.869Z" fill="#2D3963"/>
<path d="M86.1766 56.2914C90.9411 56.4031 94.9984 53.4625 99.4651 52.2713C100.098 52.0852 99.8373 51.1546 99.2045 51.3035C94.6633 52.1597 90.9039 55.4725 86.1766 55.733C85.8043 55.733 85.8043 56.2914 86.1766 56.2914Z" fill="#2D3963"/>
<path d="M98.609 52.7925C98.4601 54.9142 98.3485 56.9242 99.279 58.897C99.3907 59.1575 99.7629 59.2692 100.023 59.1948C103.411 58.2642 105.681 55.1747 108.026 52.7925C108.659 52.1597 107.691 51.1547 107.021 51.7874C104.788 53.9091 102.666 56.9242 99.6512 57.892C99.9118 58.0036 100.172 58.0781 100.396 58.1897C99.4651 56.5147 99.5396 54.6164 99.5396 52.7552C99.5768 52.1597 98.6462 52.1597 98.609 52.7925Z" fill="#2D3963"/>
<path d="M95.1101 40.3601C93.2117 42.2584 91.425 44.6407 91.0528 47.3579C91.0156 47.7302 91.2017 48.0652 91.6112 48.0652C94.2167 48.1024 96.0407 45.7201 98.0879 44.4918C98.609 44.1568 98.1624 43.4123 97.604 43.6729C95.6684 44.6035 93.8073 46.7624 91.6112 46.9485C91.7973 47.1346 91.9834 47.3207 92.1695 47.5068C92.3928 44.9757 93.9934 42.6679 95.6312 40.844C95.8918 40.5462 95.4451 40.0623 95.1101 40.3601Z" fill="#2D3963"/>
<path d="M96.4128 29.9005C93.1744 31.7989 90.5688 34.8139 88.3727 37.8289C88.1121 38.1639 88.3727 38.7223 88.7822 38.8339C92.0578 39.5412 95.445 37.8662 98.4973 36.8611C99.3906 36.5634 99.0184 35.1489 98.0878 35.4467C95.1472 36.34 92.0577 37.8289 88.931 37.4939C89.1172 37.8289 89.3033 38.1639 89.5266 38.4989C91.4622 35.4839 93.8444 32.6178 96.7478 30.4961C97.12 30.2355 96.8223 29.6772 96.4128 29.9005Z" fill="#2D3963"/>
<path d="M98.7579 38.3873C98.7207 39.839 98.7207 42.519 100.545 43.0401C102.406 43.5613 103.82 41.2907 104.565 39.9506C104.937 39.2806 103.932 38.6851 103.522 39.3551C103.113 39.9879 101.885 41.9979 100.917 41.7746C99.8374 41.5512 99.9118 39.169 99.9118 38.4245C99.9118 37.6428 98.7952 37.6428 98.7579 38.3873Z" fill="#2D3963"/>
<path d="M100.172 49.4424C102.033 50.9313 103.82 49.2935 105.197 47.9907C105.756 47.4696 104.937 46.6135 104.341 47.1346C103.448 47.9535 102.071 49.4796 100.805 48.5863C100.358 48.2513 99.7257 49.033 100.172 49.4424Z" fill="#2D3963"/>
<path d="M97.3434 22.0837C96.4501 22.7538 95.5195 23.3865 94.6262 24.0566C94.1423 24.4288 94.6262 25.2477 95.1101 24.8754C96.0034 24.2054 96.934 23.5354 97.8273 22.8654C98.3112 22.5676 97.8646 21.7487 97.3434 22.0837Z" fill="#2D3963"/>
<path d="M73.5954 84.804C83.8688 81.1562 94.1423 76.95 105.049 75.7217C105.793 75.6472 105.793 74.4561 105.049 74.5677C93.9562 75.7961 83.7572 80.3 73.4465 84.3201C73.1487 84.3945 73.2604 84.9157 73.5954 84.804Z" fill="#2D3963"/>
<path d="M78.0621 87.819C88.3728 83.9106 98.5346 79.7789 109.404 77.6572C110.148 77.5083 109.813 76.3916 109.106 76.5033C98.1623 78.2156 87.9633 82.9428 77.8387 87.2235C77.5037 87.3723 77.7271 87.9307 78.0621 87.819Z" fill="#2D3963"/>
<path d="M104.155 82.7196C111.786 80.3745 119.64 79.1834 127.605 79.444C128.089 79.444 128.089 78.7367 127.605 78.6995C119.528 78.0295 111.6 79.444 103.932 81.9007C103.411 82.0496 103.634 82.8685 104.155 82.7196Z" fill="#2D3963"/>
<path d="M12.8479 111.567C18.729 110.637 24.573 109.371 30.4542 108.589C30.9753 108.515 30.8636 107.584 30.3425 107.622C24.3869 108.329 18.5057 109.594 12.5873 110.599C11.9545 110.711 12.2523 111.679 12.8479 111.567Z" fill="#2D3963"/>
<path d="M30.0075 110.711C34.0648 109.632 38.3082 109.594 42.4027 108.738C43.1099 108.589 42.961 107.361 42.2166 107.435C38.0104 107.994 33.7298 108.254 29.6353 109.445C28.8908 109.706 29.2258 110.934 30.0075 110.711Z" fill="#2D3963"/>
<path d="M36.2238 113.949C42.1794 111.977 48.2095 110.227 54.314 108.887C54.984 108.738 54.6862 107.733 54.0162 107.845C47.8 108.85 41.8072 110.674 35.8888 112.684C35.1071 112.982 35.4421 114.21 36.2238 113.949Z" fill="#2D3963"/>
<path d="M37.0054 10.2469C37.5265 12.8153 37.1543 15.4209 37.601 17.9892C38.0849 20.7065 39.7971 22.7165 42.291 23.796C47.5022 25.9921 53.5323 21.9721 54.5001 16.6492C55.7284 9.91192 52.5273 -2.74381 43.2588 0.531791C36.9309 2.76515 36.3726 9.46524 36.8937 15.2348C37.0054 16.3514 38.7549 16.3887 38.6804 15.2348C38.4943 11.2147 38.1965 6.04075 41.8816 3.39794C45.0083 1.12736 48.7306 1.68569 50.7034 4.99851C52.3784 7.79022 52.8623 11.3636 52.6017 14.5648C52.2667 18.9943 48.5072 23.4237 43.6683 22.0837C37.7498 20.4832 40.1321 14.0436 37.6382 9.98635C37.4148 9.65135 36.8937 9.87469 37.0054 10.2469Z" fill="white"/>
<path d="M35.5165 40.8068C34.8092 43.524 34.9209 46.6135 34.6231 49.4052C34.2881 52.4947 33.9159 55.5842 33.6926 58.6736C33.2459 64.7409 33.6925 70.8082 33.9159 76.8755C34.1392 82.7195 34.5859 88.3774 35.6654 94.1469C36.447 98.3158 36.8937 104.606 40.4671 107.435C41.3976 108.18 42.961 107.249 42.2538 106.058C40.951 103.899 39.9832 102.001 39.3876 99.5442C38.8293 97.1992 38.3826 94.8169 37.9359 92.4346C36.8565 86.6651 36.5959 80.9328 36.2609 75.0889C35.9259 69.3938 35.5537 63.6987 35.8142 57.9664C35.9259 55.1003 36.1493 52.2713 36.2609 49.4052C36.3726 46.6507 36.7076 43.4496 35.8887 40.8068C35.8515 40.5834 35.5537 40.5834 35.5165 40.8068Z" fill="white"/>
<path d="M55.654 41.4395C55.3562 44.4173 55.9518 47.5068 55.9146 50.5218C55.8401 53.7974 55.7285 57.073 55.7657 60.3486C55.8401 67.1604 55.2074 74.0094 54.4257 80.7467C53.7184 86.7768 52.8251 92.9929 51.3362 98.9114C50.7406 101.331 49.959 104.16 48.0978 105.909C46.0878 107.77 44.0033 107.808 42.2166 105.76C41.5838 105.053 40.2066 105.798 40.5788 106.728C42.0677 110.339 46.2367 110.301 49.0656 108.254C52.639 105.649 53.644 100.475 54.4257 96.4174C56.6963 84.7295 58.4085 72.6321 57.999 60.6836C57.7757 54.3558 58.3713 47.4324 56.2868 41.3651C56.1007 41.0301 55.6912 41.1045 55.654 41.4395Z" fill="white"/>
<path d="M34.4371 51.6758C33.7298 53.3508 32.0176 57.0731 29.6353 56.6264C27.5136 56.2169 26.0992 53.6858 24.7964 52.1597C23.233 50.373 21.5952 48.6607 20.1808 46.7252C18.8408 44.9385 17.2774 42.5934 17.6869 40.2484C17.3519 40.509 17.0168 40.7695 16.6818 41.0301C20.3669 41.4768 25.6897 48.8841 29.3748 44.864C31.087 43.0029 31.422 40.0995 32.1293 37.7545C33.1715 34.5161 34.5115 31.7989 37.5266 30.0122C40.5416 28.2255 44.3011 27.3694 47.8 27.3321C51.7456 27.2949 54.6862 29.0444 56.7707 32.3572C61.2374 39.3551 61.9074 48.4746 62.0191 56.552C62.0935 60.0137 62.0935 63.3265 61.2746 66.7138C60.5302 69.6916 59.3763 73.4511 56.5474 75.0889C55.0957 75.945 56.3985 78.1411 57.8501 77.3222C62.8008 74.5305 64.4014 67.0487 64.5875 61.8376C64.9225 53.0158 64.2897 43.5985 60.828 35.3722C59.4879 32.1711 57.664 29.0072 54.7234 27.0344C51.7829 25.0615 48.135 24.9499 44.7105 25.4338C41.2488 25.9177 37.6754 27.0716 34.8465 29.2305C32.2409 31.2405 31.0126 34.1067 30.0448 37.1961C29.5981 38.6851 29.3003 40.2112 28.742 41.6629C27.9603 43.5985 27.1042 44.2685 25.1314 43.3379C22.2653 41.9979 19.883 39.3178 16.6074 38.9456C16.1979 38.9084 15.6768 39.3178 15.6024 39.7273C14.5602 45.6829 20.8136 50.6336 24.238 54.6908C25.8014 56.552 27.9231 59.0831 30.6776 58.4875C33.6182 57.8547 34.586 54.6164 35.3676 52.1597C35.7027 51.5269 34.6976 51.0802 34.4371 51.6758Z" fill="white"/>
<path d="M99.5023 9.50249C99.8373 10.7308 98.5718 12.2942 97.939 13.262C97.1573 14.3787 96.3012 15.3837 95.4078 16.4259C92.6534 19.6271 89.3778 22.0838 85.9905 24.5405C84.9855 25.2849 85.8416 26.8855 86.9955 26.2527C91.09 23.9449 94.4773 20.6693 97.2318 16.8726C98.4229 15.2348 101.624 11.4753 100.061 9.31637C99.8746 9.01859 99.4279 9.16748 99.5023 9.50249Z" fill="white"/>
<path d="M87.4794 24.9871C89.415 26.3271 91.6855 26.7366 93.9189 27.3321C95.11 27.6671 95.6311 25.7688 94.44 25.471C92.3556 24.9499 90.1594 24.6521 88.261 23.7215C87.3677 23.2749 86.6977 24.4288 87.4794 24.9871Z" fill="white"/>
<path d="M94.589 26.0666C91.4995 30.3472 87.3678 33.7345 82.7894 36.3401C81.7099 36.9728 82.6405 38.4618 83.7572 37.9779C88.9684 35.6328 92.9884 31.6872 95.929 26.8483C96.4501 25.9921 95.1845 25.2849 94.589 26.0666Z" fill="white"/>
<path d="M83.3105 37.494C86.0278 39.2434 89.1545 39.8762 92.2068 40.844C93.2862 41.179 93.7329 39.4668 92.6534 39.169C89.6384 38.4245 86.5489 38.0523 83.6828 36.8239C83.2733 36.675 82.9011 37.2334 83.3105 37.494Z" fill="white"/>
<path d="M91.76 40.0623C88.5216 45.013 82.901 47.8047 77.5409 49.8891C76.4242 50.3358 76.8709 52.1225 78.062 51.7131C84.0921 49.703 89.8989 46.5391 93.0628 40.8068C93.5467 39.9879 92.2811 39.2434 91.76 40.0623Z" fill="white"/>
<path d="M100.098 9.98637C102.294 17.0959 109.143 21.8604 115.21 25.471C116.178 26.0294 116.997 24.5777 116.066 23.9821C113.089 22.121 110.074 20.1854 107.431 17.8776C104.676 15.4953 102.666 12.7409 100.731 9.68859C100.545 9.39081 99.9862 9.61414 100.098 9.98637Z" fill="white"/>
<path d="M115.322 24.3916C112.344 23.9821 109.329 24.2055 106.351 24.5777C105.16 24.7266 105.346 26.4388 106.575 26.2155C109.478 25.7316 112.381 25.471 115.285 25.0244C115.62 24.9871 115.62 24.466 115.322 24.3916Z" fill="white"/>
<path d="M105.421 26.1038C109.776 31.4638 115.359 35.5956 121.352 39.02C122.58 39.7273 123.734 37.7917 122.469 37.1217C116.588 33.8833 110.967 30.1238 106.389 25.1732C105.793 24.466 104.862 25.4338 105.421 26.1038Z" fill="white"/>
<path d="M119.677 37.6801C116.736 38.6479 113.61 37.4567 110.595 37.4195C109.292 37.3823 109.292 39.3923 110.595 39.4295C113.87 39.5784 117.146 40.5834 120.235 39.0573C121.017 38.6851 120.496 37.4195 119.677 37.6801Z" fill="white"/>
<path d="M109.85 38.1639C112.642 43.7473 117.444 47.9535 122.543 51.4152C123.66 52.1597 124.739 50.3358 123.623 49.5913C118.672 46.3902 113.982 42.6307 110.52 37.7917C110.222 37.3823 109.627 37.7173 109.85 38.1639Z" fill="white"/>
<path d="M122.543 50.4102C119.565 49.4796 116.029 49.2563 112.94 49.2191C111.637 49.2191 111.637 51.1918 112.94 51.2291C116.066 51.3407 119.454 51.9735 122.543 51.3408C123.027 51.2663 122.99 50.5591 122.543 50.4102Z" fill="white"/>
<path d="M112.828 50.4474C115.322 55.5097 120.124 58.3386 125 60.7581C126.191 61.3537 127.196 59.567 126.042 59.0086C121.352 56.7008 116.625 54.4302 113.498 50.0752C113.2 49.6657 112.642 50.0007 112.828 50.4474Z" fill="white"/>
<path d="M78.5087 51.3408C81.3748 52.1597 84.3154 52.383 87.256 52.8669C88.2238 53.0158 88.5961 51.6758 87.6655 51.4152C84.7621 50.5219 81.8587 50.4474 78.8809 49.9263C77.9876 49.8146 77.5781 51.0802 78.5087 51.3408Z" fill="white"/>
<path d="M87.1072 52.2714C84.3155 54.5047 80.9655 55.5842 77.6899 56.8125C76.6104 57.222 77.0943 59.0087 78.1738 58.562C81.6727 57.1103 85.0972 55.7331 87.7772 52.9414C88.2239 52.4947 87.5911 51.8619 87.1072 52.2714Z" fill="white"/>
<path d="M76.8337 57.4453C81.0399 61.4281 88.2239 57.7803 93.0256 57.222C94.0306 57.1103 94.1051 55.4725 93.0256 55.5842C87.8144 56.0681 82.4172 59.3064 77.2432 56.9242C76.9082 56.7753 76.536 57.1475 76.8337 57.4453Z" fill="white"/>
<path d="M92.0577 56.1053C93.4722 59.1203 96.6734 60.8698 99.3534 62.6193C100.358 63.2893 101.363 61.577 100.321 60.9814C97.5295 59.4553 94.8867 57.9664 92.6161 55.6958C92.3183 55.3608 91.9089 55.7331 92.0577 56.1053Z" fill="white"/>
<path d="M101.066 63.8476C104.304 62.3959 106.947 60.1253 109.552 57.8175C110.483 56.9986 109.106 55.6586 108.212 56.4775C105.719 58.6737 103.225 60.9442 100.247 62.4704C99.3162 62.917 100.135 64.2571 101.066 63.8476Z" fill="white"/>
<path d="M108.473 55.8075C112.605 59.0459 117.741 58.7853 122.692 59.5298C123.846 59.7159 124.404 58.0036 123.176 57.7431C118.523 56.7381 113.498 57.3336 109.292 54.7653C108.659 54.393 107.877 55.3608 108.473 55.8075Z" fill="white"/>
<path d="M98.8323 61.7631C98.944 66.0437 97.9762 70.1754 97.0828 74.3072C96.8967 75.1633 98.0134 75.4238 98.3484 74.6422C100.023 70.6593 100.396 66.0065 99.9862 61.7259C99.8745 61.0559 98.7951 61.0187 98.8323 61.7631Z" fill="white"/>
<path d="M103.746 61.3165C104.006 65.6716 103.783 70.0638 104.416 74.3817C104.565 75.4239 106.202 74.9772 106.016 73.935C105.235 69.7288 105.197 65.411 104.341 61.2048C104.267 60.907 103.746 60.9815 103.746 61.3165Z" fill="white"/>
<path d="M50.4056 26.9227C54.1651 26.1038 59.3018 23.9821 62.689 26.9227C64.4385 28.4488 64.7735 31.0916 65.183 33.2505C65.7041 36.0422 66.1508 38.9084 66.188 41.7745C66.188 42.7051 66.2997 44.2312 65.7786 45.0501C65.3319 45.7574 65.1085 45.3851 64.3269 45.2735C63.4707 45.1246 62.8007 46.0552 63.4335 46.7624C64.8852 48.3257 67.0069 47.4324 67.7141 45.6829C68.6075 43.4496 68.2352 40.6579 67.9747 38.35C67.4908 33.9578 67.1186 26.811 62.4657 24.6521C58.7062 22.9026 53.4951 24.1682 50.145 26.2899C49.81 26.5132 50.0333 27.0343 50.4056 26.9227Z" fill="white"/>
<path d="M16.049 38.8339C17.6496 40.1367 17.4635 35.4467 17.4635 35C17.3891 31.7989 17.5752 28.0021 15.4535 25.4338C15.2302 25.136 14.7835 25.1732 14.4857 25.3221C10.0562 27.4438 12.2896 33.0272 12.6618 36.7495C13.4062 43.9335 13.8157 51.1547 14.4112 58.3759C15.6024 72.781 18.1335 87.0001 20.3297 101.294C20.5158 102.41 22.228 101.964 22.0419 100.81C19.9947 87.4096 17.538 74.0466 16.3468 60.5348C15.7885 54.058 15.379 47.5441 14.7835 41.0673C14.5229 38.35 14.2624 35.6328 13.7785 32.99C13.3318 30.6822 12.7362 27.9277 15.3046 26.6994C14.9696 26.6621 14.6718 26.6249 14.3368 26.5877C15.9374 28.486 15.8257 31.2777 16.049 33.6228C16.0863 33.995 16.4585 38.4989 16.1979 38.4617C16.0118 38.3873 15.8629 38.6851 16.049 38.8339Z" fill="white"/>
<path d="M16.868 42.854C18.5802 52.5319 19.0269 62.5448 19.6224 72.3344C19.9202 77.0244 20.1436 81.7517 20.7763 86.4418C21.4091 91.4296 22.3025 96.3803 22.228 101.405C22.4886 101.07 22.7119 100.735 22.9725 100.438C22.9353 100.438 22.2653 100.177 22.3025 100.177C21.2602 99.8792 20.8508 101.219 21.6325 101.815C22.3397 102.373 22.6003 102.559 23.5308 102.41C23.9775 102.336 24.2753 101.852 24.2753 101.443C24.3125 96.5664 23.4564 91.7646 22.7864 86.9257C22.0419 81.8634 21.7814 76.7639 21.3719 71.7016C20.553 61.9492 19.5108 52.3458 17.3146 42.8168C17.203 42.519 16.8307 42.6307 16.868 42.854Z" fill="white"/>
<path d="M24.6102 101.256C21.7069 100.326 18.1707 101.145 15.6396 102.745C15.044 103.118 15.044 103.936 15.6396 104.346C18.7663 106.393 24.0147 105.984 27.0669 103.974C27.4019 103.75 27.6253 103.341 27.4764 102.931C26.8808 101.145 25.5408 100.251 23.7541 101.256C23.0469 101.629 23.4191 102.596 24.1263 102.671C25.0569 102.745 25.3547 102.41 25.6897 103.415C25.8386 103.08 25.9875 102.708 26.0991 102.373C23.5308 103.974 19.1757 104.495 16.5329 102.783C16.5329 103.304 16.5329 103.825 16.5329 104.383C18.9152 102.783 21.7813 102.224 24.573 101.74C24.8336 101.629 24.7964 101.294 24.6102 101.256Z" fill="white"/>
<path d="M22.563 103.453C21.7813 106.133 22.563 108.701 22.7119 111.344C22.7863 112.274 24.2752 112.647 24.4614 111.567C24.9453 109.222 26.0992 105.574 23.8286 103.788C23.2702 103.341 22.1908 103.713 22.4886 104.569C22.8608 105.612 23.1958 106.579 23.1586 107.696C23.1213 108.85 22.898 109.967 22.7119 111.083C23.2702 111.083 23.8658 111.083 24.4241 111.083C23.5308 108.664 23.233 106.058 23.1586 103.49C23.1958 103.155 22.6747 103.08 22.563 103.453Z" fill="white"/>
<path d="M38.271 9.46525C42.8494 11.5125 48.135 11.1031 52.6389 13.4481C53.9417 14.1181 55.1329 12.1453 53.7929 11.4753C49.1773 9.0558 43.5938 9.57692 38.5688 8.75802C38.1965 8.68357 37.8243 9.27914 38.271 9.46525Z" fill="white"/>
<path d="M37.936 7.71581C35.6282 6.97135 33.0598 6.26412 30.6404 6.33856C29.7842 6.33856 29.412 7.34357 29.9703 7.97636C32.2782 10.6192 36.3727 9.65138 39.4621 10.2469C40.3927 10.4331 41.1744 9.0186 40.1694 8.57192C37.4521 7.34357 33.4693 9.09304 31.3104 6.63634C31.087 7.19468 30.8637 7.71581 30.6404 8.27415C33.0598 8.16248 35.4421 8.68359 37.8243 8.5347C38.3082 8.46025 38.3827 7.8647 37.936 7.71581Z" fill="white"/>
<path d="M63.3218 85.7345C66.1508 85.2878 68.4958 83.7617 71.0269 82.5334C74.042 81.0445 77.3548 80.0767 80.5559 79.1461C86.921 77.3222 93.3606 75.461 99.9862 75.0516C106.351 74.6794 112.754 75.3494 118.97 76.8383C125.298 78.3644 131.179 80.97 137.209 83.315C137.916 83.6128 138.363 82.4589 137.73 82.0867C132.147 78.7366 125.782 76.5033 119.491 74.9772C113.275 73.4883 106.761 72.7438 100.358 73.1532C93.6583 73.5627 87.1816 75.4238 80.8165 77.3966C77.727 78.3272 74.6003 79.3322 71.6597 80.6722C68.7564 82.0122 66.2624 84.1712 63.1357 85.0645C62.7263 85.2134 62.9124 85.809 63.3218 85.7345Z" fill="white"/>
<path d="M0.415498 70.0265C3.13276 69.5799 5.70113 68.7982 8.34394 68.091C9.68396 67.7187 11.024 67.421 12.4012 67.2721C13.704 67.1232 15.1185 67.2721 16.384 66.9371C16.9424 66.7882 17.1657 65.8576 16.5702 65.597C14.2624 64.592 11.0984 65.5226 8.82783 66.2298C5.88724 67.1232 3.13276 68.426 0.229385 69.3938C-0.180065 69.5427 0.00604847 70.101 0.415498 70.0265Z" fill="white"/>
<path d="M20.3296 66.8255C22.4513 67.4582 24.7964 67.421 26.9553 67.8305C29.2259 68.2772 31.3476 68.9844 33.5809 69.5799C34.5487 69.8405 35.2187 68.3516 34.2881 67.9421C31.9803 66.9371 29.3748 66.3788 26.8808 65.9693C24.7591 65.6343 22.2652 65.2249 20.2552 66.1555C19.9574 66.3416 20.0691 66.751 20.3296 66.8255Z" fill="white"/>
<path d="M75.5682 78.8856C72.5531 77.9551 69.5381 78.3273 66.5231 77.5828C64.2153 76.9873 62.168 76.3173 60.0835 75.2006C59.3391 74.8284 58.3713 75.6473 58.8924 76.3917C60.0835 78.1784 63.2847 78.7367 65.2203 79.1462C66.5231 79.4067 67.8259 79.6301 69.1287 79.6301C71.1759 79.6301 73.4093 78.9229 75.4565 79.444C75.7915 79.5184 75.9404 78.9973 75.5682 78.8856Z" fill="white"/>
</svg>
