<svg width="83" height="79" viewBox="0 0 83 79" fill="none" xmlns="http://www.w3.org/2000/svg">
<path d="M67.4746 20.2857C67.1652 17.9419 66.8557 15.5981 66.4137 13.2542C66.1926 12.0602 64.2917 12.1044 64.2475 13.3869C64.1148 17.9861 65.0874 23.2044 64.3801 27.8921C63.3633 21.922 63.3633 15.8192 62.1697 9.84904C61.9044 8.61079 60.1803 8.74345 60.0477 9.9817C59.3846 15.6865 60.2245 21.4355 59.8267 27.1403C58.2352 20.3299 58.633 13.1216 57.4394 6.22273C57.2626 5.24982 55.6269 5.02871 55.4059 6.09007C54.5659 9.98171 54.3891 13.9176 54.3891 17.8092C53.947 13.5196 53.4165 9.18569 53.107 4.89604C53.0186 3.83468 51.3387 3.74624 51.0293 4.76337C49.0841 11.8833 50.1451 19.2244 49.7914 26.477C49.1725 18.7821 48.5094 11.0873 48.5536 3.34822C48.5536 2.19842 46.8295 1.71196 46.5201 2.90599C44.9728 8.38967 45.5033 14.0503 45.238 19.6666C45.1054 22.0989 44.8844 24.5311 44.5749 27.0076C43.7792 19.357 42.7182 11.7506 42.6298 4.10002C42.895 3.92313 43.0276 3.56934 42.8508 3.21556C42.7624 2.81755 42.674 2.41954 42.5856 2.02153C42.5414 1.09284 41.0825 1.22551 41.0383 2.10998C40.2426 14.8905 43.4255 27.671 43.2487 40.4957C43.2487 41.3802 44.0886 41.7782 44.7075 41.5571C44.8401 41.5571 44.9728 41.5128 45.1054 41.4244C47.4042 39.965 49.703 38.5057 51.9134 36.9579C52.1345 36.8252 52.2229 36.6483 52.2671 36.4272C54.4775 34.9678 56.7763 33.7296 59.1635 32.624C59.2078 32.6682 59.2077 32.7566 59.2519 32.8009C59.6056 33.6853 61.1529 33.6411 61.3739 32.6682C61.4624 32.2702 61.5508 31.9164 61.595 31.5184C61.9486 31.3415 62.3465 31.2088 62.7002 31.0319C62.8328 31.6511 62.9654 32.226 63.1423 32.8451C63.4517 33.9949 64.8664 34.0833 65.3969 33.022C65.9274 31.8722 66.3252 30.7224 66.5463 29.4841C66.7673 29.3957 66.9883 29.3072 67.2094 29.2188C67.8283 29.7053 68.8008 29.7053 69.0219 28.7766C69.0219 28.6881 69.0661 28.5997 69.0661 28.5112C71.2765 27.671 73.4869 26.7865 75.6531 25.8578C76.3162 25.5483 76.4488 24.6196 76.0068 24.0889C74.9016 22.8064 73.929 21.4798 72.9122 20.1088C72.3817 19.4013 71.2765 19.755 71.0112 20.5068C70.8344 21.0817 70.6134 21.5682 70.3481 22.0989C69.9945 20.728 69.7734 19.357 69.685 17.9861C69.6408 17.0132 69.6408 16.0403 69.5966 15.0232C69.5524 13.608 67.4304 13.4311 67.3862 14.8463C67.342 15.9961 67.3862 17.1459 67.4746 18.2515C67.4746 18.9148 67.4746 19.6224 67.4746 20.2857ZM54.4775 32.4471C53.2397 33.1104 52.046 33.818 50.8966 34.614C52.5765 28.2017 51.7808 21.524 51.8692 14.9789C52.0461 16.9247 52.2671 18.8706 52.4882 20.8606C52.886 24.7965 52.7976 28.7323 54.4775 32.4471ZM45.5917 37.2232C45.9453 32.5798 46.6085 27.9363 47.0948 23.2487C47.1832 22.5853 47.2274 21.9662 47.2274 21.3028C47.5811 26.1674 47.9347 31.0319 48.2442 35.8965C48.2442 36.0734 48.2884 36.2061 48.3768 36.3387C48.1116 36.5598 47.8463 36.7367 47.581 36.9579C47.4484 37.0463 47.36 37.179 47.3158 37.3116C46.8295 37.6212 46.299 37.975 45.8127 38.2846C45.8127 38.1961 45.8127 38.1077 45.8127 38.0192C45.8569 37.7097 45.7685 37.4443 45.5917 37.2232ZM56.8205 31.2088C56.9531 27.0076 56.5995 22.7622 56.5111 18.5168C56.8205 22.5411 57.2626 26.5212 58.4562 30.4128C57.8815 30.6782 57.351 30.9435 56.8205 31.2088ZM61.9486 28.9092C61.9928 28.5112 62.0371 28.069 62.0371 27.671C62.0813 28.0248 62.1697 28.4228 62.2139 28.7766C62.1255 28.8208 62.037 28.865 61.9486 28.9092ZM69.464 25.6809C69.5524 25.7252 69.6408 25.7694 69.7293 25.7694C69.6408 25.8136 69.5082 25.8578 69.4198 25.9021C69.464 25.8136 69.464 25.7694 69.464 25.6809ZM70.967 25.2829C71.586 24.5311 71.9838 23.8678 72.3375 23.0718C72.6469 23.4698 73.0006 23.912 73.3101 24.31C72.5586 24.6638 71.7628 24.9734 70.967 25.2829Z" fill="#46548E"/>
<path d="M49.4377 45.5814C48.3768 48.2348 46.6968 50.1806 45.0612 52.4802C43.6465 54.3818 42.3203 56.9467 43.2487 59.3348C43.5581 60.0866 44.7959 59.8212 44.7959 59.0252C44.7959 55.9296 46.2548 53.8069 48.0673 51.3746C49.1725 49.9152 51.206 47.6599 50.6313 45.6698C50.4545 45.0507 49.6588 45.0065 49.4377 45.5814Z" fill="#46548E"/>
<path d="M45.5475 69.5504C47.581 64.1994 50.6313 59.5117 53.7701 54.7356C56.0689 51.242 58.854 47.6157 59.8266 43.4587C60.0476 42.6627 58.9866 42.3089 58.633 43.0607C54.3006 51.9495 46.6527 59.379 43.7791 68.9312C43.4697 70.081 45.1496 70.7002 45.5475 69.5504Z" fill="#46548E"/>
<path d="M48.8631 74.9014C51.2945 68.2679 55.7595 62.9611 59.7825 57.3005C61.5066 54.824 62.8328 52.1264 64.3359 49.5172C65.3968 47.6599 66.8557 46.2005 68.1377 44.5642C68.403 44.5642 68.7124 44.3873 68.7567 44.0335C68.8009 43.8566 68.8009 43.6797 68.8451 43.5029C68.9335 42.9279 68.182 42.6184 67.7841 42.9722C63.6728 46.8638 61.4181 51.6842 58.2794 56.2834C54.2122 62.1651 49.3493 67.3834 46.9179 74.238C46.4758 75.5205 48.421 76.1838 48.8631 74.9014Z" fill="#46548E"/>
<path d="M55.5827 73.0882C54.8754 74.238 56.6437 75.432 57.351 74.238C60.6666 68.7543 64.7337 63.8455 67.8282 58.2292C71.0112 52.5244 74.15 46.908 78.3497 41.8666C78.836 41.2475 77.8634 40.363 77.2887 40.9379C73.1332 45.2718 70.0829 50.4459 67.1209 55.62C63.6285 61.767 59.1193 67.118 55.5827 73.0882Z" fill="#46548E"/>
<path d="M34.3187 64.4205C33.2577 64.332 33.3019 65.9683 34.4071 65.8798C34.4956 65.8798 34.584 65.8798 34.6724 65.8798C35.5124 65.8356 35.3798 64.4647 34.584 64.4205C34.4956 64.4205 34.4071 64.4205 34.3187 64.4205Z" fill="#46548E"/>
<path d="M27.4223 66.0566C27.2896 66.0124 27.1128 66.0566 26.9801 66.0566C26.1844 66.1451 26.2728 67.3834 27.0686 67.4276C27.2012 67.4276 27.3781 67.4276 27.5107 67.4276C28.3065 67.2949 28.1296 66.1893 27.4223 66.0566Z" fill="#46548E"/>
<path d="M23.9298 62.0324L23.8856 61.9881C23.2667 61.2806 22.1615 62.2535 22.8246 62.961C23.1341 63.2706 23.3993 63.4475 23.8414 63.4475C24.7698 63.5359 24.8581 62.165 23.9298 62.0324Z" fill="#46548E"/>
<path d="M29.6326 63.7571C29.6326 63.8013 29.6326 63.8013 29.6326 63.8455C29.3673 65.0838 31.2241 64.9954 31.0031 63.934C31.0031 63.8455 30.9589 63.7571 30.9589 63.6687C30.8263 62.9168 29.721 63.0495 29.6326 63.7571Z" fill="#46548E"/>
<path d="M37.8111 69.285C37.6785 69.285 37.5016 69.285 37.369 69.285C36.5733 69.3734 36.7059 70.5675 37.4575 70.6559C37.5901 70.6559 37.7669 70.6559 37.8995 70.6559C38.6953 70.6117 38.5626 69.285 37.8111 69.285Z" fill="#46548E"/>
<path d="M38.2973 51.3303C37.6784 50.7554 36.7058 51.5514 37.1037 52.1706C37.0153 52.5686 37.369 53.0993 37.8552 53.0108C38.8278 52.8782 38.9163 51.9494 38.2973 51.3303Z" fill="#46548E"/>
<path d="M20.2164 68.1352C19.2438 68.1352 19.1553 69.6388 20.0837 69.6388C20.2164 69.6388 20.3932 69.6387 20.5258 69.5945C21.3658 69.5061 21.2332 68.2236 20.4374 68.1352C20.3932 68.1352 20.3048 68.1352 20.2164 68.1352Z" fill="#46548E"/>
<path d="M31.8872 56.9909C32.1967 57.4331 33.0367 57.2562 33.0367 56.6813C33.0809 56.1065 32.7272 55.7527 32.1967 55.6642C31.4009 55.5758 31.2683 56.814 31.8872 56.9909Z" fill="#46548E"/>
<path d="M28.2622 72.8671C28.2622 72.7786 28.3064 72.6902 28.3506 72.646C29.0137 72.071 28.0411 70.9654 27.4222 71.5846C27.1127 71.8499 26.9359 72.1595 26.9359 72.6017C26.9801 73.2651 28.0853 73.6189 28.2622 72.8671Z" fill="#46548E"/>
<path d="M78.7034 57.4774C89.7554 36.6041 77.554 10.9546 56.0248 3.12706C53.5933 2.24259 50.9851 1.8446 48.3768 1.75615C44.0886 -0.985691 37.5016 0.0314324 32.7714 1.13701C24.7255 2.99439 16.0166 6.53224 10.4022 12.7677C2.31211 21.7893 -1.75503 34.9678 0.720617 46.8196C2.93101 57.6101 10.3138 68.8428 20.0395 74.238C30.1631 79.8544 44.2654 79.8986 55.229 77.0241C65.5295 74.3707 73.8405 66.6758 78.7034 57.4774ZM43.3371 44.0778C43.2929 43.9009 43.1603 43.7682 43.0276 43.6355C47.4926 42.6184 52.1787 39.4343 56.2458 37.6654C62.5233 34.9235 68.8451 32.1375 75.2552 29.7937C75.4763 29.7052 75.6089 29.6168 75.6973 29.4841C76.493 29.3072 77.2446 29.0419 78.0403 28.7323C78.9687 31.3415 79.5876 34.0833 79.8971 36.8252C72.9564 38.8152 65.7063 40.4072 58.5888 41.5128C53.3723 42.3088 48.1999 42.3531 43.3371 44.0778ZM45.4149 2.24259C45.017 2.86172 45.238 3.7904 46.1664 3.83462C47.0063 3.87884 47.8463 3.92308 48.642 4.01152C49.2167 4.5422 49.7472 5.16132 50.1893 5.91312C50.6756 6.75336 51.9134 6.13423 51.5155 5.24977C51.3387 4.89598 51.1619 4.63065 50.9851 4.32109C63.098 6.57648 72.7796 15.6865 77.2888 26.9192C76.5815 27.2287 75.9183 27.5383 75.211 27.7594C74.9457 27.5825 74.5921 27.5383 74.1942 27.671C68.4472 29.8821 62.877 32.5355 57.2626 35.0562C54.7427 36.206 52.2229 37.3558 49.703 38.5499C47.2274 39.7439 44.9728 41.4686 42.4087 42.4415C40.6404 36.7367 41.9224 28.5996 41.7456 22.7622C41.5246 15.7307 41.2593 8.61073 39.9331 1.71191C41.9224 1.62346 43.7792 1.75614 45.4149 2.24259ZM5.89298 54.3376C-0.251925 42.1319 2.13527 29.263 9.12012 18.0303C13.4967 10.9988 20.0837 7.59361 27.5991 4.76332C30.34 3.74619 34.3186 2.41949 38.2532 1.88881C38.1647 2.2426 38.3416 2.50793 38.6068 2.59637C39.1815 10.6008 39.7121 18.561 39.8889 26.6096C39.9773 32.0048 38.9605 38.2403 40.4636 43.5029C40.2867 43.6355 40.1541 43.8566 40.2425 44.1662C40.2425 44.2104 40.2425 44.2547 40.2425 44.2989C37.148 46.2447 34.5839 49.7826 31.7546 51.8611C25.6097 56.3718 19.1553 60.6172 13.8946 66.1894C10.6674 62.8284 8.10337 58.7157 5.89298 54.3376ZM28.2622 74.636C22.8246 73.3978 18.4922 70.7444 14.8672 67.2507C19.6858 62.9611 24.8139 59.1579 30.0747 55.4874C33.6555 52.9667 36.8827 49.473 40.4636 46.8638C41.2593 56.1949 38.6068 66.2778 41.7014 75.1225C42.0993 76.2723 43.9118 75.6089 43.6908 74.4591C42.0109 65.128 44.2212 55.222 42.1435 46.0236C47.5811 44.4316 53.1512 44.1662 58.7656 43.5029C65.8389 42.7068 72.9564 40.8053 79.9413 39.2574C80.1181 42.8395 79.7644 46.4658 78.7476 49.9595C72.6469 72.248 48.9073 79.3679 28.2622 74.636Z" fill="white"/>
</svg>
