<svg width="109" height="104" viewBox="0 0 109 104" fill="none" xmlns="http://www.w3.org/2000/svg">
<path d="M85.5074 11.6665C84.8819 15.5366 87.9702 21.1659 92.544 19.0549C96.2577 17.3348 96.375 11.7446 95.9841 8.34362C95.9059 7.56178 94.8113 7.52269 94.7331 8.34362C94.5768 10.9628 94.6158 14.2856 93.0522 16.5139C92.0358 17.9603 90.1202 18.3903 88.6347 17.413C86.8756 16.2793 86.0156 13.7383 85.9374 11.7446C85.8983 11.5101 85.5465 11.4319 85.5074 11.6665Z" fill="#2D3963"/>
<path d="M97.1959 54.7069C96.7659 64.2063 97.2741 73.7448 95.8277 83.166C95.515 85.2379 92.7003 100.679 88.1265 96.0274C87.462 95.3237 86.1328 96.2619 86.7583 97.0828C91.5276 103.611 95.8277 92.3918 96.6095 88.678C98.9551 77.5368 98.1732 65.9655 97.6259 54.6678C97.6259 54.4333 97.235 54.4333 97.1959 54.7069Z" fill="#2D3963"/>
<path d="M95.6322 84.2997C93.5603 87.8571 90.5502 90.5936 88.0092 93.76C87.6574 94.19 88.2047 94.7764 88.6347 94.3855C91.5275 91.4536 94.4204 88.3653 96.1013 84.5734C96.2186 84.2606 95.7886 83.987 95.6322 84.2997Z" fill="#2D3963"/>
<path d="M96.6878 78.045C94.3422 81.5242 91.4103 84.4952 88.5175 87.5053C88.0875 87.9353 88.7521 88.5608 89.1821 88.1698C92.2313 85.2379 95.2414 82.1496 97.1569 78.3186C97.2742 78.0059 96.8832 77.7322 96.6878 78.045Z" fill="#2D3963"/>
<path d="M96.6878 72.2984C95.1632 75.113 92.7785 77.3413 91.0585 80.0386C90.7457 80.5077 91.4885 80.9378 91.8012 80.4687C93.5604 77.7713 95.8668 75.5039 97.1178 72.4938C97.235 72.2593 96.805 72.0638 96.6878 72.2984Z" fill="#2D3963"/>
<path d="M96.0231 64.1281C95.5931 64.8318 95.1631 65.5354 94.7331 66.2C94.4204 66.6691 95.1631 67.0991 95.4758 66.63C95.945 65.9655 96.375 65.2618 96.7659 64.5581C97.0395 64.089 96.2968 63.659 96.0231 64.1281Z" fill="#2D3963"/>
<path d="M22.608 65.4964C15.4542 63.5418 7.12755 66.2391 3.02287 72.4939C-0.612706 78.0059 -0.925444 85.3552 1.8501 91.2972C5.05566 98.1383 12.4441 101.657 19.7934 101.148C27.8855 100.601 34.2966 94.7373 35.9385 86.8798C37.6976 78.3577 33.632 68.741 25.0318 65.8091C24.2499 65.5355 23.7417 66.7473 24.4454 67.1773C30.8565 70.6565 34.8048 76.6767 34.1793 84.1433C33.632 91.0627 28.8628 97.0438 21.9435 98.412C15.4933 99.702 8.41759 97.3956 4.8602 91.649C1.8501 86.8016 1.381 80.5469 3.72653 75.3476C5.09475 72.3375 7.3621 69.7574 10.2549 68.1546C14.086 66.0437 18.347 65.9655 22.569 65.9655C22.8426 65.9655 22.8817 65.5746 22.608 65.4964Z" fill="white"/>
<path d="M83.4355 97.1219C80.1908 98.0993 77.4153 99.1938 73.9752 99.1938C71.8251 99.1938 69.675 98.842 67.6422 98.0211C64.0457 96.5747 61.1529 93.6818 59.472 90.2026C57.8301 86.7625 57.2437 82.736 58.0256 79.0223C58.9247 74.7612 61.4266 71.9075 64.3976 68.8974C65.0231 68.2719 64.2412 67.3728 63.4985 67.7246C57.0482 70.8129 54.6636 79.4914 55.68 86.0198C56.7355 93.0173 61.7784 99.0766 68.7759 100.64C73.467 101.696 80.1517 101.07 83.67 97.5129C83.8264 97.3565 83.67 97.0438 83.4355 97.1219Z" fill="white"/>
<path d="M28.0419 48.7258C27.8464 51.5796 26.6736 54.2378 25.6572 56.857C24.5627 59.7889 23.8199 62.8772 22.9208 65.8873C22.0217 69.0147 21.1616 72.1421 20.3407 75.3085C19.9889 76.5986 19.5589 77.8495 19.2852 79.1396C19.1679 79.6869 19.0507 81.446 18.6597 81.7197C17.5261 82.5406 18.6597 84.4561 19.7543 83.5961C21.2789 82.4624 21.2398 80.0387 21.7089 78.3577C22.7644 74.644 23.6245 70.8911 24.6018 67.1383C25.5009 63.7373 26.2827 60.3362 27.26 56.9743C28.081 54.2769 28.8628 51.5014 28.3937 48.6477C28.4328 48.4131 28.081 48.4913 28.0419 48.7258Z" fill="white"/>
<path d="M17.3697 80.8596C16.2751 81.446 16.3924 82.8924 17.096 83.7525C17.4479 84.2216 18.0343 84.4952 18.6206 84.4952C19.3634 84.4952 19.9498 84.0261 20.2234 83.3615C20.4189 82.9315 20.3798 82.4624 19.9889 82.1497C19.637 81.876 19.0507 81.876 18.7379 82.2279C18.6988 82.306 18.6206 82.3451 18.5425 82.4233C18.4643 82.5015 18.4643 82.5015 18.5034 82.4624C18.5816 82.4233 18.5425 82.4233 18.4643 82.4624C18.4252 82.5015 18.4252 82.5015 18.3861 82.5015C18.3079 82.5406 18.347 82.5406 18.4643 82.4624C18.3861 82.4624 18.1906 82.5015 18.5034 82.4624C18.4252 82.4624 18.2297 82.4624 18.5425 82.5015C18.5034 82.5015 18.347 82.4624 18.5034 82.5015C18.6597 82.5406 18.4643 82.4624 18.4252 82.4624C18.2688 82.3842 18.4252 82.5015 18.4252 82.4624C18.3861 82.4233 18.347 82.3842 18.3079 82.3451C18.1906 82.2279 18.347 82.4624 18.2688 82.306C18.2297 82.2279 18.1906 82.1888 18.1515 82.1106C18.2297 82.267 18.1515 82.0715 18.1515 82.0324C18.0734 81.8369 18.1515 82.1888 18.1515 81.9542C18.1515 81.876 18.1515 81.7978 18.1124 81.7588C18.1124 81.6415 18.1124 81.5242 18.1124 81.4069C18.1906 81.016 17.7606 80.6251 17.3697 80.8596Z" fill="white"/>
<path d="M49.1907 78.8659C44.2651 74.8003 40.4341 84.6516 44.9297 87.6617C47.7443 89.5381 51.3799 87.9744 52.6309 85.0425C53.8036 82.2278 52.6309 77.6932 48.878 77.8495C48.018 77.8886 47.5098 79.1787 48.4089 79.6087C49.308 80.0387 50.2462 80.3514 50.6372 81.3678C50.9499 82.2278 50.8717 83.2833 50.5199 84.1043C49.8162 85.8243 47.5098 86.9971 45.907 85.5898C44.7733 84.5734 44.7342 82.6579 45.2033 81.3287C45.7897 79.5696 47.1579 78.7486 48.9562 79.2959C49.1907 79.335 49.3862 79.0223 49.1907 78.8659Z" fill="white"/>
<path d="M57.8301 50.1722C57.1264 52.2832 55.8755 54.1206 54.9373 56.0752C53.9209 58.2252 53.0999 60.5317 52.279 62.7599C50.4417 67.8419 48.6825 73.0803 47.4316 78.3186C47.1188 79.6477 49.1516 80.2341 49.5035 78.905C50.7935 73.4321 52.6308 67.9592 54.4682 62.6426C55.2891 60.2189 56.1882 57.8343 57.2046 55.4497C57.9474 53.7296 58.651 52.0487 58.3383 50.1722C58.2992 49.9377 57.9083 49.9768 57.8301 50.1722Z" fill="white"/>
<path d="M25.8136 58.8116C27.3382 59.9844 28.2764 62.1344 29.2146 63.7763C30.3874 65.8482 31.6383 67.8419 32.9675 69.7965C35.8994 74.253 38.9877 78.9832 42.6233 82.8533C43.5615 83.8697 45.047 82.3842 44.1478 81.3287C40.1604 76.794 36.6031 71.712 33.2411 66.6691C32.0293 64.8709 30.9347 62.9554 29.6837 61.1571C28.7846 59.9062 27.7682 58.4207 26.1654 58.0298C25.6572 57.9907 25.4618 58.538 25.8136 58.8116Z" fill="white"/>
<path d="M27.3382 56.0752C31.7947 57.1307 36.8376 56.7007 41.3723 56.7788C46.2588 56.857 51.2626 57.2088 56.1101 56.7397C57.3219 56.6225 57.3219 54.9806 56.1101 54.8633C51.2626 54.3942 46.2198 54.746 41.3723 54.8242C36.8376 54.9024 31.7556 54.4724 27.3382 55.5279C27.0646 55.567 27.0646 55.997 27.3382 56.0752Z" fill="white"/>
<path d="M57.9474 55.7624C57.9474 55.7233 57.9474 55.6451 57.9474 55.606C57.9474 55.4888 57.9083 55.4106 57.791 55.3324C57.791 55.3324 57.7519 55.3324 57.7519 55.2933C57.4783 55.1369 57.1265 55.4497 57.3219 55.7233C60.0193 60.2971 63.0685 64.6754 65.8831 69.2101C67.1732 71.282 68.385 73.4712 69.8705 75.4258C71.1606 77.1067 72.7633 78.7486 73.467 80.7814C73.9361 82.1496 76.0862 81.5242 75.6171 80.195C74.9134 78.2404 73.5452 76.6767 72.2551 75.0739C70.5742 73.0412 69.206 70.7738 67.7595 68.5846C64.7885 64.05 61.7393 59.2416 57.8692 55.3715C57.8301 55.5279 57.8301 55.7233 57.791 55.8797C57.7519 55.9188 57.7128 55.9188 57.6738 55.9579C57.791 56.0361 57.9474 55.9188 57.9474 55.7624Z" fill="white"/>
<path d="M51.6535 81.9151C55.1327 82.306 58.6119 82.3451 62.0911 82.4233C65.2967 82.5015 68.815 83.0097 71.9815 82.4233C72.7633 82.2669 72.7633 80.9769 71.9815 80.8205C68.815 80.2341 65.2967 80.7423 62.0911 80.8205C58.6119 80.8987 55.0936 80.9378 51.6535 81.3287C51.3017 81.4069 51.3017 81.876 51.6535 81.9151Z" fill="white"/>
<path d="M74.9525 80.9377C73.2324 79.8432 70.9651 80.7032 70.3787 82.6969C69.7923 84.6906 71.5515 86.4497 73.5061 86.3716C75.0698 86.3325 76.438 85.0815 76.868 83.596C77.298 82.1105 76.5944 80.4295 74.8743 80.5077C73.4279 80.5859 73.5061 82.5405 74.8743 82.6969C74.7179 82.6969 74.9134 82.736 74.9134 82.736C74.8743 82.7751 74.757 82.6578 74.7179 82.6187C74.757 82.6969 74.7179 82.5796 74.7179 82.6187C74.757 82.5796 74.7179 82.6969 74.7179 82.736C74.7179 82.6969 74.6398 83.0487 74.6007 83.166C74.4443 83.5569 74.0143 84.1433 73.4279 84.2215C72.8024 84.2997 72.0206 83.8306 72.177 83.0878C72.4506 81.7587 73.897 81.7587 74.9134 81.4459C75.1089 81.3678 75.148 81.0941 74.9525 80.9377Z" fill="white"/>
<path d="M16.9397 80.9769C15.5324 80.9378 14.8678 82.8142 15.0633 83.9479C15.3369 85.6288 16.9788 86.4107 18.5425 86.3716C20.028 86.3325 21.318 85.4334 21.748 83.987C22.139 82.6969 21.3962 80.3905 19.6762 80.8596C19.207 80.9769 18.9725 81.5632 19.207 81.9542C19.5589 82.5796 20.1453 82.6578 19.8716 83.4397C19.6762 84.0261 19.2461 84.417 18.6598 84.4561C17.9952 84.5343 17.057 84.417 16.6661 83.7915C16.2751 83.1269 16.3533 81.7978 17.057 81.3678C17.2915 81.3287 17.1743 81.016 16.9397 80.9769Z" fill="white"/>
<path d="M48.1743 48.0613C51.5363 48.8431 54.3509 51.0323 57.6347 52.0487C60.2538 52.8305 64.5931 52.3614 65.2576 49.0777C65.414 48.3349 64.7103 47.7876 64.0067 48.1395C62.5603 48.8431 61.8175 50.1332 60.0193 50.0941C58.5729 50.0941 57.1655 49.4686 55.8364 48.9213C53.3736 47.944 50.7935 46.5367 48.1353 47.5531C47.9398 47.6313 47.9007 48.0222 48.1743 48.0613Z" fill="white"/>
<path d="M48.7607 47.8267C48.878 46.5757 53.2172 46.8494 53.96 46.8885C55.3282 46.9667 56.6573 47.1621 58.0256 47.2403C59.1983 47.3185 63.0294 47.0839 63.0685 48.6085C63.1076 49.6249 64.3585 49.8986 64.8667 49.1167C67.1341 45.833 60.2929 45.4421 58.7292 45.4421C56.4619 45.4421 54.1945 45.1684 51.9272 45.403C50.8326 45.5203 47.8225 45.9503 47.9398 47.6312C47.9398 47.7876 48.018 47.9049 48.1353 47.9831C48.2134 48.0222 48.2916 48.0612 48.3698 48.1003C48.5653 48.1003 48.7607 48.0222 48.7607 47.8267Z" fill="white"/>
<path d="M29.4492 47.2404C29.0192 45.3639 25.9309 45.3248 24.4454 45.2076C22.0608 45.0512 19.5589 44.7775 18.5034 47.3967C17.7607 49.2732 17.2525 52.3223 18.5425 54.0815C19.9107 55.9188 23.4681 56.1534 25.3836 55.0979C26.2828 54.5897 25.8137 53.3387 24.8754 53.2606C23.4681 53.1433 21.0444 54.1206 20.1453 52.5178C19.598 51.5405 19.9107 48.8822 20.5362 47.9831C21.3962 46.8103 23.7418 47.1231 25.11 47.1231C26.4782 47.1231 27.8464 47.2013 29.1756 47.5531C29.3319 47.5531 29.4883 47.3967 29.4492 47.2404Z" fill="white"/>
<path d="M27.26 49.1949C25.5791 48.7649 20.458 46.1457 20.2625 49.7422C20.1843 51.2668 21.318 52.0878 22.6471 52.4787C23.2726 52.6741 23.9372 52.7132 24.5627 52.9478C24.6017 52.9478 24.7972 53.0651 24.719 52.9869C24.6017 52.8696 24.7581 52.9478 24.6017 53.1432C24.4845 53.3778 24.3672 53.6123 24.289 53.8469C23.8981 54.7851 25.3445 55.567 25.97 54.8242C26.83 53.8078 27.1427 52.2441 25.9309 51.3841C24.9536 50.7195 23.7026 50.915 22.6471 50.4068C22.4517 50.2895 22.0998 50.0159 22.178 49.8595C22.2562 49.7031 23.3508 49.7422 23.6244 49.7422C24.8363 49.7422 26.0872 50.0159 27.26 49.7422C27.5337 49.7031 27.5337 49.2731 27.26 49.1949Z" fill="white"/>
<path d="M26.0481 45.7939C26.5563 44.8166 27.69 44.6603 28.6673 45.0512C29.0973 45.2075 29.4883 45.4812 29.6446 45.9112C29.9183 46.6931 29.1755 47.3967 29.4492 48.2176C29.6837 48.8431 30.2701 49.0777 30.8565 48.804C32.0683 48.2567 31.9902 46.1067 31.482 45.0903C31.0129 44.1912 30.1137 43.5657 29.1364 43.3702C27.8464 43.1357 24.6408 43.7611 25.4227 45.7548C25.5399 45.9894 25.8918 46.0676 26.0481 45.7939Z" fill="white"/>
<path d="M45.9851 91.5709C46.8843 91.8445 48.0961 91.5318 49.0343 91.5318C49.6207 91.5318 50.168 91.5318 50.7544 91.61C51.2626 91.6881 51.6535 91.8836 52.2008 91.6882C52.6308 91.5318 52.9826 90.9845 52.6699 90.5936C51.9272 89.5772 50.3635 89.8508 49.2298 90.0072C48.2134 90.1245 46.6497 90.2808 45.8679 91.0236C45.6333 91.1799 45.7506 91.4927 45.9851 91.5709Z" fill="white"/>
<path d="M45.8288 91.1408C45.477 91.5317 45.2034 92.0008 45.0079 92.509C44.8515 92.9 44.8906 93.4082 45.2815 93.6036C46.9625 94.5027 49.1908 94.3073 50.989 94.0727C51.8099 93.9554 52.5527 93.8382 52.9827 93.0954C53.4127 92.3527 53.3345 91.4145 52.9436 90.6717C52.3963 89.6162 51.0281 90.3981 51.1845 91.4145C51.2626 92.0008 51.2235 92.0008 50.7154 92.1181C50.1681 92.2745 49.5426 92.2745 48.9953 92.3136C47.9789 92.3527 46.9234 92.3136 45.907 92.1181C46.1025 92.3918 46.2979 92.6263 46.4934 92.9C46.4543 92.3527 46.4934 91.8445 46.3761 91.2972C46.337 91.0235 45.9852 90.9453 45.8288 91.1408Z" fill="white"/>
<path d="M46.6497 84.9643C46.6106 86.7625 47.1579 88.6781 46.9234 90.4763C46.6106 92.6264 49.8553 91.7663 48.878 90.2026C48.3698 89.3426 48.4089 88.0135 48.2134 87.0753C48.0179 86.2543 47.7834 85.3552 47.1188 84.7688C46.9624 84.6125 46.6497 84.7297 46.6497 84.9643Z" fill="white"/>
<path d="M48.878 83.9088C49.2298 86.137 48.7607 88.4044 49.0735 90.6326C49.308 92.3136 51.7708 91.8054 51.2626 90.3199C50.5199 88.1307 50.7153 85.6288 49.3862 83.6742C49.1907 83.4006 48.8389 83.5569 48.878 83.9088Z" fill="white"/>
<path d="M41.8805 72.103C42.7796 72.2202 43.6787 72.3375 44.5778 72.533C45.3597 72.6893 46.1806 73.0803 46.9625 72.9239C47.3925 72.8457 47.4707 72.2593 47.197 71.9857C46.5715 71.3602 45.5551 71.3993 44.7342 71.3993C43.7569 71.3602 42.8187 71.4775 41.8805 71.6339C41.6459 71.6339 41.6459 72.0639 41.8805 72.103Z" fill="white"/>
<path d="M41.5287 71.6729C40.0041 74.8003 45.907 76.2858 47.6662 74.4876C48.1743 73.9403 47.8225 73.0412 47.0407 73.0021C46.0634 73.0021 45.2033 73.4712 44.1869 73.3539C43.0533 73.2366 42.506 72.7675 42.076 71.712C42.0369 71.5166 41.685 71.3993 41.5287 71.6729Z" fill="white"/>
<path d="M46.8843 72.3766C46.8061 72.7285 46.767 73.0803 46.6889 73.4321C46.6107 73.8621 46.8843 74.2922 47.3534 74.2922C47.8225 74.2922 48.0962 73.8621 48.018 73.4321C47.9398 72.963 47.7834 72.5721 47.4707 72.2203C47.2752 72.0248 46.9625 72.1421 46.8843 72.3766Z" fill="white"/>
<path d="M44.4606 74.5658C44.7733 75.8949 44.5778 77.5368 45.3988 78.7096C46.0633 79.6869 47.5879 78.8268 47.0015 77.7714C46.337 76.5986 46.1806 75.3086 45.5551 74.0967C45.2424 73.4712 44.3042 73.9012 44.4606 74.5658Z" fill="white"/>
<path d="M46.4934 74.2921C46.6498 75.5821 46.9234 76.8331 46.9234 78.1622C46.9234 79.2177 48.6435 79.1786 48.5262 78.1622C48.3698 76.7158 47.7834 75.4258 47.1189 74.1357C47.0016 73.823 46.4543 73.9403 46.4934 74.2921Z" fill="white"/>
<path d="M47.0016 85.5897C47.588 85.6679 47.8225 84.847 47.8616 84.417C47.9007 84.1824 47.8616 83.9479 47.9398 83.7133L48.0571 83.5569C48.0962 83.4788 48.1744 83.596 48.018 83.5569C47.9789 83.5569 47.9398 83.5569 47.9007 83.5179C47.8225 83.4397 47.8225 83.4397 47.9007 83.5179C47.9007 83.4006 48.0571 83.8306 48.0571 83.7915C48.2135 84.1433 48.2916 84.5733 48.3698 84.9643C48.5262 85.7852 49.8162 85.7461 50.0117 84.9643C50.3635 83.596 49.4253 81.2896 47.7053 81.6805C46.767 81.876 46.1416 82.736 46.1807 83.6742C46.1416 84.2215 46.3761 85.5116 47.0016 85.5897Z" fill="white"/>
<path d="M73.7406 85.5116C73.6234 90.1245 73.7016 94.7373 74.2098 99.3502C74.327 100.367 75.8907 100.367 75.8125 99.3502C75.4607 94.7373 75.2261 90.1245 75.0307 85.5116C74.9525 84.6906 73.7406 84.6906 73.7406 85.5116Z" fill="white"/>
<path d="M75.2261 83.8697C77.4153 86.8407 79.7217 90.2808 82.81 92.3918C83.5527 92.9 84.2564 91.8054 83.7091 91.219C82.5364 89.8508 81.0899 88.7171 79.839 87.4271C78.5099 86.0979 77.2198 84.7297 75.8125 83.4397C75.4998 83.2051 74.9916 83.557 75.2261 83.8697Z" fill="white"/>
<path d="M76.5552 83.5179C78.3535 83.9479 80.2299 84.0652 82.1063 84.2216C82.9272 84.2998 82.9272 83.0097 82.1063 82.9315C80.3081 82.8143 78.4316 82.8143 76.6334 82.8924C76.2816 82.8924 76.2034 83.4006 76.5552 83.5179Z" fill="white"/>
<path d="M75.3043 81.7587C77.5326 80.0777 79.3308 77.9277 81.2463 75.8949C81.8718 75.2303 80.8554 74.1748 80.2299 74.8785C78.3535 76.9504 76.5553 79.1004 74.9134 81.3287C74.7179 81.5632 75.0698 81.9542 75.3043 81.7587Z" fill="white"/>
<path d="M60.0975 71.9466C59.9802 73.1975 62.013 74.4094 62.8339 75.113C65.5704 77.4195 68.4241 79.5305 71.3169 81.6414C72.1378 82.2278 72.9979 80.8205 72.1379 80.2341C69.7141 78.5923 67.2904 76.9895 64.9058 75.2694C63.9285 74.5658 60.9575 73.0412 60.6448 71.8684C60.5275 71.5947 60.0975 71.6729 60.0975 71.9466Z" fill="white"/>
<path d="M61.3875 94.8546C64.8667 92.1963 67.7986 88.3653 70.5351 84.9643C70.9651 84.417 70.2614 83.6352 69.7532 84.1825C66.7431 87.3489 63.4203 90.789 61.0748 94.5419C60.9184 94.6982 61.1921 95.011 61.3875 94.8546Z" fill="white"/>
<path d="M18.2688 85.3943C18.6206 90.0462 17.9952 94.9328 19.0506 99.5456C19.2461 100.367 20.6143 100.21 20.5752 99.3502C20.458 96.8874 20.0279 94.4637 19.7934 92.0399C19.5979 89.7726 19.5197 87.5443 18.9725 85.3161C18.8943 84.9252 18.2688 85.0034 18.2688 85.3943Z" fill="white"/>
<path d="M19.4416 85.6288C22.0998 89.538 24.9536 93.4081 27.9246 97.0828C28.4719 97.7474 29.4492 96.8091 28.8628 96.1446C25.8527 92.6263 23.3508 88.3261 19.7543 85.3942C19.5979 85.2379 19.3243 85.4333 19.4416 85.6288Z" fill="white"/>
<path d="M20.888 84.2997C25.3836 83.5569 30.1138 86.0979 34.5312 86.6061C35.313 86.6843 35.4694 85.4334 34.7266 85.2379C31.8729 84.5733 29.0583 83.8306 26.1264 83.4006C24.289 83.1269 22.3735 82.8924 20.6534 83.7133C20.3407 83.9088 20.5753 84.3388 20.888 84.2997Z" fill="white"/>
<path d="M21.2789 83.0878C25.5791 80.9378 29.6446 78.2404 33.7102 75.6212C34.3748 75.1912 33.7884 74.1357 33.0848 74.5657C28.941 77.0285 24.7581 79.6868 20.9662 82.6578C20.6925 82.8533 21.0053 83.2051 21.2789 83.0878Z" fill="white"/>
<path d="M7.63575 69.171C9.31672 70.8129 10.3331 73.3148 11.545 75.3085C12.9914 77.6931 14.4769 80.0387 16.0797 82.306C16.5879 83.0488 17.7997 82.3451 17.2915 81.6023C15.4542 79.0614 13.7341 76.4031 11.975 73.823C10.8022 72.0638 9.86401 69.8747 8.02668 68.7019C7.67485 68.5456 7.36211 68.9365 7.63575 69.171Z" fill="white"/>
<path d="M1.30277 82.7361C5.79837 83.2833 10.3722 83.0097 14.9068 83.127C15.8842 83.1661 15.8842 81.5633 14.9068 81.6024C10.3722 81.6415 5.79837 81.8369 1.30277 82.306C1.02912 82.306 1.02912 82.697 1.30277 82.7361Z" fill="white"/>
<path d="M6.3457 94.6983C9.31671 91.7664 12.3659 88.8736 15.4542 86.0589C16.1969 85.3944 15.0633 84.2607 14.3596 84.9643C11.3495 87.8572 8.3785 90.8282 5.68114 94.0337C5.29022 94.5028 5.91569 95.1283 6.3457 94.6983Z" fill="white"/>
<path d="M27.4164 46.7712C27.4164 47.0058 27.5337 47.2013 27.5728 47.4358C27.6119 47.6313 27.5337 47.8658 27.4555 47.9831C27.3773 48.1395 27.3382 48.1786 27.1819 48.2177C26.7128 48.2958 26.4 48.2958 26.0091 48.6477C25.7354 48.8822 25.6964 49.3513 25.8918 49.6641C26.2827 50.3677 27.1428 50.485 27.8464 50.2505C28.511 50.0159 29.0192 49.4295 29.2147 48.7649C29.371 48.2177 29.2928 47.5922 28.9801 47.084C28.7455 46.6931 28.2373 46.263 27.7292 46.4194C27.5337 46.4194 27.4164 46.5758 27.4164 46.7712Z" fill="white"/>
<path d="M82.3409 9.75093C82.81 12.2528 82.38 14.8329 82.8882 17.3739C83.3964 19.8367 85.1165 21.7131 87.462 22.6513C92.3485 24.5669 97.9387 20.8531 98.916 15.8884C100.167 9.47728 97.0787 -2.56311 88.2438 0.486081C82.2236 2.55797 81.6373 8.96908 82.1455 14.442C82.2627 15.6148 84.1001 15.6929 84.0219 14.442C83.8264 9.55547 84.0219 2.67524 90.433 2.08886C94.6159 1.73703 96.3359 6.62355 96.805 9.94639C97.3914 14.2856 96.5314 19.6022 91.4494 20.814C88.0093 21.5959 85.1946 19.2503 84.5692 16.0057C84.1782 13.8165 84.2564 11.4319 83.0055 9.51638C82.7709 9.08636 82.2627 9.36001 82.3409 9.75093Z" fill="white"/>
<path d="M80.9336 38.4446C80.269 40.9856 80.3081 43.8393 80.0345 46.4585C79.7218 49.3513 79.3699 52.2441 79.1354 55.176C78.7054 60.9226 79.0963 66.6691 79.3308 72.4157C79.5263 78.045 79.9954 83.4788 81.0509 89.0299C81.7936 92.8218 82.2237 98.6465 85.5465 101.227C86.5629 102.008 88.1266 101.031 87.4229 99.7802C86.2892 97.7865 85.351 96.0274 84.8037 93.76C84.2564 91.4927 83.8264 89.1471 83.3964 86.8407C82.38 81.4069 82.1846 76.0513 81.8718 70.5393C81.5591 65.1836 81.2073 59.828 81.4418 54.4333C81.5591 51.6577 81.7545 48.8822 81.8327 46.1066C81.9109 43.6438 82.1455 40.8683 81.4027 38.4837C81.3245 38.2491 81.0118 38.21 80.9336 38.4446Z" fill="white"/>
<path d="M99.8542 39.0701C99.5415 42.0802 100.128 45.0903 100.011 48.1004C99.8933 51.0323 99.8151 53.9642 99.8542 56.9352C99.9324 63.1118 99.346 69.3274 98.6423 75.4258C98.0169 81.1333 97.1568 86.958 95.7886 92.5482C95.2413 94.8155 94.5768 97.4738 92.974 99.272C92.3094 100.015 91.3712 100.64 90.3939 100.875C88.9475 101.188 88.2047 100.484 87.3056 99.4675C86.641 98.7247 85.1946 99.5066 85.5856 100.484C87.4229 105.136 93.2867 103.416 95.5932 100.132C97.235 97.7865 97.9778 94.8155 98.5642 92.04C99.2678 88.7562 99.8542 85.4334 100.362 82.1496C101.457 74.9567 102.239 67.4901 102.239 60.2189C102.239 56.5443 101.926 52.8696 101.926 49.1949C101.926 45.7939 101.574 42.2365 100.48 39.031C100.362 38.6401 99.8933 38.7182 99.8542 39.0701Z" fill="white"/>
<path d="M79.1744 69.562C77.6108 70.6566 76.1252 61.079 76.0862 60.5708C75.6561 57.1307 75.4216 53.6515 75.2652 50.2114C75.0307 44.2303 75.3043 37.4282 78.8226 32.3071C80.8554 29.3752 83.8264 27.6552 87.2274 26.717C90.5503 25.8178 94.7331 25.2706 97.7823 27.2643C101.066 29.4143 102.669 33.6363 103.763 37.2328C105.053 41.5329 105.523 46.0285 105.718 50.5241C105.874 54.3551 106.07 58.3034 105.288 62.0563C104.623 65.0273 103.568 68.8974 100.753 70.5393C99.2287 71.4384 100.597 73.7449 102.122 72.8848C105.21 71.1257 106.734 67.451 107.594 64.1673C108.611 60.3362 108.572 56.5443 108.494 52.6351C108.376 47.3185 107.868 42.002 106.265 36.92C104.975 32.8153 103.138 28.437 99.6196 25.7788C96.375 23.3159 92.1921 23.3941 88.3611 24.1369C84.5692 24.8796 80.8554 26.4824 78.2753 29.4143C73.2324 35.0827 72.8024 43.4484 73.1542 50.6414C73.3888 55.9188 73.7406 61.5872 75.2652 66.6692C75.8125 68.4674 77.4935 72.6112 79.9563 70.5002C80.4254 70.0311 79.7608 69.1711 79.1744 69.562Z" fill="white"/>
<path d="M75.4216 65.9654C74.9916 70.422 73.467 75.1521 73.7797 79.6477C73.8188 80.2341 74.7179 80.625 74.9916 79.9604C75.4607 78.944 75.3434 78.0449 75.4216 76.9503C75.4998 75.543 75.7343 74.0966 75.8516 72.6893C76.0471 70.5783 76.9462 67.8028 76.008 65.77C75.8516 65.4963 75.4216 65.6918 75.4216 65.9654Z" fill="white"/>
<path d="M17.6042 65.9655C17.4479 71.5166 17.6824 77.0677 18.4643 82.5797C18.5815 83.4397 19.8716 83.1661 19.9107 82.3842C19.9889 81.1333 19.6761 79.9605 19.4807 78.7487C19.1679 77.0286 19.0506 75.3085 19.0115 73.5494C18.9334 71.0084 19.1288 68.2329 18.0733 65.8482C17.9952 65.5746 17.6042 65.731 17.6042 65.9655Z" fill="white"/>
<path d="M66.5477 67.1773C67.7204 67.2946 69.0496 66.3173 70.1832 65.9655C71.6296 65.5355 73.0761 65.4573 74.5616 65.6527C75.578 65.77 75.6561 64.2845 74.7961 63.9718C73.1542 63.4245 71.3169 64.0109 69.7923 64.5582C68.6195 64.9882 66.7431 65.4964 66.2349 66.7473C66.1567 66.9819 66.3913 67.1382 66.5477 67.1773Z" fill="white"/>
</svg>
