<svg width="180" height="80" viewBox="0 0 180 80" fill="none" xmlns="http://www.w3.org/2000/svg">
<path d="M161.09 49.3096C161.841 49.0443 162.593 48.8674 163.389 48.6462C163.698 49.3096 164.848 49.2211 164.98 48.3367C164.98 48.2925 164.98 48.2925 164.98 48.2482C169.755 47.1427 174.839 46.5678 178.994 45.3737C180.143 45.0199 179.834 43.2068 178.64 43.5164C174.573 44.4893 169.622 45.0642 164.892 46.1697C164.715 45.1526 164.361 44.1355 164.052 43.1183C163.787 42.1454 162.239 42.4108 162.505 43.4279C162.77 44.4893 163.079 45.5064 163.212 46.612C162.151 46.8773 161.134 47.1869 160.162 47.5407C159.101 45.3737 159.498 42.057 159.056 39.9343C158.835 38.9614 157.332 39.2267 157.509 40.2438C157.863 42.1897 157.774 44.2239 158.04 46.214C158.128 46.8331 158.216 47.5407 158.482 48.204C157.863 48.4693 157.244 48.7347 156.625 49.0443C155.122 47.7176 155.122 43.2952 154.901 41.5705C154.547 38.696 154.326 35.8215 154.017 32.9912C153.928 32.0183 152.469 32.3279 152.558 33.2566C152.823 36.8829 152.956 40.5092 153.398 44.1355C153.575 45.5506 153.707 48.602 154.945 50.0172C154.459 50.3267 153.972 50.6805 153.486 51.0343C153.442 50.9458 153.398 50.8574 153.398 50.7247C153.619 50.5036 153.751 50.1941 153.663 49.8845C153.619 49.7518 153.575 49.5749 153.575 49.398C153.53 49 153.265 48.7789 152.956 48.7347C152.071 46.9658 151.806 43.1183 151.497 41.7032C150.922 39.3151 150.215 36.9713 149.552 34.5833C148.844 32.0183 148.579 28.79 146.28 27.0653C145.75 26.6673 145.087 27.4633 145.529 27.9056C146.59 29.0996 147.297 30.8685 147.827 32.8586C147.651 32.9912 147.518 33.2123 147.606 33.5661C148.756 38.1211 149.419 42.7203 150.48 47.2753C150.524 47.3638 150.524 47.4964 150.568 47.5849C151.01 49.4423 151.541 51.2996 152.204 53.1128C152.425 53.7319 153.309 53.8204 153.751 53.4223C155.52 51.8745 157.597 50.769 159.896 49.9287C159.985 49.9729 160.073 50.0172 160.162 50.0614C160.515 50.0172 160.957 49.7076 161.09 49.3096Z" fill="#46548E"/>
<path d="M142.257 44.1354C142.965 41.3051 144.821 38.5633 144.202 35.5561C144.07 34.8928 142.92 34.8928 142.965 35.6446C143.097 38.4749 141.373 40.9514 140.798 43.649C140.577 44.5777 141.992 45.1083 142.257 44.1354Z" fill="#46548E"/>
<path d="M143.495 48.0271C143.981 45.5064 145.44 43.2952 145.44 40.686C145.44 39.8016 144.114 39.6689 144.07 40.5976C143.893 43.1625 142.257 45.3737 141.904 47.9386C141.771 48.9558 143.318 49 143.495 48.0271Z" fill="#46548E"/>
<path d="M145.838 44.4892C144.998 46.8773 143.539 49.0442 142.832 51.5207C142.567 52.4936 143.937 52.9801 144.335 52.0514C145.263 49.6634 146.457 47.408 147.209 44.9757C147.474 44.0912 146.148 43.6048 145.838 44.4892Z" fill="#46548E"/>
<path d="M134.875 52.6263C135.891 49.5307 136.864 46.2581 137.173 43.0298C137.262 42.1896 136.024 42.1012 135.891 42.9414C135.405 46.1697 133.902 49.1326 133.46 52.3167C133.327 53.157 134.609 53.4223 134.875 52.6263Z" fill="#46548E"/>
<path d="M137.306 47.7176C136.687 49.8403 135.184 51.6976 135.14 53.9973C135.14 54.7048 135.98 55.2355 136.554 54.7048C136.82 54.4395 136.997 54.2626 137.173 53.953C137.439 53.5992 137.306 53.157 136.997 52.9359C137.394 51.2996 138.234 49.8403 138.676 48.1598C138.898 47.3195 137.571 46.8331 137.306 47.7176Z" fill="#46548E"/>
<path d="M140.401 49.4864C140.445 48.6462 139.207 48.5578 139.119 49.398C138.942 50.4594 138.942 51.4765 139.074 52.5378C139.163 53.4665 140.577 53.2012 140.489 52.2725C140.401 51.3438 140.356 50.4151 140.401 49.4864Z" fill="#46548E"/>
<path d="M31.5164 63.6379C31.8259 64.5666 33.3732 64.0359 33.1521 63.1072C30.9859 55.3681 35.9372 47.9386 34.0805 40.2438C33.9036 39.4478 32.7542 39.6689 32.8427 40.4649C34.0805 48.3366 28.8197 55.8546 31.5164 63.6379Z" fill="#46548E"/>
<path d="M29.8807 63.1514C27.4051 57.3582 30.0133 50.99 30.8975 45.1083C30.9859 44.4008 29.7923 44.1354 29.6155 44.843C28.245 50.6362 25.1062 58.2869 28.245 63.9474C28.8197 64.9203 30.3228 64.2128 29.8807 63.1514Z" fill="#46548E"/>
<path d="M25.7694 63.6821C24.3547 58.508 25.5483 53.2897 26.7419 48.204C26.9188 47.3638 25.7252 46.9215 25.4599 47.7618C23.9568 53.0243 22.3654 58.8176 24.1779 64.2128C24.5315 65.0973 26.0346 64.5666 25.7694 63.6821Z" fill="#46548E"/>
<path d="M17.7677 62.1785C17.9446 62.3997 18.2098 62.4439 18.4309 62.3554V62.3997C18.2098 63.3283 19.5803 63.8148 19.8455 62.8861C20.7297 59.5694 20.376 56.12 21.5254 52.8917C21.8349 52.0956 20.5528 51.6534 20.2434 52.4494C19.1382 55.2797 19.1824 58.3311 18.6519 61.2941C18.3424 60.8961 18.1214 60.4981 17.9446 60.0558C17.6351 59.304 16.4857 59.8347 16.7952 60.6307C16.972 61.1614 17.3257 61.6921 17.7677 62.1785Z" fill="#46548E"/>
<path d="M38.3686 62.5323C37.3961 56.916 38.0592 51.2554 38.8549 45.6833C38.9875 44.843 37.6613 44.7546 37.5287 45.5948C36.5561 51.2996 35.6277 57.0929 36.8214 62.8419C36.9982 63.8148 38.5455 63.5052 38.3686 62.5323Z" fill="#46548E"/>
<path d="M47.8734 60.1C45.6187 56.916 46.1492 51.6976 47.2987 48.204C47.5639 47.4522 46.4145 47.0542 46.1492 47.806C44.6462 51.565 43.762 57.8447 46.7239 61.1614C47.3871 61.869 48.4481 60.8961 47.8734 60.1Z" fill="#46548E"/>
<path d="M50.9237 60.8518C49.4648 58.2869 49.4206 55.4123 49.1996 52.5378C49.1112 51.5207 47.6523 51.8745 47.6965 52.8032C47.8733 55.6777 47.6081 59.3482 49.5975 61.692C50.1722 62.3996 51.3658 61.6478 50.9237 60.8518Z" fill="#46548E"/>
<path d="M54.5487 62.0016C55.4329 62.0016 55.7866 60.7191 54.8582 60.4538C52.471 59.7462 52.4268 55.8104 51.7636 53.8203C51.4984 53.0243 50.0837 53.4665 50.3048 54.3068C51.0563 56.5622 51.1447 62.0016 54.5487 62.0016Z" fill="#46548E"/>
<path d="M57.4223 62.7092C58.1296 63.1514 59.0138 62.2227 58.4391 61.5594C57.0686 60.0558 56.8034 58.2427 56.2287 56.3411C55.9634 55.4566 54.5488 55.6777 54.7698 56.6064C55.3003 58.7291 55.3887 61.4267 57.4223 62.7092Z" fill="#46548E"/>
<path d="M60.34 62.7092C61.2241 63.1956 61.9757 62.0458 61.2241 61.4267C60.2958 60.6307 60.1189 59.2155 59.8537 58.11C59.5884 57.0486 57.9527 57.3582 58.218 58.4195C58.5274 59.9673 58.7927 61.9132 60.34 62.7092Z" fill="#46548E"/>
<path d="M70.5962 71.6865C71.2593 71.4654 71.613 70.3156 70.7288 70.1387C68.209 69.608 66.7059 66.5566 65.5565 64.5223C64.4513 62.4881 63.0809 59.9673 62.8156 57.5793C62.7272 56.8717 61.7988 57.0486 61.6662 57.6235C61.1357 60.2327 63.4787 64.0801 64.5839 66.247C65.6007 68.1486 67.8553 72.5267 70.5962 71.6865Z" fill="#46548E"/>
<path d="M81.6924 71.9076C80.4546 71.9519 79.7915 72.0845 78.8189 71.1558C77.6695 70.006 77.4927 68.1044 77.3158 66.5566C76.9622 63.6821 77.3158 60.6307 76.3875 57.8004C76.1222 57.0486 74.9728 57.2255 75.1497 58.0215C76.078 62.9303 73.6908 74.8264 81.825 73.8977C82.9744 73.8092 82.8418 71.8634 81.6924 71.9076Z" fill="#46548E"/>
<path d="M88.9867 60.896C88.6773 60.1884 87.4837 60.5865 87.7047 61.294C89.6056 67.1315 89.2078 73.6765 92.877 78.8506C93.5401 79.7793 95.1316 78.718 94.5569 77.7451C91.3298 72.5267 91.3298 66.4681 88.9867 60.896Z" fill="#46548E"/>
<path d="M98.9335 67.0873C98.4914 66.4239 97.3862 66.8662 97.7399 67.6622C100.127 72.3941 105.078 76.2415 110.472 74.1188C111.621 73.6765 110.781 71.9961 109.632 72.3941C105.211 73.9861 101.277 70.5809 98.9335 67.0873Z" fill="#46548E"/>
<path d="M116.749 68.2371C117.854 67.9275 117.589 66.247 116.396 66.4239C112.594 67.0873 109.013 65.053 105.653 63.6379C104.857 63.2841 104.238 64.5666 104.99 65.0088C108.35 67.043 112.682 69.3426 116.749 68.2371Z" fill="#46548E"/>
<path d="M121.347 58.5522C116.042 57.712 110.737 58.5522 105.83 55.9431C105.034 55.545 104.371 56.518 105.078 57.0929C109.499 60.6307 115.954 59.8347 121.259 60.3654C122.364 60.4096 122.452 58.7291 121.347 58.5522Z" fill="#46548E"/>
<path d="M111.179 49.7518C115.335 52.1841 120.286 51.6092 124.972 51.9187C125.149 54.3952 127.934 56.341 130.1 57.0044C131.205 57.3582 131.692 55.8104 130.675 55.3239C129.26 54.7048 127.271 53.555 126.563 52.0514C126.652 52.0514 126.696 52.0514 126.785 52.0956C127.934 52.2725 128.022 50.5036 126.917 50.3267C121.877 49.4864 116.617 50.6362 111.842 48.4693C111.047 48.1155 110.472 49.3538 111.179 49.7518Z" fill="#46548E"/>
<path d="M73.1161 42.7203C73.6908 42.4549 74.3097 42.1896 74.8844 41.9685C75.0612 41.9685 75.2381 41.9243 75.3707 41.7916C76.4317 41.3936 77.5369 41.0398 78.6421 40.7302C78.9515 40.8629 79.3494 40.8187 79.5705 40.4649C84.7428 39.094 90.313 38.4306 95.2643 36.8386C96.3253 36.4848 96.06 34.8043 94.9548 35.1139C91.4182 35.9541 87.9258 36.8828 84.3891 37.8115C85.3617 35.0697 86.4227 32.5489 88.5447 30.382C89.1636 29.7629 88.2794 28.7015 87.6163 29.3206C85.2733 31.4876 82.7534 34.9812 82.6208 38.298C82.0461 38.4306 81.4272 38.6075 80.8525 38.7402C80.6757 38.7844 80.4546 38.8286 80.2778 38.8729C80.6757 37.9442 81.0735 37.0597 81.604 36.131C82.444 34.7159 83.4165 33.3892 84.1681 31.9298C84.5217 31.2222 83.5492 30.5147 83.1071 31.2222C81.5598 33.6987 78.8631 36.2637 78.2884 39.2709C77.6253 39.4035 76.9622 39.5804 76.2991 39.7573C76.5643 39.1824 76.7854 38.6517 77.0948 38.0768C77.6695 36.9713 78.2442 35.9099 78.6421 34.7159C78.9515 33.9199 77.7137 33.5219 77.4043 34.2736C76.4759 36.3079 74.8402 38.2537 74.2655 40.4207C73.5582 40.7302 72.8508 41.1282 72.3204 41.6147C71.7899 42.1011 72.4088 43.0298 73.1161 42.7203Z" fill="#46548E"/>
<path d="M89.9593 35.2024C91.3298 34.4063 92.0813 33.4334 93.717 33.0354C95.839 32.5047 98.6683 33.2565 100.79 33.5661C105.388 34.1852 109.588 36.131 114.141 36.7502C115.114 36.8828 115.423 35.3792 114.495 35.1139C109.543 33.6988 104.636 32.1952 99.5083 31.6203C95.7506 31.178 93.717 31.6645 90.9319 32.9027C91.1529 32.1952 91.4182 31.5318 91.7276 30.8685C92.0371 30.1167 90.8435 29.4976 90.4456 30.2494C89.6499 31.7087 89.0752 32.8143 88.7657 34.4063C88.6331 35.0255 89.4288 35.5119 89.9593 35.2024Z" fill="#46548E"/>
<path d="M28.8639 30.0282C30.5438 28.4362 29.3502 26.0924 27.3166 25.5617C25.4599 23.837 21.7907 23.9254 20.6412 26.4904C19.6245 28.7457 20.9949 31.1338 23.3821 31.576C25.1947 31.8856 27.4935 31.3107 28.8639 30.0282ZM22.0117 27.994C21.9233 25.9597 24.5758 25.429 26.0788 26.2693C26.0346 26.5788 26.123 26.9326 26.4767 27.1537C27.2724 27.6844 28.2892 27.9497 27.5377 28.7015C26.7419 29.4975 25.4157 29.8513 24.3105 29.8513C23.0727 29.8513 22.0559 29.2764 22.0117 27.994Z" fill="white"/>
<path d="M173.91 48.204C175.192 47.6733 174.22 45.8602 172.982 46.3024C168.561 47.806 164.184 49.1327 159.631 50.194C156.227 50.99 152.823 51.1227 149.552 52.3167C150.082 48.602 148.093 43.8701 147.43 40.4207C146.059 33.6988 144.202 27.1095 142.257 20.5645C141.683 18.7071 140.71 14.5059 138.676 13.0023C138.058 11.3218 137.262 9.7298 137.085 7.91665C142.39 6.76685 147.651 5.44015 153.132 4.82102C160.25 4.06923 167.412 2.56564 174.529 2.12341C175.723 2.03496 175.634 -0.0435275 174.396 0.000695708C167.854 0.266035 161.355 2.03496 154.812 2.69831C148.579 3.31744 142.655 4.86525 136.599 6.36884C136.378 6.28039 136.157 6.32461 135.98 6.50151C134.698 6.81107 133.46 7.12063 132.178 7.43019C131.294 7.65131 131.559 8.93378 132.443 8.80111C133.46 8.62422 134.477 8.44733 135.449 8.22621C135.405 9.11068 135.67 10.0836 135.936 10.9238C136.068 11.3661 136.201 11.8083 136.378 12.2505C133.195 11.9852 129.658 13.2677 127.05 14.8155C126.298 15.2577 126.829 16.496 127.669 16.0979C130.454 14.8155 134.742 13.135 137.35 15.0366C137.483 15.3904 137.615 15.7884 137.748 16.1422C137.925 16.6286 138.323 16.7171 138.676 16.6286C140.135 19.4147 140.666 22.6872 141.506 25.6502C142.92 30.6474 144.158 35.6888 145.175 40.7745C145.75 43.7374 147.518 48.2924 147.253 51.6092C146.988 51.4323 146.678 51.3881 146.324 51.5207C144.335 52.4494 142.655 52.7147 140.445 52.7147C138.765 52.7147 137.085 52.759 135.538 53.5108C135.361 53.5992 135.272 53.6877 135.228 53.8203C133.681 45.8602 130.365 40.0227 122.01 37.5462C113.787 35.1139 105.476 32.7259 96.8999 32.8143C97.9167 31.9741 98.7567 30.9127 99.2872 29.7629C99.6851 28.9669 98.3588 28.3478 97.9167 29.0996C96.9442 30.7358 95.3969 32.151 93.5844 33.0354C93.0981 33.0796 92.6118 33.1239 92.1255 33.2123C91.9487 33.1681 91.7718 33.1239 91.595 33.1239C85.9364 33.5661 81.7808 37.4135 76.918 39.9342C74.3981 41.2167 71.9225 41.2609 69.2258 40.9514C67.9437 40.8187 66.7059 40.4649 65.5123 40.0669C64.6724 39.8016 63.9208 39.4036 63.2135 38.9171C61.8431 37.7231 61.5336 36.6175 62.2409 35.6004C62.7714 35.8215 63.1693 35.3793 63.2135 34.937C69.9773 34.8044 77.5369 28.2151 82.3113 24.633C88.5889 19.9454 96.9884 21.8912 104.327 21.5374C111.046 21.2278 117.899 20.6087 124.618 19.9454C125.149 19.9011 125.414 19.4147 125.37 18.9724C127.227 18.7956 130.454 18.486 130.719 18.7071C133.372 21.3163 134.654 25.7386 135.715 29.2322C137.881 36.2637 140.268 43.6048 141.064 50.9458C141.196 52.1398 143.053 52.0072 143.097 50.8132C143.407 44.3123 140.312 37.6346 138.632 31.4876C137.218 26.2251 135.405 20.476 131.338 16.6728C130.94 16.2748 130.454 16.2748 130.012 16.5844C128.243 17.8669 126.121 17.5131 124.088 17.8226C123.911 17.8669 123.778 17.9553 123.69 18.088C117.899 17.8226 112.019 18.7071 106.272 19.2378C99.7735 19.8127 93.2307 18.8398 86.7763 20.0338C83.8144 20.6087 81.2503 22.5545 78.8189 24.5446C78.9073 23.9254 78.4652 23.2621 77.6253 23.3505C73.6466 23.8812 70.0657 25.6502 66.3523 27.1095C60.9147 29.2765 56.1402 27.198 50.6584 27.7729C50.4816 27.7729 50.3048 27.9055 50.2164 27.994C50.6142 27.2864 50.9679 26.8884 51.2774 27.0211C51.9405 27.3749 52.8246 26.5788 52.2057 25.9597C52.0731 25.827 51.9847 25.7386 51.8521 25.6502C52.0289 25.2964 51.9847 24.8541 51.5868 24.5446C49.7743 23.1294 46.6355 22.9083 44.4251 22.7314C44.1157 22.6872 43.8504 22.9083 43.7178 23.1294C43.5852 23.1294 43.4525 23.1737 43.3641 23.3063C42.9221 23.7928 42.48 24.3235 42.0821 24.8541C43.0105 22.9083 43.8062 20.8298 45.4861 19.3705C46.1492 18.7956 45.3977 17.6458 44.6462 18.088C44.602 17.9553 44.5135 17.7784 44.3367 17.69C41.8611 15.7442 36.6003 17.292 33.6826 17.2035C25.5041 17.0266 17.7235 13.7983 9.50085 14.0195C8.6609 14.0637 8.57248 15.2577 9.41244 15.3019C16.3531 15.7884 23.0285 17.5573 29.8365 18.7071C33.9478 19.4147 39.2086 17.9553 43.1431 19.282C41.8611 20.6972 41.1095 22.643 40.3138 24.3677C39.9159 25.2521 41.0653 25.7828 41.7284 25.2964C37.8823 30.5589 36.3793 37.2809 35.053 43.5605C33.771 49.796 31.5164 57.0044 33.1521 63.3725C27.7587 62.9303 22.3212 63.0188 16.9278 62.3554C13.4796 61.9574 10.0313 61.3383 6.67154 60.4096C4.46115 59.7905 2.78124 59.304 0.52664 59.7905C-0.313311 59.9674 -0.0922715 61.2056 0.791887 61.1172C3.6654 60.8076 6.58313 62.2227 9.27981 62.8861C11.7555 63.5052 14.2753 63.9032 16.751 64.257C22.5422 65.1415 28.4219 65.2299 34.2573 65.5395C34.4341 65.6279 34.6552 65.6279 34.8762 65.6279C37.0866 65.4068 38.9433 65.5395 41.0653 64.9646C42.3031 64.6108 41.9937 62.7976 40.7117 63.0188C39.076 63.2399 37.6171 63.1072 36.0256 63.2841C34.2131 63.5052 34.8762 57.4024 34.9646 56.341C35.2299 53.0685 35.9814 49.8402 36.5561 46.6562C37.8381 39.0056 39.4296 30.5589 44.2925 24.2792C45.3093 24.5003 46.3703 24.6772 47.3871 24.9426C48.227 25.1637 49.0228 25.4733 49.7743 25.7386C47.7407 27.3306 46.1934 32.5932 45.8398 33.743C42.7894 43.0299 40.8885 52.8916 41.5958 62.665C41.6842 63.9474 43.7178 63.7705 43.8062 62.5323C43.8062 62.267 43.8504 62.0458 43.8504 61.7805C43.8504 61.6036 43.8062 61.4709 43.762 61.2941C43.4083 53.4665 44.6904 45.9486 46.6797 38.3864C46.9008 37.4577 48.7575 30.8685 50.2164 28.1709C50.0395 28.5689 50.2606 29.188 50.7911 29.2322C55.2119 29.586 59.4558 30.8685 63.8766 30.1609C68.6511 29.4091 72.9392 26.6231 77.6695 25.5175C76.7853 26.2251 75.9012 26.8884 75.017 27.4633C71.2151 29.9398 65.8218 33.6546 61.1357 33.3892C60.3842 33.345 60.0747 34.4948 60.7821 34.7601C58.2622 39.6247 63.9208 42.3665 68.1648 43.1183C71.0383 43.6048 73.9118 43.8259 76.6969 42.6761C82.0019 40.5091 86.2458 36.1753 92.1255 35.5561C92.4792 35.5119 92.7444 35.335 92.877 35.1139C93.3191 35.0255 93.7612 34.8928 94.2033 34.7159C102.028 34.7601 109.676 36.2637 117.191 38.696C119.976 39.6247 122.983 40.1554 125.635 41.4821C125.149 41.7916 125.326 42.6319 125.989 42.7203C127.182 42.853 127.757 45.4179 127.757 46.3908C127.801 47.5406 129.57 47.7175 129.57 46.5235C129.57 45.8602 129.393 44.9757 129.083 44.0912C131.78 47.1868 132.708 52.4936 133.283 56.3853C133.239 56.3853 133.195 56.3853 133.195 56.3853C130.94 57.0044 129.128 55.8546 127.138 54.9259C126.785 54.749 126.387 54.5721 126.033 54.4395C126.254 54.2626 126.475 54.0857 126.652 53.9088C127.801 52.6263 128.995 50.9016 129.216 49.1327C129.349 48.1598 127.801 47.8502 127.536 48.7789C127.271 49.8845 126.519 50.99 125.945 51.9187C125.635 52.361 125.326 52.8032 124.928 53.157C124.839 53.1128 124.751 53.0243 124.618 53.0243C124.442 52.9801 124.22 52.9359 124.044 52.8916C123.911 52.8032 123.778 52.8032 123.646 52.8032C120.595 52.1841 117.545 51.8745 114.583 50.7247C111.179 49.398 108.04 47.6733 104.371 47.2753C103.664 47.1869 103.443 48.2924 104.106 48.4693C107.598 49.398 110.693 51.0343 113.92 52.5821C116.838 53.953 119.844 54.3068 122.983 54.8817C122.629 55.3681 123.248 56.0315 123.778 55.6335C123.823 55.5893 123.867 55.5893 123.911 55.545C124.265 57.5351 124.928 60.2327 122.762 61.3383C120.949 62.267 118.031 61.4267 116.175 60.9845C112.196 60.0116 108.482 58.2426 104.548 57.1371C103.62 56.8717 103.222 58.1542 104.062 58.508C109.234 60.7634 114.76 63.5494 120.507 63.859C120.949 63.9032 121.391 63.859 121.789 63.8148C121.789 63.9032 121.789 63.9917 121.789 64.1243C122.983 68.1044 119.49 69.2984 116.396 70.404C114.583 68.812 112.24 67.618 110.118 66.5124C108.173 65.4953 106.051 64.7435 103.841 65.0972C103.045 65.2299 103.133 66.4682 103.929 66.5124C108.04 66.7335 110.604 69.6965 113.92 71.5096C113.478 71.8634 113.478 72.4383 113.743 72.8363C110.56 76.728 104.238 73.6323 99.9061 73.1459C99.1104 67.618 97.342 60.0116 92.0813 57.3582C89.6498 56.1642 85.9806 56.0315 84.8754 58.3311C83.3723 56.0757 81.2945 53.8646 78.7305 53.4665C76.2548 53.0685 73.8676 53.7319 73.6024 56.5179C73.4697 57.7562 74.2213 59.5693 74.796 61.3383C73.8676 59.7905 72.7624 58.2869 72.0109 57.2255C70.331 54.8375 67.4133 51.0785 64.0535 51.3881C58.0854 51.963 59.5442 59.0387 62.3293 64.0801C60.2074 63.2399 57.7759 63.063 55.5655 62.5323C51.9405 61.6478 48.8901 59.5251 44.9998 59.6578C44.2041 59.702 44.0715 60.8076 44.9114 60.9403C48.0944 61.3383 50.8353 62.7976 53.753 63.9474C53.532 64.1686 53.3109 64.3455 53.1341 64.5666C51.7636 66.2028 51.4542 68.1044 52.8688 69.8291C55.1677 72.7036 61.0915 71.7307 63.9208 70.3156C65.1144 69.7407 64.2303 67.9718 63.0367 68.4582C61.0031 69.2985 58.6159 69.608 56.4497 69.3427C55.2561 69.21 53.6204 68.4582 53.9298 66.9988C54.1509 65.9375 54.9908 65.0973 55.9634 64.6992C58.5275 65.4068 61.0915 65.5837 63.4787 66.9988C63.7882 67.1757 64.0977 67.1757 64.3629 67.0873C64.4071 67.1315 64.4513 67.1757 64.4513 67.22C64.2303 67.3969 64.1419 67.618 64.3187 67.9275C66.7501 71.775 69.2258 74.5168 74.1329 73.8534C75.017 73.7208 75.6801 73.4112 76.1222 72.969C77.4043 76.2415 81.383 77.8778 84.9196 77.3028C86.4227 77.0375 87.6605 76.4184 88.5004 75.5339C89.2962 77.6124 91.3298 79.1602 93.4517 79.7794C96.5021 80.6638 99.5966 78.718 99.3314 75.4013C99.3314 75.4013 99.3314 75.4013 99.3314 75.357C99.5966 75.2244 99.8619 75.0475 99.9503 74.6937C104.636 76.3742 113.92 79.2929 115.954 73.1016C117.943 72.6152 120.065 71.4654 121.568 70.2714C123.646 68.6351 124.22 66.1586 123.071 63.7705C123.071 63.7263 123.027 63.6821 122.983 63.6821C125.9 62.7092 126.785 59.6578 126.077 56.3853C127.05 56.916 127.978 57.5793 128.376 57.7562C130.144 58.5964 132.178 59.3482 133.902 58.0215C134.035 57.9331 134.123 57.7562 134.167 57.6235C134.919 57.7562 135.803 57.1813 135.67 56.2084C135.626 55.7662 135.538 55.3681 135.449 54.9259C135.582 55.0586 135.803 55.147 136.068 55.1028C139.605 54.3952 144.114 55.8546 147.209 53.5108C147.474 54.2183 148.358 54.5721 148.933 54.1741H148.977C157.2 51.6976 165.82 51.5649 173.91 48.204ZM73.1603 71.6865C70.1542 72.173 68.6069 70.5367 66.927 68.7235C67.3248 68.5024 67.4575 67.8833 66.9712 67.4853C64.6724 65.5395 63.2577 62.3112 62.4178 59.5251C61.5778 56.7391 62.0641 51.6534 66.0428 53.9972C68.43 55.4124 70.1542 58.1542 71.5246 60.4538C72.7182 62.4439 73.2929 64.8319 74.4865 66.7335C74.5749 66.8662 74.6634 66.9546 74.796 67.0431C75.1054 69.0773 75.6801 71.2443 73.1603 71.6865ZM84.1239 75.1359C80.6314 75.8435 78.0674 73.8534 77.0506 70.802C77.3158 69.21 76.9622 67.3526 76.6085 65.849C76.6085 65.7606 76.5643 65.7164 76.5201 65.6279C77.5369 62.4439 73.2487 56.7833 75.9454 55.2355C79.5262 53.2012 83.1955 59.5693 84.3891 61.8689C85.9364 64.8761 86.5111 67.9718 87.2626 71.2001C87.351 71.5538 87.5721 71.775 87.7931 71.9076C87.5721 73.4554 86.4669 74.6495 84.1239 75.1359ZM97.2978 75.0917C96.6347 77.2144 95.7948 78.2315 93.4517 77.4797C91.595 76.9048 90.1361 75.4013 89.6941 73.4997C90.4898 71.5981 90.2688 69.21 88.9425 67.1315C88.2794 64.655 86.9974 62.1343 85.9364 60.1885C85.8922 60.1 85.8038 59.9674 85.7596 59.8789C85.9806 57.8446 87.9257 57.9331 89.5614 58.3311C91.4182 58.7733 92.5676 60.0116 93.6728 61.4709C96.5021 65.1857 96.5463 70.1387 97.7841 74.4726C97.7841 74.5168 97.8283 74.5168 97.8283 74.561C97.6073 74.6495 97.3862 74.8264 97.2978 75.0917Z" fill="white"/>
<path d="M166.306 14.2848C165.599 13.0465 164.14 12.3832 162.549 12.7812C160.117 13.4003 159.101 16.1864 160.383 18.2207C161.62 20.2107 164.671 21.5374 166.837 20.1665C169.047 18.7956 169.401 14.9039 166.395 14.2406C166.395 14.2848 166.351 14.2848 166.306 14.2848ZM165.378 18.6629C164.184 19.0167 162.681 18.2207 162.018 17.2035C160.559 14.9924 164.096 13.4003 165.157 15.0366C165.113 15.3462 165.201 15.6557 165.466 15.9211C165.511 16.2748 165.82 16.4075 166.13 16.4075C166.837 17.1151 166.351 18.3533 165.378 18.6629Z" fill="white"/>
</svg>
