<svg width="106" height="105" viewBox="0 0 106 105" fill="none" xmlns="http://www.w3.org/2000/svg">
<path d="M40.4018 24.6614C40.7002 28.1137 42.2345 31.9497 45.8147 33.143C49.2244 34.2938 52.8899 32.5037 54.8078 29.6481C58.5585 24.15 58.3028 15.0716 56.47 8.89156C56.2996 8.29486 55.3619 8.55059 55.5324 9.14729C56.7684 14.4749 56.5979 20.8255 54.6373 25.9401C53.5718 28.7957 51.6538 31.1825 48.4573 31.6513C44.1951 32.248 41.6805 28.1564 40.8707 24.5762C40.8281 24.3204 40.4018 24.3631 40.4018 24.6614Z" fill="#2D3963"/>
<path d="M62.0107 55.8176C60.4763 62.5091 57.8764 69.158 54.1684 74.9545C53.8274 75.466 54.6799 75.9774 55.0208 75.4234C58.8141 69.5416 61.2009 62.7648 62.5222 55.9454C62.5648 55.6471 62.0533 55.4766 62.0107 55.8176Z" fill="#2D3963"/>
<path d="M62.309 65.1943C60.6894 71.6301 57.2797 77.5544 53.8274 83.1804C53.4438 83.7771 54.3815 84.2886 54.7651 83.7345C58.4731 78.2364 61.6697 71.9284 62.7779 65.3221C62.8205 65.0664 62.3943 64.8959 62.309 65.1943Z" fill="#2D3963"/>
<path d="M63.3747 73.7185C62.778 75.8922 61.7977 77.8954 60.6043 79.856C59.4961 81.6461 58.047 83.2657 57.1093 85.0984C56.7684 85.7803 57.6208 86.5049 58.1749 85.9508C59.8371 84.2886 60.9879 81.9444 62.0108 79.8986C62.9484 77.9806 63.8009 75.9774 63.9714 73.8037C63.9714 73.4628 63.4599 73.4201 63.3747 73.7185Z" fill="#2D3963"/>
<path d="M60.86 54.3258C60.3485 55.3061 59.7518 56.2438 59.1125 57.1388C58.8568 57.4798 59.4535 57.8208 59.6666 57.4798C60.2633 56.5422 60.8174 55.6045 61.3288 54.6242C61.5419 54.2832 61.0305 54.0275 60.86 54.3258Z" fill="#2D3963"/>
<path d="M89.3737 80.9641C84.2591 84.3738 78.5053 86.1213 72.5383 87.3999C66.2303 88.7212 59.8798 89.7441 53.4013 89.7867C52.3784 89.7867 52.421 91.2785 53.4013 91.3637C59.9224 91.9178 66.9123 90.1277 73.2202 88.6359C79.0167 87.2721 85.1116 85.3967 89.672 81.3903C89.9704 81.1772 89.672 80.7936 89.3737 80.9641Z" fill="#2D3963"/>
<path d="M13.4652 87.1016C17.1306 90.426 22.1172 91.5342 26.763 92.7702C33.1988 94.5177 39.6346 95.9242 46.1556 97.1602C46.9228 97.3307 47.3064 96.1373 46.4966 95.9242C40.4018 94.5177 34.2217 93.4521 28.1695 91.9604C23.3107 90.767 17.8551 89.9572 13.8914 86.6754C13.593 86.4196 13.1668 86.8032 13.4652 87.1016Z" fill="#2D3963"/>
<path d="M20.1567 82.7116C21.7763 87.2295 23.8647 91.4063 27.7859 94.3046C28.5104 94.816 29.1924 93.6226 28.4678 93.1112C24.7598 90.5113 22.6287 86.4623 20.7534 82.4559C20.6255 82.1149 20.0288 82.328 20.1567 82.7116Z" fill="#2D3963"/>
<path d="M26.9761 85.3541C27.7006 89.0195 29.7891 92.003 32.1759 94.7734C32.7726 95.4553 33.7529 94.475 33.1988 93.7504C31.0677 91.0653 28.9793 88.3802 28.1695 85.0131C27.999 84.2033 26.8482 84.5443 26.9761 85.3541Z" fill="#2D3963"/>
<path d="M32.8152 87.8688C34.0086 91.1932 35.6708 94.262 38.4838 96.4356C39.1657 96.9471 40.1034 96.0521 39.4215 95.498C36.8642 93.4095 35.0315 90.6392 33.7528 87.613C33.4971 87.0163 32.6021 87.2295 32.8152 87.8688Z" fill="#2D3963"/>
<path d="M41.3821 92.0883C44.4509 94.475 47.9884 95.7537 51.526 97.2454C52.2932 97.5864 52.8898 96.2225 52.1227 95.8815C48.713 94.4324 45.1754 93.2816 42.0641 91.2358C41.5526 90.8522 40.8707 91.7047 41.3821 92.0883Z" fill="#2D3963"/>
<path d="M54.7226 95.9668C62.0534 97.9699 69.7679 98.1404 77.3118 98.1404C78.2921 98.1404 78.2921 96.6061 77.3118 96.6061C69.8957 96.5634 62.2665 96.6061 55.0209 94.816C54.2964 94.6455 53.998 95.7536 54.7226 95.9668Z" fill="#2D3963"/>
<path d="M39.1657 98.1831C37.0347 98.9077 34.8183 99.206 32.602 99.547C32.0906 99.6322 32.3037 100.442 32.8151 100.357C35.0315 99.9732 37.2051 99.6748 39.3362 98.865C39.7198 98.6946 39.5493 98.0552 39.1657 98.1831Z" fill="#2D3963"/>
<path d="M40.9133 51.0866C40.7428 62.5944 41.4674 74.0595 42.9591 85.482C43.0443 86.1639 44.1525 86.2065 44.0673 85.482C42.7034 74.0595 41.851 62.5944 41.5526 51.0866C41.5526 50.6604 40.9133 50.6604 40.9133 51.0866Z" fill="#2D3963"/>
<path d="M40.7854 52.2374C35.6283 55.0078 31.0252 58.5028 26.4647 62.1682C26.0385 62.5092 26.6352 63.0632 27.0188 62.7223C31.5366 59.1421 36.0971 55.6471 41.0838 52.7489C41.4248 52.5358 41.1264 52.0243 40.7854 52.2374Z" fill="#2D3963"/>
<path d="M37.8445 11.4915C36.5232 18.4388 35.0741 27.6449 40.0608 33.5267C42.4902 36.3823 46.2835 38.3003 50.0768 37.5757C53.8275 36.8937 56.7257 33.9103 58.5158 30.7137C62.0534 24.2352 61.6272 15.6684 58.6011 9.1047C56.1716 3.86229 49.4375 -2.23255 43.3853 1.56074C38.1428 4.84258 36.9921 13.1963 36.9495 18.865C36.9495 19.6748 38.2707 19.9305 38.3986 19.0781C39.1232 14.5602 39.8477 9.65878 42.4902 5.78024C46.113 0.452587 52.3784 3.60656 55.1914 8.08179C58.3027 13.0259 59.1551 19.8026 57.7486 25.4286C56.9388 28.7105 55.1487 32.1202 52.2079 33.9955C48.9687 36.0839 45.2606 35.1889 42.4902 32.6742C36.7364 27.3892 39.0805 18.4388 38.6117 11.6194C38.5691 11.1931 37.9297 11.0227 37.8445 11.4915Z" fill="white"/>
<path d="M59.3256 93.8783C50.7587 90.9801 42.405 87.7835 34.52 83.3509C28.5531 79.9838 20.7534 75.2955 13.7635 78.3216C8.81942 80.4953 5.15401 86.5049 10.3964 90.5539C15.4683 94.475 23.1828 94.9439 29.3202 95.498C33.3693 95.8815 37.4609 96.0094 41.4673 96.734C46.4966 97.629 51.4407 98.9929 56.5978 99.0781C58.0043 99.1208 58.0043 96.9045 56.5978 96.9045C49.3522 96.8192 42.2771 94.5177 35.0315 93.921C28.8514 93.4521 22.5009 93.1112 16.5765 91.2358C14.1045 90.4686 10.1407 89.1048 9.79971 86.0787C9.50136 83.223 12.6553 80.9215 14.9995 80.0264C21.7763 77.4265 29.6186 83.0525 35.2872 86.1213C42.6607 90.1277 50.6735 93.4521 59.0272 94.6455C59.6239 94.7734 59.8371 94.0914 59.3256 93.8783Z" fill="white"/>
<path d="M45.8573 90.0851C49.3523 90.2982 52.9324 88.7638 56.1716 87.6557C59.9223 86.377 63.7156 85.0984 67.5089 83.8624C72.7087 82.2002 77.9937 80.7937 83.2788 79.4298C84.6426 79.0888 91.7604 76.9151 91.6752 79.6429C91.5899 82.0723 89.0326 84.3738 87.1999 85.6099C84.7705 87.2721 81.9575 88.3376 79.1871 89.1474C72.0267 91.2359 64.1844 92.2588 56.7683 92.7276C55.4897 92.8128 55.4897 94.7308 56.7683 94.7308C64.2271 94.5603 72.0268 93.5374 79.2297 91.6194C84.7705 90.1277 91.2489 87.4426 93.5505 81.7313C95.2127 77.5544 92.1866 75.7217 88.3507 76.1053C83.8754 76.5315 79.5281 78.1511 75.2233 79.3445C65.2073 82.1149 55.7454 86.5475 45.7721 89.531C45.4311 89.6162 45.4737 90.0851 45.8573 90.0851Z" fill="white"/>
<path d="M14.5733 74.8693C18.2387 73.1218 20.6681 69.2006 22.9271 66.0041C25.0155 63.0632 27.0187 60.1223 29.0645 57.1388C32.9857 51.4276 37.2904 45.418 43.3853 41.7952C49.0965 38.4281 56.9814 37.7462 62.1386 42.5624C66.4434 46.5688 68.4039 52.4931 71.6005 57.3093C76.1184 64.1287 83.9607 67.922 90.6522 72.1841C92.1014 73.1218 93.4226 70.8202 92.0161 69.8826C85.6229 65.5352 77.9937 62.2534 73.689 55.5618C70.4071 50.4473 68.2761 44.2672 63.5451 40.2182C58.5158 35.8708 51.2276 35.5299 45.2606 38.0019C38.6543 40.7296 33.8807 46.4835 29.8317 52.1948C27.5728 55.3914 25.4844 58.6732 23.3107 61.9124C20.3698 66.1745 17.1306 70.1809 14.1897 74.4431C13.9766 74.6988 14.3176 74.9971 14.5733 74.8693Z" fill="white"/>
<path d="M62.096 55.2635C65.5484 60.4206 68.8728 65.663 73.5612 69.8399C75.7775 71.8431 78.2495 73.0791 80.892 74.4004C83.6624 75.7643 87.1147 77.8953 90.2687 77.8527C91.6325 77.8527 91.8883 75.8495 90.6097 75.4659C84.941 73.7185 78.8036 71.5022 74.3283 67.4958C70.0662 63.7025 66.2303 59.2699 62.6501 54.8799C62.3518 54.5815 61.8829 54.9225 62.096 55.2635Z" fill="white"/>
<path d="M39.4215 53.2603C35.2446 58.8011 30.1727 63.7878 25.527 68.9449C23.9926 70.6498 22.5435 72.3972 20.8812 73.9742C19.9862 74.8693 19.0059 75.7217 17.9404 76.361C17.0027 76.9151 16.1503 77.0003 15.4683 77.8954C15.17 78.279 15.3831 78.9609 15.8093 79.174C17.642 80.1543 19.9436 78.1085 21.2648 76.9577C23.3533 75.1676 25.0581 73.0366 26.8056 70.9481C29.1924 68.1351 31.5792 65.3221 33.8807 62.4665C36.097 59.6535 37.9724 56.6274 39.9756 53.6439C40.2313 53.2177 39.6772 52.8767 39.4215 53.2603Z" fill="white"/>
<path d="M62.0108 94.5176C64.8238 94.6455 67.7647 94.9865 70.5777 95.3275C73.2202 95.6258 76.843 95.9668 78.6757 98.1831C78.5905 97.6716 78.5479 97.1602 78.4626 96.6061C75.7349 100.655 70.4498 99.8453 66.3156 98.9929C64.1419 98.5667 62.0108 97.97 59.8371 97.5864C58.1749 97.288 55.916 96.734 54.2964 97.4159C53.444 97.7569 53.2735 99.0781 54.2964 99.3338C56.4701 99.9305 58.8995 99.9305 61.1584 100.442C63.6731 100.996 66.1451 101.635 68.6598 101.976C73.3055 102.616 77.8659 102.019 80.6363 97.8847C80.9773 97.3733 80.8068 96.734 80.4232 96.3077C78.4626 93.9636 74.712 93.4947 71.8563 93.2816C68.404 93.0259 65.25 93.4095 61.9256 94.0062C61.6698 94.0914 61.7551 94.5176 62.0108 94.5176Z" fill="white"/>
<path d="M36.438 96.1799C32.4743 95.5832 27.3597 97.4585 24.8024 100.57C24.3336 101.167 24.4188 101.806 25.0155 102.275C28.7236 105.088 33.7955 104.15 37.9298 102.999C40.487 102.275 42.9591 101.38 45.4737 100.527C47.4343 99.8453 50.1194 99.547 51.9095 98.4814C52.5915 98.0978 52.5062 96.8618 51.6964 96.6913C49.9063 96.3504 47.8179 97.3307 46.1557 97.8847C43.8541 98.6519 41.5952 99.5043 39.2937 100.229C35.2446 101.508 29.9596 103.212 26.1663 100.399C26.2516 100.953 26.2942 101.55 26.3794 102.104C28.8941 98.9503 32.7726 97.8847 36.4807 96.8192C36.7364 96.7766 36.779 96.2651 36.438 96.1799Z" fill="white"/>
<path d="M14.5733 73.548C12.7832 71.9284 10.8227 70.4793 9.1178 68.7744C8.81945 68.4761 8.18013 68.3056 7.79654 68.604C5.49499 70.3514 2.76724 72.2694 1.01977 74.6136C0.0394771 75.9774 0.209962 77.2987 1.65908 78.2364C5.62286 80.7936 13.1668 80.5805 17.088 78.0659C17.8552 77.5544 17.3863 76.361 16.4487 76.6167C12.6554 77.5544 9.28828 78.6626 5.3245 77.6823C4.7278 77.5544 2.80985 77.2134 2.59674 76.6167C2.17053 75.6791 3.27868 75.0398 3.87538 74.4857C5.45237 73.0366 7.15722 71.7153 8.86207 70.4367C8.43586 70.394 8.00964 70.3088 7.54081 70.2662C9.41615 71.971 11.5898 74.0595 14.2324 74.2726C14.6159 74.3152 14.829 73.8037 14.5733 73.548Z" fill="white"/>
<path d="M90.8227 76.7873C92.485 78.5347 95.4684 78.4495 97.6847 78.279C100.285 78.1085 103.098 77.7249 105.442 76.6168C105.74 76.4889 106.039 76.0201 105.996 75.6791C105.57 71.8006 101.521 68.5187 98.8781 65.9615C97.3864 64.5123 96.0651 64.6828 94.5308 66.0467C93.1243 67.3253 91.2489 69.4138 91.3342 71.417C91.3768 72.5251 92.7833 72.6104 93.1669 71.6727C93.7636 70.2662 94.4029 68.8171 95.5963 67.8368C96.6618 66.9844 96.9176 67.027 97.77 67.922C98.1536 68.3482 98.5372 68.7318 98.9208 69.1154C100.37 70.5219 104.121 73.0792 103.78 75.3807C104.035 75.125 104.291 74.8693 104.547 74.6136C102.117 74.9545 99.7732 75.7217 97.3011 75.9348C95.2127 76.1053 93.039 75.7217 90.9932 76.0201C90.6949 76.0627 90.6096 76.5741 90.8227 76.7873Z" fill="white"/>
<path d="M5.79328 73.8464C6.30473 73.7185 8.35056 73.5907 8.47842 74.2726C8.60629 74.8267 7.88172 74.784 7.58337 74.6988C7.11454 74.5283 6.47522 74.1021 6.30474 73.5907C6.00639 72.6956 4.51465 73.0792 4.85562 73.9742C5.49494 75.8496 9.33084 77.6823 10.0554 74.8693C10.3111 73.7185 9.67181 72.8661 8.56366 72.653C7.58337 72.4825 6.56046 72.6956 5.66542 73.0792C5.15396 73.2923 5.32444 73.9742 5.79328 73.8464Z" fill="white"/>
<path d="M100.54 70.2236C99.688 69.5417 98.3241 69.2433 97.3012 69.7122C96.1078 70.2663 95.8094 71.8432 96.2783 72.994C96.7897 74.3153 98.4946 74.6562 99.4749 73.676C99.9011 73.2497 100.242 72.6957 100.54 72.1842C100.839 71.6728 101.308 70.9482 101.137 70.3515C100.967 69.7974 100.413 69.6269 99.9011 69.84C99.347 70.0958 99.0486 71.1613 98.7077 71.6728C98.5798 71.8859 98.3241 72.3547 98.111 72.4399C98.2815 72.3973 98.0683 72.4399 97.9831 72.3973C97.9405 72.3547 98.0257 72.4826 97.9405 72.3547C97.5995 71.8432 97.9831 71.2892 98.4093 71.0334C99.006 70.7351 99.6879 70.7777 100.285 70.7351C100.54 70.7777 100.796 70.4367 100.54 70.2236Z" fill="white"/>
<path d="M38.4839 54.7095C39.1658 57.011 38.6118 59.483 38.3987 61.7846C38.1429 64.4271 38.3134 67.1123 38.3987 69.7548C38.4839 72.6104 38.5691 75.5086 38.6544 78.3643C38.697 80.9642 38.6544 83.6067 39.3363 86.1213C39.7625 87.6557 41.9362 86.9738 41.6805 85.482C40.7428 79.6429 40.8707 73.5907 40.4871 67.6663C40.3166 65.0664 40.2314 62.5092 40.274 59.9093C40.274 57.9487 40.1887 56.116 39.1232 54.4537C38.9101 54.1128 38.356 54.3259 38.4839 54.7095Z" fill="white"/>
<path d="M62.2238 53.6439C61.6697 58.4601 62.4796 63.532 62.8205 68.3908C62.991 70.7776 63.1189 73.1644 63.2041 75.5512C63.2893 77.8101 63.1189 80.1117 63.5025 82.328C63.7156 83.564 65.804 83.564 65.9745 82.328C66.6564 77.7675 65.6335 72.5677 65.1221 68.0072C64.568 63.2337 64.3123 58.1617 62.9484 53.5587C62.8205 53.1324 62.3091 53.2603 62.2238 53.6439Z" fill="white"/>
</svg>
